<mxfile host="app.diagrams.net" modified="2020-09-11T09:24:32.736Z" agent="5.0 (Windows NT 10.0; Win64; x64) AppleWebKit/537.36 (KHTML, like Gecko) Chrome/85.0.4183.102 Safari/537.36" etag="KXwImu1coYCJSfytfT8Y" version="13.6.9" type="github">
  <diagram id="9uWcWptRI3SpiqdUK3LA" name="第 1 页">
    <mxGraphModel dx="1038" dy="548" grid="1" gridSize="10" guides="1" tooltips="1" connect="1" arrows="1" fold="1" page="1" pageScale="1" pageWidth="827" pageHeight="1169" math="0" shadow="0">
      <root>
        <mxCell id="0" />
        <mxCell id="1" parent="0" />
        <mxCell id="REj6nJelkutOHJJyov5u-1" value="" style="line;strokeWidth=2;html=1;" parent="1" vertex="1">
          <mxGeometry x="140" y="270" width="480" height="30" as="geometry" />
        </mxCell>
        <mxCell id="REj6nJelkutOHJJyov5u-2" value="" style="line;strokeWidth=2;direction=south;html=1;" parent="1" vertex="1">
          <mxGeometry x="368.13" y="90" width="18.75" height="300" as="geometry" />
        </mxCell>
        <mxCell id="REj6nJelkutOHJJyov5u-3" value="&lt;font color=&quot;#000000&quot;&gt;积分中&lt;/font&gt;" style="text;html=1;align=center;verticalAlign=middle;resizable=0;points=[];autosize=1;" parent="1" vertex="1">
          <mxGeometry x="90" y="275" width="50" height="20" as="geometry" />
        </mxCell>
        <mxCell id="REj6nJelkutOHJJyov5u-4" value="&lt;font&gt;积分后&lt;/font&gt;" style="text;html=1;align=center;verticalAlign=middle;resizable=0;points=[];autosize=1;fontColor=#000000;" parent="1" vertex="1">
          <mxGeometry x="630" y="275" width="50" height="20" as="geometry" />
        </mxCell>
        <mxCell id="REj6nJelkutOHJJyov5u-5" value="&lt;font color=&quot;#000000&quot;&gt;展示（静态）&lt;/font&gt;" style="text;html=1;align=center;verticalAlign=middle;resizable=0;points=[];autosize=1;" parent="1" vertex="1">
          <mxGeometry x="332.51" y="60" width="90" height="20" as="geometry" />
        </mxCell>
        <mxCell id="REj6nJelkutOHJJyov5u-6" value="&lt;font color=&quot;#000000&quot;&gt;操作（动态需要交互）&lt;/font&gt;" style="text;html=1;align=center;verticalAlign=middle;resizable=0;points=[];autosize=1;" parent="1" vertex="1">
          <mxGeometry x="307.51" y="400" width="140" height="20" as="geometry" />
        </mxCell>
        <mxCell id="REj6nJelkutOHJJyov5u-7" value="扫码开箱（小程序）" style="text;html=1;align=center;verticalAlign=middle;resizable=0;points=[];autosize=1;fontColor=#000000;" parent="1" vertex="1">
          <mxGeometry x="220" y="290" width="120" height="20" as="geometry" />
        </mxCell>
        <mxCell id="REj6nJelkutOHJJyov5u-8" value="积分账户&lt;br&gt;（小程序）" style="text;html=1;align=center;verticalAlign=middle;resizable=0;points=[];autosize=1;fontColor=#000000;" parent="1" vertex="1">
          <mxGeometry x="390" y="245" width="80" height="30" as="geometry" />
        </mxCell>
        <mxCell id="REj6nJelkutOHJJyov5u-9" value="商品兑换&lt;br&gt;（小程序）" style="text;html=1;align=center;verticalAlign=middle;resizable=0;points=[];autosize=1;fontColor=#000000;" parent="1" vertex="1">
          <mxGeometry x="390" y="305" width="80" height="30" as="geometry" />
        </mxCell>
        <mxCell id="REj6nJelkutOHJJyov5u-10" value="账号积分统计" style="text;html=1;align=center;verticalAlign=middle;resizable=0;points=[];autosize=1;fontColor=#000000;" parent="1" vertex="1">
          <mxGeometry x="503.44" y="254" width="90" height="20" as="geometry" />
        </mxCell>
        <mxCell id="REj6nJelkutOHJJyov5u-11" value="社区管理" style="text;html=1;align=center;verticalAlign=middle;resizable=0;points=[];autosize=1;fontColor=#000000;" parent="1" vertex="1">
          <mxGeometry x="515" y="213.85" width="60" height="20" as="geometry" />
        </mxCell>
        <mxCell id="REj6nJelkutOHJJyov5u-12" value="商品管理" style="text;html=1;align=center;verticalAlign=middle;resizable=0;points=[];autosize=1;fontColor=#000000;" parent="1" vertex="1">
          <mxGeometry x="515" y="295" width="60" height="20" as="geometry" />
        </mxCell>
        <mxCell id="REj6nJelkutOHJJyov5u-13" value="" style="shape=image;verticalLabelPosition=bottom;labelBackgroundColor=#ffffff;verticalAlign=top;aspect=fixed;imageAspect=0;image=data:image/png,iVBORw0KGgoAAAANSUhEUgAAAggAAAF2CAYAAAALPGBPAAAgAElEQVR4Xuy9aZBk6XUddt6WW2XWXtXVtfS+zHRPz0z3LJjpBjAgCW4AZgEIcYEsWpQdkumwf9gOWWH7n8MOR1h2yKRCClOWw6KCFHeKtElBkEBAAEFiGywEScyCmd6X2tesXN7qOPd7X9arrKrurK6q7prpLzsysroq872X573Me757zz3XWllZSWBuBgGDgEHAIGAQMAgYBDIIWMvLy4lhCOaaMAgYBAwCBgGDgEEgi4A1OTOTRFFkUDEIGAQMAgYBg4BBwCDQQsC6cvNmEoShgcQgYBAwCBgEDAIGAYPAGkF498aNxPd9A4lBwCBgEDAIGAQMAgYBQxDMNWAQMAgYBAwCBgGDwNYIWCaDYC4Pg4BBwCBgEDAIGATaETAEwVwTBgGDgEHAIGAQMAhsQMC6fPOm0SCYC8MgYBAwCBgEDAIGgXUIGIJgLgiDgEHAIGAQMAgYBDZmEK7cumUyCObCMAgYBAwCBgGDgEFgfQaBBKHZbBpYDAIGAYOAQcAgYBAwCLQQMCUGczEYBAwCBgGDgEHAIGBKDOYaMAgYBAwCBgGDgEHg3giYDMK9MTLPMAgYBAwCBgGDwCOHgCEIj9wpN2/YIGAQMAgYBAwC90bAMiLFe4NknmEQMAgYBAwCBoFHDQGTQXjUzrh5vwYBg4BBwCBgEOgAASEIQRB08FTzFIOAQcAgYBAwCBgEHhUEpMTgGx+ER+V8m/dpEDAIGAQMAgaBjhAwJYaOYDJPMggYBAwCBgGDwKOFgMog+P6j9a7NuzUIGAQMAgYBg4BB4K4IGIJgLhCDgEHAIGAQMAgYBDYgYEoM5qIwCBgEDAIGAYOAQWAjQTAlBnNVGAQMAgYBg4BBwCDQjoBpczTXhEHAIGAQMAgYBAwCm5cYjA+CuTIMAgYBg4BBwCBgEMgiICJFQxDMRWEQMAgYBAwCBgGDwDqCcPX2bdPmaK4Jg4BBwCBgEDAIGATWIWBdu3U7aRofBHNZGAQMAgYBg4BBwCCQQcC6cdNkEMwVYRAwCBgEDAIGAYPAegQMQTBXhEHAIGAQMAgYBAwCGxAwBMFcFAYBg4BBwCBgEDAIGIJgrgGDgEHAIGAQMAgYBO6NgMkg3Bsj8wyDgEHAIGAQMAg8cggYgvDInXLzhg0CBgGDgEHAIHBvBAxBuDdG5hkGAYOAQcAgYBB45BAwBOGRO+XmDRsEDAIGAYOAQeDeCAhBMFbL9wbKPMMgYBAwCBgEDAKPEgLWzVt3jNXyo3TGzXs1CBgEDAIGAYNABwgYgtABSOYpBgGDgEHg/YBAso03YW3jueap708EDEF4f55X864MAgYBg8AGBGILSDqM/HYCWNthFAbv9x0ChiC8706peUMGAYOAQWBzBAxBMFfGdhAwBGE7aJnnGgQMAgaB9zACWYKQJAksS6UT+LO+6d/tVQaB++Ldtu33MJKPxqEbgvBonGfzLg0CBgGDANozCCQDOmATHk0O+PNuEwS9H+6DnXOe58kZye7TnKL9hYAhCPvrfJijMQgYBAwCe4IAcwTUH2gNAgNzFEVyR5LA9TwJ1jqX4NynBiErW8jKHcIwRLPZhGPZiKIQxWIJlmMbgrAnZ3t3NmoIwu7gaLZiEDAIGAS2RoCBeYu/bksIKBE3yWwske1aWAvF8hsG97R8IEE/jhEnCcIoRNNvotloolarYbVWQ71eQxjHOHX6NLoqZSS22pYbAU6bopH/jVvvYxMqwJemh8cfHV2+4PuPY/h+ACzV4Ncb6B7oQ5L3kOQd2aaVZN+F2ol+u+bSejgIWLduTxofhIeDvdmrQcAg8Igg0L5612+b5ICp/M5ua0v6rGagtS3LQhzHKguQJAiavpAAIQKrq3Kv1+toNBrwm000fV9W9Pz/5Mw0nnjyHJ79wPPo6e+TLIMXAW47QQCkTKFv+tAZ2iljIDnh/uMoRhxHQMzQrygF/873W1wNsTQ7h3xPBbneMpJiDkESw7addUSHr7HjlCR0BpB51i4jYAjCLgNqNmcQMAgYBNoR2IogMGpKEExX+yqQbmQM6u8Mv4oAyM8MyMwKhKEEfk0EVlZWUK1W0ajV4fu+1Pv1neUEkgi+znG4voeUGN55910eBM499SQuXrqEg6MHwXBN8qLFjPq4bJIB2X+CJFbHSh7A7Uq5ItUVWLaFxErAx5bw0bKQi4DV5Spsx0FoxSiWu2C5LiLL3sAGDEF4uJ8lQxAeLv5m7wYBg8AjgMDdMggMxDpoEwoduDUs+m9ckQehL8Gf96WlJXkkOWAmgHeSBd6jMFxXZtiadCiC8O4774DEolgo4tSpU/jISy/hyNGjcDxXtqezEjwWSHZA3UkqWFJgR4JtOfIohIDFAf6JHCTNOLQ6JsJIjrmQLyAIlVjRNgRhX34KDEHYl6fFHJRBwCDwfkJgywxCnMCK11r+GMgZeBmUmfonAVhcXMQiycDKCuqNVckKMKjzuSojwNerVbpewcsqPqND0Kt6nTFgRoHb1yWG+dk5REEgGYOc4+LQxAQu/tBLOHryxLpuA9E7ODZc14HFFX/rZsG2KDi017dM2klGHaGezPJDvVZDoVREzONmuyN1D/FGDYLJIDzcT4EhCA8Xf7N3g4BB4H2AwGYr9HVvS7oHmHJXC2pdHoijCEGjKfoAlghIBubmZmU132g0pTRgkTSkZQem7LlkJxnQRQcRBSaqbMBVvJIt8mmxBGNNBhosQ9QbaDTVdkkmSES47SQI4VgW8o4HF8wGWOga7MOHf+SH8Mwzz6BYLKrMhgUElhZGypGkbzMjkkx3z9+4mWeoYwLiMBZhZKGriMi1EZEcJIBHkWKb5kFaLd8H18d79S0YgvBePXPmuA0CBoGHjoDu7c+aDnHprlf0esUuwdhXq/bqKrMCS1hYWMDK8nJLOBiGgepHEBJhwbUgLYHMMCBOECWAzxhNkiCEQQkAqQOIwhhRGCFsBmg2AtSCOurNJcRVH7U4RmAnyAUhothGkK78W5oClgdsG37Th+u6cBxb9AHMZHR1deGDH/wgPvShD6G7u1vt1lbahU5umwZ3EoQ0g8BsRKzesMp4dLJR85wHhoAhCA8MarMjg4BB4P2GQNZkSK/I2ePvB82WVoDZgJXlFckQcBXPtH67OVG7o6GdKOV/nIoBVQaB9f8mgjCGzxJBs4m6H6Lmx2g0A0R+mJKJGGFCsWCMUmShbiVYTSIU4QjpEOFgGolFM5D+R5cndCcE/8afC4UCnnzySXz0ox/FyMGDsKzOCcKm51sThK6ilBd0ZqXzbo7321W0f9+PIQj799yYIzMIGAQeAALrVv+bdBFkg7fuAmBqXncGaK0ACYASEK6gVldaAUnhp10DVP9re+H2koR+jtYVsGQgRCMM0AwD1KUtsYnQ9+H7IaKIWgXVPWAnERwrAYsLThRJWt+xIhTDOgpRgqptY8nNw3ErkhmAo46D2QJ9p1CQRIbCRyEmMdsOFXnQj0eOHMGP/fiP49ixE8jn8/K8duw6Ol0pQch3FWXbhiB0hNpDeZIhCA8FdrNTg4BB4GEjkG3fy5IALRTUGQESAQZ7rvzFWCj1FpBWwlTo12z6qu+fN1md63bEtG0xU5dfExeqtsAs2ZB9BT78ULUnUjgorYSxqvtzDyQAbhzBjRK4SYRCUkUeTXiIkUtC5JIEOStAT1xDAS7m82VMlw8gKo0hyZfhFHIiPOSdugLeSQimp6dx+/ZteQs6myDdCQziqQbi4MGDeOkjP4yzZ8+iUqnclwuilYoUc8UibMcQhIf9Objb/g1B2M9nxxybQcAgsGcIrLUPqpY9EgBtJMTAzzv/rwSELA00xAmQgVsZAikpADV27U6GCVSXATsMWqWHMEIQsA0xQOArIsBt6bZEChbpNshtRxZbCBPxDPCiBDkR8QVwUEXRitAVBSjFPooIUbAbyFs+coiRR4B8EktGQY4r9jBVHsHs2FNo9p5G7Diw7DUzJQ0ujyFLEHQWQfgOBZFpJoHvp39gEM8995yIF4eGhoRg3FOkmTmLhiDs2SW96xs2BGHXITUbNAgYBB4EAu1BKWs21D6EiDJ56d2PIqnfM/AzEyAEoLYqZIBdA/wdU/ktIpC2HSr7QEfYQJyq+BMrhoMIohdgyj9QQkE/8lGPmXHwEVIYyN/5IfwoQRDFSKIQFg2FxP44ErvAPFf9YYhcGEigd2wfntVEIYlQikOUaChkBShYK+CIo0LCbAHgSTnBh40ADrsYElViiGEhpBgxsTFZPozpwy9gte8EEtuWY9Y3jWGWIGSzKS2/g9SfQZEBoFwp4+zZJ/Diiy9gYnwCjuu1yhL3KjsYgvAgPh27sw9DEHYHR7MVg4BB4CEh0E4UdImAq3PtMFivVVuthLosoDUCuuVPv06vmvV2xTpYgi6JAPPvbAtMEDLohw00giaaAQkA/68eA2YDhAjEQiBsigUYvNO7FwXwkhieFSBnN1Fgx0ASosySQRwh38oKsGTgI2eFcElMpIOB/gMM/sqa2EIASwd9aRNkO6UNKxGagDvlo5iaeAGrg4eRWN6m1s7MckxNTUmJIUu0NEGQFsq03KD/TvHisWNHcenSB3Hi5OlWyUKLHLe6HAxBeEgflPvYrSEI9wGaeYlBwCCwewhkV5zZYN/JGGCdvmewz84cWF5eFkKgtQNxFLQMiHTQ06nz9tW0PgatFeA26n4VzWAVYSNG3ASSpoUwSOBbEQJEiEghkkjKAyQEbhTCjUPkYh+5JEABIYpxHSWwLMCOAmYDIhStEMWkCY/ZiCRUBMKitkBth6bGbGskDYhgocl5BUICSBIUGZDniMZBDy6gDbItGQWQIFSO4PahF1AdOgQLnsxXaG8nZAZhM4LArWZbObMlB/5MkePo6CguXfoQnnzqKWmLbO/QaL9SDEHYvc/OXm/Jun1nKiGDNjeDgEHAILCXCGQDR3Y/DNgUzDFIabKg1f7Z4M2/8btKdwtQcU8iwDv1A616vh5hnAa3mCt4qaWrrWUzA/qYeAzaUEg/MvugswsImTEIJJUeOcrcJ4wj2FYNbtxEMYjQ5YcohQkKVhM5exUFO0EJIUp2jIIVI28F8BDAi0PkE2YQqClIZzBbSnsgUkTqB+hRnHDKoY2Y7YZgDwRpQSi5DDXCUREHWwyG+MpQ+QlQYwAbRdsRq+Rb5WO4cvB5LPYfEuLgbTIc6m4EQZ8DPRqaxIqlBn2O+P+e3j5cvHhJ/BLY4aCsl3kwG50NkiBSPghdJREpig9CSnn28voz294+AkIQyJDNzSBgEDAI7DUCm4nZ2jMFeoXP4KxnDtBUiHeSAf6+XWDYHvj1+9BZgjjmbALlQMhgKFkB6hDSO0mHPjYRITLgZu5W4iH0IxTdCAWsouA0kEMDXVYTFUTosSxUYooHYxTgw7Mb7CaUTIITqzbExFbeBLLiZ3uiTEa0ENokAvwtPQrUkVsyxMBWPoTpCGUniVFMaLNMksD5Bwkc24JrWyh4NnIFC7mchVzRRt7Lo0i1guXhHe8YvpV/AneKo4gdahA2MoStSgztRE5jossNGvcoTuC6Hi5evIiPfexjKJfL6n1sQhCQtjkWu0qi6WCbozZK2uvrz2x/ewhYdyanDUHYHmbm2QYBg0AGgbsF/bXygVL0bygn0B2QbX2+LzbDzAoszC9gbn5e/AS0jwADkuO6siqlR0AYRi11vQ5SEoxkJb026dD3m6gxE9BstDQIOtOQXRnrbfD4mDbP9v/zZ9+x4Qc19EdVHAlncMpexmBSRzlRToeR5SOymkicCB5X6YEyE7L5L20TjC0fsUUlA8kApxd6SKwIsLhAYxZAvUI9KlYg1EEslBOxIu5ybBTyHvIFF/mCA88jGXDg0t7AYYkhAOxA8g0uDZVCD29bp/F67jzulA+LtbFFdtJ26ySDoF8iQ5rSmyZgJDLixugHOHHiBH72Z38Go6Nj6/bSEj+mGQQSBDopGh+E/ft1YgjC/j035sgMAvsWgWyQ0MG1fcW4VlJQ7XsM6uIlsLraygzMz89jeXlJOghIErJpa92JIJV2DvRpMzFKMlMFuQJm94F0I9QbqDfqYh2syxYisktT3jLoiKOJ2X1gWVLe0IFOBzFNEISYULnvsZpvwZ5bwOnVy3iuaxHFcAVOTO0AxYNrp0pNS+DxqnIBU/7SupiKB0VESH2AZcFNgHyYjkSWtDzvgOvEyOWAfN5GPu8gX/BQ8iyUxCFRZQBax9rKCKxlBtSMhBghPLztnMDX3DOY6j6MyOKkhY0ZhO0QBE0Is2Oj282kxsfH8fLLL4t4kSUHbbwkxy0+CHUYgrBvP95rBNCUGPb/STJHaBDYbwhkswbZOr709HMAUaaDoLqyJJkB3kkOdIlABxUGDwZh6RbIrE6zq3pd/9ZaARlvXKcvgTIwynYiyDo8tQnWPfrZwK9NgJgpYJDmeGJtGESywIDGey6nDIX4aOdsTM0vYPrNt/FY7V08X1pEKVwRwaBa8a+/sQVS9z6wbYA/0+Y4pQ1yfI5rI29ZKLkkAjl4rgcv5yFHEyMek003QzV0KUoCjkFEPuNHvFFqmCUpKgMRwsXbzvEMQaDI8f5KDHrrWRGnzgi1MglptwOf29vbh4/80A+LXwLFi61zkBIEahCIvSkx7LdP99rxmAzC/j035sgMAg8Egc1KBNkVantA0ASAwVkHaN1OSAJAnQC1A/rvDHDZ4UWaUGixmw7+3OfaPIM1h0FmBXRLIsmAtjtWLX7rRYfZVjxNOvhIMqDdA7ktEo18IQ83JQAkAdp2OJtNaOkQEGFyfh7T717Gqdq7+EBhHpWwSgsDddNOiWIqFMO1SXpIPCw4LkchJyi5CQquJaOSPY82xx5yToKcw9xCqjVI+xIkiEsgV+US3aHg6ExKdqebXCWSQUiY9WAGIUsQdi+DoAmcbmvUWReNGXHvKnfj2WefxQsvvNAyVUIUo1mvI1dSEyJNieGBfMzvayemi+G+YDMvMgi8PxDYjBzo3+lgLav1pkrfZ0V9ekRxVu2f3V4rYMR0FVyrWzOgaFKgBYPabpjBW8840OUBncpulRz0fICEdXdlFazvesYAyQADvi4RZGcgcLulUgnFUmnT8YHt7Y8qEIaYmpvHrSuXcXz1B7iYm8NAuCrB3XXU9Ea1bw956gQcCgZduB5LFCQKkNW/y/q/dCComoQ0L4oGIf11a5muphtm2xmVYHGTdMVWBEEyCO0EwZEsRvttOyWG7Gt5vqVkk2YOZCS05kzkOLBkVPS5c+fw4osv4vChQ8g5rnQx5Eu0WnZMF8M+/ioxXQz7+OSYQzMI7AUC2XqxrE1FH6CU/dpimKp+3rX1cJ3kgC6DzaayBo7WiwTXgoIKYCqo07mQ2/YRMPDzdXrIUUjL4bWBR6IJaBO/SQBNyYDODLBGrzMCruPASwcOMdBQY0CtwroAn9b6szjy2EulIgqF4jrtgH7OZsp7K4kwNT+P61fexYnGZXzAmsSEE2CkFyjm2aa5RkY82MjFamyztCuw3CA/q5zHuvKM6BTWnA1bx5Awq5ASBOloSHsPNnnuZteI0iDsTYmhnSAIuUk7Ptq1HDFLMNRUuB5OnjwpJOGxkydltkSx3CWYiEml6to0t32GgCkx7LMTYg7HIHBvBBhU1p7V+nJm+Elbxlq9/qKFo2o+kaE/QRiI/S9HBQsBqNWUaHC1imZDZQr0XYiArP4lBMjr9fZZe1fdAur3UnaQbQdCBCQTIPcAUcjWvCgtDUSyVG5NL9QkIA3uDPoO+/fZjue48qhT//y9TBZMHf1EdJi+Xh2iCouq7KCOOX2CCj7EwQLCKESxqwuFYkEcB9tvmxEEOw4wObeId69fx+HGVbyAmzjh1nH8QB69ZYbvUGr7VB5YNCmSqKdKBK3IJ8e7cX9qDNP6GzUL6vWpa2LrhG/sQNgeQdh5iWHT/aW6Bl4PWpBo24rUiFyS0yEdB+NjY3jxuWdx5vEzGBw+IP6Pjqdsmjc6Jtz7k2CesbcImAzC3uJrtm4Q2H0EMm1qOrWb3Yn2EeBjrbrashvmOF+dFWBmQKfzdfDOig31drXYL1t2kDbBdGiR1iDorAIfGYCZOdDbU46A6iamRVTqp7oACvJ0WYDCQAZyIQmpaFERAq02uDeUfL3eV1Y7wdo9yQHDKzMVxUoXcoWCBPRObk5CgrCEt2/cxnjtGi7a13HcWsGJA3kMdTtwE1+sjdXQZTY3Ptzl8IPKIGjsslkRXgO6tLPZ3/srZZx/+mn88I/8KLoHBgBLD3t6uJh1ch08as+x7tAoyTgpPmrn3bzffYBAa5Uvvf3p6jxN12bLANl2P6U9Wz9KWKfq9eRBLRQkIaDSX4v8suZC7fvm//XYX70K1H4BWhOgtQZqDLEqM2S7DvT2CW2WYLAmzywAt98+ZljXrFu+AzIdMc2EtLU16u3ycbNVvpzSNIugyEgi+yvk8ihQhJjPS9ag4ftYbdRkcJEo6DsgCU6aQXj7xh2M1q7gRVzDCXsFx4byGO5xkZN5CBmCICTu4QW8vRQp3i2DkD1H+jxltSO8RtwkRldXCWfPPomPfPSjGJs4nJZdVEbqrud3H3xuH6VDsCanZoxR0qN0xs17fagIrKs/p1+GepWu67c66OovVv2lK4KwOEKjocoCvNNdkB0DvDOA65V8a/XOsCV6gM2DVSvVnySSXdBiRJIKTQy03qD15c06erpNTSx0R4IWCzIbwODM/xdznkr9ZwL/VgFeZwDaa9oag6xiXgcSvVolCWFGgvumMK5YKAoh4M8520XCTIRtYX5xEbcm76AZ0lRoTVR3twujnSC8EF/FCWcZ4z02Joa7NhKEzMTEh3HBqQzC3nQx3Ov9ZDM3uoV1LegnMrhKzJ8cD4ePHcNPfPxlnDhxUmZOZEnFvfZj/r73CBiCsPcYmz0YBFoI6MDX/kWoyYBWhfP/DPY6+IvDIO2GFxewuqocBnU//92yD3TUkzR96jGQbU0kGaChEI2FSAj4vFYLYRrMtfpf/14HY89xWz4B2jsgazik69BCCmItuLv3hZAtEUgWICUimoDwd3p/QgLSOycLsjOhkC8or4E2YySJPdJzD8wtLODmnVto0FJ5Ew3CZkfJEsPU/BLeun4HY7UrIEE4bq9grJLg0IEu5Nmq2CoxsFOgM63AvRG5v2dsXmI4hJBGSTv0QbjXEWXJqCa7+hoUC6mUILAUEyYJ+gaG8NonP4Wnnjon15Qmgffaj/n73iNgCMLeY2z28D5HQIvM0q58lVjO9MVn374mCOqR7X68h2g2fSEDtdUaVqormJudxfLKsjgM8u+s6YscnGY7tqX8+NOygOw/1cNpMSJ1AOwY8BtNESSSDDBDEFE/wNIAXQjT1kNqAsTyll0EorRXgTnrHyB+AWwdlPZBDzmaDG2SnNfSPCVmVEOELN2d0FIPttf90/UuOxZSbwMKEaU8UFAZAAb+XD6HErMBhTzyuTyoK1DdC7a8lzhS3QCyjbRsI8FKl29SkWKWIHSaQaBIcWpuESwxjNSupQRhGQdLMQ6PlFDyOFGR0xypQdivBGF3nBTv9XFuz5Lp/wtJ4PkRQaLMvUzLPA76BwbwqU99EufPn99glnWv/Zm/7x0ChiDsHbZmy+87BDKK9Mx727RuSqU+V5SpqlubC0kHQb0u5QFqBJgZ4KM2FmJmQGcXso96d3pfemWtHQSFDDSVqyCzAdpdMKFgjASAGYkoSrMJjN1pOpcZBukYYFCzlIOgqzwE6OpHMtA+WXGr0yqb1DXkTEmBOGjXPz5Fm/2IODFtD9RZgVwuLyRAsgGFgipTuE7LSIjvJcO/NhzKVpJDKYmkw5DmFhdw/dZN+MS64xJDjOm5eREpdvtzOBdcw3lrCiP5EIeGK+gp0bOQQ55IEFzxN3iYt61FinvTxbDVe81er0Le2KZKgqB8nJA4ql+j0t2NT3z8VVy6dOlhwmb23YaAIQjmkjAIdIyAblvb+ALdOSAzAZpqroBetXPlTkJAMlBdUVmCWNoH13QBrWxAutrV5jM648D/Z02ESAw0GdADjTg0iMK8rHbBS8kBj1iP6F1z8qOb35rDIF18td9ANtOxpSCw/ctEZxTS1spsT3yOxIMzD2xLVv90MdSWxqViSVLLzE60OhAkmFiKZOn2Si1O7KzxYO3oCDMHRTEoscSQIQidlxgSzMzN450bt1H25/GEEIRJHPACTAxX0F+OMgSBhGYfiBRFg7D7Vssdf1zaRKa63MBx05sRhJc/8ZpMgzS3/YOAIQj751yYI3kICLSr+bOH0G4oJF4AiFvGQjpIZ4kAV+/MCPCebSVsBej0mzErROTftGth1rRIdydoXwJtN5wVFvJnWWXT2z/1Cci6B+YdRQBa5kLSTaAnAqwH3LXsLcWMsmrPKMyzugetD9AiQelWYBkin5PALyLBXK4130BPS9TbEJxlCmO7h8HaqOPWkUrlYpsMQQjCZhmEiIyoo6uOq15mEEgQuoQgXMV5TGHQaeDQgQoGK8wbBABcKTFYlsoEPazbg+5iuFcGQf+dZI9YskzWnkEwBOFhXS1b79cQhP13TswRPUAE2ssDWfU8f862ENbrNdTqyldA35kZyKb0teJfj/jNvhW97ThcmzOgOwX4qAWEmghk2wjb0/w6SPL4GHDzuRx6untaGQHpJrAdeJsGwDQT0p4BiNcyGutq+Gn2QbciasKRHWgk2YCcIgRCDiQj4MoxZG2WLSkR6P1sM9Df73WR6hA2LTHweDogHO0E4WzzCs7bU+hP6hgfLuFgnwNXSEFKEPZNieHeVstaGDs1NYXbt29vn4Bt57yIcWSodCEkCTadFC0pMRiCsB0gH8xzDUF4MDibvTxkBLSQb7PVpyICDNoqbV+trqJWU22E2mpYLIibrO0rgyHW81XPvWqdaw+o+ktXjIPCEE0OHKJ/QBiJeFBrBDRBIDxZT4E11bcCjtvPzisxfeQAACAASURBVBbQw4WoXeA2mKY/MDwsz2mVLqjk1xa264JgS9G4vlc/5kwBu3XX5QchAvQQ0CQgn2+5G+qZB2JsJG9ifdkkW+7gnzvVM+zq5ZLaAO+EIFBYp0oMt9DlL+BM8you2JPoT2oY6S9gfDAHz6FwlOLNrTQIW/kiaGln9l1vRp5SMWrbn9bTrdThUpk67/kshm2fJ5axWF5LMzpwlReFIQjbRvKBvMAQhAcCs9nJg0Cg1X8tI2LWFoby+zS1z9/r0gC1AewYWK0qwSD/nx0frLMHa1qB9WZGerwOtevsqae1MElAs9lA0PSBIFSOg2Gg2vVYB5e5B5HqJOBKOh3yI/X6tAKfHTy0Jt5To4e12ZDWE0xOTmJubk6EfQcPHIDHYTnSNcAJghaSSJkqSaCWk6CmA6omA44UtuGlY41JANgtQH0A9QJaF6BNjuQx7Rzge1l3S2NcNnZlNRb6udsuD+zWhRPHShWwToPQeYmB4E3PzeHqtWsohA0cr1/HB5xb6IuXcaCvgInBAoouhYmkopsNRCLoHMrEoxDaph5lXLQewqSIG69eFizWhkOzu4R/ioWAicBUsTHZTignM4aT2LCTAmIrQoAGvCS3J9Mcd3RKOGBLrk96esSImMCxbXQzg/DyJ40GYUfg7v6LDUHYfUzNFh8gArpnOjutT9wGEwbiQFbvXP1TILi8tIzqyopkBrS7oO4CyNoTZ8sOreCarkLpILhuzDE7BkIffsSgHwgJEDIQRXBCZeSrSwsM2I7twnFdhHGMIAphu478X1bnqbmQftQZg6ymIFu64HZv3LiB6elpFPI5jB44gIKXU21+jCGckUBrY3Yp2GrksRYGav8Akg4pC2SmH+rshWBKLFMy8NCC+25cTzsUKcaWjdnZWdy4dgVuFONQ7SYuOTfRH89joDuHw0MllHMkY6rV0WbQX3dj8FcEYs25UUn5dXusfnpiJTLASF09WofBZ3ESZJC2baqGUO4rQlF+skMLcbOIxPNhFVbhxJtnEGSUdNuN5awHVWJwJXtAQW2MyAKiJEFvbx9eecUQhN241HdzG4Yg7CaaZlu7hkB29anT1JsFKP5OtxAybS/dAstLWFpaaLUP8vcM2gzuWuDXPo2wlX1Ix9dqsWC2I4GGQhxGpAWF+nj4dcfugdbqPG3ly9m2rMS1QFACv+upIb8kHLaFXLEgQdvVPf1tmgG9j42CSUU8NEHI5zyMDg+j3FVG3vWEKFATkKeTIEcbFwpgCyFbF2UuQZpFyJIBRWTSmJQKByXnoD0d0lLKrp3kB7WhLUWKnbc5xomNudkZXLt+BU4UY6J+C5fcmxiMFtBTtHHkQBd6CszKkCBwJa8IwjqNiyYN6YRHRRhSuiB/U20WQhBslfFguQKJByQ5ORHsfmEJP44cRIGDKHQQ+QUkfgRqJAPfgVVqoHcsQMGr7ssMQpYgxPT0SBIpMbz26qdw8aJpc3xQH4tO9mMIQicomefsGQIMfFlFv16xa5fAdlKg5wNQG0BnweXlZbkvLi62ugZoIqSzCFmlfHacLH+vswZ61LHuFmCpoeUvkM66b63umB5N2/j4O12zdykIpNUvV+NU74vtrxoBrG+6jMAFOWNWvlRErpiXwKD+1hZQ7oE6j//69euYmZmR0sKBwUEcPXQYRw4dEkJA0mGx5JCZeqiPnbqJTW8PWD+4ZxfWhiXyzroYQIIwowgC4ggTjdv4gH0dB+JFlL0ERw90YbDsyujmTQkC8U5CJtYzUx7Ta4ldDzRYooeCjIl2EMUOgsBCFNqIQhdhaCNsOvDrLuLIRRK5QJyDlbhwEhdeEgExswk2wuIcho83kcvNbNLm+GB9EDacX9EgaKOk9T4IRqT4wD4NHe/IEISOoTJP3G0EWqn3NIjq1ZYuGzCVTyLAgE0CwLsmBCwRMLBnCUDrZwl+qvauxYJCBsJIAr/uOmjvPsiKBLNBXX5PkWCapmc5QKfkpTRAYyE9allnkG01LKh9lK8kikkQLKAgBKGg3kMHA4Pa8efrsgRhsL9PCMLpEydR7uqSUoPKbGy8vafLBfdzIe6wxGDHNhZmZ3H1+hVESYRxXxGEkWgRZTvG4eEShns8WBaJiAU7SQ2dMu2b6nrkncHdRRxTg2AjCR0EDV6bJAQWgmaCxPeAiISB23EQS80hDxc9SBIblhgyqTKD0ILEZ7RFaMXwy7cwfLwOL7fQlkF4MFbLdz09hiDcz9X70F5jCMJDg/69v+NsL3z2Z76zzdoHZc0qX5L0ElCT2xh8dU2fZICqfBKBlZVlrKyoAURc2VNPoFbrSi2vhIeyQZUJiCLpJtClgSj00UzNirTw0Od2AkUq2gV0FEqRV/ALV/YjI4fpIaBnDuRAgyHxGuBqn6QmJQ6093FaNedUCshShU5ZpK5xqt7M7IGaCZCnPwAJQmoKtN0ropVBmJ6GY1sYHhjAobEJnDxxAr3dPbIuVevm9Tedpdnu/vb++evbLzNNl7LrNGmfOYw0Ld/Jge1QpGiRIMzM4Mr1K4iTCGP+HTxvX8PBaAklK8ahoQIO9Obg2OkMBpKAyEEc8RpPkEQ2oiCPKMhJWSBoughZIkjvDO52woxADiQjbsKVvi0iViVmVYkH6go4SloZMel9qf8zAxFYEfzyDQydWIXn1R9gBkELLBUxknOVEuHsFcjfU8Mhvhf8XEibY+qk+IlP4hKNkjIvYLll7dx3cqLNc3YTAWtqetZMc9xNRN/n29pMmd7+lrMBWJOAMPSlvY+rfmYEpIMgFQwuL9NqeEW1D6ZWw5pkqOx4GhoyEwRZgmDLIDsEfHYKtDoImgiaDcQh5xcot0KJ3fI9w95rEgFlPSzmQlTmWzbczChi9u9zGJGk59vCkf6vJAq0cp8ZgLTsoN+7rNC5D0ftS7dDknjQMZDiwRAx3FyOMm4of4Dt3TRBoHjOsSwM9vViZHgEj508icH+ASkxqHHG75UbJXdN0TzwuNkfz8ioQqK6CjgQicGQv4lBPUcHuMk4hp1ZLcdwRKR49dpVEW2ONW/j+fgKxqwq8laIkd48RvsLKLmBHFm92QV/uhvxqg1K9aOoiCSijkB1MNgtIaON2HLgMPgzmxDFSOgd0duHZLAf9kAvUKkg8XJI/ADOzCyC6ZuwF6Zhh80UG2YUmLr3pIDhF25h8MQqcsX2DMJezWJI51BYCSLbQZyQMGuzZzfz+VPn0IlCRWg0QaDVck8vPv7yT+HSxUvqs5SS6TAlXMRHCJGM0ebft0EO3yuX/z48TkMQ9uFJ2c+HtJl4UJcEtHhvnbCv0RDhYG21Kt4CJAW61q/thLO98vrnrJhQbzfbQZC1Hc52IBA7fgUzG0ACoFfL4vufsRXWwkEREWbsiOXLJw2qnZAh9WWVtEiH3o+0BLqOCANbBkKpmyBHEC8sLeL29JQQBTUPYPuBXJcYNEHo6+7GgcEhnDx+HAdHDgpB6MQE6KFcb1u8XStSGSKq8nVjZkQhm7RpMvOiX2jBiVWg6ei2RYmB5Gwrd4LsdklSZudIEK5Jun+seQfPJVcxjmV4iS8EYXywhC7Xl+C2OJ9H/VY/8mFFCQ9RUg6LslGtBGVQT+BJMsBFI59H48AAnDPHUbxwFqWTR+EODQCFIuC4iIMQzswMml/6Chb+9R+juLAgW4vSEp0Te0I2Gt4NDBxbRaFMgrD3Vss6dyABn/90Sy0Hi8UOSgGQC4HAAWqi0W1KR4e8Ls0gdHf34NVPvCoiRfm9ntVA4ykSDhnyRBKlPm/79rru6GJ87zzJEIT3zrnasyPdrBzAQKdr8rRFFf6eKQtosaCMDE51All3Qf07VR5gWn9t5C/3lx0jLNkAtgmmGQYtGtQZBRltzL8FasRx+/Fm2wAl8Du2iPYoGtQ9/No3oD29rtchWgPQbuzTDnqWcHCbyjlQORnmOXEw58HzctItkG1XlAFFqRcDv0SnZqZx/fYt+ZqU7MEOMwgkRT2VMoYHBnH8yFEcmpiAZ7tkSXt23ex0wxv0GYIP6/LMEMSSLZDRxNK2Ko18YLshA60wwJbgr4Mj2aHVMvdAkeLl69cQJQ5Gm1O4EF7BYWcFubiBwbKDw8MVVHKhrG5X57tRvTaAXNijJhdaOZU8YPaDxlyUK7oUJAJWkCDxuhAfPYrij38ExYvn4R0Ygc12WNGyqAxUGEdwqgtY/PXfQ/D/fg6llWWEDktZasXuxNyHg5pzDQPHV1EsLz6QEgMDesAsSByhEAewkwiBQ2WEg1yUIHQg7Yyc9eFFavWvy2wsL5AMSBfDy6/gxUsXFeVj+6MQCMDnuHDXldKLF1tCFBLpBOngvJun7AgBQxB2BN/748XtWQFFBtQkQgnO6ThiPXRIMgK1mmQCNCnQREB3H8g6KRXIyWMSresa0A6C2UyANiZq9yRoBWVOgmNZgJMH04yANhXKEgGWC1wxB+rg/KQ2vNnxzNymPna9XYoStWmRthjm3zhxUE0/VMckjoKSkdg4M0DBwQQ0MD0zg+u3b6r6sgS9Tg52/fvJZhD4ldvdVcLwwBAOj0/gyJEjKObyaSDtAIcH/BTVFar7J/XOmSdn6FRr7EgMhGzYjCJBJGUjIpXP5wTf0Frr0Ljn4ZPcbjBKYrdLZxkE4rswM4V3b9wQ4d9IYxZPBe/iuFtFAQ105yIcG+lBT5FmWAkaS/1YujyMfNgH24qkzs56Ok2CqCMIbKCRs1CcOIgpZpG6+3Hk1U8i//x5+D0VwHLgSqIhEUIhRGmpitUvfhm3fvP3MXBnGnbsy4qcx+bJdnNCoGrudQwdZwZhM4LgqBV4220nPgi8dnlmugIfg40qinQKdTwRUg7XIswXE1RzkExCf83CrUoRC3lPTJL0SKuu3h587JOv4sUXX2yVGMinSlEgWbYmy3KWCzdSuMS0tc62Jd3zAjBPuB8EDEG4H9Teo6/ZSki4phNQpkJ69U9zoazVcEvs5/uyklcZBUUkskFVdw6sIwE+JxyqKYdKVBgjjNKMQJqZ0CtKBlgSAfHyF7GgI8GZugCVIXBERKizEFo02PIMEE2AaiHb+rb2R2oSshoETQCYHSABIBGQQUScL8CVjIgYlYJctydqi+Fsd0B7tkLFRBKEZANBUGxmeyQhq0FgsK2UipJBGBkexoljJ9BdLisx5X3e2uFrSTky8Xy9g3N7wG/zBWodh+ouaRFTpqTpUyGizxjNIEE1tFANLCw3IlQbnIzZQFivYrCcw5Onj8KzIlhRLILRe952wWrZSiIsztwRq+UgyWO4SYJwGSfdZSEIFTfEkQMV9JWUq2F1pQ9L744gHwzAtgPEFrMiagXtclXtWlh2Ywz8yAex8uQZYGgQA+efQVzogm3R+4DcTmgS7ChEvLiE6a98Hc3f+kPg9m1UApZXbPgsT9kRnCRUBAEZglDRBOEYvuaexVQ3NQibuTxCFgI7MkqKLQzWazhUXUBvw0do51B3adrVhBclUhoQnudYaDguQovZoFRrAiDXW8GLr76Cp586j/rMPNwwRsF2UfND9B49jGZ/DxpeAXbsSiZCXCkNQbjnpb/TJxiCsFMEH/Lr21f/a2WBVE2cdg0IOdABKo5lrgCD/2q1iuWVqhIMVqvyRdxMRX96jDAdz0gGWiu+zHuWVX+ozINoJFRv1EUwGNBmmAQgVCUBSwxe1OpQ6Q5VcOVRui5X52kQ9tTYX9WxQLtgW4Kc1hOol6bucukxSXlAvblMkF0/9lgMgcS3ICUbngdqAUgAWB6gxbAQgJR86MyBMhLSikQ1dXDtpva3WYjaqo2QbYcbCIIE8e0H8nUEAQm6igUMDQxioKcXj506jd6eHum62MktsmxJYbt833RmtJS1rxuoccwMYlovoHIjnNSnpidSHyCFANFZsGjgIGDLHh+jGE0/RD0EFuoBlushVuo+FmsR/ChBMwKakYVmGKPJa4ep5TDEof4EL188he6gIXXpztJE6nh2YrVM8jo3O4kr16/Dj/MYai7hCf8KHvfmUUpqKDgRDg1VMFImcWVmrQdz744gF/ZL8JZbYiOXEoTAtbCSB4ovfQh9//l/gaTbRZCnj4InvgYy8ZDg1VcRv/0uFr7wRcx981voujObZguIbSrgtEmIAyEIYeKg4U6h9/Ayyv1zCCwLbztH8XXvHKYqR1OCsJE574QgME6X/BBjq8s4ujKHfs4dsXOYKpZwq5LH2EqIvkaE5ZyNG90uRmoN9PghQiEMtpAFN5/D088/h1OPnUGtugo/CFHI5RFGQG5kDIMXP4wFLy/lCBvMHiiTKXPbWwQMQdhbfB/I1luOfvxSTgNv1gSIA4aqQgKUoRC9BHSJYI0EJOISqLMM2tI3q8rPGgoxE6BnF2g9QhSRSCg9gd6OfnQtSMqbXQMUBrYsfiUj4EpGQBMY1Wmw9cowe0zaVjiK1ReGtCcyqDMDkWoEmBGgtXCpVBJdAEmBLlNoG+KWSj6z373wClADo9eXGBLRH3SwEm67mrIlBhKXYjGPocFB9HR14/FTpzA4MCACzJ3cpFXTAtzUvIEBJ7RtVIJAFnDSbSCT+RxEtouAhEI6BizJCJAoNiwXy6sNLK42UW1GWKr5WKk3Ufcj1IMETSsHHx6ChK6YqraseFgq6WMwSHJwYwcT3VV8+oOHMRg0lD9AJxkEbmqHPghc7c7MTePa9WsIohz6m1WcbV7FudwMSskqXCvGxEAXxns85JwGGo0KZi6PwAv6lZiSG2DZIGYGQQn2VvNA7uJF9H3mF7B65V2Uj47C6q2I4RGWV1Cfncb8X72B8PXvIX/jKuxGFcpxI3tjtwdLEKHqYkhyaDiz6BpbQM/wLEIrwdvuEUUQyieky4DZkPbbTkoMvA4qDUUQDlcXhCAEtouZYglXu0sYqAfo9iNUPQczJQ8HV+vo9gO5jpqOjcC25F09eeoUnnrmGbiVbtTjCF6+IHqG+VqMiY9+HAv5AmJmSxCozghz23MEDEHYc4h3dwftZQL57pMBQKqFkPoAZgNIBObn59UQotWq+Aho0qBT8/y/ttrNuhm2jx7Oag20xkDbG+t31y4C1MFVmxkVPRcjwwckOGv3QdW2pragNQ+tMkHbF382U6IxINlgXZoiwUKBBKAoj8wMcHgRJxzyObyxo4DZCGWHnGYX+If0Zx2V9Npqr7wCNi0xyJJ7ZyUGlnoKhTyGBwdRLpbw2ImTGDkwIuTr/m8M81zzM8C5iBIboXQUJCjRcjqxEFie3GvNCMt+guUgxkojwPxKHUu1QIjAUjNJU8quiOZCEgFl7yNEQOswiHku8Td2JrDenOTgRC4OFhfw0x8+jIPUtGyLIOzMSZGvnp2dxtUb19CMFUF43L+Gp7xpdMWr8m7G+0uY6Mkh7zXRTAmCG/SJeE90FEzvp0p8rp5rTgzr+acx/IlXcP1/++ewnQiNioeuwIFTW0UjaKIU2KhUG0iiKqKyclRsJ67ctBCExEOCAlYxha7RBfSNziNAjLed9QSBuZz2204yCIzWJD19jQZGayvySIvowGI5QE2L4CPJHEsciRWKHoNkUjIItCS3bFw49RjOPfUUCr19aCSKIMROjFuLKzj1oz+BFa+AxOJVowmOYQn3/9nu7JXW9Myc8UHoDKs9eVZ7SSAr7OMXAVPdWW8AHoSMD5axxFWxGyYZ4MAeTvXj6xngJSimdXrVhLBmTJT9gtFkQLceMrugRxFzP9yGJh9SEkhbB1tBPhPItUiPq3Su1svlcuv4LKaHJyZkJa/isjJJYj0x2zGhRH7K8GhdnTp9P8w8cNtdXV1y7+nuRr5QEJKQJRe6G6HVsij7ZFpWlTb0bTPCtScnOt2ovO+kTYOwgxIDZzHQapnnl9bOzCCUC0UcO6w6GVg2uZ9by1Uy8aV1LUpKqLMVLwrQ9BtYqCVYXG1gbrmJqcWqlAqCUOlSQlIKO4/QKSCyuOalN4AUH1TfPs8vSyriD8HfRLASqv9Vi9yGbEpKENzIxWBuBj/z4SMYJbNw2dbX4bujv8AGkWLn0xyJwfzMNC6TIKCAvmAFp+qX8bQ7g0pSkwA9XHZxbLALxXyAoNmL6ctDsBu9cPluY7ZoOkoXk5apYtdC/cnjmPjM38D0//LP4M7NIHQTlAMLLoeMkdvFDgqhjSAfYtVL4EW05l5/axGE2EMYufBzi8gPT6NvbAE0YnzTOoRv5J5sZRB2myAw8NepE4pjdPsNVOjXEFsohjEOrjTR8BI0HUs6GooBMF+yUc2xVGUjlsyTjYLj4dIzF/DcB15AsVxBI4rhuRSjBlhYXcXoE09i1Vafce2x0OGZN0/bAQKGIOwAvN14aTZA6YCYfaRokHeSAJIBZgVIDJgpYCDXwVSTgez2lJCQZYdETIP4f+1MyG1yO3qQkd5O+/Ae/p4kQosFNUnQCn4t6GPgl6FD6YpdY3Pr1i0hLmGjgfHRUQnueh9SvU+JAJ/f+j1XkqlAMEsG9O+0IFLea2qoki2JcFt7UR7YrfPNL/RsF8P9lhh4bm/evKkIQhJLJ4UQhGIJh0bHcfzYMeS9+yMImqgu1Bt44/Y8rs+GWGhYaPhNNIMqVp1uhDZXrA4sJyfZBDehdRFr/cr8h3/jzy7Y965yM6qHXSG5pqbXngcMGlxhtpVF0hKDEzkYcKfw6YsTOOQ5sGz3gZUYeJ0tzE7j8s1raKCA7rCKk/V3ccFZIwiDJQcnhssoFUJEQR+m3x0C6t2CiyYI2jNAsllxjIUDAzj4938RzW+/jvk/+hwGlzkSWpVxqsU84lIJ7koNhaApdXc3pLHWFgQhIUHw4HsLyA1NoX98cQNBIL5rK/C17eykxMD31HClMVUpTOJISlJKONlEzfPgk0BEEUrsRIlJElke4qMrFLGn0o1XXvsYPsAuBhIpOyctDq7lI4kj+K6NQFQXtpAPtkp2yg1343P7qG7DEIRdOfNKf68u2Oxlq36rvmxVWlub7Wqlv+r/VzMC9DRCBu6lJRICpRdgMBdr0nQvenUsk+OZtpMBQuoLmE5sqlsgkG0GAbUCq2jUKR4MWnbEQhyYCPToH69W1Tq4M9hypc5ATPEeRYphFLVGBes6vg7EfB5vm5UJSBCY3QibTYyNjKBSqYg2gDbGokUQTUIO+UJeRh5z8mBXqdQaQSwq/HTVrVffovDmZMFUIqgR10Ftr8oDu3Gp7LZIUWcQmB2h/wN1B90l5Yfw+GOPoVjgKODt3+RcwsKN5Sb+w1vTeHcO8J2KuNVYiS997zw3zADEYlhE8RiDD6vJqXAx1RE0pR2Rf2emIP0sJFHL2pqBgtMSmT1g8WHj8SoNAp0GezCN154fxalKTgjCBjKx1VvdoUiR19z8zBSu3LiKBoqoRKs4Xr+MC+40euOqDCDqLdo4eaCMSpEunj2YeXcI8WqP6A7UdMdUuc+QKAQhwUq5G8W/9TfQ/+xRXPmf/g+MvTONVQoYuyroe/5ZVB47ituf/yKK715FiZ9tEeSuR0hpEEhCmKvw0HAW4PZPYfDwMiI7wlvWYXwj9xSmysdFg7DbGQSxgJYBZJZ0KUg1JWFnBc93hIgeEAlX/yGcxJcAT/0IiYE8Wja6KxV87FOfwMVLHxQxJyUvPNIQDdh2Ahlfwe+smJbUdsbafPvXtnlF5wgYgtA5Vplnpl6g6W9E4a/Cc9p6p9u4mCaHDAmiBkD3+VPg12CJYGVFNAIkAXzk6l4L/nSQE1IhDQTsr6YIMJYUNWuLTbEZpj0xyYWPoN5E0mi0LI3XtMrquETRzi9qaSOUqQPK2Id9/LQXdj35PwVnetovxYJhEiNfLkvQzq7Us4F4s1Q9f0eCwBUuCUJ/Xw/GD47hyMQhIQFdpS4hKJL90F968t2Xrg7EkU0PMmqpA1rnYR0VSwnSfs0c6IPelCCIUdL9aRCyJQaiNdDfj/6eXpSLXTh39iwqXeUWXtnJkne77LOlnclqA3/y9gz+eiGPCEXkEgrE2NmQdrCLhqN19UsQpDugJZ8JkjsHVSdCyUtQciLkSUhzRSlT+LU64pieE64EsthWq0vV27J2Y/06EUc9G0VU8er5ETw5YIm9dEcE4W5tjh12edDoZ3Z2CjevXkGQdKEQNnDYv4nz9m2MJPPKiyCXx6kDZQwWarBQwPz1bjQXBpGLu1IHwLWeF581eAdwnziH/n/wXyPJ25j/H/5XVL7/fVTzHupPPI2hT78Mx4kw/au/heIbb8FLQoTpLJI1dFjbTwQ3WZnbQNOpIaks4cDRWUROFW/ZJ/AN71lMdY9LF4rq51l/25EGIdUScavSurgmL1Uao5YtsiaOSgMhf5LuFqC7uxsvv/IaLl5SToryDSA/6IVRmoFqLQvu64vbvGibCBiCsE3A9FehXLhthiPaEZCZAK76ZRphrY56OnuAZQFmB3QHgRb8cTs6va5r8y17YZYJwki21RIPMtsQ+PBpIsKOAXYP8Os4SZDXvfkyB0B5COiMgA7wLVMhpgQzfgLt70cHfc5rz1UUQdhuANYEIQ589FQqMkzoySeekJQiiYp44WRMlfTp2O5+7us0PoQXqVr8Rh+E+zVKyhIEfqP29/ZisLcPxVwBZx5/HP29feu0GZ2+ZX0tzNd9fOEHs/jOjIvIKsCLSU0dJOKRv75dTr0HTjJMQM1JKedhsLcHXq6JA30lHBkdQH9fN8rdPbg9v4Iv/fl3cfPOEmI7D9opU6HOoUjtyWNNELjfXLiM1y6M4ulhZb/bMW7pVEVeb3OLC7h+6yZ8zv3o0Cgpti3Mzk7i9pWr8NGFXOhjwr+FC84tjMazitK4ORwfKmKs7JN6Y+5GGc35IeTibjVgiZmvNDUeOhbqdowSRXm/+HfgjY+g+v/8Lma++O8Rd/dj5LVXkD85gck//hySL3wdfUsrSOxIEaJ18b2dIMRoOk0kXSsYPjaFxK3iLeckvu48i6meUSEIao7B+ttOSgydXlOaFWw17vmVlz+J1enDuAAAIABJREFUixcvbvs7Zlv7N0/eFgKGINwFLj1jQD9FBXK2dSlbYB2wGfR1bV8PItIaAXoDsH0w2/on7DkV6elHbSqUNRfSJCFoqiFGWULBbdiuMg3SLX1iLyz+AWtzB9bc/dbEeS0xXyvzod6hzg6sf7+2ZBByaQZhO+n7bAaBBKFYKODoxGFJfdPMR76obJUlEDKiizRpFmFbV/J75MnS5rgXIkVZJUeKIPT1I+d4eOz0aQwPDwsRU3bZnRcbRKRoAcvNCF/+wRy+MWXBRw5uwhFTzESxRLUZQeDLYrhRA8+dOYofu3QOXUlDXP8eP3UUlS5S2BiTKyF+47NfxZ99513MNy34seq22Gy2QpYgeMEiPn5uGB+YKEjQVWnqDm47tFomHZqfncTNq1fRSErwogATwU1csG5iPJlXw6NsD0f6czjcz/p7Dgu3KqjPMoOgCALXE6otN0Hs2PCtGCscHf43P4XDP/dTiK/exJ1vfQOxVcb4mbOY+/Y3sPJHn0fv5Jw4kTbsGHzX628ZgsDUvB3Dt5uIiks4cGwGyK/iLZsE4RlFEPj9sAlB2GkGoYMzoJ5yl3HPr75CgnCp402ZJ+49AoYgbIJxtpOAP2sHQbEYrtfQaNREJKhJgHYbbHkKZIR32Ta+zWYNkBDolkH9d52JkGCchk2tCdBOgiQDrq0GArGVjY+q///eAj15fyQ7mYChA7/ONmhbYT76UYiVRkNaBre7stcZhCQMhMwcO3QEx44exbHDh8WSWLKIkkLYVvza+0/GHu1Bt/XtltVyK4MgOo0Ifd09GOofgGc7gvPE+IQyf+Jkx47GEqXf46k1cc2P8ZXLi/jz2wka8ECpGFvVHOkIWU8QpFNGOEiM3nyEX/zpH8WPXjgCLwhw49ZtOcdHD0/AsUI0YxvfuTyNr7xxG//u629jcVUNLLI4yCed2KdPwboMQrCEHz5RwUdO9UnQ7GiGRdo5sLGLofMMAqnLwswkbl67ihpKcJIA4/5NXIiv47C1JMeS2B4mum0cG3bgII/lyV7UpvvhRRU1jyGlQLQK5s+cs7CU91D6Wz+N4Y/9JKp3bqE82ockyKP23Tex+Du/i5633oUX+VjJsQzjoEjnoHW3zQlCkF/EwRMkCDW8ZZ3A1939nUFgieHVVz+lhjVtYgW9Rx9Hs9l7IGAIQvvHLUkk8LNbgJ0DeiwxNQN0CGz6HD6krIa10HCzzgG6BqoMQwCf5YZAaRB05oGv53cpBYb8Oavg588yBCitz7up+99a2yIV40rEoxwCVZ6eXzpRq0c4+8bavsjTUcecIcB90JtAHAXz+dZ+9f65lYWlJVyfnFxTn3doTpPNIJAgUGfADMLoyAjOPn5GCI12VNzdT2p74Eq3norm0u/p7C+32P1WK+77YzMqTu2u1XK2xBBHoYi9RgaHZFDTwZERnDpxsmUP3SnGWQ1CI7Tw1StL+NObEdjtj5QguGxR3UAQ4rTtMMJj4734B//xT+CxAY4izuPO/DL+8vs/wIWnzmC4uyhdF8uRhc9+9yr+7z/8KhaqHpwwDzirG1zylLCRAjwH+XAZlyZy+OjZYZG5dUYQVIZqU4LQ8qC4BzochTA9ievXrmLVKopCfzS4iWei6zhiL4lTaGy5GK1YODFE0l7AymQfVjMEgToGflYpWhQaZSVY6e/F2H/zXyHoHcKV776O469eglXswcqXv4HFf/Ub6Ll8RVpAQ6sAN/Rgs+XzrgQhgm/78POLGG0RhOP4uvtcWmJgH8DuaxA6vba2yiAYgtAxgg/0idbM7Hyi++Yf6J53cWfZL7TNNpvtidfPbRfbyQc2DdZvvPEGeKeOgM6AotQWkaBSYCunN9XHzwmDSnNA4sAecV+IBAmCmjkQibhQ7lqNz8EqLAc4rhIHphMBGZSp7rdaFsNKiCUfaMkmpBbFfJASsJqFoH6tUo80IEl/obIPdClzXOkSUP4ERRlBzI4B3ZYomgSqm7VYMP0i06n/ufkFvHPrRgvaTrMI60SKQVMIwuGxCRwYGsZTTz6JHOca7NDpT417SW9pJkJ66zdZ4UpqPP1y1AFDrYL17Pq1DbFsI3/hOdcivHRlI74NnAMg8xjUqzuthe9VF4PucmGLI82SCm4OvZUenDt3tjXmevsrswR+FOOblxfw5atNLMhEQgoQPXG4y3rhy4qYMwRsG8W4ik9cPIOf//gHMFSyUE9ifP/qMv7gj/8MP3LpLF56ahSu1UA1KuBX/vDb+P++dhXV0AWiBnJSCmkvXZBkpNd/2MD5gx5ee3IIeSuS9sqOyl477GIgSaEPwpXrNxCAVsgBBsIZXIhu4oQ1DysOhSAMFRM8NuIhn3NRny9j8UYfvHBIyIx8Nnm8MmchTZ2NH0T8wYtwx08iHOxF/tw4mohR9m2sfOkrWP29f43KzVtIghixmxcL5nYNwlr6jeLoGJEVIvRWMHx6Digs4y37qNIgUKTIEsMmX5IPu8SQJQjq+6zzctguhhKzqTYEhCAwhf5evm31xdd+kemVPh+1w5/+WRvD8P9/+Zd/ibffflsF9EjZD3OVL90H9CVoNmTuAIkBf6fJgnz+peWgFaNhxWw/S8cCpxbDbO0TcsAAySAjBkSpZ/4m6TUZTpLeNMGReiY7EdIPkugOPNWFkM+p4E9vApoV8VEHf+5T49DSItzlw0hcZhfm8c7Nm2tJ0g4/vNzP7du3pYshCJryvTY2NoqR/iGcO/sEKl1dW0wy2M7VyEC1/vnSUCZllPW/Z19+K5CnK0pFEDTJajEBeaGaBcEvXWZ6lKcEW/G0eZVu71QEobNa+G5aLa/3QVBvtpgv4MDgEApeDqVCCU89eVbOvz7v20GWAIZJhL+4uoAvvdPEtJ2TvnonpFiVgrn1AIcJCVOM/nyA//IzP4YPn5mQKYeLSYg/+sot/NYf/ileOD+Kv/3K8xjsLuLqbBP/6Fc/h+9eXRarZcdhq97G4EBiJxMNwYFOCU73W/ibF4aR5xAkNUP53gFlh1bL3P/s/CyuXLslV4sT++gOlvB0dBOnrVkpOZAg9HoxHhvNo1IEmotFzF0dgBccFCtmuc7Yzsn3Ih06gFfuxtXuHvT//Kcx8vwHMP0X30M4PYXxs+dg9Xdj+S9ex9Tv/AEql2+ixO+hTW2510iy/n4IvVX0n5qBVVpUTorMIFQmxAlTPhttt4ctUmwnCNu7Ts2z9woBa3Zu4X1BEDYjCTqwZ+cSZC2FCSq/5LW6X2cavvWtb+GrX/2qeBE0G/WWs6AWELZc5tKsgxj3xIm0cKkgrcoD7PMv5NSjzli0uhXCtbLC3U6ufJnwCWm8Y1qe2+Z+WBag8I9mQrwXikUZesS/k3Aw+8EWTLXC0uOXdTRdS5NvuQJLsyRZgtDRai1DZrQGgX4MTCuPjhzEUF8/Hj+lBHQ7tzvZSBBUiqddlKfet26fUhkEKsu1Sc/aWaDng9jDxoG0o9ZEe1KHHwboH6aXQ3c61lltU1XjOyQIuzysaU2DoM4vB08dHBpG0cuJv8QTZ89gcGigdf1s74uErogR/vrGCr70gzruxLZ0Gyizno0EgW6CPMe9vd34O596CT9xbgTdwRwmkccv/8s/wzf/+haeee4kXv6hp2WmwLe/fxWf/eKf4MjJ07h6jdbgIQKLK/H1VsAxaNkbi+6BBjsTxRp+4YVx5G0KJlUWR8ju3YjrDkWKnA46O0eCcFu6UNzYRzlYwjn/Jh63ZlCQiY0eSnaIUwcL6Ctb8JcKmLs6uClBaGU17SJWn34K/X//PwJuzGD2n/42CkuzwHAFxZ/8CLo/dBGLX/46gl//HfTcmcRqTjmRrr9tJAiBs4q+k5NwylW87R1RIsXKhMkgbO8D8Mg/e19oELLpft05kC0L6LOkf9d+1jRr1kRAzybQqn8R9jGNrq2HU7tgvYLWr9f/p2Phm2++ib/47nfx+uvfSN0I15sJqRWmCgpaj9BdrmB8fLwlspFgylR3pke/tc9ABTa9mtcYZANwa8yw54mtMLMBeuBQa/Ig+6LZCZAdn6uMlVulCb0P4Rmt2QNptiMFc7NArTMjc/NrGYSdEASmVft6enFw+ABOHDmKiYkJCdja8KnTtOL696pEWyoLYyuvCAGWmRl1F6JET3ia86QlA1nJR9R/hKrLhPbVjSaWq8tYXVnF6vIcmvUVMZfia2Vmg5vD6SfPY2zikOoeSQOSEIQOSyW6zLROpLgLVsuCSRxL5mB4cAiVIrMzwOOPn8LIwYOtkdzb+8ZjBiHG25N1fOHNKm6GANv9tiIIpEp0ymcmob9o49MfPINXLz6GyVoD//s/+yxuLQbo6vFgRU34VZrrBPjwi0fwyU98EF/79nX8y9/4EpqFosx6yN5aBAExwhg4XGrg558fQYlTkdPM212vS0kS7cxqeTOC0OUv4Wx4C+ecGRSjVbGV9uwEx4fzGOlzES4XMXdtEK5/UE10JPFJRDnRau1tdPfgwH/7n8E5NY7pf/gvUPnK97BSqKGRixAOjmHgpZ+EdWce9W98GfnaHIDCXQlCupZAYK+gfPQmCr0NvMVhTUIQDgnB2+8lhu2XwrZ3VZtnd47AviAIOnAp059QvuglAKbpcP12smUA/bNW/GdnGrT6/Nt6/LOEYCuI9MXJlPzUnTv4J//kH4tgUbcL6imETOHzzqzC5OSkaA24YhsbG1tXE2WJgasq/QXGL3F+PbhpK6LOKOjtasFglgxwzmG7T0L2+DsNrJ1fFmvP3L0Sgy8p++5Sl2QRDo2O4cTx4y0NwnbeQ/YLxGJNPKMJEbLAgM3RxBEd7WgsBYSBDztsImrWUF2tokmraWYGVlcRUUzabLSuPenwEB1GVuNhIXFyOPL4U5g4clSuzdb1tJ0Mwi5Oc1xXYhC9RCylqwNDQ+gplQWDo0cO4ejRo53V6TdcIByyFOPybIjPv7GM6834rgQh59ooeEDJidFdcFFfraJc6cLoxFF87fWrqMUc1lOTyYY9rocfe+EEfu7Hz2O4t4i5eoD/+f/8bXzrWg2xtd4eWhMElhj48TnoreAXXhxDd05ZOmuCeNfre8clhhiz83PrMgglfxlnwjt42plGV7ic2kRbODaUw9iAi6Rawdy1ATjNkXUEoXWcCbBSKaD71Y/CXqmi8W++gt7VJha7QsQku8zUoIhiwPPQRJxP4AXtapdUF9X25n27ivKRGyj0aYLw7HumxGAIwv18U+/Na/YHQUjHu1LcR3dBUuxKpaxmyKcTB3W5QK/WGTB1v392kqCGKbvKzNbaO7n4uE9uc2FhHr/+a7+Ger0mAYGkJWsWxP3TBfHKlStCFNhtMDY6qp6TrmopMmRZwHE4flhvwxOPfG1ZXOrqkp/1KljPGhDSw5VvZnW62fF36pC33UtIZxB2o8TAzg/euvIFjB0cxYGBQZw5c0YNWcqYO939GJWvopAsiuQSikBVm6jMmogjWfEz2Ee0m242sFqtYbVWE5+KqL4Mi8eRDoPiOeJ5ETmiLjlI1mFNmZCVN0SWi7GTZ3HkxGkZEKXISOoIJwLIe9/2TKTIY45iIZ7UIPSUOTY4xoHhIcG5fUbGvY9UrUWZxL+xFOPff38RV6qhsuqNPemXyYoU+dyRngJ+/PnT+NDZcQxUivirG/P4pd/8HKYWfXi5IQQU1NoNuImLM4f68Hc/9SzOHxlBLgkROA4+9xd/iX/069/EalNlflTo4z+lQeAqnhMRe6M5/KcfOoz+4pqm5J6ZrR2LFFWJ4fK1myqblIQoBVU8HkzivDOJ7mg5nXsJTPS5ODqcg9XswfyVPliNYZnHoDMIa9eMGpcNjskOa5R5Im/ZyMeceOmi4TEn46OYcIS2I3oLmXXBjBOvW+pnpZuKpZf1WRffXkX5yC0U+up4yz2UySCk13vbBbCfRIqdfEd3dv2aZ+0UgYdOEET9TN8Vtu3FQGOliuW5BRS6SnCKKmhmSwN62l+23JBNm7cIwn221bfSxnGM+bk5/P7v/+66TEb7vpaWlnD16lVJU/NL7ND4OAb6+tFVLIr2QJGKvNILlIpCDETcJiVTPbpVmaiojLX6+lD7UfXVdsOm9lLLdlbf27lgtiIIHa3Y0nJGVoNAe2d2LkyMjqOv0o0nnnhCRjK3ash3EZspwscvQtr3xlienYS/Mo+gtgoaSdUb9ZZZVRAGMuDFihLEIVDqrgC5POorC2r0LvUZkSrxCNppzbtdP79m3aRQ48yAA4eP4fiZp+AVyxLAWBfnRrjKvddtT9scdbkqgcxhoB8CUyc95S5cuHBh262O6r2wJTPG7eUAX3hjFj9YAny7AIvCQA5QWndLULKa+KmXzuIzH72A/pKDhaaFf/xbn8fnvnMVvlVClHDuB+AmCYaKIT7zExfwsRfPoNtTlruztQD/4Ff+Hd68MgNYOTX0ie6KHAQlAlGegxy6gln87UuHMF5eS5bfvcSwC22OoNXyLK5du9Yq5+WiBk77t3HBmkJ/zAyCjcBOMFiMcGa8Aifoxty73UBtEKRUHJrG6Yxq6DgQODwuC/mIQ4kirNg+EsdFKc6L42HEMdt2grDgIpcvwqoG0jXlHDyAhMZlfoDo9iQg45XbCILVQHF8CqWhFbztHUwJwuFUg7BRpGgIwr0+vY/m3/cHQUjdQx1+oTd9VBc4hcxGV2+PtOdlywd7zS6zBGFhfh6/+7u/LaK/rfarCULMtsYwwJFDh/HYyVOYGBtT4sQ2K1ctplKlBnXbqwC/G5f0TkoM3H9rFkPoi3KblOfQmCIIp0+fRn9f/7r2za2POR1XTdKUxHjju9/E3M3LSJqNNQdGYineCpJvl8BCJca555/H6OlT+PN/+1msTs2IZkN/n3LlJfcOwOIZGxo7hONPnEeuq0eyGRQzqhFDnWUQVM/EHlgtaxFqnGCwbwD9PT2SeaJI9sKF86JduR9BKLGZqUX4wven8OZ8gqbdlc7HWC8kJMMdKAH/ySeew08+exwll45+RfzZWzP4h7/5eUwuNpEIuaCHR4hCsIpnjg3h7376JZwa74Vjx2hEFv67X/1T/Pl3L0utnXoH2gszrnI6IFfbETyU4wX87LMHcLw/v07fc9dTuEOrZW6bU0mzBIEGRidJEOxJDMYrciVEdoIez8dj4xUU0Yu5y2Uk1SF40o7JhZAtcyrYDRJ5Nqo0OqPz5UoVCJtIOBV1cAgWjZEW6a9gweovI9ddRjC1gKW5BfReehbVoof80iqC770Jd2ZeSFf25pMgjE2jNEyCcCBDEJSTY/ttP3Ux7PV3fAcfdfMUHZumZ+Yeqg+CfGGmeVxmEBK2E9bq8OMIXp5T/tJUboetdbt1ZhkY2wlCeyDnhZwlCEkU4uDwCM6cPo2TJ06I06E2MFJEQK/L1hN+CVj78CYZhCjGXKbN8Z6p3Mz74OvbCQIj8aGDozKL4diRIxgbH1ckSXs5bAWFHrgjws8Eb37vdcxc/wHACZWSfcm8ULIvanXGtrCPvPxxPPvRH8G/+qVfxvQPLst5WCeM1TOj73EOOJOib2QMJ89dQLG7X0x6SBC4tGXq/Z63tA12T6yWMwShv6cPA319Um5gEv6pp59Gf1+fIk/bvDFrs+Bb+JPvT+Gvp0M07dIWBCHG44cG8Pdeex7PHhmAhwALgYvf+sJ38dlv38KtOQZQpgpi5KwIXmKjbCX4mR99Cq995HGUii5uzizhv/+/PodrU7RVzMsoZ5VBWCMIARz0xMt49WwPzo71pD0k9+hi2AWRImFrzyC4kY/jMo9hCsPRihBGmh+V7SZOjlXQk+/F3JUS4qUD8DiO0GJpIrVa5ldA3kXjwACKz5xHfO0WcHsWcSGPrvNn4JTymP/+D2A1QuSH++E7CbqXAyz+9TvoeulZrJQ9VJabiL/zBpLZaVhtnR+B1YA3MonKwSredkfwdZcixfdOBmE/L5q2+RF6Tz99X/kg8Cte/AaaTdW3n3YfPAyENyMImx2HJghRGABRiIG+ATx24qTMGyjkCkpAlw16my1V9yc/kFU2nR7bCcJ2zkd7iYEZhNHhA0IQxsfGcPzoMRW4GNQ7IErsGGBe4Mob38PNd/5KCMJGZzhVveaXMQcRHz17Fj/505/GP//lX0Jjdk6ZVHmeMsYKNcG497uKqI0ZGMLpp55FqW9ISkBs7ZMMQiqWu9dWhHQB2HWrZSmV8AOUSHmBUx1dZmySGI899jhGR0fTeQz3OsL1f2duZTGw8R/enMH3Jn00rOKWGYTTh/rx9179AJ49zhVzjL+6uYj/8Vd+D3M1BzV+PCxaPsfoq7Dc1o2l2QUc6bPx2g8/i76BfvzVD27gt7/4OpoRxwPnpKTDCY/rMghsJfRn8YnHyjh/lPM8Mh4WW5LL1FQsxeh+hjURlfYMghs1cSS4hQv2FEbiqqz2iVfRauD4WDf6u3qxcLWAePEgnDgvZRk1sIkKjlhGIydHDqH7oy8hmJxE9P1r8JshSi8+Ca+/jPnvvIlwdhldB4cQ5xzYiytYePsdDH/4efjdXSjVA6y+/j0kd+4g15YVCOwm7MEb6B1v4C3ngJrmmBIEPXI7e6b3UwZhe1eoefZeIrAvnBS1voYfLvags5vBy6kxwGsDfB5cFNW19+1kENgmRzvh3u4eHD9yVI3aLZdTG+QHd+ybXixrAoe1P6/ZIGx5fe2mBoEdBeI3GCfipMiRxEODg3j89GOtEs7dVw3aKtcW8d3ktbfxg798HVagAkj2poRtbGtkScOBW+rCpz7zc/js5/8NSsU8zpw9K1M1v/61r6G+UkV+/fTurfGgHqZYwRPPvoDKwAEZiy0ZBLEH6iCDwPXunlktrxGEnnIZA/0DyLt0J4xw9MgR6WTYvlBRYb4cuTKw6Tu3aqglhVQf01ZiQILegoWf/bELeOXSGXTlHPzaZ7+Bf/Fvv4mS46BY6kFoAfXaIo5ODOPZC2dRtEP0OBHGB4fhdZXx+T97C3/wp99AbBcRC0FYyyA40p5KIpZDoTGNj58u4tnjB1vzIO5fg9DZedssg+CQIISKIByMqrAlFZogHzdwdKyCwf+fvfcMjiw7rwTPs+kT3gPlUCjv21RXV7WhEymKppsUpRGljV2FZqSJ3dCGYiNmJzZ2IrSxP3dixf01sZK4IQ3FINkkRddN02Q3Rc/uarZldXW5Lgug4F0C6Z7bON99L5FIJApZXXZCeEEQ1UDi5cv77rvfuec73/kyTZi9GoM/1wfDTQKaegYIEMg0uJYOs7cP6ScfQ8FdgPP6BbgTOSQe3AO/NYnFU+/CmCsi3dsJuyUDOCVMvfUGjNZ2JFvbkJ+dgTcxDnN+ETbRa9UhAKEtBAjmSoCw2iIbUsEzPj4uxmZ3dPe+RrOmDSfFOxnm3/u57wujJJnaYSUDc/kUnZkxWxoQRb+rAIVl59v3/qnr/uWysc4yQJjG17/+zJoBrDrFQJEis8upeBJbN23Cnl27xfI2Uui/94sNy5hqFHQeN901J+XCE/m8R844ggOien3ZbakT6boJN9RBrLW43tYqBs9RNrMI0NHShpamJuk6uGvHDpUfFzOnGwEplb3nrpIffPb6ME698kugXFC2tVVHVPglAMHXEegmHj5xAtsO7kGhXETMNPDm66/hzddeQ+C6MJhyCOdVNN/EM74WeDCHbCew74FH0NTVL6Y9LL1T2tLGAs0dq2KIGAQ/EA+EjrY2EcTqvoe2tjYRhEbOj+uPdTWODFD0dbzy7hR+ebWAOT8FXaNteK3lL6D7BRza3oF/9+kn0Z1N4sVfvgqrpRsdyTiam7I4PzqP7/zwV9g71Ik/+N1H0J6yEGPmXjOw4Jr4P/6fr+Ot0VnxE+DY8iBEoWCPQY33wwlsJN0cntxk4vHd3UoDsu7cUT4I4k6+ot2zJ5VSjR7VKQb+je6V0edcx2GMYiDIyVzj/DT9Ivo7Ytjc2YqFywbKM10wg6zyRKmqfPG4IUrE0X70MGYXZ2DNF7B4fRrZzf3wEiYKE9Pwp3LgNikZT8DP52HSydUyRGxoej4sx1Xi3ZqHwNHKCJrH0LYlj7NmG05aTDFs+W9CpCiP011OKTc6B/61ve6+SDEw2MmkYI7W9eCWSjBjMcBavejKQt6Iouym7mT02C5HmuUUw5crdHS9SRulGFjmyH0kbY63Dgxg+7btUtFAkeKt8Qf8wLW7NdK1y6mL0OIdBgFCKC6PFPOyyIbmSJGtMz8Hm0eB3vnhsdYDWStSvJkHl+9bsVpmCoZ+DoCiwFta5fvQ4Da0NDdXTKfWvm2qTIw7dVKkS9NTeOOln8MvLkKvmRDR9JC2tnT/Mwx88OMfQ+tAP7737HPYv2snLpw5jbFrV2GKyRQb4Cz3Y1Dkyuq2uDydZtnYefAhtPVtle59lM0pDURjgeaOWS2HwY8MTTIeR2dbBxJ2TFIMBGCHDx+Wipr17nft+MsQ+sAbFyfwL5dLmEQWlhDkynhoBTALysjGXPzxR49jb38b4rqLLZs3IRa40A0Lb16awT999yWcOLwNH310FxKG6pnh+iZOjczhf/u/v4QZUvFVeg6pcgqBGKuEXMQQcws41qPhw/u7YTKJ1EgwuUUfBH7O6hSDAATfQXd5HAcxgq3BgrRRpuaFNswdzTp29LQhP2yhONkOE03CntWuBgQ/diaLQpm9SiDOnWyiZpQ9ULStPDlCl0jLRDGuoRQzEE8mkTZsOOMz8Iulil14dD8czYPfNIH2rYs4azbjpHUE45mtUmlBUFt7bKQYbipg/Kt58X3BIEQAQazK2fGQDELchmatLh27MwBBHvcVjXwEIMzO4OtfUwChbilllUiRjZoowGJd/6befmzuH8COIdVJ772ox5dnYH2AsGzHtlyLv0LqUOWsyEU+YgPoFcBSqYSUFy6bzNRdZG+n1XIIEBhMs+m0uCkmYjEMbtmCnp6e5UVwzUdPednLztL34eQW8OovfwI3P1+n7XB4koB7NkOIAAAgAElEQVSiMR3p7m784b/7U/zD3/8D3HwBxx5+CBfeOY2x4WvSHIg17aqSQRU2KrzB+bAy6Cu8YYhIsWvzDsCg34XqysldcCOH0iDUVDHcBidFAYKhBiFu2+KFwFJbIwikIdjBg4ck5RUxSg0F1RBcclTeujKFFy8WMOFn1gQIDHa+V8Ce3iZ89OgefODBnWhNx2AGDGA6zo4s4hsv/gbHDm/H4wc2SWkfPQ4KMPH5b76Mr/7oNyhbiVUdGmmGFDmSemYCRmkJD3a4+L1D/dKwKaoMuuH436KTIs+9ikHwXXSVJ3AAI9gWzEklAdMibOSUTfnY1dcJdyKFpbGWNQGC72twaQxlEMjq0GImjJgtzqmaZSCwTeipGPJuGc1dXeKpUiqxiZwPo+hj9p0LwPwc7Bq4tgwQlnDWbKoABPGxqAMQ7nmKoSmLT35CtXuWzWIjoK+RB27jNbc0AvcVQFhmEFSK4e4xCCsBgiy27N42M4WvfbUxgKBc+1yhcfu6ejDQ24c9FCrGYpVHt7ITqHfLIpV++LsKqBA1vrIKFghDhzX+W5gUVfolFCNLpzSgROtgzxXr4EKxJK2rF3ILmF9YwMLCPBaX8tJb4n1PPIEt/VvVOdfwsY9AxW2xWhYNggq+qXhcqj3iMRubB/qxadOmFb0N6s/oECAQ1PBzF/J47Zc/QWF+Wpib6kMoZ+mcqaEcACc+8mEced9jePvNU2hNZDEzMY5L58/i4tkziJs8nw89YcFIxOGXXbgLS5LGYCCPqh2iAOwEwNC+w+jethu6GVsGCI1UMYTzqn4Vw3KKq9EnmkFiud2zAggkm2zDEJ1HRkobVXnogQMH0Nraqsy41utbEF0AxyAsD3xnZB4vXFjCdSclu3aBUzXUmMvUAOlwfxFHh7rwF5/5ILa0JwVQ0Drh4uQivvCdn2NzZzM+/YEHkUmY0hlxIu/j//wv38aZ6zmUwtbn1WNA1kh1MQzgGHGapeBQWxmfenALYvqyS+ma43YHqhhkxfA9tJcnsT8YxhDmYAcEPIpZiMd87OlvhzbbgoXRrAAEUVTV0C5Luo6mHUOIN2eRcwqwkglYTWmUDYivR1ByoJdd+IWSaGq0JdUgzs8XYRZcGMUydK8EvabNOx0wnfQY2jbP40KiHSftIxhPb1VGV/clQGgKAcKjG+Cg0QXgLrzuvkoxiIGI6wuDQBStmSvlNLKE3uEUQ4RcawFCrVlRdG8qRknCIHjQNUOMamglvGvHTmQzmcptXA8VV9f/8rWRORDNUniQBiTS56LN72W3jFKpLC6OFN3Nzc9jrrCIxdyi/DcXGP6OTYYUIayEHrQ8/t0PfQT7t+9WKZDwverNt1tJMfB8lSqGKoAQtyyxW+ZOt7+7B1u3bllBf9ed92E3PO44ZYdRKooGYWZsZFWKIcrpUELo+gGOve/9mCwsord3APv37MWFs2cwNTaKt157lY17EU9mcPjx49i6eydmJ6dx5uRrOPfbN+CKu52KgjJGGnPgwMD2PWK5rFvx+zDFQNMdTQGEVFo1OAoC8ZxQlQw3vt+1Yy+xNQAuTObx/LkcRorxNQECzaJ4f8zAQYvp4H/8ww/isQMDckrfd3FuagFf/N5JeAsL+JPfO47WlgRG5wo4O7qIr3//JcwVyXbUSckFRmhIFaCox6G7S9iVzuEPj25HUqy2G0ji3YkUQ+ChtTSN/f4wdmgziPluqEnhRiHArv5WxJc6MT+cgRFkVYCvGeC8qSG+dQCJTAYlt4xCiV1iy9CLDowiAYAL2w1gllywzLYQ06G5LBOFlIoy7cJSULbhrj5c3YeTGkPrplm8m+zCSftwCBCUj0jtcc9TDE0rAcKGF8JdiP4NvMV9wSBEPgjieOvRLpdVDAQIoUgx/CAVgNDAB7v5l6zcwVH4fzMMQple/xS7aRpaMk1iBjQ0uB3tbW1qx1bV3Gmta5NmU+znTuvgwJedgny5JRTydApctg2eX8xhLrcgmofNmzcLCDh//hwmpqcqQZ8LJ89DliFqZBX1EHjs2HEcO/BA5bXL17S8hN1OkaJTBRAsWlL39CBpx9DR1orBwUFFqa4jUpQCwVCkqDtFnH3rNYxcPCs6gurDIyNgmkgn0ijmS8g2t2ByZgZ+zMaxx05IOWo2lcTs9BTGRyeRburE4Scew7Z9u2FbMeQnZvCdL/x/OHPqlRUCOBHMQUNb3xbsOnIMuqUYBIa0RlMMd1qkSBxFCMWGTUzlSJtkXZceIUNDQxKgbsaaWzQTvo+rcw6+/848LufZh5E7ZcVerTik9TL3yQEMr4j9mzrx+EM7xI9xbmEBF6cXcPraDPylAo4f3IG5hWmcvTSCXNlAGXRO5N+KlHDFaWkuxM/BNFBJt2GhjAFzFp99ZDuabBV0V15KHcBwJ0SKgYfm8qwAhJ2YQjzg7KD/I+2PPezobUKz34+5awnoLgFCfT0SWUHPpXhIpZ8I2rnRkOoYoSR0+exMX3CIVXUOmSBd2sWDduNOOezyoYaOhk3l1DjaCBBSnThpESBs22AQbj4w/Kv+i/uizDFaDvhY0wJXlTna4oNQvVTcPAn7Xu+t2r0rgNBYFQPtfblS8cHNJFOiQ6ARUD93beHqdSO1Nd/P811MTk3g2ugIFhZzWMwXkC/kkS8sSadBghAyB66rqEw2dBrcPojHH38cR48+gp/97Gf45je/IbnSiBWIOj3KLjjyFgZwcN8BfPDRx0Mb62VnwXpajNpeDNGOer3RrTZKqgYI3OH2dvUgnUigKZsRU6mmJprerJ17VPNA/b+US3oOzr/zNq6efQsktqsPBq7O/k3YdfAALl+8iImr14BCCYm2FljpFPr6+qVEcceuPbh04RLm53LYtm8f9hw5gmQmKwrQ11/4Lp575h9Xak9CD4NsVz/2PXQcGu1vQydFvUrwuda4SFANUxe1PggqwjWwE646+VopBgbTjrZ2NGezqqxO19HS0iKVDNK/hB1A17t54e8VQHAwnnPxvdMzeHeBrZ7ZU4HsXr2zhD+jpTU1OUYgmhcpYebVGBZMTUd7SxP8wMPcfA4etSLiNKjcBmtQR0jLU09iSM0IAUKbWcIfPdSHzpQpu3a+V/SnqrNm1Ymq0ncrqxjYYZHOm42NRq0GgTvxbHke+/2r2CUAwVdeD3Ch+0Vs6siiO9aD2UsaYm4XjICGy5GNulpjCAOYqhAwL2WdKlXk23H4po3AYMUC/alN6LYF02bpKpkWtnQ3RWOC2XmUCIB9rkGKYqWuqxyfRPuWWVxMt+Nl81AVQFh98++9BmEjxdDgI3lXX6ZSDFKid2+O6NGMvotRUggQpGnRXb6syiIjAGG6YYDAvL+AfebYE0n0dfdgoK8fg1u3qNbAN8j1q9inAMKpd07h1ydfFoAQZd0jYFG9w+bi8sADD+CJJ57Ar3/9azz55Ptw6NBhPPPMl/Hcc8/JGNbuyCvVDJomBkUfff+HRCOx8lA7l+ia1koxNELrrgUQ+A7UIKSpxE4mMLhtG9rb29XO9gaLtUqSqKY9WuDhysULuPDbV2Gx4cKKQ8Oe/Qdx9H1PYKmYx6XzFzA1eh3bduzC5dHraOvoRG6piAePHhMh3/nTbyOIWdh16DBa27vkTOd+/TN87fP/pSLuFGqeDAKrBNq6se/hE1K7zx2jKmVdvxeDaghV32r5dgIEijhZ5sgqkYhcIZhUvS8SdVijGz1k1Le4mM57+P7pGZybN0GGhpUG9QFCNHXqP7kV4NpgUFaGV/Jkgc2y+Gf0H8iaDv74oV70ZJYBAiGLcjNcDRCisb/dACHt5LDPu4a9mBCAwIoLTXOhe0X0tqTRl+7G/KUA8XIvjIDganlcpBFdKgE0JWBZtoypz9bjvodYU0aeBX52z1VpIlpn09fDKbH3gib3ISh70JccBPkyfKnGUSyGYwBFexztW+dwOdOBl639yihJ43itBESyOfG8e+uDUJtiuMvr/sbb1R+B+yLFwEtbCyDcqxunGITGAYJDoyRx/teQiMXFLbCnqws7h4aQiMfV72S3Uv8TqZybj/MXzuPHP/sJmEIQQaKUma0WYjFg/cmf/Akee+xx/Of//H+hWCziP/6v/1EEin/3d3+Ht956q5Jvjt6xuhKDAOapj/we0il661fv3GuqOW6T1XI1g8Adbld7p1Dg8ZglJj6sZDAioZ9Uda0eKFVj4JNmgqEFuD58Dadf+RVM7pyqDq7BLc0taOvuRqKlGfFMGppp4eFHH8Nbr/8Wm7Ztw0JuCelsM1pbmvHWa69gcm4K+x88gm3bd8gG+YWvfBEvv/gjGcOK/kR2ooDV1CYAIcEALIUODaYY7qTVcqXMkRt8X6yVablMBpoHu4WyqyN/zqPRNIPMS9/BXAn4welZvD2jvAlIpDe6866d8VF+Ofoe3etqQeiyLmYlQOC5TK8odsZ/9GA3+pvjMhcIV8giyC6c+/Lq6XOHRIqcDClnEXvdq9ivTSARONJMTBJRfgmdmQQ2N/dh8YoBq9AJA3RTVAAh6lJrtTbDbc3AZErB81FeysMruzBicVVfys2b4yBwy1ImqXkGXK+sxKdROsZXKQeVoGDZZwDPAPL2BNoHFnGlqQev2Psxnu2Dp1vQJRW08rhfGITjx1UVw8Zxf4zAfSFSrH6W+eBUUgw3YWJyu4ZzpUhxGSCsJ1KMAAKf/7hlo7uzC10dHdhF+jybXaaqbwQQtADDo8P44Qs/wszCvATuSCleW2ZJ85u//J//UlpIf+5znxP0/7GPfQx//Md/jJMnT+If//EfpYJBCR2Xdy3RfzNH/enf/Riam5vV0IknNF9XVa53O62WqzQIBAitDODNLbBNA5s3bUL/QD8MgyWhUVVF7R1VLZjl/30Pph5gemIcb/76p9DDVtKVvxARFsVrBmDFxXWubdMAPvsn/x2e++dvoruvH2XXR8lxUcoX0JSMYW5pFqnmDI4eewSXz5zDD7/+dSxNT68MgjI+GttDYv8jjyPd3CIAQd3SmylzvHNWywQ3DCQ0oqLXhEkXKGlrbYhQsbu7u2LW08gzI5yH72DBMfD8O3N4c4IBKNTMN8wCrH6neiI0PmMsKWawWk7H1QKEALQ4TuklfGp/C7Z3sSkVAQJZpWoGoeo9Q6WllPuuMEpieWtj/hU8W60PAocm4eSxx72Cg9oY0gF1AKGSgELNuInB9s0ojNgwltphBAogrABGto0S/V48HzoFBwQFnL6e8vtgCa4O2olTS+TDEVzGm0y2wKVbEwLdEQMUzkWKPNnCHIYJxAqINS/g3XgfXjIPKIAgJaOrP/M9ZxCyTfjkJz+FCCBsiBQbeTrv/Gs2GIQ1xvi9MggECJZhorujU2jeHaTP29pUedkNAI8EbniYmZvB955/HmNTEysAQu1lHjp0CP/+L/49fvXrX+FLX/qSUITM4//5n/85dgztwJe+/CX8+Mc/XvXpeB1cgBmgP/HBD8vOnUfl2mTxUEFlLZGiwhPr523XSjEQIKSTKfR20QkvkKC1bds22eVG516VHol2yFw0JRh4WJyfw+u//AmCIpv7LB++5kmrXN1nHUMMrhXHtgMH8MlPfBTP/NMX0NrWibbOLmzZvh1XL11BbnISA1v68dpbr6KYz2F+bBxuoVjTREOlgQikHDMhAKGlvVM8fVRZZWMAYW2R4u3SIAiqE8vv9tZWWCzjDO/vli1bsGXzFtHErH/31HgKQAhcLPkWfvDOHN64XpIxcBXt9J5XqGrgGs1JtkQvlx1YlgkCbrYHl/lQlWLgFTHFQAbh4ztT2L2pU5gDUwsBAoV8VZ4m0QWye2oEuFf0YmiwPJXnqdUg8DmJOQXsca7gkHYdGb8kczPQldg4pQM7OjejNJaEsdRWAQhKh6CujK/j5dIJMXJ6JBOg0TtCKwOGC83woFkeNDOAbvsw+N30YBgedP6OXzr/rVpKKwARg+7p8KxZnNW34qT1EMazA6FG4j5kEGoAwnueWBt/eFtHQJuemQ34UN7LY4VI0XWlTt+2YzDqGCXdjeuMFq+bSTFEGgRpLAMN7a1tAhDYl6G3p7uBOn/W7fvILS7g+z96HldHR1QNehXdHqFq7gY/85nP4EMf+hD+9m//Fq+//rqUMzLIk0b+q7/6K1y9ehX/8A//IN9rxZE8TzqRwoeffL9UEHABlnJHocCXqePbWcUQ7Qqj+0eXv/6eHpgBhPamwp558rWFnGpvplZVplyAUiGPV37+AooLs0psGZbBCtXKRTLQEdBJUdNx6OhRHD9xDF/58pewtFTA4OAQtm0fQnM6hZM/+SnsRAIDg9vw+muvoJibw9LCwiqjJNkbBoBr2Nhz5KgIIbltk6ZNDTIId6qKIQp+olHzA9FWMI0TC91IOa4EYjt27BBNTKP+nlTjs3y3GJj42blp/GakhBz7MTAQ1T6MAhp0ERzSa1HhYU8MhDwvrHqQslodthUgpru0ScRS2ZD8+VBfFlacgdLE8Og0Sq4ONzCV74dQ88oDhODQ1hz8zmACjwx2QPdLCDQWrEZphiodTXSNd6CKgae2vJLq6IhRtLNhE+eIBPtAqhq2dfQB8wkEuRS0IKbYAxpEBRQU+tAMB5pRgG4ZMCxdvutmgFjMhWHRCjoQwAH6PfA7q2bCcQ3gCCAQwCfrhDL7UgDEEOtnljue0wbxEkWKWWoQ1HNSe9zzFEMVQGhk83E34sDGewD3BUCQDgHSKx3wXQ/lQhFWLAaDit17cNQDCOulGKoBAhdfCsS62trFCIgUOqnT9Q6qugulPF74lx/j/MV3pe65GiDw73ltiin4C3R1deFzn/sbsTOOfpdIJPDJT34Sn/jEJ/Dtb38b3/rWtyRlU3vEY3E8/uhx8QWghJI2zVzwCRCW9eAqV1qvimG9zxJdT2S1XAsQaPvb192NuKaLw98Qg/UNLJdFnFhZ/FTtO0HRyV/8CIvTE8La8DNIyWGIIzh2tKSmmGtwx3Zkm8nkWLh0+RIGBgZw8eJF5GamkQBQ8AJsGtqJ3/83n8Fbr72E5599FglrpYBTABNBlGFiaN8B9G/fIX0D2IdBbJ0bOO6U1bJoVUKRLD+/LV4T3UiwYVN4MC21e/duxFhC3KD6V2k+XJRh4jfvTuOXlxYxoVF7Ed2P5Q9N7YPnuJVyPCruy+UCkpqGRDIFKxYX7QL1H4NbOtDfbKG06OLd8SLm5qbxF3/wBBaWptE9sA3nL03iJ796C7OLoaWzUOrqogUwBB6e2BLHB3a1wfIKcPSEVA+YPqFJPYCgnqXbmmKgHsIvY7MzhiP+CHr9WWHfHN0W1oUW032tLUh6caBkwmZvDDMQjwSLTIDF4K7SBewMTyAW8N/E6DrLHkPf9Ib5nuV7ERmHuzBxziBA2IPx7Ca4FCnWdH4UGHevRYobAKGB1ePuv2QDINQZ81tlEFjJwHbGZBH6uruwfXAQ8XgspOXXDiQ0k/Hh4Se/+DnePPVb6WxZDyDs379fUgmnTp3CF7/4ReTzNPRRBwMng9+f/dm/RSaTwec///d4++23V6UE6Pf+0JEHcPSBB6XsLXJ5owK8sje8jVbLtQCBfgy9XV1ImZaIOJli6OzsVELFOtS1AgjL0EW8Inwfb778U8xOjLJzgpR81QIEhyVkpome/l5JLfQNbFb215omZaG5hVkM9HTj8MOPoLNvALZt4tvf/ArGL11B4Kw0lFG7P8VIbBrahcE9+0T0RW63nvCr3uMsIOMOWC1XAwSiGFp+c3yTMXo1qIMMDRkmzouGAQIZhBAg/HY4hxffmcak1gzdqAEIZKViBrb0MrXWiua2VoyOT+D02XP48ImjKJXLcDwPC4sFXB+fxOCWLjRbDlLxNC5NOXj79Bl87PhelEs5sR5eLBt44/QVTMwW4BtsuLV8LwQgwMOjPQZ+Z18nEnBQ1tl3woNB19G6AKFeiuHWmjVxTCOAcNgfQV8IEFwjhsAjWClhS1cWvS3NsGQDVFQdHakbgBO6atDJMx5qZgThhlog1YfhvR7LAMGqAghRFcPq895zBiGsYjhx4sR7/cgbf3cHRmADIKwxqJEG4avP0GqZ/elXO7bxZxUnxbDMMaJ4qdBnLToXS/ZkyKQzYSXbWgCBtCBzlx5eee1V/PrkSVD5z2WtWjhJKv3DH/4wnnrqKXzta1/DT3/6U9lJRweDJnfnFPs89dTTokN4/vkfSNomAhCysBkGDuzei8dPPIaYwV2FyksLQAgDtASzOlUM1ee50Zys1iDUAwjdnZ3I2DG5FlYy0OkvCt615xXBVggQotQHv5954yVcv3YJJE51lo1VMQg04BIWxlAGM0++70OYnpkT5oXGTGfPnkV/Xzf6Bnpw7uJVlP0A+VwOF06/CT9fqMsK8CrYSa+zfwv2PvCQlI0RNChjm/UPxULU68VwaxqECCBIvp4AwTDErTJVBRCo8SCDQE1MQwfPFZaUurBwajSHH749iSmdls0Ea9UAKkDC8LCtuwntmSQM08K7wxO4PpPDiQPbwXa+FASOT09jcmoGW/q7MdCewMLCIt4enselq+M4tnMA27f2o1D2Mb1YwltnrmBiLg/fNOX+RfNOMQguHuoI8LsHehDXHbh0WKwGCNUgc80qBor8GrtvfO9aDQJPS4CwqXwdR4IR9PtzUmdTFgbBh+WX0JU1MdiXhS0MCNkCecoqX8sVRBxreiPIp7zlNvECEJgOw387AOGpT366IlJsaH5uvOiOj8AGQGgQINxMikFywPGEVDFQTT40OCgtd2+YW5MiAu5+Apw+dwY//ulPZNfFYEKzIx5cGEnD/9EffRZDQ9vx+c9/HufOnRN6MPo9v1OLwNfRf5/ggUzDwsLCCpBDzcGObYP40Ps/IF3/ohQDQ2x1dvlWUgy8lshquRog8HMQCLAddks8KTlUOv3RETISKq4CCDUphuj3F995HZfOnRb/CbIg1c28CBAUSPBBqLVz1z7sP3BIxoKpGH62fGERMzOTWMzTnCuBhekpTA9fkTx3vTp/phjIILT29OHAw8cQGOyQeBM5/bA4rdooaZWxT4OPPccx6sVQzSBQkGfqulTSZBOJyrxjmouak142x2qQthYQEHiyqz8zUcQPT43huscUw2qAQE3Bw/u2SJvjxdwSTr07hssTOTx+cAsScQu5pQLKroepmXls37oJprOAjq52vHzuOi5cncbxPTvQkgJI3MwVXJy7MoqJuRx88T9QCCEqfyQYONxaxscO9SGhu3AMNqZyhUEIqFuoHcM7YLVcDyBIioHVOEEg/hwtcQ07NmURN8vSWRRQZkmVQ3MAvaD0LiJ0DZ2SbqrWZPWECZMxdQHC/Wq1vAEQGnzw7+LL7mOAYMOw18/b36mxuhUGgTs4ljp2dXaiKZXCYLg75u5/7YM7S5VSuDJyDd9//gfILS1JcIv+jtfU39+PP/3TP5W0wj/90z9hcnKyEvg9T72WwTedTmHv3r3S5vfFF1/EmTNnluv5uQxpmrg9/s4HPojWTNNy3v4uiRQJYlhJ0ZHJyrUQQG3fvl1aE6t+EbVSqpUaBK6xfM3IxXdw+s3fQPM9sPmy7L5EDxA2E9JpKMP6ENW8ae/+gwIOqHvgGA4PX0VzJgXTTiC/VMTolStw8znpgKj8Klce3OGRr2nq6MHBo8eg2QnorC1vMODeMZFiaIYpQlN2+qObZHsHWkLhZwQcCcK2bNosXQGjgHvDZ4gq+8ATpuTirIsfvHUd18opsD+I0oQsH7rm4MCOTehtTknb9stji3j78gSePNiHbDqJQLOQK5RxZXgEzdkMulriSGeTuLbg4+Qb76LZ0LFzsAsl10HR9TE8PoWlkiOCO9UovAog+B72NhXxiQcGkDFcuEZCDLRMduasU8VAYWtUJbBcxcDnrcFxWINBYGOmgfKYMAgD/qwYUznS4j2A6WvIWgGGBpqQTjiqB0KlSii6YWQxSiE4YLqh2uTpdqQYqjUI9zbFEKW1xDkycnFgF0sA2aZmPF1V5nin1vWN897cCNyHAMFFuVCCHbehNyDsu7mP2/irbxoguMtufvxbisS4QDclk9jc1w+WmN1IqCgdGUV9D+mn8J3vPoeZuVlG8hUpBnY+/PjHPy7CxFdeeUWCPkWLDHZjY+M4cuQBbN68RWhk0snsL//3f///VpiG6sBLAPO77/8Qulvbw/QCA6taoCTErqFBaCiwhH+/FoNAz4PmTAYdzc0SzJgX37lzF9KZtNJDrNIhRIullFpUQtPM9Wt44+WfwwzKYllLup9V8SuCl5S+iTOC/J4ghGWi7MA5OzMDz6WFtYfxsQmUS8Wwnl6VNNbAAwFStAyON7fh8LHjMBMpGKSU62rDa8HFnXVSjN5N0mEAOtrb0ZrOrLD6Zlnr9sHtkoKI7uONmC1lKaFaWg8vunjujWFcLmcksNYCBL60v6cbadNHW1MW8/kyTp+9iEODHchk0lgseSgHFq6MjMF3HfT3tgsIpqhvdGIWlm4im7CwlF+CS18ApdZbMYgVJ0bfw9Z0Eb//8BY0m2X4WkyAIRtFscJilVMSGQRJoQFTc7O4dn0ExTKf2cbGgRdRm2Igh8Kx7ilP4LA/jK2YQSxwRBgrYxsYSJjAUH8GrSlP7MHDzhFVnynsPifTO/qs0by7OwCBn+FOiRRDrF5h9oSfFBAXQNqD64YwctlsMz71yadwYsMoqfEgdRdeuQEQ1hjkWwUIBANtra1oTqbQ19klIjzuXNesHZeKBaVByOWX8K1nv4OJqSkpfaSjIg9eE3O5LAnkbptixGwmi0w2izNn3sEzzzyDv/jz/wnHj5+A6zqYnJzAj154AS+88Dzm5+dWpBh4LroNfuR9H8DW3n45Pz3flYlKuEDdIYAQBaamTAadNPPRddFN0MiHLYn53+v2JQivrTg/g5d/9oIo2ZmXVn79pPzrLK5SgqfSG03NTaILcR0HS4uLyOUWZJG8UbBUOghW5sogzDcAACAASURBVOkwkmkBCMmmVu4VG2zWdGd7MVQDBN5fKbVtot3yMtAhcGSpI6tYGgMITNso+97xYoDvvH4NF4upUAi4cozFChm6iPP6utpQcjxMzszLvGfAL9ERUDPYSkBZB7OET4y8lPjU9z20xAxhwRwvQMlhbwNR7VXASMVh0ffQnyzi6SP96EmykZEtmhEDYefSFRqE8H1CgDA9O4Ph66MoSnm3qnhYu7x2eYFYBRBkPgFdpQkcCkawPZhBPCjBl86jVBqYsDUf23tT6MwEkv5o3IHi1lb/+0WkWA0QJI1JMKI50itCyS1M+IEhmxwChA0nxVu777f7r+87gEBqslwswYxZMO4LBuErElCixbT6BqwQKdYwCPybluZmtKTS6GhpwXYKFTNsnqNi36pAFBoleXSS9F18+7lnMTI6KtbJ1QBBqPnWVjz99NPyMFmmhWy2CecvnMNf//Vf43/47/8tHnroIfzgB98X7QFz1HPzM7IIV38GXjtV7b/z2JPYNTgUAgQ+wHfGarlWg8A3pJCzp61d6G5+LgIfCgjJvtzoiKpMZOeTz+Hln/wQQXEBJjveSZlmfYCgZI5q7AkUFOpSdHzEmDQEEGiBbSVw6JFjaO7ogcdugw2K3dYWKTbu6BeNTW2zpuox4+84/7ro9ih18mq3y4WYQIwplnUBggRyTTUTgo/Jsobv/XYUZxZs+cy1BItL3wlosIMybC1A2aP1sQlft8MyZhe2DsRY789GQ7YF29TRnE4gZoQFtp6PWDKDXFFpEEqStyeRVtOiOPDRGy/h9/Z1YGsz30Pl/alDoN2yeG5G91j0PZFDADA7N4vR69eRL5J5UPM9aoN9o3lXj0Fgo6kuYRBGsB2rAYIVuNjSGUdvG1tWsx18Y+Wwt7rQ3y8ixWqAwPJKkjueXsWygGurIWsYhdcbAOFW7/zt/XttemYuqFbB397Tr3+2KvsbRbDRj7xYFHAgRkl36YGqDfwRg8BujtI0qk4VA/+mUsVQAxD4N7RYbs82oSmZwtCOHWIIFAWg+r0GlEiRgjraLZ89f141xgmPaMEjO9FBAWRLi6QY/vAP/gDbtg3hP/yH/wXvf//v4AMf+CD+63/9R7z88svKA4GK85p1ictlMp7EE488ikN79soiKWuxtKRd7u5IwMId14XhYdUK5ybvx1opBn4kCjl7OzvEw4AH0zDUWMTt2A1LvJS7nxoUv7iIV37+Isq5aXHTIzi4EUBghYZSKFQGVTWAWn+qKutbMghsz2vEsO/Bh9DZt1lSGhVP7HXOczt9EKpFitVzJAIDBAE9rW0CwKKfMb2yc8cOYbfW380yyEYMgodpsVuexFtTBGJsSrT6w/JOZhMGsnFL2BwznoSl8xwuAqeI1mwSTekklopFaZTNRlADvT3wnRLKpQLmHQslT0e+7OOddy+j4Kg+JMooafngvei2Svjo3nYMtvO9eDEeDDom1jZrCu+3VBgBWJxfEOA8XyzCZaolBKjrTYFaq2XyHgIQSuOSYtiuzSIeEHRUMQjw0NOsY0t3HKY4JN48EFzvuur9/n4RKa4ACOwlIR0sVWM7ERHrHBUDmaZlgHCza8x7GZ+Nv2lsBLSZ2bl77qRYbZREMZFTKEG31A7jXhzRDjVyUowAQq1w7kYMAic5F+ju1jbEaawzNCROdtE5Vp1L3M8UQOAa8quXX8JLJ0+KBiECBgQDPKpBBqsV/vIv/xL79x/Af/pP/zu2bdmOP/rsZ/Gd73wHzz77rJQ3KuvVlSPJQBWzbBw78hCOHjoCwzTlga0AhBtoEBp9gHnd9QACr4S/Y/UEAQIBAf+bPghsX52MsePg2iE7uj88j+EW8cov/gX52TEVhLhjvQGDEEW1CuCToF9HjFiV5AgdllcABEezsPvQYfRsHoSmUx7Z2MJ/J62Wo3EVhsT3kUom0dfeobqJhuPJVI6IZnt6bwhWlwGHJgJQeiPOBzEBCK+Nc4EnNb9y3AzfQdbW8cC+ITSl4phbWMTw2CQ2DWzC/NwM0inVvdM0dCwVS8iXypiYnoammyiWHCwWCnD1FJbyRWHNWPGgmhqtgHTqGWAKRSviY/s7MNRpw2f5SuCIFwZTPlHaQMbbpZuj6rTKfgdL8zmMXL2GWbeMQsysAIT15vVqBkGVBHcUxnHQu4Ydeh2AoAVoT7rY1ptA3NRVVLwLR32jpLsvUqwABJpBCoMQIFt25V6UDfpHmSgZBtLNTXg6TDGsdx/uwvBtvEU4AvcfQCCDUCiKi6JhU/x194/bARB41eyU2NXWBls3sIXq8c2bpbmS7GSiNnuVjxdIDtbnL3XgrVOnpNSRO/hqk74ILERBgGzCRz7yEXz2s5/F3/zN5xD4Ad73/vfhC1/4AqYmJ8P2RtU8jXpDnsfUTRzZvx+PPfIoaJzE99bEKHq5rLJemWOjD/B6ACFGt7+ODiTjiQr9vWvXLmSSqRsyFRXqmHXo8PHqL36C+clrYrnLnKaIFCOdGncpUmKu2ubaOtvdKpDF6gb1mcPWuQx4htIpMOBL0ZnseEiwq1JS7gC5xlOHsHX3PmzeuRfQ7XtexbAc0JebAbFkdFNnl5gmRfeMqa9N/QMyF1fS6pUEzIoHLiDl73OEDFy3dLxw/jpOvVtCwehA0ZqD4QFxNwvXYOxbREbXsHNgCzpSaSwUFzBSmkNhtgSOOs/F0t2S78HlGLOhQwAUTU1YGcNnWyJLzLLIGIinpzgjMp+vqXbHrFTwAUPz0K7n8ME97djdRYFiSRguWmszpx1hl+hZJhPHv7NcYH5uDqPTE1jwXTj0WAj7pKw3r1f5IEjnSA3NpRnsd4axV59AHGUR35HJIIPCtEJrHNjen0XSIoNQkypRs6pmkePk5XxTk3i5KkP5P1QtGcKwqjSJOktEtHhsHS1jbuCUvQU/j+/DXHKz2gAEvvI98ZmSUexSyS9hbGICI2PX5ZxqzalaN/hPakZVH7RVV2wJ+Fr5MRR8DK8t1B/wb1OOB8vns6chb2nIxTTEW5vxmY8/jRPHT9w0S3n3I8S/nne8/wCC70uHPdO27juAUG8BqZdiiAIwxVmdbW2I2xZ6OrqE2mUgls1O6G1QsxpLIOODdfHKZTz3/e+h7Dr1X1v1h8zvP/jgg9Lymb0XaALE8sf1DkKBHduH8P4nnpQW1QJcxPBnecG6FR8ELs71rJajAG+bJrrb2qRxEw+OF53+mrPUajS20+Ji984br2Ls0juiYFcMgbI+Vj4IbCzkyXzi4ma4PoKyJ7tqVwtgJuJwAx+O68Cybeno2NXdI1bfF8+cR3FuHoQcFJBSnU7HRC7ZXKZ7t+7A4KGHFEBo0PXubqQYInaEwGBzV7dUz0QpBgKEnu5uDG7dVlNVwzC0EkgySOQsdhDUkF3yYPoufnN2DK++q2Fcb0baG4bhB3CMbuXVoc1hyQZyZgaBG4NdZqqKugO7or2JqOUlO4CrB7A9pmzIcAXIOKqHgUcxH++ZeHpAOndS+e6XS4iB/gIBNN9FU8LBA4Md2NWVhBWUQFYHZkIAhuIcFPjjSbyYDsMJYOTLWFhaxOXpMSyUyyKajOb7egChNsVAYMGYmCrnsM8ZxQFtBAmtxO4TsOmKysDte8jGNGzvbUVTzAVLQVceSi9RewjYCdeCqPqGw0SWpvrlMp58mzAUc23hbaTg2GcTp4KOd2Lb8PPkfhSsbSjqGoqmcpWUlCLBTKAhlvcxPjmJkeujahbUAISIw1E/rk33AJbPCpI6K069lApNpDzeR6CsAwtxwG5rwh984tM48egGQFhv3b6bv98ACPXmdNgi+b2mGHjKyNGwq6MdqXhcejPs3rkLqURSdkKrAQJRAyvvFUBg/4Mvf+2ZUPm99pSIggF1JAwEfN/oZzfqHskzUlXMmvj3Pf4EWpqaFUAQU/hwwaIIsI4GYb2FNLratRiEipbCMNDZ1IIsrX91TbQeZBBYfkkjp4YOz8Xwu+dw7s2T0vxHUasKIHCRY/A36SZIMVxzCxKmjbnxSXHHzLQ0wYjZkl4ZHhmBHY9h69Ag7FgMjuth+OIVTI0MK9q6BiCUfR+dm7Zhx5FjMKx4gwmGsHT0DlgtV495BAaoPdjS0wfbUgxCNC9Y/siUF0EhA4S6n6plcu2hexosx0Nm7Bpw8nW8u2DjG+gCYhp6F2eEW5mzk4gHQHZxEXkdGOlsw9VsFmUzhaQfA9wSihZQoiu1DyQdAizeKxcJoi7TkKDe4pnQtTyoCaZugYw824En7QDpOJBJxJG0TaRjtqRP9Dj/O0DML8qcLevs9cA9q9p90w8iEgSXaRlddGA6PsqOg0vjo5grFhHIfA87cq6jr1ndzVHVVyScHHa7ozioDSMlLZ8NmEwXShMvIKF52NabRXuavFRtXxSO/cq5LsGbMJTsVsVBlD/hPVRp16ivhAr0imOJ+oHIBoRn0Apw3RjOmEN4xd6PRXuTMDSOTlCnWkc77PngA2ZZw+T4BCauX1eupCHAqk0jCbcRiTmqJot4P9YDCHWeDF4bAQLBIT9HyQASrU345FOf3mAQGlr07t6LNgDCHQAIUQAUt0DZISdFkLdvzx5k0xmhfFelIiU/x3SCAgjc5Xzpq1/BUj5f17Cn+rKFLg9L9AgKqin42sBR/XfMx/b39eF9J55AZ0eHepRpHSyrahjM7oDVcgUg6Abam5rQ3NRUoRVZvslrisANP9sNAYnrYuLaFZx+9ZfihbCaQQDauzrR3duD9q4ueI6Dc2+/A7fsYHDXDji0ptYMXLx0EaZtY++BfZhbWIDj+fAKRZx65VUY0uSHlPEyg+CwIqCzDwcefQIw7Irx0A0fXVm4b6/VMhkjskW1YxSN8daeXsQJkKoAAsd7aGgHstlMZa4oWLU6FWX4zB24MMfOI/3btzGlt+HzxRj6x3LIx3XYro+W+SX4toapTBLwDHQVCFIdOJYHkztFK4aCBXgJC6YboMkz4LolBJxqto3E9k1wW9NIWkkk4zHEbBMx00TMNmBx8GWnrupTRKxIIM0+JYYuLaH53PC3dHvk88NERQUgqOivwK8fwAw05BYXcXnkKuZLJWm81SiDUA8gcMiS3hIG3WEcCIbRInOQ1uUKIJBtSsDFpo4UetpoqFULEPjUhQZqYaWF2FuDJbc0Voq2DJyDGlzDUp8lulXyElOlDoSIYSrNReAScJuYtxM4Fd+K12KDmE52wPNNGC5fyxQDgQB5owAFs4CpMQKEMVgs45UmMNEbcQjDUmsp812dYyBjURcf1IXOvoDusFmlPFfUIHz8aVotbzAIdy/8r/9OGwDhJgDCzaQYosDW3tIsjZtsw8TunTvFvCZmWKuCvuzZNZEoynqVLxbxz9/5Fq6PjzcqkF/zbkd5WH6PXBmF2PQDsTt+/+NPoq+3T8r9VEvd25Ni4AWtJVIUBkPT0JrJoK2F3v7qPdmPgc2tosqG9dgKBoeZsWGcOvlz6F5xBYMgKQZqQZqzyDY1Yffhg2I9ffGdsygWCti0bSvmcgtImTFcu3oVs/PzOHD4IBIpOivaGL18De+ePg2L16YzZ7oMECjbs7MtOPLEh2Ba7CTY2FEvxaDMnRpLqVS/C+/nlStXKgCheqwEIAQBNnV1izFUteiT2pihwe3iXrkMJlemGGTOQAnJXB1IzszBPnUK7lgeb485cAMH59hLIwC2j43CSWq41t+LWF7Dg1N5mOUZJPszyE2Mo3PHEOZn5xHXDMR0Q0ByvpBHJpXBVLmExAN7Md+ekWDtepZy0hTFvyqv9GGJZbDa6jMKkiGIWjKF+XJhjGSPHRazkkFQvhMhRqgMXS6XkyqGxXIZnlHHlnmNW1mbYuDLuFtP+Hlsdq8KQGj3aYbE5F0IEAIfCc1FT0scA51J8WlYfUSaH/UblYbhGciFGHB1rhc6fGoG/DJM1xcmxCj7YMds39WJ4aQCzCs7cJk6KRvQ7WZMpXVcj3fjeqwL02kbS6k4PDMFj2yLkUZgpGTcPbeECWoQhofFNEymvK4cV6My68pmQwZ0+VMoVmGtQp6aJ0OWN+V7UY0zWOZIBoFljus98409aRuvuh0jcP8AhGjO+b4s3ixzZE74Xhy3Q6QYAYTWpia0so1xAGzbuhWbBwZgG+RaVwcElYElAefD9X1874fP48zZM0LB3uiIqOOKMj9McZDBoFAtHo+jUCjIV+XhI2PhK7Okx4+fwPat21Q5XFUnPJ7vTokUZXEF0JxKo62tVTQBXNBZurl39x7Z9aqF/cYMQuB7WJqbwuu/+DE0Jx/uYpY1CBxHAoTevj70b2fFgY4Lp89gcmISmwa3ClNBgdXlixdRLJfx8LGjcg42G5odn8S5U2/Dd8rwCOkoZpOmVrRuBrR4Bkee+CCSaaZnVCRab3G7HVbLKnTTwiHA1StXMDUxKSmaFWLWsKSsr71Tqml4b+WvApa3xqWSoaurW+1QJYXCdFIkjIsCVQBXc6BrJuJlA0lnCcbIdUy8fA5ek4GcwV4jGbhjp9GazcBq64O/VEKTU8KotoDufTsx+sZ5dB4ewsylYTQ5aicf62jGbD6PlmQLrk3PoOnAHuSbsyrJUR3kfdXvgY6E0qdANCXhNUp0EZWCGneh2JXjYwS2IpAUxbNI/7C4uChVDAQILkWK4cNVj3mrvqdkagjIqp8zvnvcW8Imbxj7g1F0uwWYgQFfVwCB42sFHrqaE9jclYQpPxd+QMSzLvmOwISjs/jPUILaQEfOSKKAGHSOma/Bd3xYpRJaFmcEHNglD3bRE7Ag1U8UP9J9kjpbSW2YKAUmCjGmcmhfnkDZdlGMmSjFUliMpzEfb8JSMotCLIVZO4nxmRlcm5hAiXbi0vOLjKaGgKWgBBEhS6AMqSgEVs8C358gkp9LpUUo0lR+rFHjt+r1S6VNFOAmsOCtbMrSKGkDINyLeHej97wvAEL1BfLhYyBjcGNJ1r041gIIjTII0UJDFN5CL4TWVgksbL/L3G/ctFdpEJRUSUmExXRZg7R9PvmbV6DRD6LqqF7IIgEa/Q7a29tlh0wDJNKhdF1kaSVFi9evX5ddU6XplOwwVaXFo0ePYd+u3VJ+xt1PNVd4KyJFXvKNGAT+PptOyfiQMeDCQcHivr17xeWwkYMjVlqcxeu/eBF+flFtbERIyAWLgU8TDcKO3TuRyjQjlc7iyqXLslvavGUL7JiFVMLG6OiIWFV3dXchkUzCLZVRzC1hYmwMxWIh3DEp6ST3dVzIEUvj4LEnkGntrFzqegBB5ZdrujneDIMgi6rilw03wMjlq5iZmBRw4NTgSG62+5vb0JxdTuHwQm3DwOb+PvT09lZSIzyja3K3uGyqpNgsHwmq/6cXURwbhZ6bQ5NpIehoQf7sBMxkHIXmAC1GDM71BXimAbsjg5FSDgObt2D8zGW079iMudFxJKmK0wCrOY1cuYx4IoOxuRyat26Dk0rD5xzQFGsQQZRlZX4kk6sW0K3sWyDBKmzQpdT/IWgjc0YX7nB3vriYw/DVYeTKJThmKM2sEt5FoDRaBxSuCkAGgc9Q9PypnbOHhL+IfmcSuzGLPmcBluajRJdF3RBPBobDbIbdXbPQDAMlzUARBAUmyrqJkh6DoyVRQlxsvD09QFmzBAR0LMyhfX4aTUvzSBaXkC4VVPUBBYtSuhnlGsLPyosNbaWlIkcjnU+zK/kUMiKeZsAxLJRNS76XbAvTiRRmSg6mHR95M4YigYunCd+R1w0UTRsFw0BZ01AIDCyaMRSY7mD7Kak00eCKdbLSQlgeq1I0eLzINY7lhJYy8Hoq7MWw3jPUyLqw8ZrbMwIbAKHOON4OBiE6bRMXBtoHawZoLbxvz14p4/NXMQgsYQotZ7VAGIQ3Tv0WL/z4BaAOQOADxRbJDP6XLl2SaoFHH31UwJU0MRoZEVdCNuchaGBAfOutt8CKBznC5zZm23joyAN48NBhCdJS3BcJBO+g1XK0XLEunmkXvjffnZUNe3bvRlur6n7Jy7zRgsF1r1xYwNsv/QxLM5NC7kYpEiXgAtLZLHr6e5FMpKSKhGCJ40FwRRCaSMaRX1rCzMwsdEMXAZzneCgVC8s5+kjAJvS3K6WQvpHE/ocfQ0t3b9ibIMx3r+PhUA8ghL3A132q1dykyh8wPB+jV4YxMzEhuzuKvVZkKvwAvZmW0KBrmeo1dQ29PWpuRCydMFfSqkK5WkZTpMQdoRYgsViANzUNeCUkWlIoJ5JIjCygpPkod2eRYM57chGBZcLPxrEYuEjHEnByS9CySeVtEpmN2SY010dMN5F3PJipLDwzJjS6praeN31EwV+CTu3f857J1lyddpEphmEyCCW4LDcO9RnLwF6dIJp3kfCXoHsFyOYzbHqIaWV0BCVsMjy0+QWpvirG0qrklvbTlgXdikGLpSVdUNIIDCy4Jh0mDQneLDe0WH6IIixvAZ2zE+icmkTr/AzalmaQKeWU8NFINDg2ihVadciuf+UAsU164DpwNAOuZcHVTTBRQj9kPksENCUCCc3Akq5j2DZwyYrj3XgKE3YcJcNGrGwJKFDzxldsg7QEb+xmcjPzyac+tZFiaPDu3q2XbQCEOwwQMskkOtraEDNpK2viwL79knMPHWSX350LvuqMI79zPA8Xr1zCt557dhXbwIWMqQO2SGbzpuHhYQEEbEBEAECdAX/G14mvQCYjAfHVV19Vzorhjkj4AsPAwf0H8OjDj4C+BFywKoIkBsE6IsVGET7f/0YMAu2fE/GYCCRjpg2TFD5LL4d2oKe3R+XN10kxCE1bzOH8ay9jauQqLJ252rDrX6i41kwDsUQcMZa7uWU4josyBWqsMGdvAE/lq8laKZqdjKopaS6OD39OwymOHSGLESpISoGNfQ8dR+fAlgqVum5KhGMa1DAIEpAbVDEw2DFHTDDpBbg+PIKp8Qm4hobSSqJJdpJtqQw6O1gVsiwiY8Bv72yXfh4sLVWbZ9bEL6d0omApjokklCmCDVxQIpDXWHproNWz4PgeFm3ACjTEXdUKmyp5ntOW0rcAee5iJYUklmiKhvaZXWcACdscSzmcLrvnyiFa2TA/H7p4Vgdx3rPoiEoaZc6EbIAYXKlIT85H8AF/Tw3C1WtXxayJgUx+7ylTpujZqGbpop+zjJjpCYJKzgmCSYoA2FPC1nSwlsUmDjFtCZp8juTLYKClFNFVjcDCKib2pNDLFswgCSeRR7I0jk1jwxi8Poau+etIl3KwvTJMKW10EXD+ojGAoKSNtVUpChzUBm31OuVuqP6tUp3kPtQzSPkqe2joKOsBcjbgOxmMac14JZXGS+kYZvUULD8B2zWE3fAMph3Ih1SzPGuHtQ2AcLdC/s29zwZAuAmA0GiKobJoMd8bs0UImLBVKdyunTsx0NNX11BNhFnhI8rHdXx6El955hlpP1N9cPFiOoFNdyjqO336NM6ePSseAnQjjPwQuEM+cOCABAH6Nfzyl7+U7xVFO5d+XcfeXbtw4thxqbRgwFQlDOod74TVcjUqsixTGIR0PKmc7gAM9PdLx8H1gq0s5roOt5DD5VOvYfTShWWAEO4kOY6y5Im6XQkjRXhFcGSaUu5IjUa1XoPBggwNAzmbOXG8x8fHJW2jygHJV2soeCaGDjyIzUO7l7MyoZXzWo/hrfogSI6ZCn7u+vwAoyMjmCKDYFDhvnK3xt9nEwl0dfeGrMAyHd3S0iQAgQtzdLAuvTq9xLOZngHTZygP4BqBlMZxo0g2gHXvamyVWE8F/3D3HToXit8iQRHbbof5Zr7W0z14umLMhC4Pc9bMfVfy1uG9IpBU5lVVgjn+d8jCRQEv2unzSuT1BEW+L3O4DGXSVC6X5BmgnkCaR4U+mmRN1qqciX5Xq1GIHB6VtkEZdKkvZYhkmAyPShsg1D4hkU82w4Xhe/BKBcBzkPYL6Jofx5apYWyfn0FrbkFezSoN5vM53sIOsSLCUQB2vUNVy4TmXhX2S1UjrN7VEwoI9ya9SVSKh2yFL5sVVcyguiuRPTOkc2oMBT2DUTOLC0YcLzYncdlOogz2+LBh+56YOhEw1tMh1F7/BkBY747em99vAISbAAiNWi1XA4SYZaKrrV1KHbmjo+2sCAJr0gZ8+qJ8IoMZUwyLxTy+9JUvYyG/tKInBRcq2cHougCAt99+W9II/DfZAtovM5idO3dORH987czMjORQoxRDtNhxsd6+bRueOP6Y5KopSIs8CO60SFF9Dl0YlkxStXlmAGeToQP7D8h1VwvC6j0i0hnQLWD47Ju4evZMaAAclnoy3x2PIZ5MIp5KIJnIwLbjMC1TmAEyAvyKJ2xYtqrF1w1DdphsRZ2bnZc22nzN0tISFhYW1AJKExwGTD2O7q27sPvgkYowbj1Qc8tWy5JP95TDpu9jeHRUunaKr0ZNaoMBk0yTlI1GYynKex/ZZFIAQpTK4dgKg1A7yCHjr+ryw0oBahICV8ACDwILJThTNQQVoaDgzABxl/lpCMBgftqkix73rKI75M+kdkYCkxMwwC5T/PVo/2hecs7zM9KBlKwQy/vy5RJKrvo5wYBTdlB2XWmAxntLJoPPAMdOo6FSVL5XR4MQDUV0TyMmQQGD8Bp9Ja6loI9zwvEcASdMAxWWFuEUlhC4JWktvljy4ZRdmOUCtEIO8YBukEUc8BdwtOhhUy4njpBFmztwE5bPzphK9eLS+Ij9IckkyIVF7ElVuA9/VBGxhj0h5BXUZniKsZHnu+pGU9NgU2UYzh9J6ykVj3ofuaHhvynAhIWy5cAxPOi+Cd1P4u1YFi/F03g11YzReFoAX9yjgmGDQbg3of32vOt9BxD4sZhH54N8T0WKAGiU9NWvfLkSqN4LQKDwr6ujQwCC7gXSZGn/3n0rGkBFzMSyD4IyKCqWSvjGt76BkemVde5R0OR3sgik8RnAlG+9WrWjf6sFVP28uumUWngVHbu5vx9PPPY4uto6pS76RyCvQwAAIABJREFUrgIEQwNbEGdTCiBwf0MDn4cffnjNLprVU9/xWQDnYvTCO7jw2zdgyg6I7omQoLh77x40t7ai5JRRKnvQDVsCiTQoo9VrfhEz02NwPcUU0B9hqZCHQSbF9SWocPw4dtyPcRcYeU34moXezdux9+AhCTbVAWWtx/OWqxh433hPmef1fYyOjGJickKlYmrDO02ixFq5P5zD6qoIRJO2jW2Dg6JTkQAY0LY6PENINDAVoGylw5AhrIB6Lbs1lpQjj7joEaCE9kRyFn5OaelLkOawv4gOWirI68XuF2J1Lf03Zaes2j6TxiaDEwEgjn2+mBdWjD9na27eO4+W7CIWVSkbATiqLi80xQ6vmU6BpPilP4VKI0S6FrpiMtjL88S5F95rz2dPD3VOXgf/wCMR4HjwSyUUygRnDnRnEUuLPvJ5NqJagubmofkF6E4edlBAytaRiWlI6B4Suo9WW0NzLEBTXENbLIFYWYd+dQ590yUYRgGBWIWzMVxMeAiTaRhlMqmeaYPGRmQgqFsgN+Ej4C7fUCkBmk/RNdSK6bCzMcSyKh3hOw5KhQI810NQAmjVQDrHDCgM5lPH++PBoD+FmKVB9A7URhD0OaZ6XzJAfkCmJIOUW0TcKwhIoC5B91LIoRU/jjfjW53NmIml0FJQnUBZlkrxKas6qLJQlUArjw0G4fYE9Nt9lvsGIFRPGC4GUn52D6oYIvqdz+TM9BSe+cqXhIauqP9r7sBaVsvLLwvQ0d4mXgh8MLhzO3zoMCgOXBVQIqPzkJblgvjsd7+Ls9curRLqRdfJcYpMkiKPg+g7UwtMM5BVIGVOcR6p8ugQMZcfoLujUwACAwkXHtKa0XErVQxceOtZLVePDTct1GTQaVIBBC70Bh584AFVvx8CnnoTn3/remVRjU8MX8Hbr74Ei3XoAXeskkFFMpmALnXeLkoOF34NDuvEo7JEOjgyqHiumnPiza8MoyTXbNkSYKRcNJmBkWqGFUsgHk8gFlO56Fg8AX+VMq7+o3qrKQaetaIP8P2KxqPuu5Gh0TS5r5wHyzc1kM/J7pnUsUTzxa76DCKGrD1pFUPB8aQRTxRgIx1D9HfVzzNpZr4+SgFwvnKXT/0CX0+BKN0Nfc9TQCAEQQIUPE+uzzA0CdYiohQ2Q1VtKOZElW8qQX/Yi0ICnQIz6sfKYbT6c7E3hO+4cHhtBI2uK+yC4xNMloSV4DURkOQLBdjFOWxPetBcXpOHNmMR7ZaOpnhc7JRTpoeUCcQMwLR8JEwgqbtIaGURIGouK0Q4z1xoRQPOpInipSISRQNlsyR5e9MzYXqWKjutbXEdfhjbi8nOnVbKZTOPklGEbwcwkjoSLXFYWRs6q4T10HNBgBM7ZwYIXBMoaQgKAcoLDryCD7fEdIcH00ljQbNRNjUk/DLinkrQsXyR6ST25CAYZHqoFDIIlmcg5poCFBKlGK5ZbfhiezN+E2uD4TXDM2hnTeDDdA7BD63mV7c2Ex+Epz+FE8eP3+4Yt3G+WxiBDYBQM3hrAYR6VDd/tj5A8IUyb6cZkB+IWPHA/v3iPxDtZCrahhAgcL1TO5dAGja9curNVYGSCyeNbphOYJBiNUO0s40sl6lH4DXOzc3Jd7ruMWBH7xcBhNZsMx47flzMc6S+ORLM3SGr5ZVD7qOlqUnGJ7J45Yq/c2hIWj/fsIpBFn9XuvjNTozj1G9OAszrMhAYbOOkYgeDCseI37nTt0xLedDz53YMRiwuOo2YuPjFkEylRKCo69QoWDDoQxHueFWFx3L4U5UWDFg39qqogDLueG/BajkKcrIzbAAgMJ3A5kz8HBWwJbXymoyvVDKE4EE6GIQgQZIAUXANA5PUxYeBWL5zRx7+N3fnnJOuq3b3FHXKv10fpTDQq4DvK0EgAyBr55mTZ9CPKlZEZ6BKLfm7sG51ueMmS1fl0sJgL5U21GQEcl61ZYa893IKIoBDLwvRbii/B0m1MV2jq7QDAROZDM6NdDKOVCIhcyLJDpSpNMbGxzB76l/w+91z6ME0dFNDzALSXh4GXSGlsiTUCukmAnb4FOzC/Au/6KOhOkfK/tlNYOlyCf64j3jJlHJJliQKq0Ean6Zp1YLNSpEifQa4E3cR2D60tAazyYSVsaDHDQSmB9BrgVxXNbgOHRkd+lDRKZEsBGxoZU3Erk7ZxNXrOl6ZMTEVb5JqJlMribFTwnXR6QXo8jW0uj6a3Fm4VhmB7iDmArGSxQ4ZcGI+Fs0AV8wWvKB34fVEGxYTBNxkERTzQU2LHDUUwgZAuIUofgf/9L4ACLV0kzAIfGirdz13cBCqT317AYJaxJqasuikF4K4DOiSFpDgFwqpoqztsn+q2iXy6+Srv8G//OoXEqSqRVK8TnoqcBdIfQF320wzyCIYAhf+m4skxzPKt/N7pYwtTDOy0uLRR45h7+7dsNhYpxIk6lcxyPO9jm99tNNdzweBtrlkNzpa22RsGH4ZdGgoxc9XlzqvumFiWRR4WJidwYV3TiNwXLCMjxoP7v7J1HAe8SuWSMCOxSUYsEpB5pfOxVmVdlbSMww00a4rvA9REJOFnu2Pww6Akn8Old6NTNG6VsuSE17Oa9/oPDcCCNXzQ87BABgE6OvtFSEmA6EwYZIZ1sQjg/MnSuURAHiST/fgS2UHDbtCuj/wJagqtX8g84lzK/qS/Hz4IHNMhFngvSQ3z3bT0kCJwTkUF4aNjtQ1h2xF6P5IcEw6XNIMEtiUKJPXR5c/dX0+NGc54Ef6AMZjplCiTpUS/C1bgr0t5msWkokk0pkMUskEbNMOmSBLzLkESEnBZRTEmC7xce7SVYz86hv4s7Z30e1dUjl9wwY0BkdT5g9BIlkrnW2nPdUfQtQVMr/4P1c5QVLw5yWQHy2idL0Eu8CyAMWcMW0gXRMDVfkgtk+RNiAcH9d2oGUCxNsTMDM2y0Wghf2sCVSkvJBixIqdRKRa4FwliyZEPwIv7FlK51bPwFtTrfjueAIXY12ir2G6gyehG0LMKSIb+OjyS3jYmcaOYgl9hTxMlKXPhuHYKMfZh2IJ8XISr9h9+OdEFu+mm+DQrVK3YHg6YhH4uQFAiNbgRp6njdfc2RHQZmfnA9J79/qI5gsXBAY0ebDvQYohCmy3J8Wggnw6nUJna5vYLXMzRtHYzqEdq1X6EYMQ1mXzWs6eP49v/fB7dW8PQQGZAy7akZCOD5eIsKqc/fgzjie/y47YMETnIZQt88mmiUcePorDBw8hxvKsG6QYGgUH0Tiul2Ig9ctmTR0tanwEIHielObt3bu3okNYa35K74rAk4DCPCv9JiwpTVT5ZSUwU/+WjVx4otAnSsXRsGhDgBr/Ri3Lq+yP5SeicVhJvqvXNlameKdSDBFwqAVuuucJQOBcqbwmBAjM+1KDQHbF9VywoRHLaxl8XfnugW2SHVLNIb3PqCWaFrrrhUeUUZYKw6oUiKJ/CPiUJkEAh8dUA6luT2h9AVjhz12HHh2BvHc0xOr+qbx4pI3RTQPxWJw+g1KaS/DDMlb+LBGPS8WQbaufm2GpKue8ThFqWPkgkER0d+G9rJRUCqypfDYF4oHzl67g2s//GX/aNYwe76rqD8FziuKhwlUpoCe5faYJQkZGFjfOElLtDOAMzixNCLBwNQd3htkAA7YeQ2B4MJIWDMeCn1eMSAX4kZrXAxQzBSS3JGA26UpZGrYnV4OmboJaT6vmafQ5w9JQKQsNxYrc4ecD4JXJDnxzqgkXk73wEEO6GIMemCgZrDih+oZtmkvo9mZxtJDHw4UcuvwcAq0gZkye4cIMSogVDUwk2vCLRAbP252Y0WMomwnRO8R4uYYq5a4+qhmERjYf9zpe/Wt5//sKICjAfH8ChFW7s3CGrJtiCHzZmbDWP2Ex+AKtzS2SZogqESrnrgIIpGL5oIyOjeKZZ7+FUrEkFKgsWCsf/UrZIsFCRCtyLLlTTiSS8ndS12+qmn4u6JcuX1YOgWQ1NB1HDh3C0QcfQspO3jaAwCG6MYOghGl0TySDELfsCkBIJVPSwjpyilzzgeRmjGIuEXcp9bXat1XX7KkRiwJ5NM/UOflHkcVwta1zaE1c9cbKOz5U8FWFx3pgYjl4Vt5F7r0UkFEzQdOdkWFxVOBC3WgvBkXtqwDGQDsyOiLVKZJeksaIpMxN0U0wKNIageksmWviqx+q75lmCFk6/lyAAK/CUExKZdcaAiiOqgTVKm2CGOKwhE96HvjwuesP8/jCNggLQNChrjnax/Jc9OBjkyy+t7A5IaPD3b4wPrYl7E8szsDPKhNbGAClCzFhW/TNUJqRSEMhd5MMRZQbqSk5jfQH1X0pVtwnKbEMvQCiSt/QTOHqu+cx+tOv4t/0zqI3UM6VTJNQUxD2XlTpBHk+6UaqrMKV+j+ci/SHEAMhNR7sNeEu+ijP6fAXfaH9rXQcZtyGO+HAnVHCWbkXHCcCXMMBNmmID5jwzYKIP3XPEu2QSg8pPwkZa6l4YNtzVUDt+Rro3UFLZ4oP+aW5JWRMei0UcXKqDd+cbMLlZI90uqDxEXUDrFYRm3H5GOo9+pwcdpUncdSZx558jsbO0iFSqiR8E2XNx1gsjm8ktuKslsW8Hpf23qLFMGjfvIwQ+BnZK+Wpp9nNcaMXw/0EPu4bgBANSjWDcM+rGKpEiu8VIPDvuLCxkiEVS6jmLvE4jhw+JDuc1d0X1TIaiSKn56bxlW//M3K5RQn+3Ilx4Wxqpm1wqrLDZl03vRHoAlgsFCt9F2gbXHBKKLP0i6IsZi9dT9ISEYNA8pfpheOPHENLsqk601G3F8PNTOD1UgxcKDkenW3tSIpXhMp78LM+9NBDwpDc8Ai7TqoAVtGrqf1/VdlWZXdVczIJ95XWeKHgTZT+7Luw+p2Vj3y0Uw5/r5LNlZx99c6NbIw0xgvBCMWTVIRPTEwKeCJ9LX0UxAFSMU7Vhj3V/64FHfzMhWJRMW62KbsyAoSobp9jyC/m1aPdfcTUhbo+CewRwyKeEmEageeQ0j3XEy8ICvbU71wJ+oUywaU6OJ8YdG1oiGkGTIM9QCjgVGyVpHZspnnsynfu/GPy33bFjEqBA6aGrArQrS4blbEJd/QqjRE690VsWdS7o3J/1O5f5kaN6FLmRthdU2Jp1a1WwTWM7yFAuHbhAkYIEPom0QcKfXlfq8sFFXBcYV4Ypgiq6BA1C2TwCSY49qZ0XqRYkt0VDSMFbzGAcyUPf1GxB9E8pqVxIRPA29WMTLyAkl5GwUxDd20BJi7tm1ndQCtlzUReHBEt6clQDEy4ug1Hs1DWgCXY8M0k/PFL2KVPYn9mCb+ZjuNbE824FN+kwIO0OFfgVRJg4cBogYlUyUAMORzwJvB7C1PYVCzANUtwdB22n4TuF1CwSvhVYgA/iG3GqJlB3i5Ad2n9zNQF2ZBlIEoG4amnN5wUb2ZtvRuv3QAIdUY5WkxuRxUDz8UFs6u9HZlESkkAdR0HD+wTj4K16LSotG5hcQFfe+6b4oQY5ZBJF3d0dgjNq0q+PMzOzkow7e3ukXwrX8vfkeK/PjkBT0xTlFpf1rywS5uizYGhbYN47PgJdGbbbhuDwM/+/7P3HtB1nee14D7tdvRCEiTYQYKdVLMlWyQlWXJkR7IlWZbk2EnexHl2EiczySQzmcnLS95k8ta8ZOWtlRe/JI6dmeciy46bLFuWixJbXVRhkyiKIgmAHWBBv+3UWfv7z7m4AEHyohKScLi40G4595T/3//+9rf35UsMHCN9sT+WVtBEWhH1tJzVNTF+IgU+41s5JRN+L1LEcQBC9Cu1mo4AglphySBacixUcIU0PSc1TqA8p0XfR95zZdXPrpKoAyVaX5dfD+XmPTJnjXD48sZR6UiuVwnLiVabJW1fmapf7SxBIfdDtARsFZT2T1uBACYBEgBEroJsfSxjGTjhJxJxJIXO52pefU9Ql+DvOOFroeiPLECo9eDnIBCIPk80MZTrKUaDuRk/45W/QQgQuo504PTT38JDi09jSXAmPM/kZ8a5SCp/dQVS5PyRUdChuwm4F3wUj9MrYYzwNQCOL6jDyfZViHs+8paLnJaGFtCgSIPts3vHhB0w68HA+SAhbaNFT0PO8WGz+8LNI/DyGA5MVNc0o26gC5uLB/HhRUPY02vh++fr0RlfIcCA5ZOxpTNpS+Wix8nANn00uT34wPA57MgOoiroF0GiEVSJyNI1szhl1OIH6VV4MV0ryaC6ZyDwCIJV11Ck5aEOad5qeSIXzuw8dh4gXBEgPFKq34+dzHljX6nEwMcwXY1ugTXpqjArwEd7+1q0LG6Rdx/PX4ETC6nXQjGP7z7+mHjHy6qO1CTRN1eKYckhEh6yRstSBunkSJzI1aWouaNc+XBVoxYDGkwq+XUDy5e04sb3vBcLmhZe0Wq5NFld4RrlZ6+EQVAAqkkBKE6kARXYGpYuW4aVq1aqiVdUXmPlrKOXfcpeNhyww3LDRQ3X4WtFjxOTHq5GIz/+0t/DokRJXa+OF4OSpO8+pKNl5Ub1PhX94YQroM2lLoT2zPye2Q2h8I6fj62WjqOsm0Pan3sdXQeRjkTKQWUCtWg1HQGXiNVS3QE0b1ITP2v5VO1z0ud/lqe4L9w/eZ9QkEkQFgvTPqV+n04imVDqfbZ18j+pfE70/MpzosyGdFiaKlGIrsVUHs8lvCRKfSU2Fco9vG6j66ZchBYxaOWamdkZ+ip7F9kvDTh2tAOnnvoWPkGAAAIEQsjpAQiiyRBXSR06xX49DuyTRRj26LA6VzPwwoLFeGbZRuSdDIaDnBJyFjXkPLZnqhBsl/4FngsrKIQaC17fqg3U9mPCMNCIiZ1DrcVT2DC4Bx9pzWNPfwyPnatHZ+LSAIFOIJJc6idRYDCXN4S1hUF8JHsOG4qnUeXl4BqZMMipAD+w8GxyEb5VW4dhvxZAGq4hkVSl1ldeA7W1dbjn3vtw8803V3Zi5h81K0dgzgEEDh5R4NDVKDFEAzInYholfeORr5dWPuOdkUoAAkfO5oYG6fWnDI+DTuuSFqxua1N14XEmvmjApPHJj3/xM7FTLt830pTRiixaEfI5DD2KQERUm2VrZTpJQWNKarpkGlieqK6qFlMiaiQyyRRqq5g2x+ePfNKZ9UFQmhNOWNQg1GQyIjIkg8AJddGiRQKkqO6uRLg0ouUoW22XnTSJxJWFveL8Ra/ACUwcZn05FyWzHNVAKSsdUuiczNkbX/RcAQSc4IuheY+kb4rYbsTadoRcULV7Ts7i3c+SQ7hqLF9Jc+UudWZmFowpNUR+AGwdJOAj7S/7Q9OeMMJbBm16OYQte9SecHVv6YaUoxinS08IlrWiOn+0qjdNQ8CoHIsS7auuS9EIhB0WI/BMuR5GxEup5DLSJXnRrRKVf2ZlVJumNylpVQgQjnTg1CgGQdXn1TYVFiEsPtFMiDUi20KxuwD7lAvTKfNKAZDVY/gXK40fVi+DbjXBEwtLD0npuuFqPxLXhl8DHabYWzMDwpeFSqDHRKZAgWVDTQ2WFc6grf8V3Llcx56BGB7tqUVXYuUlGQTJadDE0xEELLwOMq6D7bnz+GD+FFbkz0ogVcFMIEavjMDF0UQG30svwCF9MYZjBAi0YVaDTMRWkUG472P3Y/v2HaO6tabpVM6/zCSPwDxAGHPgRgOEXnzjkYenBhBClTbROv9bsvIIUFNdJdbIlxLhlVaHgYdnX30RL7zwQqk+LZMIh6cwEpsrTa76eJNVZ5QpEs2R+DuuDKvY2sdJllSvZZVc6kS4yAkhlPfzezZ4lSc/jAUIlbIHMmxWUGKQ2dIP0NTQiLqqamEz2LbIybu6ugqbNm8WenoiACFaaZda38KBKAJMql9fUelc+XNyZo2dk2/EuBQDDzaFe6Ftr0yiPO6h4E4um0h3wImR4r+wzi3AIwQhch7DCZ8Pp5iSve4U9ynPAOXuV3RtDA0Ojbx/GA4VGQVFyZNc1acSSclQYKw3v6aSSVQRAMZUroQo9gUosJedYVRlhkM8viG4jDoTuI9cicqxj6a8cuvhcaZ7xvqOt1XoFzXJ4Wr2n1ZiEC4CCAR+08MgyL3C40mTsoIh7Y9utw+L2oKRM4L+WB3+R6oVTyeSqIUFz6STYpJuYfCoQCCzY6nrVCcQMKslfI3iZItpkgZdHR3EdQdF3RR/7Jrzh9A2sAd3Lw+wuz+OR3tqLgsQCEIoRmQpIeayiYIiRgOLi1nckzuDm4eOiWuipyWRtAPYMRdDho89xmL8IL0cJ9MUb/KeGNGP8BhXVVXj3vs+hu3bt88DhNm/zC/5jnMGIJTaHBGgwMjiktXyZWjlGTiQlwMIky0xcPVIMyBOgjFO1DRMilvYtm2brObHe90IIJCm7TjZhUNvvolUOik3UiadRlV1NShAFAo4poRdpXanMNxGOhTYjkYRmSycdZnwSOlzNUsaXLQOLDWI0Q87zkcCdyLB3Hl6DDAdMhT+XWmyVpOiouhpBUwBJSfhi54XrqS53w319aitqYGpmyrpz9CF/t6ydasIL+W57KkPNynHi5ZCfY1W3dFkKF/dcNIv0hXPRt61xZdfqPbQYEcoWgmsCw2QQlGYT6U1KXV2B4i7sY+AZR+azJSJ4zhgUt+hJkZF4wqjQ1GfvK/yCrALXP3nYRdseEWn1H5Jh0A6PXLFH48n0Nvfj1w+J4LTa6/ZhqaGeiRTaaHxCVIsk1Q/QZw6xuKPwbKTz1KWSiVUAEUdE3EdDDsIyMTQRjhS4EVOgxGgIlMSAZ/xlP7ltxv1DuOVb2bglrzkS5ZE9WWP4G5V1nBa2Z6OCxBYYhCzgukECDRu0oFhC/lTRTjnXHFUJJiMttPJZnyheg1eMz3UWHHU0yQtWQvDSkKL0/RJmUjxlo/BQ4ovqakYbfGcYueFOCP6sA2WIT3ETh1A+8BufHS5LQzC97trcOwyDAKvd3YjsEQQF8GhjiK7ZXwfO4fP4oGh46jRejFsxFCTTcOxHGEMTqEeX6lvwYEENU5hAlQZGCXQZRfDPECo7LqcrUdp/QNDQRQBPFtvOvZ9ylvHOLgqgKBamq4U9ztT+6xKDNPAIHCg9pnqmMCiBQtEkKd5PhIxC2vXrpX0xXFXYmUrOP6dAz+ZAm6RFqFEqZcPkBUYGE3kmE2YQRCec4RyjUSK7KUfVSKJTKJC8R7bnKjTkDp82KvN1TLNksiIqJAkVWOnVTInMyrwh7PDsIvKJS/q3Vfe/KojgOULcUJkFzqpUfoc8D0iBXso2otaEKLJslyoJ37/YTgSJ1tGRbO2L1HTBACeLWI/ASWSe6GJp0PKjIkjH90Z2ZpHUWptVQ2q0hlR+RMAyVeu7mAgV8jj+RdfxJmebqxcvQpbN21EMhT3XQmUTeScvlMeywCosYyFaEqmCbvMRolBeY6QCWBLowFtIInCcUdskHWPORfiJy2fs7N6Eb5YtRQHPRdmVQOWNixCfXWNfOBAKwj1H/gJ1ZWj58MuHENCHLiqp1GT5iekTdHhYqFgI3XmdbQP78OHVtrY2xvHYz01OBZfKZkJfE6l/h6672OB3Y9PD53BZrsTvUkdtUP15BvAzJIB08S3GmrxrNWGokYnUxU7H23sYqAG4f3vf/875fJ8R3wOra9/MJDgmqu6qXomt/EAAn8/2wPkdAIErlgTsRiWLGwRip8THT3yV6xcgaVLl4YRrOEBKFsRR6eEcz4numiikmN1CSAQGcGUi+wvBmSVnWwOkBFAOBoyCFc8F+MABHZgkMpXuzzS3hSp8Pk1KpHIBB3iC35PGp1AgStfvoZqy1PmR1GLXiTu5ySvzHRUME8JpkQMgGgFFMgQxiHUDUj7p5RZ1N/Fljd08ZO/he8p1szMXpCefDrwKVtmZc0b2jVT9EcTH4KCkMEhi8P9FUMgLvEiij/KDZCOCQKEAna9tAuHjh7Gpi1bsGXjBmQSdLSbXRatsqtjDjxKgGB4bMoFEdO4a7xOePjZxUANgogUp7GLQXXYBvBNWwyW0J9AoasIZ5CmQ8oSWTwYdQ2dNS34UvVKvOUWhTlorWtGfX21UCaih5CWWrlrw++pqykSDoTyXY49CWGYphMg8C2ZyRBgGL9UOIMHBo7BCnIoGGxR1hG3TfFe+EVdDR5PLUa3kbkoAnoeIEzjRTuNLyUMwtUFCJG0ZoQmzudyMEyapSizkWhVN42f+7IvFVHrYxmESZUYwphVuvsRICTjcRGDGRqwqKVFVsh0eFMtcmoCjVa/4YdXLVWhclCpp8NgmnHEUaX42tJjxn5U1QqnXnMccdVIS3+pH/98by+OnjwxolIPJyxZVYdswcjXkEEIf89jyPhkEQWGiZKRQZQY+ZTpKCJVPGn8aCv1unNyJ7UZGv2oiZ7vH7Xtqe+VTa/q2S+VaUJQoLkqUlv10iugEpUMWHZhrz4nffoycL8SyaSUcxjGJH+LUdVvSYmGdL+yTeLQzDINKyBKbyCsFxdxYetjOdNDBkMSfKP6SNhVwKi84XwOzz73LDqOdWHj5k3YtmUz0gQI79Bt3M6F6HriZy47RuWgWCbtqNtEhKcjXgEqLXNkzJjqwqK8i+H0U2GbY6mLobL8jcsPNupzBqaNgJNsf1wCnPwhhiqzHElfA028C441Lsc/Zlaiy2babQqL6+rR0FwLmDo0LyWCQNM6jbg5DPBnPQWL3+s+snYGQ3YtnSoEMEwnQODnYxKkYwRYZZ/Fb/afQHv+AgbitHY2UcX8aj/A0Uwa38s0Ym+8CTatnMu2sQBhquftHXrLzPrHmhMMgjiQlW0ECLoZlhiuUqFzOhkEMXUJgEULFkrsM4WKVBXX19ejfV27TDxXXJlP4tIYrwQRqfc5iUV1+wiXRIBBLWqUQx5tuPsG+nHk1MlRpi1q/B4NMMIOSuWGGLZjRu9Bil21yI0eVMtfI3qssB9cbYcTvaLu2UboqG6BEBTIe6gPJFvdc3u3AAAgAElEQVTU1SFugqHDHn8nkz3teHVTevWp7me9P2rjI7tDEaByIVQdEyWviDL74FK75Zhzoa7fi4/FuIK9ccgAMVPyNRRcG08//TQ6jndh/cYN2LZ5M6qSKrL3nbaNOlplTEr5fRABUAG0UhYKkxrD7gpN2kDVeec5lsClsIVzaHBQrt1RgUWTOIgzLVJUbFmgHBIJBi7EkO8owMgxcpksmQ5P15HXApxcuBp/n1qJE4U8TN9Ec1UGjUvqoSdiMJwM0voFrFx2EAtqziChEczmYFpFOFo1Dp1ZgDdPLILntYgGYDoBgjQXawHiTgzxYBh35k/inoHzCLQsPEOD5TKvgsLIOJ6sqsWP0kvRZ2RG2B8A8wzCJC7OWXiKAARJNrtq22gGgbtRziBcDSQ53QxCBBCk17+qCnGGsjiOqPTb29tFia42JS4b2SKZfPnvVAe/jCtlLnGy0g4Vexev6tVwHA12XHmTgqfvvkzCEnmrFPWyIhcjE0Wts97Ox/UXcgrGRfXdsOwhbYp0AqTzYNTTLwtpJerjJxChHON6qZYPY3+jICmyVwQDkYZAtRuqdL8ocVGYBopWpR+f6YpqBU+NCl0CReEfZzCTCtvh72niQ1c+ih0lzTHMeYjc4NQHodRsJHp2BKyE/v9lmRjR8SsHJCNnhdqGi28gL7Lrjc5uKKAbixFKAMGx8fQzkwcI4zXbjdYSRjz8+Dd7+fNH7WP0h1JeAbvhRx49wnyFF0jZ3yKgpYSkqjzELQJ6ESCI3BypF4nOt2nQiVFN/iXAF/p/aASa/BudF8PnkA3icyh0PXjggMS1i0dD2X5PdJi7tEiRL6o0QVPaoi4XwwU8E06PhkJXAbGiCcMPbZIZpgQNR1vX4guJFTiTy8HygNpUAk2tjbAyaRhOCnVWBz5w0wEsb+xEWg5zFpoeIOvV4+W3VuKFQ2tQcFqF95pOgEDBqqu7aMgmYRseVgWn8Zu959Ca74NverDp6KjbSDgGXstU4etVK3DcqhMTJ7JvHNHStXW4j1bL71c+CFdj3J/SeXyHPnnOiRR5nMeWGGbz2EcXJgeGCxfO45GvT7HNMRyTqTKn6rihrh4xUuiuKxR2W9tqLGheECYFRLE3Y9aj8holN3w5HB6p6nBw4SAqavlS+E048dM8R8x7HAECQstLex/DYn04jNyNEvNCQDDCKmgCGlj+kDAfYQRUmaDkIsjXsR1lMkS633Fh+x5yrg3fdoBiEQZ7of0AQ2QATPb506c+UKUFKybaDK7kJUkvWslHf0sklBEPvff5NyOMXw7thDkxSHkm8pKI8FQ5s1EqUSvGJNpkngpR1mhQFpVvIi+FEFxFk/wlLsbx2ILxJmwZ/Ma8xnQABAGNY16Y4MBg61z0fuEOXbIVsawkEh0r8YYQTYfKW5DX0unpryyi+U8YHTFh8sGujOge4qTPa1PXlc2y2Chzlc/SDi2W4yqCWgE4dZ0FIQtQylkIz6+wQ3wtAj4ptyub4yhAi9efOrK8Hgzs27Mb53rOIMZrJDzBI3dX5SPKpRmEafJBKLf5thNwTnsonsgh5hqSaVA0NVieg7yWwIvtm/F1bSH6hoaka4UC2OZFTZJMybjlavMQPnj9a1iz6AhiuiNMnquzcymO/UeX4qk3bkDOXsnfTitAiK5zAoC8qaHGH8av9p/CzoFT0EwPjq6JvThjpQdiMXy7agl2xRdg0Egj4xXh6S70hkY8cPfHsePm+TbHyq/OmX/knCgxqLCTkS2fz410McxyiaEcINAo6esPf21qPghiVCK2cqjOZLCgqVmVGHxPWhMZt7t82XKlKxCX4VB9L6vyyIAnirp1xQ6XwToFzxFKmqt/dqFEtHuUeR/6AKpJMezPj7z1ZWCnijm0NC7/zJGzHcEEB2O25UWvT8V+IezPL1nzkgGgCJM2vLTaTSQQSyWlJ786Fkda15GOxxGkk0AijkS4ylfBUVztW3LiI5o4mkAUza+GnrGe+zN/W8zuO0xHiWE8gCBtkFSwR+xRBJB4bEMtR+mTRl4NoQsiHSCVkZNyRIwyEBRgNBAIOxP12KuoZLI2PH9STmIGRBi5TectVV5SZSblw6/+S+kgBHg853bo/R9ZXauyzgioUsAuEJBLPQk/o8duEs9FwXakKyQZj2Hfnj0413MKMb7vjACEafJBECaLKloDKMbhnHLhnCrAZBRzYCFnAUnHQd5K4+ebrsG37XoMDgwI2KflemNDPerq6+DrFtLGEdyx5TVsXHYYsVgRumsIQAg8Ewe7WvHka9ejv7hKWhSnk0EQ5pM5EhyXTB0Jz8WH+o/ho7lupIOiWIBL5qUWSFbDC+lFeDzWiKOZBiQ9GzG6PtY34b6P3I+dO3aUtE+zexfOv9t4R2AOiBS5W6ErWziAXe0SA/eonEEoV9tHf4sO5qWcFEsTXIh8aLBTlUqJDoFDNm8ZDphNTU1YsmSJDMQSiMPVvueJS1/ki08QIMFKuiaughLNS8tfDvLSRsm/qZUiAYLawgE4VPuryVZNumLL63rQXF/ej+ZAdAnkKpDfq31QZQiCmChpj+K9dCYj3g0Mjzp28gTqG+pw4w3vQTqRRNxUtryc8DhYJHQDQaEA+A60VAoIQ3jUqlFV7iVB8DIq/fF0FOWi1XF1Fm+ze11a3S6hQchUqEEQeBkex1HiP185d3JTHgnhhB+mSCqxphJsSjyyaZU0GwIA6LFBYBdnsJhyeiTdz3NHm24ChqgrQ4ltlW9E9Lr8yg4UAQNRoFbE3oSTfWl/adQlpk4sObniJcGf8wUaSA3Ddzz4jg/P9uDSS4Jg1QeynrqOSE6tJiO3sAX79+69CCBMxrjh8iLFafBBKAEEHUE+BvuEDafbgSXMj4W8CSRcG8PJKvxi0zX43lANBgcHZRJl509tbbW0BwdGAmm9C7dteh1bVh5GIpGF7qj0SN+zcOh4C366fwvO59uFYZlOgKCuLg0x30XRoN4AuK7/FO7zerGicEFJeUOQycyS0/EmfFuvxvMLWuQ6qiq6yFQ34m4aJYUAYb7EMDcGsTkFEKJDIlbLoiqnk9g4qq5ZOHa8oMkgfPMbI1kM5bV9fs+LuL+/H52dnapPPhyIo1Y6WY2H3QlMjq9KpcUQSFoRY1TQG9ILTyc8oXDZfRxSp/xZFnkcWMWeN8wZYB3b0EuUv6zIJFFvJGSHAyzLA0x1pAc/LXnJAkT5DAI0Ag1pneE7SWQy6ZLzIj0HaEzE8gfr+wzhoaBPUgLFBlh9zmPHjuGlfXtQXVuD22/7gDg1Sg86pwifrdlc4flwiwWxenXo3CbCQeoLQhc1NS++67epMgiRJoVXSKQnEiaGboqJlKzoeS5prMXzyPOZSFPlHkZCkw0wldGWXHOlmOTQNEvkIOpElTQENI2Sa6/sBApZpa5VVX6g+zONqMLylueJxwnv71JGCH0lbFt+tosFWE5Wym9sB+XnioysJLLciiPwafakWvpMglgjJrkCWmDDcAfQ1r4OzUtW4/XXX0f3mZOIT4FBUPrBMIuh3ElxOrMYyhgEP2ci35kF+sgwKgahqAdIeA76qmvwb5uuweMXMhgeHhbgxNJcdXUazc2N0M1qJIKT2NG+H9e1H0UyMShdDUxlDFwTR84sxL++sQXdA+uAgKmO0+eDoNirAHHfgauR9Uigdfgc7nTO45ahU4jRGTXMRuHY4OoJ/CDRhEfrWjBE0bDrC0D4yL33YMeOeavluTQgzrkSAwcglcVgSk16trexJYZHHv5ayZ8+qs+LgC8EBGzho1Ng1LKnqFVL6L+IbpV8ey5vPOV2p5tMW6PNWVi9K4ssjsZbsgvyPvT+l690PQykR5/hO6zxO4WiMA38mUZEZACiOi8nAXoIcIKnCLKmulpAQDqdQSqdQiqRQCJQ0cAR28GvUfeBqu2HDoIhGIqSB/lZOzo68Nyel5GqrsIdH/gAYgZd30I6ODR/od+D6xTE2Y0pcwJ2Qg8Dtea4WvBvtq+qy7/fVAGCsANcUaZSWL5yBeobG5UtNIEje9SlS2YkRlrOc1g6IKCTn8UbP5rsVcCv+D8IJ6B8JWQLTaPIFdg5NdlHCZGFQg65XFYCqiQgyrEFqIpqXlgwxUiJuyeZMDpQhh0zLDnRMAqOq4ABgKLvirA10FMo+jEM5G3kfKAQGMg7ZLtsDGYLyA0OYnmNgWuXVuGaTe1oXtSK119/bcoAocQWjpvFMM0lBs+AP6Rh6OgwjCyDs3XonglbBxKBgwv1dfj5pmvxozMJZLNZAQhqnElg0cImWIlGJPwe3LRqN967oQuJVB90xGB7THuMo/P8Ivx4zwqcH1oGSgOnGyB4OjMhbLA583wsgzovh/cNncAnB7uQpltruHAw2OIdBHg+swT/klyCnlhKUh5j9XV44CP3YOf27fMlhjk0PM0ZBqHkdxJABh1OkAogXJ0lJsHAuXNn8eWv/H8l9RdXaOLMJ8IrtQqW3v6wps+flSmOsryVgVPoNbYMqrAUhv+wS4C+6DT+oWhQ6DfPVxN/KCLkiooDKv/zPdXCTkc8EReKvzaVEUaC7EMqZADSqbQcN6XqDhX8kkaoTIH4PiWLZTozchAK6X61OlTvwX2NAJDqjlBYhitOpZPwceTIUbyw91Wka6pxx223ixhMTUlq2pfwIDIITlH2xyfgiYBQ2KEgXgEVut5FQqixwr/xQMaIcn9kwos8C9S9V85xyzQwcp1JyYY/lkn3Q/q+JOAMV9QR/axW8KEETnr0x3ajzDxA4E5X1VZhRXs7MhnVFUOcFmimCooiaxNaUotzf8CJO2p1lZMK18nLY1liGh7OwnM8eHSpLKiJvihx0Co5knbR0lZocEWvkix5bQvANiy4PNkUH1oGCo5wY3KMHC9AwXGQc5V4jQAgbztiEpXNF3A+b6Fge8jbBfU7+e8j5xgoeIBrGMj7OnKOK/4AMBPIwMUdbQ24d9sSvGfDKrS0tODA6/tnDiBMK4Og9EnwTTj9AYaPDiFWSCi/6EBZamuagwtNC/B8+zX44Zm4MAhikW4YSMRjWNSyCMlUI0z/Atqaj2DVktMIggEUctWwHQuOE+DCcB1ODK+F4zcCwfT6IAig033RHhAKDJpJxOFiTfYMPjV0Em2FLGAyMEqH5ZO9tHEi3oxH4i3Yl26ULgezsQoPEiDcPM8gzCF8gKsOEES/p7x/FMXJSNICV52GyheYZRc5mURDK96zF3rwyDcfCWtoI7ui6H41zUSufDLleEFowavc1wgMJAjIU/G/MuFTI0AmgXVWugvSuiSs8aYZuRtPqPCd6mql7udKnz38VPmzhh8q+CO6lz+XmwLNdO0uKq0cOXoUu3bvkf28847bxSiIqgJ1KunzwIGA57Io7Elg6UozMcmNk93YtkEBZFLOGP2ifG9Z9475vUyY4UNHaRfK2kXlAZy4GJ0cZU+oKV/U8+pyVGCLv+PK15UVOWOzdTj5ItyirSZP8ay/8jZVBkFAkuciXZfBsvXrkLRSKObzyPk2DJuZEAyj4sTP0pML28mi4AyKFz+JAc9Toj9oBQGvLBOYRkx68MWUz1PZjRInHKjvi2yTpYaFHQxkE2iB7bvIez6GC5zANeSdInLFIQwVAhRsH1knwFDBQ94F8n6AfOChwC4bse7R1evHMsret8wkqdy6u7SQ4LsKA5FExs3jrhUmPr6tBddvWo8FLa1vH4BA0OZq0LwE7LNF2CeKMG0Tvu7JuGiyg8Fy0L9yNV5t2IDv9SaRLQMIDGFqbmoRO/KAvGRA9tWBYcSgB1UC6NS1qq5FXaN3xPS2OV7qCk8ENm7NnsX9vaeAWD98PY6kw/JQAZYbx3fqmvCN2pUwnCpk6mP46H33Y/vNSqQ40+PYle/K+UfIHHPVrZbDgV92JlxREiBwZSIA4SpsJYBwthsPf/XLYaKfEk+JJW8oYoy+F0e/UBwoq/1Q9EU2IRG3xD2REzxX/mLSY6m2Psbvsv1LWslE8KXo/ujmiH6W1XwZlzLqBirVi2fnQKlVs4ajR45g1569FQME32LU7MXTZfS5xqzXL5pYVT14DKEU+gpEAGEEtkXDoWJPRp7HiX+EaicjIm1zjDSmhiL8nktv3wgQiPJeCfGoG6GAj2FJ9FygPiZyVDRiYTeG7+PooSM4feIEkom41PMrwreXESlWapREo6V0TS1WrV+NwoVedHV0YtC3Ebc9Ybl83YAdUMwHaA4BKoG5jiKTJGmIxQnb92C7HoqBuPZj2HaQdzUUSXU7XNV7yBdt5ItFZG12DfgouB7yTgDbpdGuh5wAY7JQPOwsF7gwkRHoSM7K00wEFK+KuQ4ZB0Pq5ApRsyaiPPrlHhgjuiz9Xh5RDhByuGuFhY9vW4zrN62bNoBwSQ3CNFotqwWJgSCXQPFYFs5ZR0yQAuYrEIAGDopxF8Pta/F8VRsePZ8SgMCFRlTObGholpwPpjkyj4HHRrxHLjIzI2xWoWwjJYYDaB/eO+UshvFGH9N3sDV/Dg9ku9Hk90H3DSRYWQUNrOJ4proRD8cXo9esQ1VdBvfc9zHcfPN8iWF2RvLK3uWqMwjcTS80meG1zdalYr4gdfqroUGIBiHeuP30QfjKV0SsSOqd9X0CAIq+otV96Sv7+WNKcKjavVR936IgUAa7kL4PRX7li9uI2leWISMEeIhEpMWsvNVPQES0ElZoZeRsVzQjVXZxjPuoCCAIg0CAUFURg0CAcBGDEDIxowf+kXeN2IoSrOB7i5hzxJZa1c6lqDECrsgAsaUuFOGp9jrVbx+1eCrNiFLkq4lePUbEfMkkdMsUIx6CN1Huh3kKXF2r88LykvqqshoC8YQ4fPBNnDx2HKkkrWTHj0Qee1yn2sXAz+75JpK19VizbjkK5y/gaMcxHO7rx4WcgRzr9RQISl2fWRMa7CKQtW1kXa76PRQdds6Q/lc/56kfYamMLYR8jkumgOUmxoYb8Fie0NnNYCLgUpcTP2kkHdDZLUHPDYYHEfXzHEmpKvwvDA+PDcVr4WNCcSTZivFWj6M6M0KAoAcefC1kEJaTQbg8QJhMuXKmuxjIU8nVO5RG7vAg/CFad7NizzIdvxZRTLvIbliLpxLL8IOz1RgeGhKAEOmeautq0dTYJIsNgjPCAJaBNJ0ArPxqU6/J67IEELoPYO3gHnxopYN9/XE8xjTHSYQ1jTdWsJW71RnAPcVT2JbrQ8wLYPGC4mc2NXQm6vGIuRC7M02oqWvEPffcM5/mOIWheSaeOqcYBJ20NIBCTsU9m2GP/Ex88Eu9ZrlIcbivDy8/9TQSXOnTylUo/hF3vsiApTR5l2UbqPtSCigXjUuqZnfxHsyBBN0rHupSiWGCDEJ5iWE0vR/6HYRgQVo2y2ygS8yK1LNV771cG5GxDtXtYe99VH7hiswwYwIIIqdFOUcEa6E+Y4StUfBCKffDjAqu3cKSF5mhSI/B/XZdB3ZRGU9FJSMCOHZ9VGUyOPrWYZzo7BKAoAiTsaqJ8c77VK2WOZGbSNTWYU37cgyf78eBrjP4xgt78PxZDwVfgxNoAgL41ad9L4ywN90USp/Yi+FSNCBiK5oKCOeETi7BkeOjqP/RXQugX4JHmMDnswLtIu57kmaZCzQM0acgodwMwyOtgJxKGFJAQfOEPlR9PBRUVhLYzC4ZAoQUMm4Od1UAEKbNKEninqdHpOgb1CAB2tkE8odz0B1TWACaJPE/kAeadPSuWY6fx5bi8Z5aAQiRBoHXcaYqhQULFkgrqlovROdohO2Mjr4m4U8+bOqJHA+JU/uxJgQI+wcSeKy7FsfiKyac5jj+YkJDrZ/DHYUu/FJ/LyR4mnkRvB5NGw6q8GiyFd+pa0ZtTQvu+ehHsH3HPINwxUF4Fh9w1a2WyzUI4vwWAQQa6TD5cKZXxJc42JwM8gMDOLRH1dnZRVDal0iDUFYOUPPAyGQQyeCYvT6WL+dt64aRBLLAClmDKKq20vM/UmOP3q2SZ4aPLR/nw92WifkKE9rUNAgqgZGfPyqrSAaCWCeH/0PzHdL5XMVLNwVLNgQGoRNfBAQkuIlMjYA2RVvL69KqWSYZ9SEjD0pOP4LhQttfcZ90lD6EtVp+LwZQtB63XbrvqO6RsLQk4jyfeRBKSyLiUlkp66iuq8Oq1asl9e9EV5d0icweQKCsRUeitgZr1q3CQO8Qdnf14r8/+SKeueCR0A0jg+liqah88SmgxoDSUlnk8+Yjva/aakOFowT9BDKBlwGE0HwrpXloimlojBuoT8awYtki1KZM1MbZHptEZ28eP3huD45x0qNfggAv5ecBsF+eJUQS6Xx96nF4hirtbSkHCHnctdy4IoMwrQBBxqWpWy17ugJfTgfgnvClc4H6AzpgGl4cAfIwl8dxZskCPBNbiR92V2NoKCsCaJbFSNokEhaamuqRTMVDak2ENBR0hOmOShPFzdA5pupwNQOm78E6vhdtA3tx5wob+wcT+H4EEEQYXXnc8/gAwUDCK+LGQgce6O9DWisAuoOYZ8DTbcTsOH5WvRT/XL8A8aql+Ni9IwDhao37lYyg76bHzK0SA8eoIGQQrmKJQaHwANnBARzct1sMjjiohsSfKIvDtoKRa2UMQIgKBZey4L3IFjfEF+OJ2saK7WTSE5q2Egnc6DVspJtQi+bo+apNQVb24cLxUjfBaIBQeYmBwTqeacAzgBVtqxG3YuIDIZM9V/VS51d9+VQdSjlAXPfCLAdZ3SptQTSFRGCGrAONnqJ0R0lzZDsocyRsO8x5cGXFxC4RabnzwvwRrqjFpnckCprtpLwOBbyF+QH8nfKaYE+/0qPwmFHdn8pk0LBwIVavW4vOjk6c7OpCJk6b6AkyCFPIYiCLkaqtR9vatRjs68WrXefw+Sf34Knz1B1EHTfGqKqHHMkQHKpzr1odR+92JHBTNW1FiAMZT8PGJguf/vANWJiA+Bu0LlmMRY3VSHLWMk0cG3DwV//8PTx+pF8MdFxeYyI0kqkKEAo9Arcl+WiF4+/VBgj8EFM3SpLj4QQYPJIHegkKLDlGVIGYbgqa6cBYA/Q0L8aLzlo87SzAQN6HbiakfBnXfDGzIjiIm7oYoIWVOBSLBF4EtXk4Xg5a4MByCoAXg+cZSAR9SJ89jM1WDjuX+dg7EMdj5+rQGV8hoJc8k7BGk9xU6czBWqcPv957Fsv9swIQCE7itgHTjeGV2ip8JbUQvc2bcO+9H8bOHe8fVTGd5FvPP22ajsDVLzGU0e1zrcSQHezHgf0ECGm5TWguJK6o4QJrms7BFV/GGKeUrW7cygGCDL/SwhfRBerZnPhIlXOCUGZIl3/ZyZYYNNOCjQCJ+hps2roFMTIEUU16FJsRyGqePAMnbu4bJ3rqUjxXpTny50IhLyt+TvgBvSJYcw1dIwkQOPNRtMUtAg7seJBJPzSSEjtpMXughXUIKPiagS+W1uzAUCwD/2ZLS6qs9sJsC9U2amDt+k1YtXETVq9rR0dnJ050dqJq1gGCj3RNA9rWrsNg73nsPtaNzz+5H784r0uXgJz+SbBxKutAAeJS904QYJke4Hc+8n78yi3tqDZ8dJ04g2zRQfvKVqRjqqUxBwOPv3gIf/rVJ5AzUrjAeA5efgQQci9NfvIRId7VKjFMo0hRxpMc0HtoAGY+BpOrfjl6LgwvCTMTwFjr4kJVPV7sW4RXvWY4AXUfGnTPhubaKAYx0YokggLibhZJFMQ7IQVHeJqYH8DyfViBB93MwjI06JYBpG2Y3iAW6Tpaa2vwal8M359GgKDAp4/F9hB+pb8HW5zTMGGjaBhIFi0Ynom3alN4ON6EzkXbcM+9d2HnjpvnfRCuOCPM3gPmNoNwFdoco0OvGAQFEKpTaZlMCRBElDZNAOFi4VXZiVd9kiPvW6bG53gtDmlh3TwSUskoHnZZROY1qv9fbdI2brHNid4Nuoo7ZodFjF8tXLhwAdnhoZAav8RFGIoU2eb40gREiroVQ4G16doMtl57LZx8AcNDw8gVmfXghE6PtgRLiReErwKnSOVTTGhRMCgW0co3ggyD6u3nz554M8gKV0oCLgLXExdJvjYneLpK+gVHWhAJMKRcwLKCMA+U740YBbm0oSYBTppVU3lziocPOyBEc6rKJSyBtG25Dqu2Xo+2je3o6FAAYaIMwpStloOZAwjS1hkCBIJVy/Vw86I4/ur3H8K6hhjMwMX5wSK6zpxHS3MdFtenoGs+bE/Hsd48vvTTV/FWr4MnX+tANrAQmIo1mG2AUCmgLr/yZ1qkSDGSex7oPdyLpJ+CEajWbt1nABpgNfswVnnIJmI47TTgtW4yAB5030OKuQfwURUUkCSZoWuwjABJw4WhByjG2a5qQZOygoXAiME3LNTYQ0jYfXAMD0YqCbPow9EzeLnXxKM9dehMTA+DoLQ9QH1uCHcVzmFHsRtpLyshcZYXg+VpOJ1J4etmI95YshV33XcvdoYahMmA2dmbNt8976QNDA4HXBFdza3UxSAsZ6BEikz0o1FSZYvkad19WSlNBSCUdRWUt++pGn+4EgsCET1yi+xxOWkrVztFZ0fiR5upijIZqglK6HcrJvV0TnTlSXn0TKBoj22UVOPzPURkGYspCl8EfKzrM8Ql7DdmTTgAjhw5jNOdnTDFP5+T38UrvIhBODrBLgaa59iaj1htFTZt2YpDbxzAhZ6zMGU1yaYDpu6Fky5BTpgeKICBP3PSD8sGhVwOxbB0kBseUuUF15XfybXMiVtKBl6p3h4SKNFauux6oW6BxHkoBgkfOI50ZNQ1Fh0Htj+2bXsvVmy9AavWtYvt9lwDCA4NHCa9qVqL0N6M9LY9JIo2fv26Zvz5b9+Phpi4ReB8zsfzr3WgqT6Da1YtQgJKz1BEDC+fcfFXDz+Bnx/qQU5nnZxdDVGxYrI3+MQZhMkMJiWAEFotf2LxaSyZolFSNL7IpeYmUDg0COeCi4RWJRgjkbwAACAASURBVAJD8Zf0dXiGjfhyHbGFAdwY5ZzUkPjQPFsSUjXDlNbRQT2F3lgDzlsN6NUyKBpxBHoMtl+LvGUim4gjl4wjbxqocgfxvrMvY2vfGzApS/WT0L0CcqaPV3otfP/s9AEERXwaqHYKeG+xBx9hu6MzBNfkfakj7uoYNAz8sGYpnm5ei1/++K9gx/b5NMdJ36oz8MQ5CRDyubxMcnMFIEQlBpZAKCSshEEYpdQv60eOVPkECnaxKECEkzh/H+kD1ERO1b4F9tj7CXZQxGTCp4WzBCJppqz8k6nk6Ba/SIkf1s6ltZyCupBHiOxzSzG9qmFdav+dHUfR3dklK2eh3y8DEI5MsIuBbYcMmIrXVGHjli14bd8+nD91Evm+HgS+J1784sdv2wgKeXHwIziQbnpqCqS2qsGUcCCCJZUJoSAXv+fdEShNg7AvSiPAlW+k1RCjpbGYJ9QajJV58ufLEeClFkxdx5qtN2Dl1utHAYRJlRhcG08//TQ6jndh/cYN2LZ5Myr1QeB5vVSJYSoAgeUF6ckPzSbMgofWZAZ/+xs34/ZrlqmAHh/Yf7IX//ztf8PKpQvxqx+6EQtTzBNw4RtxfO35E/jLLz+BzkIcrhWHoRWhsTYu19fsAYRKNTvjMgjlWQxTLDGMjA0BtFwMhddz0IomDDeukg/5n8e8uoDkchN6NW3KfTme0lXCuoQEVCVxxmjGvy29B/tbb8OFRBOG41XSUiqurUG9invmf5bbtADL+g/grv1/j1u7fyz6BU9jFsIwcrDwygUT3z9XP20MgjLnNpByPaz3e/BA7ykscwfha47sT5w5HYjhx1VL8OPFa3Dn/b+GHdvnnRRnYJ6f9EvOCYAQBfZErWVkEOYKQHhz3x5k0ik5wAQIMpGUOfJFR16JvFSM8ki2gRLdKQMeZZcsLXr0nQ+Nk2i6I34JpoU40/RibM9TSnzVO87FBFcPqg1MXPfEJEb5H7AmrxhwFclL1b0I60L/fNbfVTqjK2p9CXHKFZBnDd8j/U4KX8VOM3iqp7MLJt/vSgBhHAaBxrBqoh3HSdFkLRxI1NRgw+ZNOLB/L9549WWcfOs1+C7VCSrWWcSKrgcz9H5QDn/EBOxSiASFyuJagRy1+icoIO0voVfiUMkyRDj9hLV3V47lmHslFHteNHlcsjtR9ZyolSXjik20kz3Yes3UAcKURIozAxAEfEl7jSp5JW0X29etwxc+sxNNKQ/xwMWwq+MHLx/Gf334x1i6qAl//IkP4NoVdbA0oDcP/PY/PYknX+nCoFEFh8FRsAUgcOKqzElqvPHt7SdSVCZGSmCs9BwB/AsaigeoFUgoq1Aax+mMRfagNTqIrzCApBEGoAFFnboZeiAkkAuqcMhqxbfX/nu8uvJuDMczcAxN2gmtwIHnx6UsygW76QcwvQCLLryFe1//O+w89x3EjDwKMQtpZxh5txqv9MZCBmG1lDCnKlIk0OFYkHR1rPDP4sG+k1hrD0DXHHEeJcqxPB3PZJbge0vW4NaP/zvs3L6zFHo36Vlt/onTdgTmBEAYi9iZxcC2N5XmeHU23sC5wX4c2rdHHBDHMgJj90rmacNEQ2MjmpqbEePqn+mFbNVjy2YYk6uEdIHkMHA1LMOEtJmF+QdRNGqY5cDJjv/F716+qsexfi5hOLYTfu+I0M5mrZ1/Dx/D19WpYGKrXtjTHwnObFmR6KiuqsXa9g3iv3/6WAf9gSoECKOtli8LECxlqZuorsfGTZvwxt5XcHDPLpx466CY6pRvleYz8Dk04yHAZD3bgCltXCw3+H5RpWaO2aZU2xSagqwEV2fUgBikXtC+9Tq0bZk6QCg6Np56Zm4xCHQ7VGjUhOZ5yAQOdm5bh//7rhuwcnEcSTg4Pxjgb3+yG1/40StY19KE//jgzXjv6kZpZdxzfAj//guPYuBCHo4ZR59OMMcOBp47lfo4OZBwlQFCaBpV6egk9zmNi4SxUq1C/N1wRw7m8fQoIkXacU0XVosGs1VDkHChexZ030KgO/CMojhhOn4VDqZX4lvtn8He5XcjZ9WCbBHTE5nkaOsMUFOeHhrzOHwPS/oO46Ov/wNu6/4ekoYDV08i5mbFs2J3XwLfPVOHrmQbPI35s3TCnLyQlAFOBPVxJ4Yl/nncN3gCmwu9iAVAzNORj9mIOT7ejC/BV5e34aYHP42d22+54lhb6TGff9zUj8A8QLjEMZwoQOBEW/R8bNiwAc0tLUo0J6t65jEowZ2kM5Ia50Ttqsz7qMdeBHl8DJX7Hv3y1cTveQ5sh0I61Xsvk3+Y6yABTGF7Hp/P/n0nFPdFiZPyvg7b/gggHEXnswuAnQHFgqQ7btt6La6/4UYMDQ0LQJAoisswCJOxWg4mABAmYhjlSp++Yi2qq+uwafM2nOvpRtdbb4qgUVZs0Tku962YzL0TljS4+pFY42kCCPIBfA2FuVhi8B1IYAObfD0NuuOgPhnH3Rtb8eCHN2HT4np0nOrHn33zOezq6sN7Vi/HrRtbUKu7KLg69hzpRsfpDmxY1YajvUN45tgJFLSYOIUJIzYtAGFmjJJU1SqMez7agVNPfQsPUYMw2RKDMAiKBURgwrcD9B8aRqJPMZTRJq2PaRfx1hgMZiuZDNbi8TcQ6B48tj56DIRL4q3UUjzS/lnsWXonHJ0LKlfioU2/KGMFvQ5ivgPTs2F5eSwYOoDbjj+K9557EQmdTEYKhmMjpwcKIHTXoSsxPQDB1xRAiHkxLPLP4/7BE9iW75VQN8s1UCwDCF9b1oYbH5oHCJMZlmbyOfMA4TIAgV0Mb+3fK3X/KzEInFWZVLdu/XoJVzp//rxMsgywcUITnmjSltV86MYn+gCuoClOFFZAmfWU0iB9puhRq6CAAWv00nrnqgmfoEAABdX5jg078OUxUQeAtALKCl2pECQsKqzXB66Lhvom3P6BO/D+m3cKQDg1AQZhIl0MEwEIkc1EJRc+U+SUr4+BhS1LcMeH78Kp48fwwr/+K4q5nLwEyw+lkskkWv1K+GICAGEudTFMRYPAVafpuqiKmaiOx5DUDcShIR0U0dyk4bb3bsH5PhdffHIfenwL1QkDCc1BkB8Wy+XG+gb81i9tw81b1+LJvUfwV489iVNFC75HATINfKaDQagMIExG71DexUCAMCWRopifqHRXja2JvR6GOrKIF5KjLnVOrKjzkViagJHhBRwKOsVhzIdnBNA9DYFr4WysGrsbrkVP9SrFxDgFxLw84n4RabsIy3dheUUBCOJiGOTRWjiDpmI39JgGT4/DcH0Jz5pugBCErhmGH8OC4Bw+PnAC1+X6ZAFiegaKVhFx28eRWCu+uqIN73nw09gxX2KoZNibtcdog0PZq97FMAo908FQ4p6NUSWGKVHDEzycpS6GgT689do+yVe40sYSA01p165dKxM0RXxcpXtkEJh8F/bOy+TNiT2cxDmRR5N+VDpQvfcU5rG/n5M9AYPSEJCB4OPYvicdDaJrYDgOiUnV/jeyYFZrZ9bdy7sppIrOsrIAhEbcduvtJYAwVxiEiolN8fLnZzRQ17QA79t5C06eOI69LzzP9hDlGEjw5rL1aySm+0rnc9y/hyWGShgEAoRKnRTnMoPAfYt7Lja21OKD29qwuqka1TET2eECvvjEj9EvwroadPUOIWdq9D6SazDh5XHTmoW4f+c2/PK6JaiLGdh74jz+r+/8DE8dHoAdJESQN5sAYaIixXIGoetoB05PgUGQ96ZLGM2oWLZxEnCO2bC7XWEGRo2Bpg99YYDEogQ0i7kiyoo6Et4y10Rj65eniWVy1khINwNLfLS7pj8EnSldk90OvrShstTAd9E9A7rDSPoAXtyTADXD1ZH3Me0AQbI2qNfxY2gKzuLB/pN4b7YPvhnA9A3Yho2UQ4CwFA8vb8O1D/4GduzYOalbc/5JM3ME5gHCOMe1HCAcJkCogEFQhrE6VretFoCza9cuvHHwIAp2EU7Yc69c+FSrYp5pOWF3g7LtVX388jspT4TqexlEQ5dD/rGsrC6DTphbEKnwNbY/haY4UVslxXljnRtlwCBAqLsYIExWg3D5uOeZ0SCYwo5oIqqKV9dg87XX4ULvBZzsOILlra0CNI8cPqzaIh1HdCFjt4p19BMACO+MLgZeXyZM18aaVBG/c+e1uOfGDahLmsi7Jv7rz/bibx/fh7yThB8UANMRfQbLJQvjPv70Ezvx4PWtSMYNyWs4Vwjwhaf245+e2I/zedr9TleJ4W1gtcwb0FXdCNBdIBdD8a0i/D4xlCw5WArPF/NgtuqwmuhfoJxFpTWUK3J2UbFN2WdENLtyAtHg0P9EhLlyMTNPA0roKAInlTEiOlMtDzew4GlJGGyjJIh2DOQ0fQYAAsGKSBHRGJzHQ30ncWO2FwEZEBhwDAdJ20OX1YqvLW/DNQ/9BrbvuGVmZrr5V53UEZgHCNMFEKSZQMfqtWswODyEf/35z/H8i8+LkFCJvELjozDZkR0HaoIfMzhEIEFubJUUKKUJiXdVuQTUKogAMuyOKP8Io2yZw5lvPEG+qBc8F821jbj9ltvxvu070T88jDPHOhi0VqFIcbTV8tUQKUorYwgQjGQKazdsREtrqxzXJUsW4/DBN/Dys8/Asx0UHUfYFkFi4XGPVlYVgYR3pUjRh1V0sDYB/NH9N+EjN7UjY1lwfQ1PH+/H7//99/HWADsSOAkVoQXM87WQ0Uz84S/fgD+6YxX8eEJMiV1fx8/ePI3//K3nsPdkP3sZpDvl7StSnIDVsgAEflZPwpiCARPFNx3oBRPFWAEGQ5SoWTJdIOMjuSwOvUq1gY6IbSMX1PI2KiWcHW2oLkuEi38nT6OoV+VqUAXC65+eIzk/EinWoyvJLoapixSlh0F8HQw0+IN4oL8bNxZOIQEXjhYTEaSneej1FuBrq9qw/qHPYMc8QJjURD5TT5oHCFcACJEG4UonQBntaWhb147+oYEQILwAR/LtL9kzd9mXFZEjKULTxLJly1BbW4POzi709vaWoo1Jn19RHzHeZ5RFhwIId4QAoS8ECGxPu2Kb4wR9ECaiQZhIF4OApxAg6PEErn/vTWhdvhxvHnwTtdVVOPTafvSd65FyA+lUArMRSKbmJsZxzwWAUJiTbY4uEo6N21a04E8+uR1bl1UjHpiSH3Ay7+Mv/2UXvvfyQQzQRJfaA4MAwYRmB9i5ogb/7+/djYU1CVHWk+Tec2YIf/GtZ/HjfV2isld5GxUd/TFX8cSNkio8y6PeZ6xR0qRFilzFy1JfreiLPQ78Yxq0goVirKgAAihALMJsMJFamkSQUE4CM19eDZD3pr+LQVqXCRA0HfXesAIIxRNI+jaKelz0EbblY9BuwtdWr0H7Q5+dBwhXmmhm+e/zAOFKAKHSEoOA+NEA4bkXX4Drsud74mc1KnPwK9s9b7/9dnzoQx/Gvn178d3vfhfnzp2T2vp4ZkaVvBsLGrQkFoBw6+1438070ZcdxpmuyzMIqvahYaJWyxMBCBMRKUYMAr0imlqW4Nr33Ii9e/ciP5xFU109Th/vRHF4GBoBglCs5TUaRb0K91rBOSJdKy4UFXQxvFNEivBtNJoafvMDN+DTt69FaxXrxyk4RRcvdQ3gsQM9eOTp3ejJFuGahiQRCt3tG1ho2vgvn/4wPn7NUsR9W1aS+04P4z9/5zk8sb8Ted2SNtFJ3SCTyGKo6CSPuXmmzWo5WuSLT4eJ4a4czHMmUDTgWb6kN/pwYFtFxBbFkWpNSEtjBBBmFCSwpdubfg3CpQBCisJrQwGEgukJQHh4HiBUMmzP+mPmLEC4mj4I0eRMHwQaJVXig6DY5+kBCBEjwK90T/zgBz+IgYEBXH/d9WhtbcV3vvsdPPXUU3KxRLnwE71y3ikAQUovjHtOxHHjzTvQumIl3njzEHzbwXB/P7qOHIbmOdAdxSAQIER21XyuUnmGQOEKB/FdCRACD42mjt+683r8T7e2YUmS/fRJHBou4o//21ex95yHPqQxVCiKXsEIPMQokPN0WI6Nm1fV4gu/ey8WpEyxBn72SDf+0zeexa6TvSiyZPY26mIoiRQnabUsbcnMWMjpGD6eBS5oSCABjw6t0OCgCDddRGZZBla9Qan/RG/ryT0+BAiv9iXwvWlscywHCHXuED7e342biieQDggQEgIQ8oaLIWcBHmlbg/ZPfBbb530QJncOZ+hZ8wDhMgzCRIySZqLEwC6G9vZ2/MEf/CH27HkVhw8fxj0fvQe7d+8WkEDnQwKpyWxiUByVGCIG4W1YYmB3AiMoa+rrcOP2nahpaERVba20mR7v6sQb+/aJ4RW962lYlamuFsOpoaEhldMATfqyKyAQVE98hQzCO0OkqMpmLDH88uZF+D8fvAntzVVgo+M39p3Ef/jbr2JAr4VjxuDTLyHQYToOltTEkaqqx5lzvWgwCvh/PnMnrmlbhAv9BXzz2TfwP557C2eKlLR6swoQrmqJIcqzcE245z3kTuWhZQ0YrgXDj0PTfLhGEUGth/TyNLQMjZVmCSCgrMQwgwCBJQYChGQ5g2B4GHYW4Otr5gHCZMbxmX7OHAMISpiXy+fKnBQrGrqn/Tix2yA/2DchBmGsBmGyJQYyB+xs4Orq3nvvxS233IKvfvWrOHXqFB544EE0Nzfhm9/8Jvbt21fSCkyUgqSAiF0VozQI2WF0X6HEEGUQsMSwa0ya40yKFMeqOESaqGkwrDhtJUR8aCXiyOZy2LztGtQ0NMnfjx3rxImODiyoq0dVbTXu/Og98piXd+3Cgb174WSHYYmBUgWX0AyLFOekBsEHDMfDpoUJ/Nkn3odb1y1GPgv8/Y/24d9eOYDAYBpoDG4Q4Fh/AYXcID62fQtaW1pw4tRZGPkBbFgWR20mjb6sj8f3duIXxwYxJEHEb1OAMAkGgeZHvuZDty3YJz3Yp+mGaDJpHDSfJnjxLAdo8pBcngDiqoV5VrbyEsM0OilG7dTUnlR5Q7h/oAfbCyeQCly4mkoBzVoOck4zvrFqLdp+hQzCrZPSVM3KcXoXvok2NJybAz4IIzeDOBjmckIbx2JE1uo2megEOJVzqUoMQG6wF2/urbzEMFWAUK474OdtaGjAH/zB/4p8Poe/+7u/k5jiO+64A7feeit++tOf4uc//zmy2ewoHUKlmoRRJYZIpBhqECoSKQpAmD2rZWE8opMaiigZV92+5TpYiRT2vvIynMKw9ILX1dSjrnkxFixdiur6WuzdvUdSCJcuX4YdH/koNNPCue7TeP6JJ3Bk36sAV7+VjMYzDBDmntVyAMMjM6AhY5n4nVtW43O/dA1Onz6HvUfOoG39OmR0HzVxHUf7XPy3n+xH5/FO/IcHbsYtW9tAnTrLDIzTHvJiePZwLz7/6FPYd3YAWd2Uks/0lBiuQpujdCBVzt6J4ykB0XAcTocPXFCZDI5pg8ZIpmfBi3mwlmswWlT7p+FX/vpTHe/yHiAlhmkECMqcjTeWgYQ/jI8MnMUHs6eQRhHwY5S1oj/lolhswPeWr8HST34ON++4dSofZf6503wE5gHCJUsMIwAhlU6H9PKlj/50lRiizgVO9Ndffz0++9nfxuOP/wDf/va3BQisW7cODz30kJQXHn74YZw+fVp6/UtzZ0VLYdVXcakSA9sc55rVcqmRS7pFlS9EdXU17vr4p2ClqrB39yu4cLYHvuegqqoKsWQKg4U8tly7DXahiJeefQHX3XAd2q+5DvHqWrjFPF5//jk89+PHURgerAgfEDVORKT49jdKCqD7LgI3gBn42L40hT/55J3QC4NY1FSLpgVNEgoU13280Z3D33xnF5xCEf/b/TehvbVRxIem70roT3dOx5d+9hq+8KMXcS6Iw2WrnRbGjVd4zY6++2a+i2GUUdKRDpx+egpWy+JlosHv1+F0eNAHlFeBa6jEUslnSAZIroojqCdgZYvgVGK6JzJTzEyJIeonJoOQ9LO4e/AsPjh8EikChIAMgo3BlINioRGPLl+D1k99Du+fBwgTOXEz/tg5CxAM0xrFIMz4kSh7g4hByE6QQZiqSDGa+Fhe4Or405/+NLZtuxZ/8zd/jTfffFP2sK6uDg888IA4Nn75y1/B3r17JsUgjCoxTKCLobzEMNtWyzJghwCB+gyKR1e0b0Kmrkm+ZyQ2I7KZN8HVWnfvOWzYsgnNjc148alnUFtfh8alK9CyfCVcO48DL76A5574IfKDAxUBhHelSJE5DC77D4CFcQ2/+aGb8P6V1bipvRmBYcH0beiai0M9Nv7xh7vR2tSAX7ttPRoyFnwYMDQHnhNg95kc/vzhf8PPD5+FbSRC464QIEzq5p44QKiMJhq9M9NptRzQ+fCsD/e4CyNnwtfZousJEPANH1pNgPSKDIIqppvSdm2WAMIMiRQvBRCSWlFintnZMhC34RSb8P0Va9Hyqd+ZBwiTuhdm7klzEiAoq2UCBPq1V8L9Tu8Bmq4Sw/MvTtwHIWIQFi5ciD/90/+I7u4e/PVf/xcUCgUBAqRkb7vtNtx99914+umn8dhjj4lV87uNQYg0GhQomvEUGhqbsXx1G9Zv3IzBAU74AQoMrUkmsLR1Kfa88CJ6+/qwcvNmrN9yDfLZIez62U+w55lfIKCrZSWX2QQYhImIFOey1bKkmHsu6NBpaHFcv7QBv3fHWnzsPcvg6SYMFn4CBwd7Cvjv39+FJU01+I0PbEJTFa2ULUkVHHYDfPnZN/GX33oKPW5MRKVq8qjYUHucG3ziAGGiIsXpDWvSAFtD4bQN94wPwzbh0VGROZmuBSfmILbQRGJxGkGc5mqzJVDkHswWg9CDDw6fgkVDrRAgDMVteAUFEBb+6jxAmN6ZbOqvNicBQiGfh/4OAAgTFSmWaxCoNfjkJz+Fr33tq3jiiSfUQGKaAgZWr16NT33qU/LzF7/4RSkzRNukNAhjGITJahBm0mp5rAaBDAJLK1pAoZsOzYxhdft6XPuem3D0yFFkB4fRvLgFWbsooU3N1bU4c/YsqhYsxDXvfS8OvXEALz35Uwx1s0SjgqyuuL0buxi4jvWYJsgAxmrU+Dn8yV0b8Pt3XycGOOIlGPg40DOMv/nus/CK/fjf79+J9pYFEhFtBD6O51z82dd+gm+8cgS2lZZWSLHg1SlUrASZjXdmZh4gyNQZpTke6cCpqMRQEilOYIVPw8KChtzxAvwelmxicA2bHAsMuikmC0gtT4u9cqDb0MyKrsgrXrKVPICfkRqE6Q5rigLiaJyVCFhiUAAhphcRaDEkPFtEil6hEY+tWIvmX5sHCJWcr9l8zNzrYoCGYqEgzAEZhMk6BU72IEp+wVUUKXK/SZf/3u/+HloWt+Av/uIvBABwv/ifE2NNTY3oEKhRYHfDiy++KN0M3O9KAcLbvouBq3myS7SipgbcsrB+y1a0rliFXbteEg/6NZs2oH3zRux++RUE2QJWrVyFn/zsZ1i6ZAnOnDiGgXNnYfCYGeQbKtjedSJFleFB4CcKUU9HzPdxXVsr/tOvXItVzXWI2Q5sT8PBM334/BMv4FjPOfzxfbfgphWLMZSz0eca2HusG1/6wc9xqN+BZ6bAuU/T2dZX4XEf99SUA4SrIVLUQ5HiOFdO+a/Ca4YH0h0E7GMOjAtxmH4MjsVxDvBtD4XGHDJtSegZJV7UNUNZsc/GVl5iODN9Vsu8aIQn8i1oehYfHDyLjw52I6NlpcQQ8z0M00WyUIvHVqxB3a/9Ht6347b5LobZOOcVvsccAwhqr6nW52ZZlqwSJ2MlXOHnv+hh0wkQJlJiiEoL/Lpx40Z87nO/i4MH38DnP/95+fwRQOAOEwwQHDz04EM4eeok/umf/gnDdAsMQUQln/2SIsWuo7BoSez744KNkgZhjlgt87Oyxc6MJ7Dl2utR09iIV15+BdmBQSxY0oI1G9ajkMth11PPYtu118Lzfezf8yqCYhGBU4RJ9sGoMHJ4hgFCwbWlbNRxvAvrN27Ats2bUVVBkqhcE4GPdE0D2tauw2Dveew+1o3PP7kfvzivYypxz0r3weUvDzQzA5n+52J9nYFldTXQCgXkCi76HA2dRRtOYOOTt1yPhaaPnz3zAs67cfQ7HnpdDUUzDV8zYZUAwmRNyOUTS2qhr6WQcSuLe57MhDspq2Xx1wi30NqbiUr2BR/F4y5iQwmYvilhRexg4DF2F+SRXh0HYjSiIjggAJklgFBeYpjWLgYFEAyfrEgOdwz14N7BHlQFwwhA/YqHXNyGUajBD1a2oeZX/5d5gFDJ4D2Lj5kHCGMOdjlAmE2RYgQQWDb42Mc+Jt4HnPhpisQtYgYisMQWyF//9V8XEPUP//APks8wEevlt6NIcbz7gkOox2TKWBwr17YjXVsHp2ijoaoG3T09eP2N1yUK26WGIx7H7R+8A80NDfjFT3+CCz3dsAhAy+KwL3fvvRtFiqU6fACYZNc8H4HrQfc1GJ4v/9mS7BombJO5FgWsashgcWMDXjtyCn0Og51cIMZJQqUOmmHqoKvaPCa5TRwgVCY0Gb07YwHCJxafxpIr+SCMZRAIEjwdxTMeCsdtxJyElBZoS+0xmtkMECx0kFqZQqA50H1T2hynJNGYyFGdMatl1Zg8FiBUgwyCAghZYRDmAcJETtdsPnaOaBBGPjJvSDII/MoSQ3kL32wdmPISw8EJ+CBMpYshAgi1tbX43O98DslUEn/+538OhwmEuhJzReCAIIYivfXr18vfurq6lHdE+LhKjtM7xWqZEw7T6fRYDAuWLEXzwhbU1NZiUfMCHHztdbzx2utIpJJYsWY16pua0FhXD9cu4l9/9Diy0r1AFV5lDMK7ESCUrqVoVSylLB+BRH7qEsYj6YSaK6teZgBaGrtwYsgWNDge8xbIQrjqf8CJXfytL4ogr+S6HXnMLAOEox2o2Gp5DEDgfesVAxQ7HQQXdMDTYGgGLebWZgAAIABJREFUfLY+woNruMi0pWE08lpksrOp4p0ZDT0b2wx1MdD5YVyAEGQRUMBKgGAVYNp1eHzlGlR/6vdw047bZuMTz79HhUdgHiCMc6CmS4MwkRIDd4NggKmNn/3Mb+Gtw4fwpS99SfZOHAMpyAv1EZGCv6mpSUoNHR0dYsMsme8VgoS5bLVMRrtSfbsAK1bJdR31CxZhw+YtcBCgrr4WXYcOI2HGsGnrFhzrPi0CT9PX0H3yBN468JqsZOV9wgjuK94z70KRIs9FtM6XayagHsFXK1xxQ+SM5kDTCpJWqCMGX3cR0D/B12FqMXiSgcHHOAg00jVxICCNXpHy4xKnZeIA4WqVGPgp7UEHxaMBjGFLygojMe8B/ISHqvY6aBkujIgNLLaOIAi7HK54XU75ATPVxTC6xHD7UA/uKysxECDkYkWYTh1+tHItqj75u/MAYcrncnpfYB4gXAEgHGRYU2rEKIkDpiyAxmzjGSVNtIuBAkQCBJYXWFqgOJETYDyWAFs/C8UCGhsbUZXJCMOwY8cOrFq1SnQKBw8eLAGJSi6Rt5tI8VKfSdgUMriBL+ZI6zdtRsOCBXD1AJ7twC3YyNsFXBgaQDqWQLF/GCdPHIOdy4nWglHP453Pcd9vpjUIcyLumXBL9Yyww4CrfYrmJORK/iK55hJPHMAUrwNNoxlSQcAWQYGn+2Iy6DuOmAhD4+84KXoCDHzE5XdiECTvJaa8Zf8ruYKnByAQNKjPRBYk6qngvqmb/PJdDNLDMc5gIM9ULABf1zVRPGej0OXDci1hXHjRMaDJo1lUvY/MqnogXhC/RR4j6j6YzzAr2wxZLasuBh5bFlSKuDV7DvcNnkR1kIPhs4XdQ97Iw3Br8bNla5H81f8ZN+6cZxBm5ZxX+CbzAOEyAIEahAP796AqqQACW7MigDB2UpkqQIhKDOxgWLlyJbZu3YqWlhaYpgXLjOOVV17BgQMH8OEPfxhr1rTBsgxkMhmJXf7Hf/wHARPUL1TKILzdrJavdD3LlEaDqUQcNQ0NWLVhHXr7+3DixAk0NDQKoDJtF6e7jqOvr0/pNThJTaQMPsMA4WpbLcvEJeI/9VWMckUwp4CARGULo0DRIifUaFJXE6KUGwLyMqSAwpsFLiwfcEwCDYjlNbUIykWYz6dZUnRfcWIemZwvf86noYshxCauzzKehkDnpExXQ0oxy8p6GnBsbJvj5ayWZV73EBi2YgSyCRRPOCicd6EHphwn3ddhBBoKVgGJNTHEqxMILBeB6QrAIgCbLSdFlozynjbtVss62T3Nh6NrSDkBbir04r7ho6jzs0gVEsjHmLCag+9W47nF66D/u9/He26ZBwhXGutm8+/zAGECAMEIBxSCg4kAhEq12lGrIl0SP/OZz2Bxy2Khvx3bk9yFXbt2iYviipUrkMsOo7f3Ap748RN44YUXhD6fiF5j3BJDmMUwF62WK7kpIpBlSUbDRsQTSWSHh2UVmC8UMHShD/3nzkknw6RSMCdglJSJJ0TaUNG558Xka7j6XQxuWAII+/sF9XImJw+gQINKtGRwY/nqX+CB3BQCAsgU+HQD5HO4Rk/Bo4Ax8JBk7LbmwTZ0+FoY7yVAw4cmq3gRLFRwuqfGIKhyiQbXB/iWnmPLit0yqaJQLYaXtFqmSFH+Pj6DQMaFn8cnQPA1aAMJ5I7k4Ofp20HegPiJQARwkzZSG6thxKjJsBFQsKh56nGi6pyNbWZKDBFAcA0gZQe4sdCP+4YPo87PIV1IIFcGEJ5fvA7aPECYjZM9ofeYcwCBe0+RIifLyAdhNoOaoqPHSWV4sA8H9u0uMQgRQPAvARCmKlKMRIjMGHjPDe9BXX0d0ukM3v++7XjmmWfw0ksv4b777pO0y127XkB39xlZIVO7wOM1sTbHsjTHt4nV8pWu7KgFkwN7MpVCTV2drAzzubxkV7jFooAoHquJgKnofd/ZIkVO8S48kPqNqVWuWwh78nXJXIDHYCETnhmDB0dslo2AQECDpyfg6THJbmiuiqE6rsEyTQwMF3Cq34efMFBv6di0oBmW7qKgBeg4fR5nhx3YRlxYBQILIfkrau+bOEAoBx68VoaKLoxEGqlkHHYhj4G+XtTXVMMydMkiGVViONqBU099C5V1MaiyhW+60BwDXreO3NE8YkECvgAsajg8EXvqDQYSbUloYtblh1+jUkclQOlKd0UFf58hkeIlAUKQQzqfRC5OTYpiEAgQhEG49QOz2tZewdF5Vz9kTgIETnisxzOPYCKT3nScyQiMcBLJDvXj9b2vjgII0hI+QwxCBBBEdxCPyyRGy+U/+sP/Ay+9tEsYBLZAHj9xHI8++l0MDPTLR54MgLqcSPFtyyCEg7oa2FX9mLHdKlNOg8H0wKhjQbjfiSWFEiBwrcyVL4N3ZLVrGGjfeh3atlyDVeva0dnZiROdnXj7WS2zRODBQwIaLMQ9G80xF4vrUkjqHjIWu4riGHAtHDxxFs11VVizpA5J3YEVT6K3qGH/0dOwiwXcsGYxllTFUFdXjz0H3sLTh85AS5m4bmUrPrRxHbTiAHxLxxsnzmN/TwF7Tg8gz1U3S++o1GJ44gChJFLUlBnbuWwR6eYW1FVVYej/Z+89oOM4rzTRr1LnRg5EIgASJEGCOYgSqcAgUsEKli1SlGVRGs+O08y+59l95715553zztndmT2e2dmZcdyxxzOWvGN7rBysyCCRlMQcxSBGAETOQOeu+M691dVsggDRAAmS3seScAAC1dVVf1f99/vv/e73DfSh4+JFVJWVweOiTIhNsLNrBMNKDFaHTRgeJYPgdGgQ74IklZONBow2QLFcMKHDFHRYks5dCt4qP8TyTNOqFO+AqznXQuIcz2x4IzMI57jEMFIGQfzGf+ASw43UvRnPKP3/cd9bDiDQg0fp8v+VAEI2CyK7cyKVvk19J42DtWvvx4YnN+HTTz9hxUQqMdDU8etf/ytOn7ENnJwOh/HcwFdrc7wVpZZHuzZnCqVQnx4/qo8btCJmGcD0NEuai+n9CSzQfylxqaxA1rgBQnYTPJMAb4kSA42Ph+vjlAa+d0Ypnly9GPmKChdxCfw5ONQ4gBff3o67F8zCE6sXIdHfC1OU0Bkx8G9b97JZ1gOL61iSubKsChEN2N8bx64Dn2HVnFo8f++dEJNhWJKFkOjB7/Y04xfbj6BPF0lEgSSDsuxumDhA4JJTPI6ehI78qmnI9fvR2tiI7tYWTKusRNAnQ6SVwARJigRHuXwiGhBiEqJnVLj6vJAMu5vDkHToQhKiYsE/Ix9mfozbHtNETXrrNIdjPE/1xPbl8ZgEqeWRMwiXAwSIMRgpDoJ0GyBM7AOcxFcJkWjcohX7rbA5KWICCHROPp9vwivka70eziAMDeLU0YOXdTFcijCXv8O1khTpaPSezqTk8BHmzZuH73znOzh69ChzDR597DG0tbbi7bff5rT5eFobM8/4D7mLIXOFoVo6LMtg+V4ifTEEoJ/JApsTBAJ0y1arUyx7pWbKEgz6o05GtCIEag3NDsUxOKNWPapfj5VBoHfhTA2TIUVougFDkKBRnd404ZElWzSIAA1E3EySIodDyQSTBSwTClTU5/ixcfl8zK0MwNAisHxB/ObjI9j++UU8troBX6mthTcgIpnUcbKtD6+fOI0puUV4uGEappb4YIoWhgYT2NESxoHDx/DonXPx0NwaaEnqaLCQV5qPl/acxf94dx96qVDNrbzZMvcnTlKk+4cWIKTn5ynIh6HriPcN4cLp01jYMBcuhc7DflpG7WLg9s5RuhhMEpSimglgRgRETofhjvpgSXQ/mBAMEbqswcoj/YNcCG7NllVmlJvxlN6gCgNlSWIGUiTF6ye1TLcTzTOabMCnGbgrMYQnw43IN8Nw6S7EFBNuI4GEmYvttbPhffZ7uCuVQcgKsF/rJH/79WOOwC0FEJyzJQ4CPcA3GyDECCAcOcjeCGOlva4GELIiqmWsgGkcSOuAOBgElJYvX87tj9T6SN+PHTuG3t7eNDgY69xGugtGLTH8AUgtZ2ZbTIkIc7amDGUMqAxgkkUxlwEA3TQgyTbpTkqVG+IGSfQCXsnF0sFZgQM7WowLIMiUTqakOYMJEZppIUnKgy43O0iKhgGfW4FLlGCYFuLU5niTpJY5LokmRIPaF8nTQ0OtW8Gzd87H6vkVEAUV3QkTP3htB/a2hrFh1Qw8UlYJy5UEiQFe7I/jjVNnUOrNxWPzZ2FBfQXihoqOtl788rPT+OJcM9YtmIYNd85G0OeDaRlQ/D68svcM/nnbUfSaLlgiKQhOBCCMX2qZnq84JfxlGZZh4PTxk8jzBTBz2nRI5BHBnRyjAIQxSgyCSYRNQgcCtAEN0fMxeJJ+Wx8CFiRDgupSIVdI8Fa4ASXbssqY8/kEd5icEoMNEKiDRYdf03FXIoSvhhqRb4WgaC7E3Ca8ehJxMw/bamfD9+z/zgDh9nbrjIAQjSVuqQwCDc1IGYQbiSgdNjwBhJPjAAjXQlJ0JiMn2NMKmMAB/dvj8YBEkRw55Wg0mjZmyratcfgt94cstZwJiCxiw4sklyxwBkEgvwAyuvG4uLWRbIpDQ4MwNAOFxcXIycuD4vNAUxNcc05GohAp25DFNh6SInEQHIBA9sYmRPQPhaCawJTKSgz0dMOIx1EQDEAmUhy1vOnaFQAhkKUXAwW0a/FicACCpJMEMLX7qahyyXhuxTysmJYLl2hiwFTw9299hr0dMXz9njo8UlmJ3MogoqE4Tp5rxwfnmzCjtBLP3XMHLp47goSpY9GCZfj2D36NkGrh+UfW4EvzK2AlwojHYwhrBl7dfw4v7buAPouIipMLEIaTFA1RxEA4hI62dgQ8flRXVnJzoyjbhm0jAYSsSIr0QgIJqoh4p4r4xTh8lg2KuEPCEpFQovDM8EEuACQli5tvMneZJKnlkQDCk6EmGyBQBsFtwqMlRgQIN3K+n8yh/UM/9i3lxeAoBRJAcLoYbrRZk/OB0gTBGYSjh7LOIFwPgOC8/0jlBmd8MuvmwwFCtoAhG6ll7nLnJnV7wnQyoPQ70l/Yd+gwgjk5eGj9Oi4fXy+7Z7vXfvSNzkUkgSTTRPnUWlTPnI2ymirWQTix7xC6OzoxZdpUBHJy4BJEfHHiJPo6e7D0rhUor61BeeUUtLU04aP33kWMNRGyyyJMFCCYLK4lo72rC7LXD2+AguoAjEQCxXl58HnczEGIj2DWdCMBAn1+siFB53adJCq9Ljy/6g6snVcNKxrCQNLC376xA/u6o3j2nnqsKi5Ee6wLgm5B1dz48EILSgL5+OriOQj1NkITLCyZvxh//+p2HDzbgoaacjyydBoK/QoUxYWEqOCNvWfw/rFmhEg/wb6JstzGz0G48uC25HOavEgfVErgyGljTpcYxiG1rFsaa2yICT9Cp/uAsAjZUBgYkLYBvV/SG4O33gcpl+zKs77oLMdmnLtNUhdDJkDwaTpWUIkh1JwGCFGXCY8aQxz52FozC4Hn/gMLJWVmCMd5Jbd3v84jIEQiMUu9RTgITgTSNAIIVtrNkQNUmqE+ysOUIhVdK/HXeVjpJo0ODtyUEoOTwXBWMRT0KSVKmwOYMv+WCQqynWyyKTEYBqVZ7XotdVVkWm+fP38eew8fmRSAMJbUsgOe6Hyqpzdg5qLFmFJXg2g0gqM7dyMyGELDXUvh9nhQEAji3MnTOLh7Lx7+ygboigJViwJ6Aru3b8FgZwe3tWW1jZOk6GQQmLMAEYPhCJcXArn5uHjhHPR4HDWVFfC63Hy/jwQQbqSbIwkkKYYETbJb9IolYFl1FaZ4RMwqCqK8qho/eW8H9nUM4Csr5mPzsjloTYTgFiX0dEfwr7uPorutG/fXVeFL65ajNzSEvo4BBEor8LsP9yCZjOPRe+Yj4BLR3T+IuCnj09PtONsXZXlskcyLxBujg0CfNxlOiSmtAdY2sXMGKW8J+44YkYMwRonBIFlpkloKeRE6HYIQF0H/SYbMNs8kHmQV6FCmKxBzVDvbcFO3yS8xMECIh/BkuAl51pBdYnCZcGtxJBgg1CPw3J+nAcJNHY7bb54egUnjINgPnB3MaXqU6KFghE7tQSkFtlSnGVPLaBIl611aROjU10/7ShBlxdZ0Y80VOqjTtpa6BiKdiUT9oTYtW1v/EoTIoLBn+aFfDhD6cfLwtXMQsl0gEAhw0HNmuyWVGBwCJwVrEvmhDgf6TvuFw+H0ZJZtBmE0kmJX0znSzINmWOjpG0BRSQli0Rj3wOfn5aWJlOcvXMDeQwQQgukMQkr2hgl3xMynhaiaSEKRZFiKCRUiPDkFmDtvHk4eOYBTh/ei5cwpJullbkzgHuPzorGi61+w7C64i0pQ1TAbmqri+Cd7EA+FMGPpAui6Aa+k4NSRz9Fy/gJWPfgYJL8PpSV56O9qxadbP8BAZycUhWX9rtiuOIdxchAySYpUQqCrjKkq4okkhvr74fd4UFpUBBdbmgs2B2HXzbN7JuIkrXAN0YIlGnDrKvwQUOBSsHZhPQry8/DmngM4G05gXlkJykUZF/pauKTjVYJoVjVEolE0FOVjevUUtLS1o6e9B0VTinCxj8zEZNQUBaHFY+gORRGFjEFTRpz4ItQ0KNgAwZk3rn4LjD+DMNyLgR0piYxCc1J6SrLV/67IIAxXUmSp6JFJiiZ5TpBAUpeM2PkYJJ38F2h+UiCapCGhQy6TIFcLgC+ZBilZTlHXf7dJklqm55h5QJIJn57EqtgAHo9cRBARKIYLOnV5mHFoZhHer6lH7nP/222p5ev/6V7TERkgUNC5nhsFa55kKJ1mAYqpQgv3cFrY7Q2is7UDyWgckGRMqSyHOtCLoUgMOSXl8HpcCHW2IWmayC+vgssbgEUraHJ/Y0KZLTCSucrUBXJTJQNRRyCVNN/psU/5qk/g4uwMwo0DCA4wIPnkqqoqllGORCLssUDExNzcXASDQZw5c4avpra2lqWYQ6EQPvnkkzRfIRuAwIlUJvPpKMkrwvrV67Dy3lUYiETQc/EMBNNAfziGnsEoqmpnIDQ0BG2oBxXlZel0qA0QLi8x3CiAkJmCLJtWg7krV6Kkdjp0TceRHTvR0nge0+fPQ2nZFLggYdeW7ejt6MQ99z+IKVXV8EgmettbsGPLeyyQI0g00V8OBxzR38tunXECBJLt5RWpE20E25BraHCQv9Nn6vF4IVEXhSUiqarYcRMBgk3CTHkQ0NNGjqowUSALqAh64bIMhDUNEd2AoukI5hVhMJKApiWR5yeyncDPrUd2s+0CdYlwu6nX4BJU0ONDntcP0bBwtncIZ4eiLJjEi3gClNwemG2ZYeJdDM5nSg0TBGRt4JCCD4LF/ghjAoSrSC1blg5oIvQLGqwO6liUORgaogyTvChkA94qL+QpFgx3AsoNU0wceSKcLKll536iXiEXIng01IP10Va4hRh5fsJj6IjLSSBZirdr56Dgue9i5ao1fJLZZkInMLXffsk4RmByAQIkyDoQ7WjDyU8+QnldDaY1NOCdX/4W0yn45wWQV1WCM/sOwO/yw+3xw+v1YGigF4NaHFNn16O0oopb0ihFK7nciGsxBPw+GEkVWiwBr9sDjRTR3B64/X7oMhnD0HyTMpoZcy062kNzCSD4suhisD1sBMyYXY/B8BC2ffQRxmPW5AQ9MmMih0YCAEeOHGEPhvvvvx9Tp07lNP/+/fsZOCxdupQDDLU6vvrqq+wvQOWHCQEER0kxEkHXxXMMEAbDUQyEYyitrEZ/by/UoT7UVE9NKxCOBBCuFwch00FwpE+HwU1KqrZq5nTMX7ESpVU1nDE4tGsXhvp7MHfpUviDQQiagQO796CztR0PPPpllFZUorO1GdGhfuzf/Qn6e3tGlPYlEycCtJnbeISSHKnl4WI3meCGPyvmdtiM95GklrPhILCw7zWSFIePM6fWLQu5koZF5fmYVVIAKR6HqLig0upYizIpsrN3AEODA1jYUA/JJaBncBA+jx+RoTDcioeNxtxeAZpu25Z7PG7Iigs7Trbgs8YeRKnFk5eaZJxFEDNLpWX2jKBuFB8CenZdDMNBIGUlGSCkPCbS0kRstZwCShlCSe07X8bTFe2oJKllvjdGzjxxljMCxM7EIQ26WOPAEMljIXV9HhPemgDEXA2WW+dW25u5OQDh0IAHr3Xmo8kzg9txSVkz5Xc6wdNLAU6LAEIUj4S7sD7aBg9inE3xmDpiShJWshRv1c5BEQGE+24DhAkO9qS8bNK6GChNRwYvsgHo3d049PbbKJ5RhVl3LMMLf/XfcVfDfJTPrEFU0nD86HEsWbgYF44dRyQawdT6WbB0DdG+fvKEYbe+SDwJfzCHywnFpcWIDoUQ6u3nVYdL8SIhK1iy9j6IBXnQZDtNyXrnExw2J4NwYhwlhmslKdKpUvZg9uzZmDlzJmsfEEhYt24d8vLyeNV5+vRpLimQPkJZWRmoo+Gll15CX19f1gCB3mfULoaLF1ijRTd0DIVj8PgC6OrsACVGKysrL8sg7BtWYrheAGEkkmJmYHXKLQSIZs2fi7zSChSVlsNQdVz44gQ621uRX1KK3Lw8eF0e9HZ14dyZc6idOQvV02o4oPX3dDM46OvtZnMih1/hSFbTqn74vTMekiIBBBtfjC6WlCadXsWLIRuAwO9yvQECSXfDQpHbwEPzp2H59Fqoff3o7e1D0rAwtawQPQNDlCyHqiawcM5MuNwyOnt62APjwvkm+AO5KC2dAlNXEUvEEI7HENNUuAM+HGgaxKfnehAxbfOmdAbhBgKEpKrhYmsbS3Gz7ghIwdSFWTPq7KxOJgdhPFLLpgy1W0PifBKuOMkoC9BF0pqxSzfIA7xT/RB9GiCTNkd2XTQTnMrGftkkkRTTLp1pgNDNGQQf4pAsGW5DR9iVhJEswZvT5qB085/i7tsAYezP6wbuMWkcBArOOrWbWYAnFsXJ99+Ht7gIVYsW4tSBQwhQ7/GxI6iuqUKnruPOO+7AsY93oLevD/NX3Qc/gLYjx9Db3YOGlfeg8dRp5OYXQvF7MdTRDrffB08ggO6OdtTUzcSJ02ew9EsPwFtZAUOmWh9BB8pzZttXbY/6ZHAQstVBoPdesGAB5syZw8GY3Bt37NiBxYsXc5mBAiPJLRNQWLFiBe/T3NyMN954A4lEYlweA6ORFFsvNkEWBZiGPWFSZiIaDqOkoACBAH0qNhfk/Llzk0pSvCI4p0KtIyBFpyFLEpScAAcpwZC5zVHX4tA0ss0VIElsNsyra0M3YEoifAEfEokkDNNmjxM4cEu2DDOV2uiL3oOObWcMLm3jySD84UktXz7rkDYAfc55ioXl08uxeFo1XJqGhKajvbcfQUVAML8YUNyIhEKAlkBerh+JpArZ7UFzSxui8SSCuXlQo0kWq1I8bvQM9EPxetAdM3GuJ4wYSRpT/YGFrlJPa1aofvwZhOEchFAshv2HD2MoFILA4lcmAj4fVq9cCRfpI9gIYdxSy4LuRuxiElobsfS9rKioyyrrcJCBk1wpwz1FgeCyx5j4Vzd3mxyS4nCA8Gi4G+sjrfBbNkBQTA0htwo9WcwAoWzzn6UBws0dj9vv7ozApGUQFMOEKkkwBMAdizFAyC2YgoqlS5EUDShGEq//6KdYPn0mzsWTWLZkCZr27EEkHkflkiUwjCQGWprQ2dGBdV9+AscPHYUvLw9BxYWWM2eQU1KIYFkpGluaMX/ufOzZ+QkWP7QevqoqNpuRTZLA0WxP9glsN4uDQMQ7ygwQUHj//fdZLOn5559n/kF3dzcOHz7MmggEECiY9fT04JVXXuFAzu1/qZXPWJc8cptjFC3NTRwsQWJDlIOlLzI3EkQmBTodBJNZYhiNpMhJXUVhS2dWSNQ0uHODsAQXzASRwEQoCqBqCU5z01jILoVfwz97FE4dDw6F4PX7kaQ6us+LgoCXXfyamprQcvEiVCKCEngYPojj7GIYK4OQfggpw26K18HNsQAzZs1BqL8Xh5o78eOtx/BxrwhtAitUAggUNF2igHxFQqFbZj5CUhQQ0XUIsSQUb5DBmZZMQjQTkKliwpRkMJAwIIH4QYJuiy+RdTkBM1vd0oQmmNAlMnpKlRhuMEAYiEZx4OhRDIaGuEWWzivg9+L+u++FW7bLByN2MXCJYTSSogUr6ULkrAqjB/CZfi4vaHISiqHDcqtQat1QCm1hKjagyFKHY6xnesJ/nyQdhMsBAnEQurEu2oYcMw4RBBB0DHqSNkConYPyDIBwm4Mw4U/zur5QiMWTkyOURGxdIiBZSfR98QX2/O5VuDwurLx/DY59theJoRBMt4QHNjyB3W++i8GhIUydMxOFBQU4e/AYBgk0rFmNs2fPY/k9d+M8gYLcfMiyhMbz51BQWIi8wkJ0drRj2sx6HDh0CPPvWo7C6gokFbJOJYayLb873s1JZ0eG+vH54YMI+vx2rThlcz9eu+dsuxgo+BI7v6SkhDkGW7du5cBGP1O2ID8/H8ePH0dbWxsWLlzIfyMOwsGDB5mXMJ5ttC6GtuYLcMyaSILY7h61rz1zu9FdDFQNpWxBeWUFSktK4HK70dvTi+Kyami6AC1pi0qRGVMoNIREIob8/Dx4vV4GUsxUt0wMhUNwu9xsgkVZF11NIB7qg9/lRldbB1qaL7LYEgEoSg1ftjniOaTBwHUQMhgSUb/gDsxYsOwKsyZaEVu2/zErOqq6Bp2ckE0Bpq7D7yE9AJnLZBaJ51wTSdGAPzcfM2bNRmigD4eaOvHjbcfwcY8ElYLQOIlf3Fac6hqySyt2/5FNu3TW4qnfpoBTyiHLHjInRU/HMMi9kDqULo0n9yIRCBNTtspXuXmH33v2rqxRmeIgxPFojYSNiyqwbN5slJZX4cTxY+jsaIVbkkB8Er7+YUWjcCSGPQcPYTAWZcBC5Mk8nx+r710JV6qdpx4OAAAgAElEQVSzZVSA4Egt84DYVteWqbNdszAgI/aFBjNJmSiF7zueMywNQr4Bz3QXhKBNpBZNmVU/b+o2SVLLRPaki1QMGX4zii+Hu7A63g4P4gBxEAwDAx4DCa0Yr9XUo3bzd3HP7RLDTb0Vhr/5JAIEBQbPkBqURBxynNKMOgSvC5JmwtQMKD43VBmQkwav+hDwsMCInCCJWhnw+ZFMqlBctPKgCSE1RfHcbIvbUEBVqE2KWrRohauIUAVqVSJpXVtdb7zbZQDhBrs50ntTWyNZPlPGgIIbtTRSMHPkl+nvVGZwWv1oZe+oLtLP2WwjlhiiEbSNIrVMizyGChQsSChpEksMI2UQqE8+UJSP2XMaeHxIK0MjfQYliGAwH7FYzPZZoNKIZULVkmyLTfcFjSWBKQpS8ViMAVZpaSkUlwumpiIaGYBgmEhEY2hraWH1RZEUGlNyu+nxTI0Bu3mmAhyhqfr5y0cECOQPQe1t3NVjmth76ABa2zohSW5emc9rqEdtTTWXMuwMwpVKitnrIFxngOCUV1JkxSsmjoygdkmjZJQ7z3HOTBlj2ZDTBljZrBTHBgjZkRSHA4RIJI49Bw9iIAUQpAyAQMAtqxIDkRwJHDDjkVCIBb3dgtpIWTjbgC1dthQ0yCUC3DUyTK/GwkkCA4RsntjJ3GdySgwGZ0gsKLqMQBogtMFFAMG0AcKQ10JMK8FrtbMw7dnv4N5Vt6WWJ/OTHu+xJw0gkB45+a+YggHR0uA2LWgQ2UteNixu7UnQOoyMUShlqUj8b5qcSZpc0wyIbkol02JETKe2eaKnQJBSPWNymalzSjyjWSn1rDotTOMblqsBBJo1RrN7vhaSYibxzknjEzBwBJLsa7bLJXTN9EVdDfRFoKC1tZWBhCOgNNYVj0ZSbE9lEByy3iUinQ3K0gCBlRQv10GYTJIiBVnZ7YbX70NuTi4kSbRFozQRhmayVgOBApfigiSTdLGBaCyKZCLJwZ5XkCkAQUqdtiiXnXEgOq3dTUC3kWm7Y9L+KSa7M5ZOd8V4AYJBbbmSiE/37EFnVy+3/yoSMHdOPeqm1XIgIbWQhHYtUsuTBBBsVHjF7ZQZbMe855xsxE0GCMMjMQGEvSMAhFX3rkxrYwzPIFwhtcwLEBuUgko5uoR4Yxxmh8RER3p+7bIf8Q80KOUyXJUiLLcGkYyxOBMx1tM6yX+fpBLDaADBjQQsS4bXMDHoMW8DhEn+eK/l8JMGEDiQitRTTKnElIiRKXNPMKX+CXXz6optd20bXpp46VnRqYVRVeHzefn3trRwxmXyfEU72xMXvYeR0vWkpIWz2k3bp05ghGhiCA/24/Mj+xH0BniSZAXaSQIIdIrUtlhXV8cB32HVU7CiTAIZVxHfgL6T/gFlDIifQN0NFPC2bNkCMrliF8MstlGlli82MnGPrn9oaIgnOMpieFxuPj8eeVEEKSneSKllG7RRLKXVNmlh2BdJZFgueqdvEJtUxi2Kw++Z1L95SifWOq/uRAgENFIZKZqv6ZCsg3BFm6N9yPECBG5SgIXd+/ehq6sXhiHCJQsMEKbV1LDCx2gZhOy7GCYRIDj3UwZQGL4aH+mWS4t9pVRArzDFGikwZox5+s/D8EmqAZGefFiC125zrFXGLDFcE0AYSWrZIudLwJSohVGHRHLKURebMwmDxIG6BKg5j+TR4an2QCymG4wAggJYErjV6yZu9ByQ3fPBAQ9ev45tjpkAIZjKINwXa4VHIBKxAo9GAMFATC3Ga9PqMX0zZRDuv4kjcfuth4/ApAEEyhw4DzjpA9AEbGuRD6u38Xye6rZNlXUp4FHJwetLZRD4QBmz+/AFDa1sHYEXXhnal8mT/gThOQME5iBcDhAIk4yWQRhNByHbLgaqixPfgII/Ta40DpROJzEkByBQlqCwsJD/RsGb9iUw8dlnn3EgzyZly2PDQTIllOToIEQj6GxpgmXoTNoizQUCJ3TMyrJy5j3w6pq6GG601DIT+SyQ/PNlcUW0uy0yN/tjT6G5dHAbdiukVN6IiigKMt8rhDOIVEvKt7JJuj/DOQj2wSYGEIDd+/eOGyDc9BJD5sBmlBtskt7oW2ZWYSQcMPwzc47E1tsOOTD9fhlHcEAKLTpIjM3RQcgCIIy3xJA+DwFozlRSTEstk7+CBV3SYMgaJM0FccCN6Pk4xJgNHtK3n2BCzAE8VW4IeTogGRA0N/MXLEW9yZFp8ksMQYs4CN24L9oCyiAALnh0A4MeHTG15DZAuMl3wGhvPykAgadmBggECuxsAU3AFMRZKS0z3jP5zybBOdNAUlOh6kn4fB77d5kAYYQrIa5Bpqa6I7YycRUEu9ZOAOH4of0I+AKXnaN9fZefyNXsnrMlKZKtNJERHR4BZQQIBFBQpp9p1ZupeumACAINXV1d/PdsuxhogjYNHUX5Rbh/9Trcfe8qhMIRdLQ0ktc0C9vs2bcfff39bGdTXlLMAk7O8SeTpDiSUJI9vnZUt4NLKkPA99WwjcEBrcou/wtLcV+xM5UTlBT73uJXEamQ3RMyOmBS3W6pQ9qQltrTKPtQv2Ap6hYuvoKkmAp1fKp03M8O7EVnZy9MyiAoAubOrsf02hq7nZI4CFRimLCS4kgZhKPY1SVAo5Uut9PR85eCh6lA69ybTlKO2vR5hCmTQqUB/sOVYECySBqdVskmRFNjITNbkVLnZ4NLgA6STpHVLitVCDIgUlcJPfsJzqIYvCJPpdx5TEboQMoACIJswJL8CBjEQVDw1EIiKc5JkRQ/H5OkOBYHYVSA4HQx0PnSnSZp3Mooqm5YHSLiFxMQtRQxlA8iwBJNCMUWPFUuCB5mT0OgDALdHNL1VbIdd6y5jKSYjybv9RFKshUpLYimgjxzCF8NdeDeaBc8ls5CSZagQRM09JuleGXaLMza/N3bHIRxf3iT+wIGCNdbannip2ynkdnuWdd41ZzmS2cbZSf+5pfQPqezLURIavnQfvj8donhatvVAEK2GQRn1eXU+h1vBicoZ4oFDT8Xh5eQbQaB5y1DR0FBEdauWYd77lmFMAGEixc4YCV1DZ/u3ovBUIQDRVVJIZbfcYeN7UbJIFwvqeWRxpmunQtRKWzA+/A/RxRFTulfEMfARpgUF0l5j+FEqlxh8/FJMc6VRnwUHIkoS2ljS6DeCbsGz+UIEt/iCEvhzJbNFSUFsxYtRt2ihZcBhIDHBrc0lnQK1O73yYG96OjqJV1wKLJNUpxebQME4uwkNe0apJZHAAhbj2FXp2gDBFqpcnaEi0vp4GvjXLtcR0FMJuKQbCv/kUcGOTWarDZ46RHgETAE6JIPkmXAZUSgCiS17GObaJNAAiknmiIkk2SGifORcgNNcT3I9pjakS2FbIxiUAQTCd0FF/RUo2QqCcSKlvRam+yX/hIFaLKAsOWGz4zhkRoXNi2oxLK5DZjCXQyTDBD4jOwsAYsf0flpPuhNBtTORErp014gMcBSTAiVBjyVLvu+yFgoXX1muQ4T2piHsDMIXGLouH4AgbLI9LgYcKHI7MGmwVbcHRuCR6fnSELMHYdP1dAsleOlafWY/+y3cd/q2yTFMT+uG7iDEE+ok9PmOMGLoImYAAKBFmpRcx6k8QS+Cb71FQCBvBhOpADCWEQsu9Pr2qSWM0WAnJPJZEFf7bpY9GdYK9lYiIYyCAwQ1q7DPXePBhCiXPOvTAEEZ3KbTB2EEc+bxzcDIKTKUU6q2qks8fd0esf+rbP6p6BHKz075tvHovDkIlEtR3KX92cKZyoDYU/f/DlYlKmyQYnOJmESREXB7MXLUbdg6agAgdaSBBB2EUDoTgEEKQUQalIAwRi5iyEbDgLzIqwrAcIPtx3Hjm4PNAOQNTIFItVCW9uCSigO2GNASm2DLgOW7obm8rHyn8/S4WeJZBMSmyjZBFki39HaV5f9cIsmXNDQr7vRFbO5FeV5LhS6LXhhQhFIEAhMFKVjSLLMr/dSzJRldEQTOHyuCaouoKZsClbXF8IlUtbM3l8kMSwmpNrva8uJ2+WgHV904f2jzXCLOh6qdWHjwnIsnzsH5WUjA4Th5cboKF0Mo5EUr5BaplVwyv2R9FaEmBvJCyqMPofYaY8rgwc3IFcDrlJbvCs1+BOtgF7rFHfZ6x0OwvWWWiaAwGVe04VisxtPDbbgrvgQFJLVNkTEXQl4NQMXpAr8bno9lnz9WzZAGGMxdl0v/vbBrjoCk1JiuNYxdwACZRBu1uZkEAgg+P2BMbsDJgoQHOAxHIAMzyZkTubpADdscMYLotIZhHEABOc8CCBMvIthLk4cOYhTh/ai5fRJ7kBxOjQygVHmGDjmXByoUit67i+noJdioNirfVqdUTChNjWbJEZ8CgosBpnocOuiDQJosyV2bRtt+0tEIplg4qNdjrCPYScu7CwCdSWAAp1HtgHCwjsxc8GdNw0g2PfDlQDhR1uPYme3gEKfgntnVqPAS+6ogCxKcAsSZEnmcpZ93QJkl46BuBv/tmM/4lCxbu4M3FNXCY9il66cL+oS8YiUWpehENHYMLHjVAd+vf1zBLxu/PFDS7Fyegn8lFYnNVXJ7jyiLxpfIn+SWid1iey+0IH/9K/b0R0x8NS98/F/P7EYboEAie3Lar9nijTKhGa7/VQ3gR++9zl+8PZeVmJ8cJoHmxZNwfKGepSNkkG4VpJi246XcWUXg11O5QxMREb8fBLoF1kpkNLrZP1MXhOCF/DUKJDyU2fhCJqNRNC40ZPeJEktMw+NwIDpQqnRjY1DLViWGIIgWpANEUlFhUezcNpdiV/XzMSKr/0JVqV0EG70ENx+v5FH4JYFCES+4xLDDSwtZA5RZokhW4AwUZLiWNmJzPPKHI+rjU02xxwPQMimxJBtm2PD3Lk4edQGCBdPfc4rBgKFDkhwAEBm9oiDC60oBVJKJFGkVK2cjDps1AKTVfpolSvB7XLxqpUkluleokBo6EQvkDlAccCig9HkrQi25oFAq1pSXiRwIUEQUwqMtGplciYgyhIURWI5ZzKxopVjw8K7MHPB8kkBCNdEUtx6GLt7EmgoDuC//vFXUVfkT3kQkY6dwwWyg7BEaMhQcT4k4Nt//68YSkbwfz6+Fk+tmAtJuER+pXEgMCJaSZiiDEmgchTwb7tO4/sv7UBuwIv/9Ow6rG8og4tSzJIMUXd83VN1CpNEqGTuctr+RSu+9bNtaBsy8O/XTMdfPruOBYvoc7OBD8M4CJbJaXvaSCxNNQT8w7uH8HdvH4Auynh4ug9fX1CCO+bORHHlVBy/hhIDZRBIKMkpL9FQjUxSzCgxEFAaFBA7n4Qy6IZkkcWzyeUVUzEgBWX4qhUIgXTqJnXfZluAnMwQNjkkRcrCEaRzay6Um73YEG7FwsQANEmFYkjQJB1uXcAJTxV+VTsDazb9CVbft3oyL/T2scc5ArcsQKASw83OIDglhmsFCFfDOFfjFYz0WWYG/tFAgKOZMBZIoFVctiWGKwAC2z1PTAfBAQhfHN6P1tMn7Io+ySFLtKq1V/Isjawo9s8U/C0TfYMD0A0DlVVVyAkEeWUqCS5Iopulkimw2ytiEd09HThz5gvkFxRi0eLF8Hrc0JUALMUDkQIbBUV6Dakl6gkc//wYjh07iprqGjz48EN2fVx0MYhgQEErPonIZrYy7rnPj+Hd119jD4KGhXeibpiSYiYH4VpKDNcCEH607Sh2dMWxZEoAv/jzZzAj382dK719gxgciqCivBxer8/mB1hUUTdwfMDC09//LUJqFP/Po/dg893zobjs+r+qauglH4ZgAMGgTVKUYCCqAb/adQ7/5eWdyAm48V+fXYtH5lay9HJMkFjXxM7GmEgkNC4tuF2USUhi68lm/PHPPkHbkIb/eF8p/uJrX0Zney/repARGdmeBwN+hIcG0wHV6/Fg2owZ+OWOo/jbN/fDEDx4tNaP5+cVY8n8OuRXTcXxE5PMQXCklpmLaWcQ1F4d0XMqArEcyIYCQ9SgKRo0UYWrwAVftRdwJ+2W3GFk7XHO29d390nSQSCAQARnr+rCVLMPGyJtmJPo48yBSyedHB1yUsAxXzUDhPWb/h3W3AYI1/ezvcaj3ZIAgVZ89EUcBKcGf6MzCfS+1wIQtn70ET759FPour3adfgFtqCKLeBEdWNK89q9/U7a2/luq0bS7zktS/VbSWKXRU0ljwlH68eusTvCQRRYqeMhTXQ0TX5vfkeq3TIz3YLH64HsElGSW4gH1z6AlfeuwkDEJikS2/8SSdHmIFxPgDB33lycOnYIJw7sQdu505gxdyFWrH0QOYVFnE6mwE1EwUu8AgGDfd3Y9s4brAXxpSc2oHr6LLYe5tR/5oTLYkcaTuzfhx2/fxuVdTVY9+ST8PsLWMhG11UGHnbpwB4LUzew96MPsOPDdzF3wSI88sw32ImU9JVoH0eTgglpVFIVDJzatxe/f/F/wkASsxbfhVnXgYNwvUmKP9x6DDvaNCyrCOCfvvcUZhf7oJL99clGtHT0Ys3yuSjO83IWhKmUlogT/Qls/v5v0Bc18RdfWYFv3DeLMwG65EJHf4yJqzWVlZg3qxJebwCSqSGqmfjlJ18wQCgIePD9Z9figTlkDS7g4kAMnxw4jXuXzYUbBpqbLiK3qBBTK4vhEQx8fKIV3/zpFrRGNPzpqlr82ZfuwBfHT6OspAR5OQHEoyGoyTgKCgvQ2z+IaDyOpoutuOue+/CbvU34m3d2s1T141P9eGpRGRbPn4UpFZU3gKRI3RapVkZumlGgtiegtxgwDYlF4ly6Apg6VE8MnkoZnjIiIlzKeF1GuB0+kXOHxOWaJlTKMMVUx0MmWdd57WUEXsrWuIYdlXRn6PWXd4cQQE8mZRzoV/Bmdz4aPdNgCMTOYcruhEMMcV5In0YTRKwa7MXGwXYUCgNQBBU6/GCvKjOBD/Or8Gb5Ajy8aTPWrFo14fe7/cLrPwK3HECgyZ7AAaWc/2ABQiiED7dvxc5du7hNkb6c9LkTuO2suMBiR5QtcRTXMomGmaxtej0BBGppzOxYoH3od44+AZk20Sqa/Bzo2LSR2mJ6VS7L/Pu29jY0XTyP4mAB1q9dz22OA9EMgKA5XQyjAIRr0kGwAcLn+z5Fy9kvMG/ZCqz60peRU1DEK1wCMol4gs+ZPBfoGvs627DlzVcZIDz6lY2orqtHLKHC7fXagIIUNR1egaHh5P59+OitN1E5vRr3P7URAV9BipdgIKmqSMTjoLZSSbbllvdsfx+7tryDhgVL8MgzfwxLkGBoCXb6I8BVVFQEt+Ji3XxDNPDFgX34/S9/BZ0Bwp3XBSBcb6llGyDoWFbuxy/+fBPqUwDh4KlmdHb3456ls1GY42YSIrUpEkA42Z/As9//DfpjJv7iiZX4o1Uz4ZaAjr4wtn+yD5FoFDVVlagszcGsGfWQLRNR3WCA8JeZAKGhij0Y9p9uxt4DJ7Bu1QqUFfjR3zcAxeNFUVEefC4BH59owbd++iFawxq+s6YO31m/FB0tLSgrKUZ5aSG3UdL4B/x+xFUVSc3Azk93Y/6Spfjdvov4699/xgDhy1P92LCYAAJxEAggjO3FMFabY7YlBm7j1mTEW6IwOyn+UueGCZfu4tKI6o/BM1WBu9gFiwTdstpG0nAhIGcDhExSLpdiMn5n/5EAAgHhzI1KPQ5RNfV7bmARkNA8ONAv483uAjR6aq8LQBAIIIgGqFizfrAHj4c7ERCGuPPFghsyd8IAbwamYHvlAjz61Nex+jZAyOruuFE73foAIXXj34wMArU5jpekOHN2PQbDYWzZvhXHjh9HbW0tBxcK4hS4HVIY/ZsmPhIjIjB0zz33sIGQQ5Yj5zs7cyBy++G7777Dgf6xxx5j0yZnPycw0viQX8O//Mu/MOB49tlnUVVVdZk8stMuSQDs9++8jdffeBUFgVysXzM2QHC6GBxgc60kxVNHD+H4gc/Qdu4MGpbeifse/jI8/iAGBvt4XFgOGeBrJWGovq52fPjGKwwQHntyE0ora9DdO4DyinL26si8PyzOIOzF9jffQPn0aqzbuAFBfxEkQYIJA319fWxyRcqQefkFnDHZs/097NryLuYuJIDw73il3dPTyWqSNG7kppmfk8uABS4Bpw8ewDsv/M9JBwjZdDFwgBipiyGdQfDjF997mgECOVjuP3YarW3duG/lEhTnBxggsBjwMIDwfz2xEt9YNYtBwMETp3HyTCNmzqhDXW0VertaUF1dB79LRlTTrwAIDzZMRZTaZiMaA7NEeAhFeTlwySKSahI5uUH4fW4GCN8kgEAZhDV1+LOH7kDT+QvIDQRQVV4Kv88DNZmEP+CDIEqIxBPY/vEuLFiyFL/d04zv//5TdhqlDMLGMQDCNZEUU0JJaZIiR+FUACZV2ISASHMYQhf3xcCUyIOAMlwm9GAcHnJwLCA9imxUE7llJ2Ol7zAZWS1sdPE3h6XrQIgrhOLs416m4UIAwRQQ068/QLBJxBqKdRUPRrqwNtEDl5VgoqnA+ggm+pRcvOIuxuGp9Xhi4zNYfd/tDMKNCv7ZvM8tCxCcEkM2FzEZ+1xTF0MohK0fb0dTczM2btzICoSOUyMd1wEKFHx++ctfIhwO47nnnkNNTQ103eDg6NTSCQj09vbh5z//GXMyaD8KmpkM//7+fsTjcf77j370Iw6w3/rWtzB16lTOTBBwcLwV7HH14e3fv4VXX38Jeb4cLjGMlUHIbHOkEokNEA4jmJODh9avo/K8LZrDUxC5QJJRFqAmklAkGZZiQoUIT04BqMRw8ughnDywGy1nT6NhyR1Y9aUnIHm8iMciiMZibL5EQIfAFWVDBnu68MHrL6GnpxePP7kJOYUl6O4fRE1tLXx+3+UZGkPHiQN78dGbb6CyrharvvoE8oIlsAwL0XiERaVoTChDlZ9fiKDfh/0ff4idW95Fw4JFePTrf4KWtg709nSgrMyWtabPyk8mWmQ5XpiLMwcP4N0X//WWAAijtjmmMwg+/FMKICSSSZxrakMoFMGU8inweFzwukXk+NyQRCWdQRiIWyCA8Px99UxEbO3qh2GJKCnK45JDS2szCvJLUZjrR1S7lEHI97nw/c3344GGKsQiMWhuP6JDYYTDUQa4ajyCgFtC6ZQSeDxufHyyBd/6iQ0Q/uz+mfj2A0vQ3nyRx3pKcQFycwJcpvP7vGzGFo4msO3jnZxB+O2eJvz12wQQBDxeHRw3QBhXm2Om1LLZbpcISSiKBd5EaBEdsZYY5AG3bW9NbZyGCyQ3rOYkEKjzQySCIq3gh7XxDV/8XPLMTHXPpPGBAMG8ipR6JkDgBMSVYMQuGWS0TqSyDXFDxv5+GW+lSwx0VfT+2Um3jzQHU75DsnTMigzi4WQXFqk9EC3y4PRAQQSWYOKMpwqvysVonFqLDU8+nS4xjMWfmow5//YxrxyBW04HgU4xk4PgnPKNzCA4xMGJcxBC2Lp9Gy40NWHTpk0MEDo7O9HS0sKTAwU9AgMEDF588UWWUt68eTNnG+hn2o+AAQEB+qLg9POf/5wBwPPPP8+rWUdWmYAE2T3T8e+++2788Ic/ZIDwne98h9+DxpL+RgHX2Sjgbtm6Ba++/jLyfMGsAML17GJIA4SDDkBYjlUPPQ7FH0A8HkU4TGl9lYM4XT85L0YG+vD+a79LAYSn4A3mI6oaKKso41LBZSWcNEB4ExV11Vjz5JPICRaxW2NXdxeT3+h+orHLzc1HQV4uDuzcgp0fXgII5xubEY0MsdcFgSz6rHxu4m0oKCorRhORFH/16/EDhOFCSWPoIFwLSTGzxPBP39uE+iIv4okEQuEYEw77IjE2wHJJBqqnFMLt8l4JEFbNgSICPUMxxBMqSvIDcEsWuvu6oSaBmoopl5UYCCD89eZ1eHDuVAz09yOp+DDUH0ZcMxGNazi0fzcapldh5V1L4PO6seMkcRA+4BIDAYQ/fWgpetq7UFxAn0uAyafky+L1eVhDIRMg/GZPE/4mBRC+XB289hKDaSHPa9s9k5ujnZmxJV4v62IYBhCopJ8MaYi1JuAackMiEybBgmS4oEsWjCIdvhoPLA8JRtklhszuxhGFklKe8mmhLibAUAfJ6G6tXJJ0yElsQZYcNuMT78Zu/7UvztHIsqBaJg4NufB2T+F14yCQbLnL1LE81I+H1RZMV3tgwg0NOfBYfdBlHQc89XjNVYruyjI8/dVNWHvfqiuVUW9H7ps2ArcBwghDf60AYSgcwofbtqGxqRFPbdqEuXPn4uzZs2lfA1pJLViwgDMFv/rVrzjdTZmB6uoaXLzYjM8//5yDGAXyxYsXMxj4x3/8Rw6EzzzzdW7no1UwAQZKk5MPAwGLBx98ED/96U/5uAQQqqur+Wfal0AG/UzvXVFRgW3bt+LlV36HXF8Q6+9/AHffswqhTJIicxB2YzBsKylWlhRfrqR4DV0MTFI8eggnDu5GK2cQluO+hx+HPy8ffX29aG9rs3kZusHnWlFZiYHuDrz/2kvo6e3F41/ZCHcgj+ukHr8fxSVFdj9cihlOugenDuzDR2+8isoZ07D2yaehKB70EziIxxhMEDggAFJQWIzCgnwc2LkNOz98L5VB+Aa6unvR19PNXAUaM8pS6KqGSCyGqrpqdJ49k3UGgbogqOq6+8A+tHV18wStiCLm1dejjs2aBNusSVOvq5LiSAAhlkggEk0wABuMq8gryIcaHcTUKQU8Rg4HIZ1BWDWbHK0RSWhoaW1Hfk6QswiD4RD6+8OYUV2BhEEZhFP4Ly9/gny/G3+zeS3WN1Tj5IV2vHfwLCJJkcmLM6uK0XzqCBrqpuKOJfPh9So2QPjJB2gLa/ju/TPxvYfuwFBfP6bXVrEctU6y62oSHuKaSAoikQS2frQTC5cuw6/3NqYzCBMBCNFoHHv370coFoPBktEW8oK5uHvFnZcDBIDLHi07XsKmsjZUGD1sGJMAACAASURBVG0p0zaJ7ztRE6APAclODa6YixUkbYCgIEnCXKUmXJUydElNGYClBL8YKQwrJTjkAlq/p2oBl7qgSAOCVvQjwAsn2GeYlpF/7uUbvY4Ery65UtDPpICqEUAYdOPt3mI0eaenOAgp8uoEw5MhCPDpOh4easV6tR0FRhg6AwQf3NYgS5X/PjAdL+eUwZVfik1PbsTq1avH1JyZ4OncftkERuA2QJgUgBDGlm1b0djcxAChoaGBwUFBAU3CLjQ1NbIjIwXBF154IQ0QKLNw8eJFzghQ2YBq7+vWreNg9rOf/YxbvoiD0NbWho6OjjQZkQAGlRjo4frxj3/MQODb3/42AwRa/dL+Tlqd3qOysgoffvgeXn31ZQT9Qaxb90BaarmzuZFLBXSMz/bsxkA4xJNgRXEp7hhDank8JQa7i2E3WomDQADhoce5i2EoNIALZ85xF8PQ0CDmz1+AgqIi9LW34IM3XuYMAnEQPIFcqAagmhpKSomQafMQ6HoVScHZI4ex/c1/Q2XdDKz5ytcZO3S3X4RmGLwfcUAou5JXUMBZgoO7dmDnBx+gYeEiPPbsZgz0D+HsF6cZeNGYUdaGWjBJlKegrBgXTxy/OgfB7UlpDtgzN4G6AwcPoKWrE4YkwCVImDerHjOm1nINXbcExDX1unoxXEZS/N4mzCqmDEISoViCvw9FEggE/JCMBKqmFEJS3FcAhD9aNQcuwYJmmGhqaYOmW6iqqoBqqOjuHsDMqjIkTQMvfHIS//mVT5Hv9+Bvnl2N+xuqsf1wM/6Pn7yKMPxYVJ2Hf//kKlT6Lfg9MgoL8+Fxy/j4ZCu+TRyEkIbv3F+HPyeA0NOLGTNqoCgCAxlV0znbYJoiOjq6sXfPftyxYiV+vf9SiYEBAnUxLMiepEgAtL2zg4GioxBKZaeyKWVpq28n1d14oREtO1/GU6UtqDLabF8ZpkcSQFBgdYvQujSIKiXmKUtgQjZkqLIJqVKCVE7Km+RBMLwrgC3CMmahlPh1hoMtO45mLPqHcylG01oayRDrUobBESC33zphCjjQ58Kb3ZRBqIMhkAQ5SY1PvIuBmhyL1CQ2DZ3FCrWbuSwmN9PSsZOwDB9+mV+O10pKUauU4smNG3HvmlW3gjDEBELp/5ovuQ0QxgAIZNaUrQ6CI7U8RCTFbVtxodkuMRBAoL5uZs1LMrq6OrmcQAGKAAKt7p955hnk5OSAuhAomBNAoG4DMm8i8uIvfvELrpkTQDh9+jST9SjLMGfOHM4iEHgoLi7BD37wDxzciYNAr6WASe9NgY7S5LNmzeKA+M67v8crL/8OAX8Q69c/kJZa7koBBGL6ZwKE8hRAcCbSc9fIQbgCIDz8ZeQWFcEwNPR39yISCiMSiaCsrAzFJSXcxeAAhMc3PI1gXhEGw1F4g36uZfIkl0hwFqEgNx/tZ85g+1uXA4T2i+chykp6hUKZgfzCQs7E7P1oO3Z++AHmLVyER5/djGRSR0dLK38OPL7BIH8eZCQWLMpB47FjWQEEZ5KmLMyRo0fR0dfNXgcuScasaXWoLqvgRSSxN0bqYsiGpJgNB+EXf/40ZlGJIakiFE0gGk+gbyAEQ9cwtawIZUW5EKQrOQgEENykZxBPorG5Bf5gLgqLC5FQE+jpHcCsqWVI6A5AoAyClwHC+rk12Hm0EX/14rtIWB40VOXi+UdWojrfA8HSUyRFzxUA4bsPLEJ3WzuKiorR29MHTTPh9+dAU5Po6uxEQksgEh7CfWtW49/2XRxXiWEkXWMaO9LWcMSz7BbkSzHKAQjNjY1o3fUqnp7ShioQB4HW3bSatyCqLiTbdGgdKiTiH5DsMnGNTAmaYkKulqFUkheGNoJZ2KXwnqmJclnr7hjSw6OVX8dTx0+Y4nUHCJSRqU1GsDHajHmJntS40viIMGCgV8rFrwJTsDO3ANW+4hRAWH0bINxCWOOWBAhs1pShpJjZGnijxs4hKR4/uG/CAMHJINTXz8bu3bvR3NzEwYnq6uvXr+dA7nAQvva1r6G4uJjT3wQYKPg77Z6UCSAyIwGExx9/nK2WqWRBAX/lypWor6/nYxIIIA4CBcpvfvObDDjoOJRdoN/R9/nz53Oge+vtN/HqKy+NCBAsU+dJkwBCV18viwpVlVVgyeLFtt+DKPI5XIvUchognD2NOUuWM0mRAAKrP+gGujo6+fpIFKdi6lQMdHXg/ddTHIQNm1BcPhVtnd3IK8yHKNnW2HSttBUXlaD19Bf46K3foXJaHe7f8CyrKrZfvMBtivQZOG20ZRUV3Jmwe+sW7NryIRoWLMRjm5/jNjE1obJaIo0bayeYFgOS3OI87mK4KknR7Umt+lJGT4LAgEclK22RLKIE+Nxubp20naknDhDsWvkIXgzDuhhmFnqQTJJugY6BwRD6iTwYCmFe/XSU5PlZJ+LkQNLWQeA2x7vBGQTRQv/AEA4d/Rz+QA5y8vMQS0QR8OegvqYccepi2HUC//mlXcgL+PDfnrsfDzZU40J7Hz460cIdIeX5PkwvCcKMDyE34OPuE7fXJil+80fvozWk4rvrZ+Fb6+fh2KGjUJMm2lo7IUluFBaUIBQOITTUj8KiPOQX5uDOFcvx4o4z+Lv39vEa9/GpgXGTFJ25JDOQXkEYTAXnpgsEEF7BM+UdqLTaWc6bHT3Jo4MAwkUVercGSSeJZZtqIFsSVEWDZ5oCsYwcHMkAa/gMRu2lV9dbnqhi6mjXcuUcmjJr6vfg9a58NHmuj5ujR9ewJNqHx7RO1CQH2IaLSIqEAFRZwQFPAV72TEGrJw9FuUFs2Pg07lt1u8Rwo2JcNu8jJJJk1nST7UYvPalMUMkECNnaF2dzsdnu42jvEzHuxDgAgiO1nM4gpDgItGo/d+4cTpw4wStiWu3X1dXx6WQCBCLjEQigjbIIp06d4n2nT5+Of/7nf+a/PfLIIzhy5AgOHTrE/6YSBHEcaJVLq90f/OAHaYBAvyPCIqXTqQxBJQ06FgX4t958A6++OgJAaGrkYEPKhYPhIYSiEU735/oCyM/Ls4eQuhjOncPew6SkOLEuhtEBggnBsNDV2YXDhw9zJ8bshgY7g+B0MTz1NVRNm4ne3gH0DvSxFj7ZC9O9QiCrIL8AZw4dYoBQMW06Vn/lWQRzgujtvIihUJgJoDR2uXl58Pr9zLH4bBhAEEgEx7BLLZ0dHRgaHERFRSVyCvK4u+3U/r1498XRSYrBDICQed+xE0RK5Mr5PRtFmdSLrmLnzp24cLEJc+Y2YNH8+bheJEXSQZhV5OFMQPfAEAMEKtEMDQ5gwewZKM0PkKMSTg4m8dz3f4veqMFdDN9Y1cAAgdojSaCos6sXpG4tuQTMmzsXhV43olQq23WSAUIulRg2348H51bBNCz0Ji0oRE2TiHcBJGJReFwKPD4fM/0/PtWCb/9ki11iWDcD/++m+xAZDKeFrKj1UhRopU7+DLaIFrX/yoobP/3wOOsgCKaFx6vHBgiXKu/ZzQSZOgiN5xvRuvMV9mKosjq4ik8Mf/YBSciIX1RhdOtcViBLe+o2oAyC7knCUydDKFHZUOKqXQjZndYk7DU5Usu5WhLrwh1Yo3WjSAsjKchsEkY26lHZi1dyirHFMxUwfPAXufHkxq9h9eo1tzkIk/AJT/SQtxZASLGGbxWAEB3ow3gyCMMBgpNBoG4C6iSggEerfUptU13b5XLjxRdf4JX/008/zal/Qv30nVabBAQoQFJg/vk//RO/7uGHH+ZsxMmTJxkUrFmzhrskqEZOAOEf/uEfGCB897vf5axCL/kFpDpD6N/Eg6BF0ZtvvsYchOElhs6mC9yjzPV8y4QgSzapj4KYw+oGuM1xolLLl5QUbZLi5RkEsiKmQBLHvr17UT97NkqmlKK/ow3vM0DoweMbv4aamXOgUwDq78NQeJBLKTRuNK4ytevt34eP3yaAUIdVTzyDvPxc6DEKiuQrIHLWQGYhKQuGpuOzbZRB2IKGBQvw2ObnIVD0MuzlHmVTiPhIXBAqD1CP+xcH9+OdqwgljQYQMhnrtiqjLVRD9slUvphUgFBIzo4muvoGEI8n4Q3Y3TAleQH4PfaK+BRnEGyA8BdfWYk/uo8yCLb2Hg0HhUWNVs3c1yrBbZqIaSpe+OQU/vKVT5Dr9+H7z67Bw3Mr4RYFJCHBbSVtZrpI5R1bndISBQZKO79oxzd//CGaB5P403V1+KtnHoBC6pYWyezprKzJwZjVSAXougVZlBFXLfzg/UP4bx/sgSyIKaGk8nEJJWUzaTpdDFcABM4g2L4UiImINauw+qisoHAKXTApGAowvCo8MyRYhQm+ftF0D3tb+zpv3mbbn8cMAdfbzbFIjWNDpAPLk13w61EkJBcUUoaFjn7Ri/+RV4rdgVkoiMtwlYp4cuPXsWbVbYBw8+6FK9/5NkAY4dNwMggTBwghfLjVJilufOopXrUTqZDIh/QzpUtnz56BYDAXL7xg6yBs3vwcKiuqMDQU4tU+gSQK9A0NcxCO2G2OpF/w6KOP4ODBQzh54hRycnKZg7BixQoOjgQ0/vZv/zbdxUDgggIqAQfKIhAxklbOFEzfeutNvPLKlRyEjqYLrKHv6CZcYkfZoMFJx9oA4UAqg/AA96IzP4G16VNBzyKrgiRr79PSQUvpIDSQDsKRgzhxaB9aLpzH/IXLsOrhR5FbVMKvJWoUFyINk49LLP+BTupi+B06u3vwxFNfR/WM2WRLCC2V7aA0s7Ovaaj4/NAebH3n96ipmYaHvroB3pwgW8861s9M/Ep99mYyic8+2oodW97HomV34OGvPsVujexnz11udli32d8iJNPEhYOH8eovf8WEtFlLlqFu8VJMmz0LTY2NaGlsxGgAIZ0sy7jvCCDQhRNA2LHr+mUQfrL1GHa2JTCtLBf/cfOXMDVI6nW26ZGqmyCCPWUu6Oo03YQOAa0xAz/5zXsIhYfwyL0LcffcGsimDtOUoBJwMw2opgE56eUsgmomENYtHDrXhm37jsHj82DtsvmYXpQP2dBgGSbixN43LAiawOUGzbCgiTJUSGgfGMLuz88grBuYXl2BpeVBBmMJ/vgNwNQgUFnGEKAJMr8WlsY8hrMDSTT36wiYKh6tVbBhYTmWzp+NKaykOLYXQzYTsQMQmq4QSpJgEkigmkFYgnrBAPpTnp9kPGGKbK1t+TX4ZwSBHGpxtCBQh8Pw7YoKA12jAxqoBEEvsGXBRy5HjKS6mHmD2Vk/3uiGpjEUBOgK6ZXIkDSBMA4ODrjxemduRhcD9d6MTVLkp1Ww4DKS0EUJA5IHhaaKJYOteCbeigJTBzVn2mUXGgMduwNT8EJwKjo8eQgmRQTyc/HE00/e7mLI5qa8gfvcBgiTDBCe2vQ0ZsyYgSNHDuPChQu80i8sKsDSpdS+SCTFF5lzQG2OtTXTeXVLNW8K6sQhIJZ5T29XWgfhma89g8GhQbS3dyI/r4CPR4Hf4/Hwcf7u7/4urYNAAIF4DFSbp7875YtsAcJI5R17wkyVGI4ctAHCOgIIdsBNAwRaMA4HCJYjlDQPJ44cwMlD+ziDUD9nLu5afT8C+cUwSZWOQxVNiJSVFTjIEAdh17b30T84iLUPPoIpVbXsJmhYGttF83uTSyDPoyrOnv0cez/5FFNKy5nxLucE7OYuzvFbHHyotECXoyeTOHPiKL44fhRVNbVYtGwFNLaEJoDgWD2n5lbdhMu00N10EUf272NtfTJqmrl4OabXz0JjlgAh87ZjqV4qMejXN4Pwo23H8HGXG5aoI9elw2OqUDTAMKh9zYKkUypcBLWjCYoC1UgiLgWQkNw8/rIehsyWvTIEjbJIJnRyKISBHMPNhEHTI0GV3FDhgam4GOCJugq3qfOXZOiISSZ/LoopQxBl6Nz2SWUhA5LLBUtxQbMEaIYGhbILbOlswSWY8AoqJFOHYUmIwQ1VcqW8NwxYgg5L8CNoJvBorYwNCyuwbN5slLLd89hSy2PNs2NJLZsCEe4sCGEZ6nkDVr/ts0IujpSBMgUdZtBAcEYOEFBT5MWxA659XjYotfkpdFzKqpA1lvsKrqWta3CV47I3FAFBytxEIZkqDFFAVCHcLsKfEJE0fNzm+BoDBMeLIXuAYAoWPIYKTZQwpLhRGQ9hbbQDD8fa4KFWUCpL0fNMz5sg4j1vKV7NnYqI4odHA4J5BfgKA4RVt0sMY92YN/DvtxRAcFanV5AU+Um5OpHneo5ZJgfh+EHqYvCPedMyl8kSMIOllkPYsm0bLjRewJMbNrDmAR3TETciUp0oCujv78Nvf/vbdImhemotAwTH2IkMmgxDRV9/L3MVKMhzKSI3H7ph2oZGqVU9BXPqgKBMA40fZSQqKsovO5amqVx/J4CwZcsHeO+9d5ATzLHbHO9exZLO7c0XuO+dzmFUgJAqMeyjDELuCAAhNbnRlKUn1EsZhAyAcPLIAXxxaC9aT38Oj9uDQG4+LMkF3aSJkMylUsHe0LkpiuSTo9FBqLoOrz8IQfFAS+1LAIEmHgIINkwxoZtxqIkEJCgQ3G4kSZpeN5GWwk85D9N9QyRM0UwApmqnjWUvNCpFMEhwJmvbIpqCK1s9GQYktwhLEVA37w7UL1pxGUAIjMJBGOk+dTIIIwGEbLoY+AxHICn+aOvn2NHjhkZKloYKUTfgU9wo8rvgg8qZbba/9njROTiAPi0JXfJxKpyRlEArdQGKJaMi6EOOZACWypoOHtMFwe/D2a4uhDQLluJNCfCYvEIVTYMBSV15MXL8lHUB3JILCc3AUCKB9lAYYc1un6SVOMRLAj7UAeCCiakFRGwMQDaSfPzzPVH+0omTwDyOGEzBi4Aew2M1MjYuujpAGKmLYax5Y7hQUlpqmZ5TAgg0TmEZ2nkd1gBPVDBFAgiUFDJh5RgITM+B5U9wRoGMtsfeBG4z5BZKU7dLMpSYd5II/O/URvcxm5VdedS0IBJBY9qPDeIULn8QUTYpm3CrCfgNC6oo4+Cgk0GYCEAQ4DJV/ixVQcbscCce1fqwIN7DGbe0iBPxq9wBvCXnY0dOBUzJDZdmwltQhI1PbbidQRj75rihe9zyXQzp5+AGAQQn4FJgiAwSSXE/vD7fZUI8I31CwwHC1o+24/jx42w1TJ4IBA7Sjo7kCGBovNKnsgNlDAhEFOSTWZGVlmWmAG2QW140wuJJFNyJw0BdCFSPdRwgHeBBxyNuAr0PZS0oY0A/UxaBXkvAwbm+7u5OtLe3oLCgCGvXrksDhI7mCyybTKtrtjgevqVW1BfYrOlgCiCsT2UQBG7vogBC//PqRzcgk5GSYkEzhZTU8jwQQDh1aC/aTx/nDIDBxxW53k8ENvJXoKBPUs1aUrVLGLQEoRIEZQrIV8Gy4A8GeTXscbkRj0R4Xy6PiCTzaqfuKaB48nPhVTy0fOYrorHVNY3fj8SQBCMBcp8jaKL4cqG4PTB0NW2ERYGClPyoC0KNxRANh6CLOnQZmL3gTtQvuBPTZ9enMwgEEESelEfUybtsVK8VIIzW5viTrUfxWaeBuKhwlkAyTJTn5mD1vOmYoqisxKsb4LH55MhR7GkPQRXsGjqTzYkDYJgoUiSsbZiGqQEXBLofdQMudy6kghL8dutH6AhTeym9jvrc6YplBlG5SOLBuxZhZq4AM55gYDsYjaEnEsHOC5042ZuEQWRQXv3a95poqvw5BEVgYXUJlk0vg1vQETMlHDjfgaPNXYhCsVPfgg5D8DFAeHSyAUKm1DI6UityKjOYsEKUQdAhEEAgwE5ZBYJYNB45JoJ1QZh+GqPsAAIHcgJB5CRq6dAFGQnBi5aYggFfNWce+flKEV4pI8MgwbEbTWUgqJqQ7hlMPV8m6DN0cwZBV1RIfW2YKSZR6Y+lzJrIzdExa8o2g0DnK7JqIj0/VJJaFW7Do4keFBlR2zHVdoGALoo47C/CO0ohTgWmwEX8JlOHq7AETz/5FNasXp1WRb2hkfD2m404ArdUBsFeCdktaBT0qD/dTh7cuOyBcw4U8ElqmUiKdB7cznSV87DJV3YGgbsYPtqGz3bvTt/sl1bjhOKJKGcHDrpODj6ixEGPMgiZm26QGppNluP9JNv22Z7B7X2JPPf/sfeeUXKc17XorthxevJgEoBBBgaDzEyKCQIJUaREiWIUSYlaDpLs+6711nr233fte63wdC1ZwZav/WyRsiyJFCXmJIABJMGADBIZgwmYnKdzV3zrnK+qpycBMyCS75viGgLoqa6u/qrqO/vbZ599aMzodQIbPktAn8lNoqhEjyYIr2SL/iQ2wXVMlJWVjwcIrc1QvbbQZ2QQqMxx/172B7h9yxZofO4EEMbSpLSip5ynSrSrQrnr8QDhMDEIx49Aolwzfz9iRSQsXLEc4ViMAUJnewf6ekg1LvNKX6zqKTXgQA/oaFixnFOqFWXl6Gw/jbbWVmYR6DyIPnXZ71XD0qbVKC4uExM3pxYEcErEE+jt7ISRHOHJmKbwqrqFKKmsRE9/NwJ6gIWdxLrkLAuBcBi5ZBLtp07BtLIMEFavuwor1105DiCcTYNQeI0vVIqBAML7vRZSss7mNKqVw5KyIty0ZjnKVcHQpHIG1OIivPfxIezqTnMpmufyyxGIGupU6sDNy+djflgE85SrgI5oFpfj6Xd3oy9lcjtyMvwhqtmVAswYlCsGrm9ciIaiEIwkdc+MYjCZQty2sL9nAM0jWa97hwKJHQIJVBIb5CIsASurS7G6pgyumUEGCk72JXG8bwQ5ou85ONLnzRwgzLaKwX/mJlktUxUDpxIEQMAEgJBPMcgW3JibBwgEHCYbJU0dmYSaQaTOsnIRBtwY9ucq8Y7UCMPIenORmBcFOBBQgBYN4+4tb94gMC02OgcFlgSEYoDe14y12W7cMW8U+0ao3XNhN8eZAwRiPDRqJQ8gZmbxxWQntsTboMoug1N6DG0y3JJlvBSpwbZILTr1YsSsHBsyKRVVeOQe6sUwV+Y49R1xaV6VcobhWsRdXQYbBzACCKaZ90HgSYNdxS4OSPDNSvI+CLtnDxAoxbD9jdfxzs6dtODk1EB5WRkCwSDnXal00bYtrlQgPwGxSfw62S1TMKLvG9B1HD5ymFcM/nmRLoHKIanbo6qw9Aex4hhSyRS7NXb3iEYywoa5hNMjRUXU4yDLdsG6pjGI+Ojjj2BZBipKy/HpW7Zws6Y4dd8rECmOAYQxViCQSQOpJJr7+rHr4G7UWBo2bboSseoaGKURqBkTGB2FEgyAymfl/lEoUQ1mbSksaCiOlGPZxrXMIBBAaG0+ygBBoShP4jddw/wly6FyAyYXPV1dGBkYFCkEj0fllblj83epXjgfkqohHAqhr6cXfb29QkroSPweKrWTNR0LlixGKEy1/sS8OIJZsSykUymMDg7CSKfgUlpBllFaMQ9FpcVc5knALRQOce8CanVMKRVNVtDd0YGcmYOjSFi97kqsWH9FAUBoRRG3qfan7TM/XD5AON8ixZ+QSLFfRpZTBjIU20RpUMG8WBF0ujGJobEt2KqKwWQSA9kC6lo8eHziQRmoDmuIqeSBIcSFqplARtHQEc8gS3o6prlJ9Ujv8DwjJAuVERVBYhe4CaGMtGnBlFwkTAMZh9/I+XpmUXjlzJw5FNdFTFdRrIv0EuWtU5aEpOlycCOmSgLl9QkgZHBXg3LWFMN5AwjEIDCQou6gRDUqyJ0yOMUwBgAo1WDDLXIQzTMILqcFz7oxASfSbDQf5qQQupQqfGjW4fmBUowOj0D1ekV4iQNvEUGLDxo/0ZBp0pxJ1TIOgTFqRy2jsiqG6kwnlo0cwucWp3FgNIBn+0rRGpgtg0DBH9BtGZZsYkm2H3+UHMTSRBc/m6biwJRNqKaCbq0Ivy6qx/5IFZJyAGHbZCAUKK/EQ196gAGCP+efdZzmdrjgI8AAwTRn0oL0wp3LxNBPq2oCCRRYL9XNQgGEGISPzgkgjGL7G29wLwNNVxCLFXFQp+/j1+rTip/aDpOfAQECAgBUidDYuBrZrGABCDC8//77nIqgjd5Lq1lyViRmgPahSYBAQzKZYu8EsnGmYxEwoDLIomgRItEI585J8EiVEbRyPnLsGHLZNKpKKnDbLVtw/Y03Y5h6MbSe4nr1cRoEznmS4tCB3HoKxuk2DGgBnGg5iqUZGYvWNMG2ZUTXr0DydDecEydRVF8Lag8VSZvI5JLA+qUwoCKiFWHRFetw7NB+nNy3BwOnW0FVBLolNASWpiBQXIZMQGehIDn2kQJeFppFDkB+hQUxCgQo/IoE0zK5fwOfuwcqHVukSjRd5/HLM0FcSudw90whVhSTMYNR0iQoQt/BNQwe+0LHpdbFkiJaFosMhoTGDVdj+fpCBuHcAAL7IJzHKoafkEixX4XJPgKCgWJth0dPF8IXJsUJeU3YfKGeCMg+lqWgTukEUapYmAD3g5JYsApHwXFZFgqQ/oEmfZy3EuaaRnGSY5/pG0j4L9JK2LqkDAKlUngMUwoyrVk4Q1TmSB0exVnbVCYScRBeFgWiJlyZGIHZLHSoXNLm4NuhVuNtczFe7ithrVEoFEQwSP0pSM/kM5LELNK1pj8ndG30L53n4kT3RCQUwrxkG5aN7sUdDQYOjAbxXG8J2gKLmNmRqPPkjKoYKHVgI2SqsNQkbsi04Y+G49BzaS6TtmULhpJBwAjj/VA1nootQK8e5ftHYGiXu6Ted98DrEGY2y6fEbisAQLl0M9G7V+oofQBwsFZAIQxkeIYQLBsov7lfLqEgjrX03veBFR54FP/9LqfVqHPJ98DqmYo3Ggf0iAUbrQfgQg6DrED9CcFQ/rxUxI+C0Pgi15LpVPMZjBAuHULrv+UBxDamkVKoECkKNHfPdV7uL0VqebjGNBD6Dl5EmWagmW3XY/c24cxb8kCjPT3oCyVgh2NYiQShtxQA/NIG0qKwhg83YtwZTWkUABG6yp9YAAAIABJREFULoHe5pMYGR7kNAsxCHS+WVVCNlaKRDQEQ5NgUNMbWRGu997c6gdsnw3wGzUJIZSIRz77QSVzTNf6NGxBqkjk7j2nQ0pf8OrVU48XMlb5SgZRBSFodC/fLEtYteGaCQChBRdTgyDm2MlOigwQBlSYXste/z7jkD6VNGIKgOADi5k+Z4XjnMcTBW/2P/as7oBEVzMrMT6gjr2P8vOzSzF8UpFi146n8GBdF+q9FINohSzBTSvItGTgDIGNknwQQGJFO2QiujQKxCy4VM0xG4Dg0mqfQJDLAGEHA4QyBgi0ACBTMJovZMVLfzIoIGbIBweTwYgoarVgkMDZdhHq/hgrE/vwmUUmDhJA6DkHgCC5yMkOwpaEEmMQdzo92DowxOJEUyVtAl0nAwNqEV6I1GBHuAZpRRjC+RstZu6dAwgzfcwu2n6SYZiuSUqlS7zxxO5Nzj6DUAgQLlaKwZ8QzwtAeP89mCat/r06ei84TQQ9hd/NXx37Y0G/84MdveYLHacaj8LJuVA/4LdCzk/YXPIkcvnjAELKSzFMqmJwYCk0+cko6+5E/OgRDEg6hg8dQyiqYtUXN8P+/fscpAw7jdJMClYkBqu2Fpm1DQgd6kJAMpHs7Ef9lk+h89gpVNVXoO3DvRg8dZpXGVzxQBNNSEUqGEMiHEJOl2HQYshfoxYEi8LxyXdy9AK576fP39d7zWcIJh6r0NvBB1FipS02zuv6IIIDqwdU6FwUKgYkgDCZQRBVDPzusz5Zn1SkeEaA0K9wSmDi5gMEf1z492RVeKatsCfANCm/qQCCD7pmVYk0zWdNBgghRM00+yBc0CqG5lPofOspdlKsZ5GiMEpipiOtIEtOioPUoEnLgwBbspHTcyhaFoVcSuZSMwcIgrlRWBTqA4S3raV4sbcEI8wghLjbK2mICK2O1y7lYdjk686v2DCpQVjOQLBLAIQ7Fls4MBLAcz3FaAssniWDAJgqEMwZuDIzgM9bPViUHIHiaMhqDkIGFba42BcrwW+j9TillXJ65kwA4WLO92d9QP9/vMNlwSDQ+Bdi3akAwsW+RuclxTABIEz3HaacVAt2LnxYCleBZxuTMx1XBL4pGITWZmgTRIokrjJkF6rpoqKnF5njR9Flglse1+gBrLzjJvS/8xHmb1wNx8rCPNUMw1XhhIsQW1SHgSPN0KuKkDveh/J7N2PgwAkUVRejY+cuDDS3wAlQdQCJsVxkIipcpQjZUBCmKrHamuWY03nEnGUQCgPgxFA9meGeWuvCAi+PKqezoVp/cVJC0LeSGIR1hRqEsxslFZ72hRIpihTDZIAgTn+Mzs/fU9MwCFMN8Wwm8HHMRQGTc7b71//91J9F6Qtih0SZ40wAwqxW7z6085y12jyjpPEMgsqiQDmnIXfahNlncbMm/3MIIBh6DuGFAejVGsBlorNJMRBAGGMQ3rGW4oXeErb9JhaRur0SSCBbcDGspF3yy4cKwKkHcLm1syvYRwIIZtZAmBiE5H7cscjE/uEAnuudPUDgA0oywmYK94z247ZsGyClodgRmCppDzR21Hy1rByvhhZhWCbwPH5ROscgzPRpuLj7XRYAYToNwuWQYvhEGoT/TQACKdk1G1CyFow9e5E5cgQjehgdziCquhIoW7QIZU2NyKxdBDmRgtxCOfgo7JEM3OPtyJbJUNatRPDwKNJb1yPUGYcTUdD17gcYOXEcti7DViWkVAfpsAZHDsDQNDhkyCBJUOmzSYPgB+ZZPCP5dMQU1TATwdZ0Ytg8W0FB1XOKFEp/wSb8ZwYIhQQHrVTPtM0GFJztEs0E6PoakKlZmKkBwhVryEnx/Bgl8SJ+WoBAlRRC6CmbIZhdNsyuLCSjwKFTdmDoWaASKF4UYR+EWYGUCSmGQoBAqUYKqtTbhfRIwreCrTE962YKwGPpMmYfbapKiTCgGA8QDuCOxQb2D50bQCCAqzgyStw0/nikG1fFT2A4akMzi+DKBmwpiISr46niEuxRViFLzJsqdFX+NgcQzvbEXJrfS9ls1qUV+6XdBNr1JyA6HxLS+c5/Y5PJOUSI2X4xrw87rQwSwyRS3DXrMkdSv7NIcQYAoZDWnu5UL8QKjAV2NvnwF4gUvRSDNjHF4DmhcekgeSrYNk60tOK9j/ajPBDB5ts+DSWoI6eJlb5MNr48aQBa1oCjyjBCMnnsABUVaFrViCMf7cOJXbvQfeiIcCyUbeEroLhMTTLt7gkNRWMcSkGIWmpfMCdxazwyzRGBO59GoMDtaeHoHDgz64j3sw10QTqLHRtJjOWSUQ+txEiIKIyX4I43taGcsiXTlxBNd2RobOK0YtM1WLxu04QqhtmlGMhJ8XxXMbCTYr/jiRQ9SpfLCejLTVG5RKWqTpA7EtKY2HKGXRjz/F4hw8Av08hq4tfchMeGQo5/nMLimgRWqJPlVJ4i9MrwZFK1eP0YNJOuqQRDUSCTtXJBesHXlEz1bNgq3XA6wtaoZ7W8EFc1rUZtzfm3Wh7HIIyrYrAhWRrcfgW51gzUlA5TMWHpFnSLikEt2GWUZgjDDdIKn54RSk3QD92kZDE4+VrkUwyuyZUShRoEslSnjUTNQvwc4oLIIu00blh5GnXRdtDQcAMz2MiaKg51lOPw6eUw3AVwZZfvCbJBFwzCJwMIxEyQx8YNqR48lOrAvNwo0joJWUVFiuPq2B2swDNFNehSK2FReaoyPuYQQHjggQdw883CSXEmAHK2U/vc/rMfAcngMsdLDRDGHhC6MQgcFAKEQg+BcxEazXZY/Bv0YgAEDjZnKeG8IACB/QAmAASqYmhrhjZBpOiPn5+Pp/Ol7pTcrKmoCFtv+zQ0FvlRQKB8I4V0YZrkmraoKFBdGJARipWhaY0wSiKr5a7jx7iMjQopOeCTmQyXYnkR3lvU0h+k5ubxEoMm6FTy+PdpWz/4ExCg2EXnQeCGOu3Syl/xA5dnYMTHJgGVJcAAWQpzPSWdKVHFBc2FOMXhcO09iyM9QRitxlZtvAZL1hcChNmlGLxyiPNvtbyNRIqyEClSUJLpO3rU8+S+w1y6R70ZxBiLKo8Cuw1/4MUV8Nr2FjIQRPkTUmAFh1+tIC7W2CPoB/88CCAbZmHFzPGS6PKZ0PAkFKUyQklD2CaAoOO+dQIg1JwnBsGv4JjWBwEKA1uZdAcjGjKtGcgjMmzZgamZ0E0qdXVgRNIILtShVRJIEz4E/GX5HqJLM40GbBqRog8QqMppXlUVotEYl4GW6Cfw2Y3HsWLeSciqxfbdVC6atSPY0zwfOw+vRspeyEzG+WQQ6DvELANb0z34TKIdUTsLQ1GhsA26ipQcxPbwPLwSqcOwHuVnfWLf60KAMNv5em7/CzcC0ujoqEvB+NJuYwCBgs+lZBAK8/ap+AiOHjgwYwahsIphGzEIO9+FMYVI0R9r/7MKhXITr4MPVtgcqWDlWwgafNHjRKAxFYWe/2yi+WwbVcVeFYNf5jgDq+U8QNizH7FiAghbuPLBBwiON/FRcHYMk2u/qRTfb9aUBwj7PsDpY4fhWAYcy2KDHLEY5WI8dqTzHePYdtYDUnS30D5U803kKjs/+gyC9wWpFJF98anvADvS5cOeFwAFQyGCvsNMgErBSZaQtXOin40n7stfJwIcNJfzypdEigpkVUXjhmuwbMN4BiE6Sx8EojbOt9Xyj7YdxFv9IdGFkbw0+DET/QN4ki4Ep64L1RV17K7uMTM5L1gTwiow5BEAgbwLiBvgrhVCdEa+HNzq2BaOlS5pNFRBK/nXJQ9QCLixkIPTSxQwyKfBcTzLZR9AeABjjEnwj+VCVU3YahhhhzQIOh5YNx9XNjViXt3UKYZzWVxMTDGwSJGrGLxujgyKFSCrIdOWhtNL95rKIEHhkkcHViALpVJGaEGQGlLkPR88Lkvc55M2MTaFGoS3rSV4qbeUrdnpnqTqparKSpSUlrE1c0w7hq1rP8LahhZISpaBGY1xzo5hb3MD3vm4CUmz4bwDBNl1sDgbx2fNfmyKd7BVO51PyLJhuTJaQlG8GqzGzvA8pKk8u7Bk1vveVKr9hS98ATfeeOOlDUVznz5uBKTW1laXavIv7TaeYiPAQiDBTzGMP7eLkGbwPjCbSqCrpYUBgr9qnW6cpurF8PbOd3iVTn0XfPOjQnBAQd93Upwu1ZBX0BdUM0w8ll+SyNbMnqcC/d0HHpPAhCxxqSUZMFUWl2Pr5tuFD0JBFcOZrJa5WRNZLe/ZJ6yWb9siCr48BoFrqLnRktfNkQIHWS1P6MVwaO8HaD9+BKFgEEVFMSjUM4BFgERTc0gSOV76XkYOycEB9i0oraiCGowInzka3wKnSaY7ybIhk+WumOQiWVJWyr4GFNR5Vew1nPIDBlHh2dERZEZHES0uQaCkBFla1RZcbJrCyQRHdmQeOzJYGhoeZOuANZumBgiX2mr5x384iB29IQRkC0tKQwjyyo1IZ78/ZUF2n5wpJQsjsoyWkVG28q7UQqikMjqvcVahbTRBKsUlC2yDO/gNZBz0JnIMmOpLwigiVsama6lBzgfAAjdP2YHuqsjmFBxPJZFFDnV6CFXFIU59sTcFZzGEd4XvYUGvizvDxWguh56sigBs3NkQwEPra3HlmpWoqqvHx1N0c/xEAGEKq2VinHhMCHC5MoxeC0abATlDDaVUTrOB02cG5CIJgQYdUszLzBTYcE90T/USaQKEFYgU37WX4vnuYm6+5pdBl5WVoqKinHsaROUTuK3pADYsPgVFz3KBBbVpzzlFONC6GG8dWIWEsZjJn/PJIGiOjWuTvdhq9qEh3QdT1eG6OooMA0lFwYclZXhJq0ZzoAqOYkLlNNP4KgZiQ7Zu3Yqrr7760oaiuU8fDxBaWlouK4BAQW1iiuFSAYQcB0wBEMattqa4iXyr5eXcrCmB17Zvw/6D+7GaVjRVVbCo6ZDHAvheBGRadPDgQfYwaGpqQmlpaf7IhXk48jbYt28frxhWr149yQfBPzcat927d/P4UW8Hou38EsdCkEAgorWtFcdPHEdFUSluu/U2dlIURkmTqxgKv67PVnCKYd9+r93zFl7Fi5wzre7Z7PiM3RxFimEXOo6fxJLlK3DFpz6FcEkp27LSapK1Ab51rATEBwbw4ZuvY3Qkjhs3b8W8+USVktUthbuxoMFTj+2g9dAx7HznHdTOr8d1N9+EQDjEKQoCHz6JLsohJbiGhSO7PsCB93eiYdly3HDn572W0547k4cURPqcmAYJLceO4s1XXwFME6s3XDGBQZhdiuGCVTFsO4i3uyQsLlPxf963GQuilLoRzAh/Zj4/QH9zWHPQnAni+798HUYug8/fsApbmpYi7Anj8/cQ20HIDBCIfUlKKrZ/1IKnd+xDKBjGI1uuwKb5FQgyvuNWW/mg7h/Dkh1uAnW8JYHvbH8LXWYan29cj8duXek1KPLPjtI54vr67QboX4bp4IWDbfjt+80cau5cFMTDa2twxdrlqKyfGiDMSiDo3fTTixRp/IghAGzFEq2d4zLSJ7LQ4mFIXO5I2hZqVMS+30CdA61Wg6KR/sLmH64ncaZp4DQhxTARIJA4sbi4CFXV5ZDUKKJox+ZVH2HT0mZowRSXFlJ75ZwTxcedi/HW/uUYyRBAUM4LQPCvZRAOPp/oxC2p0yi3EojrYUiOjuKsgf6AjJdLy/F6YCGG5HIEIPQTLnN/Y5sPEK666qq5EH0ZjYDU0nLqMgEIHs1G6JbsWE0DoZAIzDw55P9/8RgEARBazxkgtLW34Z4v3YNVq1YyLVhEFre6jp6eXpQUFyOdSePXv/o1Eok4HnjgQdTUiO6LqioaEdE31TQdg4MD+Nd/+zdEwmE89NBD7GlPTYbIirnQHZBMl372Tz9jt8THHnsM9fX1eeMfYUsnMU1PLoAvv/Iynn329yiNxHD75tsFQJhOpFhww+YBAjEIe/dNCRC4pyLZuhKDkMl53RyFBiHIGoQmHDmwB4f2fIDTJ06gadOVuOnOz6OoggRMJFJkI1uhPfSM+Ia6u7D92d+iv68fn/vSg1iwfBUcYkk4resDBO9EbRtHPtyNbc+/gIXLFmPLF+5GJFaCTDaLjJljW2ZdD3hiPQIIBj58fTve+cOrWNm0Fnd95TE+tt/TwY+jzGzwitHGkT278cIT/04tIrFi3SYsG6dBODcnxfMuUiSA0GNgY00EP/vWQ1heGoDMrYhpnASY46DJYkMSrlk4NCzhj779JJKZHL71pWvx8I2rEWYmRyj2eQHPfQi4KTMHv4QD/HLHR/jek6+jOBLB//3IFtzetBBBbutMXQ+FGyXZXtMFVRVyqxQui+8c7sEf/b/Poy2Tw5/fuAl/+9D1UEG2mqSBoOZdCpKpDBKJBMqLi1AUEV0jU4aDv3/1IP7nc++zduJzDSE8uL4Gm9YsR1X9xRMpihbKVG7pQjYCyLRnYHdL0LOhvPU02XwRUMiVZKHXa9CLqc/ymO5AInQ9bmMp7hQMwjIuc0wmEswUEkCIRMKoqqmFFoog6Lbi+hWHccOqkwjpcSIvRMMzScfR3vl4c89aDCaWwpEJIJybSJEuv6U4CJoEbBSkdQOLzDi+HO9FU7ofOnJIaQHWEYVMG216GL8qqcD+YB0kmyooMp5QeCoG4TaMAYTZlINeRhH1f7NTkVpami89QPBrYoX0eRyD4LPB+fz6NBaiF+K65FKpWQMEbtYUj+O117ejveM0K3Ops+LAwADbJFPa5PTp06ioqODv+YtfPIF4PIGHH34YpaXlTPuLzo8udF3j/QYG+rmNM72XAj9NDLmcwb0WNE3NU7Dkuvj3f/9DGEYOf/qn30B9fR33eyDqnt7rMxgEwJ597hk89fSvUBKOcYohzyC0ncKkKoapAMI0DIIINR5AIKo/m4NGqQMNEwDCXhza8x7aTx1G46arcNMdd6OorJLzErJNoVmUi/nXf7CrA9ue+Q2P4133PoiFKxtZHU9givK8vCrxm1ERQNj1IV5/9jnMX7oQt37pHmhaFKNDI+gbHmBGhxTg7EhJwc4y8P72bdjx2qtYvW497nrkUe4yyNoJ1lMJYZ9pm0jn0tDCOk4d2I8Xf/4LmDCwYsNVWDHOB+HcAML5tlr+0faDeKsngytqivAv//XLWF4eYraF2SlH6I4o9SJggqB9j4wY+Mp3fo2hlIO//OJ1+MrNK6CT6t1wMNA/gtGRNDcVcwM2amtqUBzUkLZdPPHOIfzNk2+hNBLEtx/5NLY2LWDh6nDOwWA8g6NHjyISDGBJw0J2QIyGyEpcx+vHe/AnP3sVnXEDf37zEnzv0dtA3R4oL285KgaGMzh0+CSGBgdx5bpGLJpfA0lRkDBc/PDFA/jeCzsZ9N69MIJ719dg47oVqKm9wADBd1KUhI0w8yTkoGhpMBMWki1pBEdpcUP3JQFN8TwYWhZypYRgXQhyiJGWkHNMUPSPPW7jfRDetZfhhZ5ifqZpjqD7NxAIoqKmBuGiCFT0Y1VtF65d2oGSQLdgb6wwexGcGirFrkNrMZRYwO2ozzXFQMDQUGxEyMHM0ZEKJnBzqhP3jwyg0iL7cYeZOp4HXBmH1XI8UVqF9kAZIobETqnU+ZGYjckMQiFAuBAz+twxZzsClxdA8M6+MMUwSYB3EQFCdpYAwRcpEkB49fVtaG1rY4BALZr7+/s5sNNDTTlEMjmh7/nEE0+AVv4EECorq7grHr1O+6XTaVCOcWhoMA8Qvva1rzFrQAChpKSU0w5+jpZ6O/zwh3/HnR2//vWvsxVrZ2cnl0FVVc3jfTmFY5l49lkCCL9GSbhoAkCYbLU8fnFDK2hRxfDhFCmGQoBAWgBq1zw1QNiHj/fsxOnmI1i96Src/Nm7UVxWzm2wzazFzai0QEA4IVoOhnq78IdnnkJffz8+d/9DqFu8FBnLQZTsnAs9+2lisi0c3rULbzz7LOqXLsQtX7oHtqXAztlo7z7N7bdpLKgCg3LcjpnD+69vx47XXkHTug2485FHYcoiRUILPb9DJa3ckpk0isqLGSC89PNfwJAMrNx49aRujsJJkWHLWZ/JC+WkyCLFnhyurI3in//iQSwviyCbszCayCE+OMJFDaGwDkVxUByLIqwHcXg0h0e+/R8YZoBwPb56yyrosoPRkRT6+4YwNJTkvh5uwEFxSRlWLayjcI6fv30Y//2pHSiNhvCdRzYzQCC64VjXMEbiKezftxfVleW45cbrkE5nmH0oL4ngzROd+JN/fAU9cQt/dssSfPert0ODaBscTxpoaetGW0cPmzw2LV+Mhvp5kD2A8PcvHcB3XtjJ9SZ3L4jg3o012Lh2pQcQDqKnuwMB6n6arxKa/aq0MMUwyWqZuzmKjouUJpAsGa4pIdOVgdtHKx0qr1VE1QL7ZzhwwhbUagV6pQqJcjD0Kw/gTrpRJvkgLMPzPTHWvwgGQYemyaiYV4xocTkkV0dUzqAmOARd6oQTJnOzYk4dJWwFg6nFsMwS9kk4V4DAZBJXwEgwJRURjOCeRCduTQ4hYlOrbmItxDinZA1vhirxXLQS/YEYIqaDrKoyozQHEM46LVwWO8wBhDNchnMGCIk4Xtu2DS1trbj/gQfQ2NjInRb9QE7on4L3RIBAQZxrmm2bfyhVQOre0dFhBgikhSAGgXsWZHNss0pAYiJAoPd985vf5Pf29PTww1xfP5+bP/lVIs8893v89unfjAcI01otjw1SYYrhQypzjBUJkaKnQZgZQFiDIwf24qNdO9F56jiaNl6Bm7beCYO6KyaHQd1FA8Ewu8SRH0Vvbw8Ux8bbf3gFvQOD+Ny9DyBWOQ/xnIFoKMQAgcaExoJ7T0gSTuzfh9effQZ1SxbiprvvBqQAosEoOno6uNkV6T5oPAi02R6D8HYBg5B1KCHiwsmaOHXsOKd8IkVFKCopR6yyBMd278bLj/87TAYI10xiEC4Hq+UfE0DodHBlXRA/+z/ugxIfxBs7dmNgMAcjnUM0FsSKlQ1YvLgesmxjUV0l2nIyHiaAkHHxl3dfh8duaYSdy2JggOx9SayrcnpLCkoYGoyjMhZCMFaEx989gv/x5A7BIDz6aWxdPR/JeALHuoZQHIshnUgiGAmhurqSO4sODSYwrzKGA139+NOfvISehINv3LoC3/3qrRw8DNNF38AoWto7kUhlUFlZitqKEtRWlbIQMm24+EEBQPj8ggjuu5AAYQqrZYBEip4+glS13o+TBkZbEpBSEkJ2WPTvgAOFRI2yDSOSRaA+AK1Shata4ywp8rbqjC2JHRvzQfCNklJJAmk2i2WJQasoL0ZpeTUgRUAlKwEpB8hpZFWZAYIkGXCUFDNuihMSIt5xTooz90Hw5RQ5xUFOkbAqPYQHE51YaQ5xzwXdoR4P5ICqoUvV8NtYDXaHKpFSgwjYFgxZCJF9XYo/swgNwhyDcFmggoKTmAMIZwEIPbPUIHCKoQAgPPDggwwQiBr3aW0CCxS8fYBA+gRiEMrLK5gyJOaAFPgkMqT3jIwMjQMIpHqmADcRIBDT8MMf/oCBBQGEefOqObim01kWQApbViECfea5Z/D07yYAhPMgUjw7QCjHmrVNOLx/Lz7+8D10nTqBpg1XYuO112PnzndYFV9aVs6iwlhMKLZpvNavXYt3t29ngHDXvQ9AjcaQNm2YuRy6uzo4hUI/NF4lsSJ0NzfjzeeeRd3ihbjuzs8iHCpBMBBC70Avp3p8DQcxCY5l4r3tf8A4gJBL4cCu99Df3oVd73/Agq9Pb/0MrrjxZgSLi3Bsz268+G9PwEIOKyYBhMtEpPiHj/BWB3BVvY5/+It7kWhrx2+e3g5XiUCVgWRyBCtXLcXn7r4FubSB2lIdnY6Gh//2lxjJAH/5hevw1ZtXY6ivF4ODwwxQKyoqmX0ZzaaQSmXhpuKorKvGv79/Av/tN2+iLBLCdx/dgs+saUB7ayu6EoZIK0gS+gcG0dbRiWQ6i8GRNFYsa0BGCeAv/tcr6EzY+PrmRnzvsZs5rdPZNYT9B4+iYl4Visup/8AAFCuDjesaoekBpC0XP3hxjEGYCUCYrUjxbD4IvkhR5LeE74b4u4zsYAajJzKI2TH+JZmAKcwmyLAUE06RhfCiKJQYqVrGl3nnp6QpnBRf7CvNaxBE4zcNZcXlvOCQVRI/UuqI+jdQS6Yo4Oq8opekLCCloLIJ2bmLFLlKiEuMSJhp49aRYdyVbkUFhqG6gGaqcFzSJgRwTNPxROlCdCnlLChWnBxsSWMGYayORnzbOYBwuUEDcT6XHUCgFWqhD8KlTDGcswZhAkBYtWoVt3amtAKtctvb2/MahMcff5wFjAQQqNSPxHM0AVNQpAmAnNImMghnBgh/5wGEP8OCBQuRTqfQ3z8AwzB55Uy0ugAIv8fTv3tycorhE1YxnB0glGHNWjJK8gBCczPWbrwSy1Y34vVtr0FTqIyxHHo4zK2b4/FRBk03XH893t6+HT39HoMwrwZDo0moqgzbMjmtQsCKutyVlhSjv6UFbz73HOqXLcQVW7agoqIOjuEgbWZ4fGmlRiswBgi2ife2jQcIPadb8NTj/wY7lUFAphp/BTUNi3Dt1jtQVleDE3v34AUGCAZWbLx6AoNwuQCEj7GjXcZV8xX89Fv3IZhN499/tQ2jaRMLFtC9qHEKisSxFaXFuP3GRnS7BBD+YxxAcAwD7e0dGB0dwdKli7l1dtIw0NbWgbryYpRUVuAXO4/hr598C2WRIL7z6Bbc3liPwf5+9KSofFK0M09lDViuAjUYxoGPm1FXXQE7FMT/9c+voDPu4k82r8Z3H7sRkuXg449bsWf/EaxZ34hFy+q5QdFwbxfWNi5HMBQSAOGFA/jOizNPMcwWIHCsP4PVsgAIQrwpaADRFp0cIiVDgdFiwuoWRmiWarDSQ6HqBkq9KVkoFTIiC8JwQ75RHQlz/YZZk30QiEF4qQAgUKqF9EWxaDFB02TfAAAgAElEQVTmVVQgFCI9ElWXUlUEKR9IE2DCcUOQ3CB7VoiKH4e7OVKzplD3IaxM7BdWyzPoxWBxukZGxDIQck3cPTqKG3LNCEkj0G1ZNGiCipGAjj1aEL8oW4yMW8reCJKbY8DisCPn+NL2OYAwBxCmH4GCxh2sdqY2oabJkzejmHGtd6fuc34hhvcTAYTt27mUkFIMpEGgFq20ig8GgyxSpJUu0YQEEEiD8OijX2FNAQEIelgo2JFugVYG6XQS//RP/8QrONIg0BjR7+l3QoMgljB0nB/88PvIZXP45jf/HAsWLOJhIfaCKiHo2FzZAOCZZ3+Hp3//2ylTDDMSKU5TxTA9QPCrGErZSZFSDId2v4fOkydYg3DNrVuw98BBuLaBedXzoGhUPy9aVp/uOI2FdbXYv/NtDPcM4LMPPoTShoUYGYwzg5BKJ5CIJxCJRhmEFUUjaD9ymAFC3dKFuOL221AcrYBrulACCo87pwzCYSiqyk6OH77xOt7+w2tCpPjwoyBR5BM/+iF010aQKO2MgXkNy3DTF+9B2fxaHN+9Cy8+/jgsWFixkUSKl6HVMjkpduZwVW0E//gXD6DEyeDYyXYEI8UoLytFKpXArl0fgvBPXW0N1q9agQEljMe+/ySG0jb+6ovX4bGbm0AFe8PDIww2q6oqYLs2hpNZdHcPoGnJAtiKhMffOYK/eeodlEbD+PYjt2Dr6lp0tHdh0AyivDyCWFCIaVOmi+bOfrQ0n8Y1a5ehK2vhz376HLrjBr5xywr8j6/dCtVw8OGeNvzrU6+iqrYUW2+9GnU1FYCVQ2VZKVcypHM2/o5SDC++N6ZB2EAixek1COcNIHhWy6BA7D17HnXgmVhTdYcMNyFj5FQCekKDauis3ON+F6RHIE8KsgcpVxBocEE1oQ5yrFegEklXUeBSlY6fYlCqsdNYhD/0FSORSsEkHQiV3Go6goEgqudVIRwKsobJZZBBIl+HNRKUqnDpuOziKHxDDARg5VyEeo5i8cgH+PySDA7Eg3impwStwUWw6dmjMk2WG45tXK8hSdAtGw1mPx4e7cUitx+ak0MoV4pE0IXiDiOu1OGJ4AJ8GCuGDeGFQWJiPt4UUpA5gHAhItgnP+ZlySAUAoRJNsQXUaRIAKGrtZUDySSgMmHsfR8EkWJI4A/bhQaBUgzLly/n4E2ggAJ6R0dHHiD4IsVHH32U6Vs6Dj0spFT2WQfDyOZFil/96ldB1Qp0jKam1cw6EFigdMRofAQ/+hGlGARAWLhgEVwySsll0NfXyyCFQAV9zrOkQfjdU9OKFMmQprBltP91fZOh5hlUMYwXKdKkVFDmeFAAhI6Tx7F609W46TOfhxoKIZtLY3BgiLUBVKVBjEcmk0Z8uB9vv/Q8RnsGcMcDD6Jy+XKkRlPobG9HSVkxazd8EaauqWj+6CCLFEmDcMPn74LkBBAJRaAFVAYI5C1BaRr6PtQ/4PDuD/HBm28yQCCRopFI4rWnn8SBD3bSPA5ZDWLjdTfh2s98FoGSKI7v3Y3n//XnsCQCCFdOAAizYxAuqNVyp4mr6sL46X95ADEzwUGHgmtHWxfKyiiFVYRQOADbtpCOj8KqqMVXvvtrDKUtARBuakJAlpBIJJmlicWirGkZyeSQTuewsKoUadPCz985jL95aidKiwgg3IjPrK7D6fZudCUkxKIywioQDupwFR2jWVERsbSuAh/3jeDr//A8ehIGvnnLMvz1125DwHDwwb4O/PDnzyEQVvDVe7dg7apFSI6OoqKsBDEGCCZ+8OJBfPulAoBwFg3CbAHCTFIMU4lQRSt1KvDUYQzayLZkoSZJIEwpAM8Twmv97mgW9FpArw0Daoape7JhJqMlR1bZS4FkkJ0EEMwleLk/hngiyeWjJhtICRasqrJCaIzy/TIIHvilhAVCWYmMt8mxUgMVsoQGjmHp0G58aUFWAITeErScCSBILmzJQZHlYIPRg/tGO1HpjLJ3SShTiozuQJGGcFJZiH+OLsPpcHBG/lRzAOGTB/MLcYQ5gHCGUT1XkeJIIs4AobW9nasYCCBQsCfdAa3iKX1AbAIFKgIIlGL4yle+gurqGgwMDHJwpDSL7yYpy8gzCOSDcOzYMbS2tuJTn/oUgwNKWVx77XWcy/zRjyjFYOCb3/yzPECg9QppEYiREA1eqs8AEE4xHei7M04cnkKjpNlVMUwACMQg7PEAwsarcdOddyNWVgHXtWDkDE6vkEqbnA8JJA72dmHb75/CaHc/tt7/AGoaG+EYLlKJOIpLYpwu8IElrZSO79+HN599FjWLF2DzvV9CLFrJx2RDIMviMafxoAk1HNBxbN9e7Hp7hwAIDz/CFs3txw7j5d//DiODA6iorMHNt30WS9aug6vJOLr7Q7z0+BMwYU4BEFpxOVgtk0jxzU4XV9VG8dP/8iUEkkPo6u2DYQED/cNYvnwxKivL+B7q7e1CfXUFMiWVXMUwknM8gLAaAclFPJ7k+4p0HqqqI2Fkkc2aWFBZgoxFAIEYhEKAUI/Ojl50xh2saqhilkZTNQSCOuKJNPoHRlFTVYa9HX344394Hl1JG9+4ZTn+22NbETRtvL+vFT/4+QsIhnTcd8c1aKgpQToxijWNK1EcDU8CCDPRIMwoUk0C/uwshbZCkWKB1bLPHIx7GzGe5MRJLpBZFUa3gVyPAdn0UhLjVuQ2XN1GqCYIfZ4GV0vBUS3IVDYJCq7cpQTdchU+MBfg7Vw1azgsBzDJlEJS2GckHBbeHgqXrQo9BJUT+q0wvA4csGXqMmKyLoGsxbW+Y1ga348v1mZxMBE6K0CwZBe2bGNBNodbMj24NdWLYiuDjAYETJ27vqZ1G6/oNXgmtggpTZ+KMJg0684BhAsR3j/5MecAwgwBwtmslkU3QQnEIIzER4UPQns7pxiWLl2KtrY2XrFSkKKVeV1dHf9JAIFMYB555FEsWLAAQ0PDzB5QKsJvd22aOfzLv/wLv3b//ffjyJEjnDsmUxECHlSpsGHDBpSWleAnP/l7nsi//vVvYMF8SjGIfF8qleTj0oNIK45nnp2CQZit1fIURknTpxgKAYLfrOkDdJ48hsaNV+Gmz34BxeUVnosi8zXjuroN9nZj2zNPId47iK333Y/qlSuhSjrTlvm0rXctXcfGoV0fCpHikoX49L33oiha4fnnO7BMk1kYuh6BYAABTcPB997Fzu3b0bieUgyPwJFUGOkUWo4eQm9XF8rL52HxitWIlFDZmINje3bh5cd/gZxDIsWJDIIACJfcapkAQpeLq2uL8LP/ei/KkcPOD/fgdFc/woEQFi1ehGiUaGkJ2WwKaxuXocMEHi5kEG5eBR0O4vEUUsksVCUARdWQcXKQJA11ZVFkKFVGAOHJnSgpCjGDcMfqek5BbPvwKBqX0efE+H1mLo2+7i7EImGsXrkI77d2449/+gI6kg6+fusq/M1XtyBkWdj9cSt++PMXkUpncMsVy7Bh9UKEAxrWNK5AOBiAYdr4ny8cyDMIFwMgdL31FB6kXgyUYuC05zQOiF7DK1pVu7YEN6Mg25OF2WtDtfUJM47EfT8QtBEmf4QKG24wK7o2I5Rv4zwiFeOjXAWOWhVc7WO7ngGV5xeSz8KylwwxGAQQqFpgjNIn90sbYajEDlItgaLD6mvGIvMUNi8EPkqE8PuzMQjczMzEungCn0/3YrnVB5JQ5BQ6HwtRA+gIF+PfwlXYH65l18aZFJfOAYRPHswvxBHmAMIZRvVcNAhktTyaTODV7dtw6tQp3HvfffkqBqouoFUuBXqi+unfv/zlL/MixYaGRdxrgF6nfcSq2MXw8EAeIDzyyCNM9dIK2K9KEExDGLZt4Ec//iFyOdMDCA08UbB4insQUDmgxO9/4cXn8dTTF1OkOBkgHNn7ATqaj2HV+isFQKionCRe8ieX/p4ubCeA0DPADMK8lSuhkc8/aVa4ZfOY1yZ5+R/evcsDCA3Ycv99KIqU86qK1mPE3BBYYj97Agiqil1vvYG3XnkFjevW4XOPfAUGdZei8kkzx30gZEWHqgaZcaAOflTF8NLPn5gGIMwuxXChrJa5zLHbxFU1UfzsWw9iSbGG/uE42k53c7CvKC9FSSmlGIII6iqKQkEcHkoLDULGwl9RFcNNK6DBRiqV45RBNuvAyNlIO0ksXbYS8yuKBUB4mwDCu3mA8JnGWhiGjdfeO4oPDrYibTjc5VOXHGYDPn1tI1Y2VOPtE534o398CacTLv5080p8+5GbEXEMtPfG8fhz7+FUSyduv34dVi+vQ0BTsKC+mq+Xadn4/osH8O1CDcJ5TjHwQnxakaKwWp4qxUAOgwxwZYu9D8gfwUkoMNsckNMwG1V5/hgs1ZN10bMl4iJQp0Atd9iamTpVShK1Hk/DdDUMusXoi7uwbIcbcIkwz42z/TIKr30J+zoyQBjTSIgGaI6rQbVFC++MHIRiJDFPGUZ9ZRT74yH8vqf4jCkGOrIOA58aHcG9yW5E5H6odpB7lKSDSQQtCXuD1fjX4loMyVXCRGQGXiBzAOFChPdPfszLGiAQHe83Mcp/1YusQZit1XJeg/D6Nuw/cAArVq1ATXW1oOxZdaxwyRf9nVawe/fsYeOYa6+7lo2SfK0Dux5S2ZCmMsPw+huvc1OjzZs3c17edhxORRALQcej/bPZDH7z5G/4uPfeex9qqms9BsFlxzzeV5ZZAPruu+/gxZeeR1m0ZFKzpgsjUhwPEA7t3w0GCCePomHxMmy89gbESstEnCcVONtCi+9G/1GZ2zvbXkNicBib77wT1YsXQ+E6dPKjVsT+lIuhqde2cfzAAex47TXULqzHLZ+7CyXF5RygHM4BU8dQKgeTeHxl28bed97Bjtf+gMb163DnfffBUIMs1OJPcIRYiwhbruJWgKO7duO5X/0KOdfCqvVXYOX6K7Bk1Uq0tLTgdMu5OSmed6vl7QfwVk8am6oj+F/fegTLy0j0ayNHhjVpC6qisFESgUYadsUBDg4ZeOx7TyKZNfBXX7weD9+4AppkwzJsnPaARTZnIGNlsHzFClSVlSBpA//xzsf470+9jUg0iG8/fAs+21SDgKRgIOHgjb2taD7djYxhoqq0GFesbEDjogpEdRvvHGvH1362DW0pGV+/eRG+98inWR2fNSXs3HcC+/cfxqZ1K1FeHkU0EkLNvEpodK+bFr7/wm58/4X3oEgq7moown3r67Bp7QrMqyMnxclGSbPVIEwLEPIixfF2wWNzlNcOm4yRyGmRNAWWBndERrYrCytBKQSFASiVz8qyLrwSJAtyFAjXhCGXu7A1E7JiQbJzfAxHIo8UAvrUxtziezKFCPr1GOJ6CQxQp0RyOxAAwXVNtrMmlk00zJKg2Qrqs52IuGkkFQ2qnIZGttluCHuGSYNQipbgYm4fLUn0GcL4SPTuEBbbJXYa9w734tZMDywtCdUKcfWCoY4ipwbxvL4QLxfXwXGoYoFEjWcPVHMA4exjdCn2uOwBgh8w/zNZLZMGYfsbr+Pd995jhTjlBf3OigQUhCUwBXWZ6/zpnyKHKEyP8p0nuIWyuC2IMSBGgd3/yB5YdA7ioMidh0m9DJcrFmgji2Y6Hk0o/jGoZtp3bUulUxgYHEBlrAy333qb6OZIPgjn0Wp5epGil2LY9wE6jh2GrmkIhsJ5K2hXVdingHLWskOiJ9GlMj46woG9vLKS92duhGYfWegPfACkyhLSiTgLM8lPYV5dLfRgEKblQKZj0rhSLpYBE7UucjHQ1Y3u9tOoqJ6HhhVLuV6bKHRxTLoOMqcyyBAqpGroPd2J/fv3wQ1oWLl2I4OETwoQzrfV8o+3H8CbnRmsrIrhb792DxaVBIQqnhCO5AEDFrWRa6SDqGThcBz41o9/i0wqiW/cdQPu+VQTAopoUUxjbztk0+ywA2BQ1yDJCkYcCc/u/Ag/eHoHAkUh/PXDm7F1VQ2CLnXwDCBjUfWCAcNxEKayPJUsgiUosoWdh1rwp/+yA21J4Ju3LsDfPvRpBEntbwPDIym0tp1mEFdZVYriWBEUlcywJGRyNn68fR++//QOBgh3Li7Cg+vqccWaFdyL4eMLCRB8q+VpGITpJnLqRWGPOMh2mnBGwBoAQVAQDe81z5IAPaZDna/ALc4BKgV8sh+nigkK0FSZQJ00M8wgtOsNeG3BPThQezPScpjNihSX7I4V6KITBl9buscJVJQnj2FLy3+gafQEFMmEbCfgSjFQP9/dgzqe7StHS5Duf6qGMETPDQIIDDi4VhGLc3F8bbANK60BpDUXAYu8DwKQ3RxOB4vwH4FFOBCrBhxDiDILq9CmGZw5gHApwv/ZP3MOIJxhjD6JSFEAhJ0IR0Jsl0wlihTgaSNQQAGPNip5pBQB/Y6Ei0IEJgKe7wfR29vrgQJRO0xBix4o2og5oAoJ2l80ehLlZLTRv4WZisr+AJS6IHYhD1Ikl9s93775Nlz/KR8gzMxq+ZNVMfgahPdx+tiRfC8FH0SZkssVDKMjI5BsqjIQbAIJFn3Rog8YJUviVAMFfBJrcWUCTYwyrc4cWBzMaPVF/eMoJSHaB/u0JzdfUlzItkPrL+5JZGsyLMOCLmmCzRBdIXi1ZyvUxVBi4EI9LdyAyuzB8g2FAKEF52S1bBrY8fYOnGpvRWPTamxYu5adImeykWo+UlyKZStWIT48iL2tPfgJaRB6VIRcF021FQg5YnXpkFiTelgw8yTAKzW8CssZpNUg9jWfhmm5aJhXiSWVJQiQ8l1WBAvFQIlGRENQcaApLtJQcaQnjl0nuhAI69i8Zj6WlgY47DlyAEWKDUmVuDyO1txBWYOkqFAUF829I3j8jZMYMiXc1hjD/devhE7nx8tOEZTIqltThCaFzpWalBm2g6d3H8fTH57gMkxq9/zldTW4Mg8QPrrAVstE7E9RJTDNxaLeEo5iQzZUOP0KjI4c3BT3BhUNwLx0BoN/2YZaKUGv1ZhRADW2orSFLVITZDokS2n2MjgeWo7frPgzfLDoi0hpRdAdk5UGFgLQObALlp9LHOGgKv4x7vnoe7ildwci9iizE5ZcBUPKTgIIAkzS+fjlmS7CjoWbEkP4YqIXVeYwMrrMjSolW+U2z3uVKJ6K1KClqBKKazMwmck2BxBmMkoXf5/LEiDQREBlaGN5eKFkF0/RxfNBOB8AIRINY8GC+aw5oNw/pQUIINADQQH7/fffZ8qfgAGJFGnlT9UONAYU+Gl/2ocCHwV6P4jSvgQo6DUSLVJOvbAskfYjEEKMA5ktUf8BEjPSvvQeCp6Uq68qqcBtt2wRDMIFtVoeSzGspm6O+/fgyL4Pcfr4YUjcIlDkZlmjUVyE9evW4/ix4xjs7RVBiblO4YmRb8rkuigqLkXD4qVsyUxj1NraAjOdgUYqciLUicJVFVTWzEOstJzFbdRFMxgMcICn3O9Ifx/MZBokDad9HU1GUXkZojGyYtYZqNFYmoYJ23CQGUnAyuYgEdMhg0WKSyd0c7wcrJYJILzVT0kFGYpNuWMZAQrSrgPdC7jEBnBemVwmsxm4ClXo23Bodexo0Mm6FyIdwQFapvuKVqMaApIB2c7AlHXEEUZOIVbCRQA5aHaOrxs17onIdF2FWRIBDfKgoB9VlmG4MkbdCKv+i81e6LoKWQvAMokWp/tdZp0JG+1497RIJ0mwZAk9dphTIJ9t0PDlddW4mgBC3dTtns9bFQOLFGkemlqDMNU0Tv0LLNlkG2IlG4HT6yLTmYGcI/AqQL//DHCljWYiUBNAYJ4OBCzRMpoeALY1oGRXGjlFwdHgMjzJAOFLSAeKoLpU82DDINDs+AZM4oyICVjY14JHDvw/uGn4VYTQz62q42oN9HQSe4Z0PNNbhtbgMmYQSMxI18+ke0KyoEkSqtJpPBjvxdW5YYRyaWQDpNWxoNou+oMVeFUuxutFZRgIRxAg46QJTZmmC3FzAOHiB/+ZfOJlDxDYK5+83y8hQPB9EM5ElYlFqVfF4KcYdu7kFEO0KMqAgMvsXJdtlOnfFAy7urryK3/yMqCgP5ZGcBhEUGMkClK+HoP+rK2t5X1pYqFqCUot0PH9cWIhlOvyPjU1NWwvTExEc3OzmIiYYZgAECZYLdOqfNLmtVf8JAzC6qYmHD6wB0cJIBw7PK4bIwOEWBE2bdqEE8eOo7ezS6RR6ES8IOF/N/ozUlGB5aubhPbABQ4ePIhcPIEQAQRukEM0i4xlK1cgTOMVDGJkdFT0bKBGTeQSePwEciNxqNxKktrjuli+YT1KKqsYzJHjILkHZpIpqKaL0yeaMTI4xI55jiJjxYZNWD7OKOkcGQTLwI4d4xmEohC1Nz77NhWD8NNtB7Cj30SGVpyQsKC0BJsWLUDIykJzbOSyWdGsiqj/ohK8erIXnSPD3EmRtrAWxMqaalSFCNQmoSoqa2cY6KohSFYGkmugJ5lD81COAYLDAUqCbFuIKg5qy0ugUh7asLgrphzQeXxPD44gTc2NoDCYWFASQlQyYegRWA6BQAmuLbNolzsZ0MpYJpMri68bgbWQlMawHEM2m8YdS8Pc7vmqphWoZg3C+WEQvBwAWk+ewqRmTbMACOKZE+lFyVUhGUHYPSZSHSl2VywECL6wUArb0Oo1qPOIZTBEasxR+J4j4aIhKWgOLMOzy/4cuxu+iLgWgUqVE5LDPQ8gkZMi+SHI/CfNX/UjB3Hv/u9ic++7iFoJSEYGjlyFrJLB3uEgftdTygCBkhJUsmjLEkzSQbgmIraNxUYaD8ebscCiZ0Fh1gBSmkHCx8EGPBeoxsGYzvqdgCmM7rz+4me8iecAwtmf8UuxxxxAOMOon0sVA5c5egDhnZ3vwmYUL4J1YZ7cBz2FVtKFOgVB/4rOjr4Ar3Bf+rufc/ePTccvBAj01Qhg+aWVNLH7qQ0WSE1kEC6SBoEYhMP7pwcIWjiEyqoqxEdGkYonWGjF8wzzpUSHi/Hk6rBAGNGiYl7h0ncnoETfiwIVl3uxQENCaVkZAqEoFJmaDVls40y6D9Jk9PZ0IZdMiUwwdcp0LdQtWIzSkkpeBdNnihbcNjRdRmdrG+JDw7yvrSloXLvpExklXagqhp9uO4gdvRqysgoVJtbMK8Vn16+EbsRh2DmYXstgruaIRPHMvhYc7B6AqUYhWwbmBR1sXbcCS8pjGBzoZzMquueIrSomNiabhBoIoG0kh20HmtFvmhxQXFeDZtpYGJFx96euREw2YGYy3CTI1RSkYOPlg804MiBag1draWzdsBwVJaVwjSyS8ThC4QhkiYS3BvSADkVTMDI6kmfbSJMTDijok0qw5/AR3FCv4d7183HVmhWoram7sCLFs/kgTE0hQLIpry+Ei6RvkdIqpxrsPhekTxD3uEhpUd8GU8nBKjEQmq9DK6b30vuo6JT6GmS41LFXqcHHsSvQUrIOoyrpkwwSLCAnB4RugFgcKGy6RL4IpUYXPt35DFbGT0FWSa8Qh4MiGLYrAEJ3KVpDBBBUaDaxNLTusRGAiWgqjStkA59LfoyInYPmROG6OiQ5CUMx8aa2CM9GG9ARdRGybQRzYViktfYA55kC3BxAuBTh/+yfOQcQLghAGMX2N95gDYJlk1p+7OH3g7hPk/uTAq8wvMA3yT3S0x34AKFwBe3vSxO3/3v/WIXH9D/HX6lwi5hpUgwXvopBAASqYjh9fEyDkB8Tf8ns5Zw98sBbjQiA4G9EmxJdLfLo3jjTyt7LSNHvxMxLcgJKpkKUKjquMJUhoET0tyfmJOqYDWFlVYiziEVhjwthmEP6PrZqJmqe87MSGtdfheXrrpwgUqR2zzMr8fIBwvmuYvjJto/wZl8AjitDt000lMawtqEebi4OF9l890u2NQ9F8G77EE4ODMFRVEiOjVJdxTWLajE/IiOVTCBIVr6SENaGIgFIOQeaWoSupIn3Tp3GkGXDlnWufSdWYHFExu0bVyHi5tjQqigSQTgaQdo08eLBEzg4SjluGyVKDl+8eiPqQxFkkqPI5ujcNGi0OqUwp8jQAwFmMcjUKRwJg7wuwmEJQ0YxnvngA1xfE8KDaxdi/frlDBAOX0iRYqHV8oz4nbFmTuKOcPhepT4OblZBpj2N3KCFoCXcFslnwyLdAZOSNtQSF6GFGpwYpX4UbiGtELHiytxymV61JJV/WK9Aehm618li2bv5CSgQQCDL5WIrgaCbg0MkA/VqIPhogKsYft9dhtbQUg8gyEhrFkIWiSJ1VBpteMjsRmP2NDSb0kdB3i/gOBhQNDwTqsb22HyYioKwRZ0bqV07fcbZObA5gHD2YH0p9pgDCBcSILz/HiwrN+PrWggaCt80FWCYCmBM90FTgpEZpBims1qm86G0xwf7qN1zbIbtnqfwQdjnAQRPg5A/fy89MPH7+CmWwtcpUE+1UWDnCdYDXTO5CIXHn/Z9BBa8KjZKXdDfV66/ZgJAOEcfhClEipRimMlGjMmUIsV+DY4jc246JEvQSbBJdfDUrIqdJakShMCSgqQjI2lmAV0FLBuapKBE1xHmqgIhqqVKGGJSbCUB2XQRlMNIuzL6clmYLmlFxEqVPP+rdAmLSqMwXRPpTArhcAShUJC1Hy19I+i3HHblC6kumqprUEorVseEHqJAKaormElTRTooZ+SQSWdYQ8MVDXIGiVQIu9pbsLkugEea5mPthuWoqam/sADhHKsY/Os47jmnVEpSRqIlASWuQnUIYLkwFYMBBHVftFUTcpWD4IIgHJ1EiHRv+x4HBfDZA7Fj90thfWFhkPY8QwrclTK2NIlB0G0J8YAF3VIQNmWst9rx5UQrSp1RKFR2yQyFwmmPQ3oZngnNw77iedAcF0HbQFpVWdA7gyrHuW6OM3nIL8E+lzVAIMc/osgLqfNLIVKcbS+GkYTHILz/HsgFcQZVPnzpZwMQCvefCkAU3kvTgQlKf7BI8dYtBVUMwmr5wjbEvxAAACAASURBVPZiEFUMR6YFCLS6mrDq8AexYDB9AFDIKIgFk8i35n8vBuvsj9fE903xHmE7RSBBpC6mBghjToozMYm5UL0YfrL9IHb0yWSsK9TvDml5aGhIpErcr8e8eGCK6uUJCEgEEAgQ8OROSn1RGUP3BNsHE6zQcwwiVKKvqayOKkG8oEUAgY6tOhJ06s6qkFugEDj65XzE2NDYkUKe/hJ0JAQcOlcTqi7KcanunjYCB4IgEiVzZIOtEmhwDMAII61kcddCHY821WLN+hWoqT0/AIHvGC/otjafQt5J8VxSDBPuvvwzSdfDUWD128h2GlCSZGSkwlGo8BBQbJKIujBDJrRKGYEaQApRYDaodIBZAnLn8AWY0z3rU80tY/OGCwIIzCAUaBB0x0FCo8+yUZ+K4+7cIG4Z7YOkGFwpJITAMkZVHa8Ga/F6sB4d4TKoSCHgUHWEaG89k22OQZjJKF38ff5TAITxiPviVzHMXqQ4HiDMKEhMuPZnC/ozuVX8cZuSgShkEKYBCFOJFP00BjEI596LYYYAoRAUiG5Y4mufLZBPBxC81/PH8QJO/pjeoI4DHpPOgRUlwvxlWgbh8ujFQADhrQFwkywGNJ5jDZvnMGDwxtTzhSDBIJetezbXlKbxy+T8QCkK5sBpCJDokGM217nxypdy7HljHK7dp54C3oqXczW+mIS0OeQ0KDoPUk6IP9drZnS2+5u+Dlc35IKAnsQXGjQ82lSHpjMAhHOtYqDPIoDQ+dZTeMi3WuZxmHkVw5m+D9+GORlGvw2jy4SSUqGwP4UQNNL42NSTQTehV0vQanW4wTQHbslRWavhg6mzjdvUv58MEChFQaZLlkSMRhZXJDvw5eQw5lOlCwsXDQRNutYBnAgF8VSkDof0+UipYUhyHIqbg0T6hBme0BxAmOFAXeTd5gDCGQb8XLs5TmQQ/lMBhNZmaJyjv5DdHM8MEEjtntcTsFnU+L4MDHgKGIIpV0dTpBj8FALngX3A4R1/4kRWmGLIv897z9kZhNmlGC4Ug0BGSW8NOTC8IA1HgcuBmCIS5cHpxwvYxAyQeZQtHBVp/U5mf/Q3ASjG38WCJRDXJi+MpevErduJHre5bTFcnY/L33Ec4+19Pn+85wPguf2RJmNmmwzd1CGpo7i7QcPDaxrQtGElamtqz0uKoZBBaDt5Cp07vF4MnzDFUPjdJGZy6MeBm5WQ6zZg9VmQTXJ3YApD4FeySYcCS7UhL5Sg1jiQNBcyCQn8HWY2aFPsJQBCYRWDRfeDlEPACCPgJrA1cxL3xAdhklGYrSCjGwgaMnIownvREJ4urkKfVAPZCcDU4rAVG6oVZO+FmWxzAGEmo3Tx97ksAQIFJ6ppJydA3/jnUpQ5nnsVw5hI0bQMpkv9gOubFE0UF9Klp5z/xMA8Mfj5YkTan/LGfvljoUnSVGLHifn1KasYPB+ECy9SHAMIHceOsDWyyKmSIRKthkxul8sUONPLkrfaFeQB1cAzPU12e9zURuLacB47mkjpULK/pqLSMG/VywHMC0Yc7MdKJ4XIUbADYl72fu8ry+m93gqYj8y2zSQok9G44eoJVQxktXwpRIplWLaiEfHhgTGjJAII8LoI8qAJwyJatOdDfr6GlAx5BCtAX5/pf/qu4i/jAzxT3PSaqPLg1J9PJ7vULZBK46isV4XDTjoTUjxETzissxfpJHYIFMK7KeGBd60KT4LNf5wgdCRw9yId969dgPXrVqG29gJXMZyLSHG6uZ3HgcZQiFucDJDpzcDsc6FQ90dWHIg2S7JDqRoZZsyCVqMiUKVBUulZYSmnV8oohI10PMUHD2eJKzQ/ZWwXe4Yj+H13OVqDS2ApLhwpg0guhPlmEvcYzbgq0Y8RTeMKBbqVaJ8hlODVwDy8WVyKLIr4M00lyxbLikMMwhxAuPhh/fx94mUNEEiD4HsH/GcFCJZloLyinI2QuPbeK12kkkMyQqJ/kyqejKEo2NN3ph9SlpP7Ie1TWM5I7+M+DWQCZNv8Ht8tkf49sRTSBxw+aKBj0f6UN6aJYZxR0kUqc2xaU9DNkQACVQSQ+Q6ps2UVOScJmVZHDBYogAgQIDmkwiZaU0yAkkx5bhLFgTrccwSjKVU0dfZ85Ik2p1ccCSbR3xz9xiysJz5K+bQMT7njNxYn8vmQMEuGpdBkqKBx/ZVoXLexoIphdgxCvszxE4kUHUSKPYAw1I+9bb3CSXFQaBDygZXG0nfa9COxcNAdAwx+LPdeHyszHQvdRHmPRw3k108iRY8aL0AUtkJC3fEAwXdKLMQdvIcnThw38gVvHUuXERi04UhhRK007mpQcf+GOmxaswrVtfMvQpnjeUoxePe2Pz50aayUjVyHBWtIYhaGkwyuwY2byOPaJovmqIRAvQSlUvgesNMiM2uEsah3COkXpuk2OSl+OMg4LvYOFeF33ZVoDS6CRe6XkoFI1sV1RgKfy55EbSaBhBqBLGcQMjTEgzaOajG8rC/F0WAJl7jyvUyppgl48mwha45BONsIXZrfzwGEM4w7OSn2tLayTbKYu6anPgX77BsljTEIhpnDtddewx0dySCJgj9tFNj9YE1B6ejRo9i7dy9Wr16N5cuX502O6HUfKFHt965du1BSUoJVq1ZxPToBCQIGZJxE3SP9EjxiX9h22HXzpkz0bwIY/f39bHhDq/RJAGEGKYbzVcVwmJo1HT/iBWKFWwlTpzpJtpExUmwMI8R1YjVPtrTCLMlm4RrnvU2yX5ZYCMeu9mQvTR4RCq3zabIi+pbYBWFTO3YFfSV3vvOF+CyPOfANlsXniTAmFnsEEMiNkPLCZBQjYfX6q7ByglGSYBAKgu4Z7rPz44NAAKFcWC0PDWBvm2e1PEClcBOaCvGCfsyGl89yQgZAnDmrDbjBE4+d11dbaDQIik14HvLlHV7qwfvOLjv9j99sclecSm8wHUDIy0/8z5wMEO7bUIcr16zCvIsCEGZntXym6b2QXGGA7yr/H3vv/SNZcl4LnuvSlm/vZ3pMjzcUOSSfqKeV+DikIDwsFosHQdq3f9bi7f68WGAfCJErQBDEJ0qiHcvpcRzf3dW+2leXy8zrF+eLiJuRWVlVWT6n5yZZU9lZN6+JGzfixPnOdz5k8ywRHSJajCVjwM9U381Ek0CPhBTZRIjGqQDBFLs4GRu2uydATVIch0gvVOdlAMIEfjZ3UAEEgm8nx6n2Mv46nsP3ly+ikThY9CbheisS2mk5AX4xMY5/aT6GeXd8FQjczJRWAoTNtNbebVsChA0AwmaqOXadFBVAeOOtN8Uo6Xvf+y5efvllqbtAVsCwBMzQ4CTPyZyT++9+9zt85zvfwYsvvoj79+/j5MmTuH79ukzqXPUzB/yXv/yluCL+4Ac/EABAO2qaA33rW98S8ECmgiCB1sr8nkkDJBNhYvn/+q//qmsWaAbBiBT3yGrZMAifnH8LDDEwt/6pZ57F0ROnsLC0jMOHD+DypUuo1mpSpIrzlB8EmJiclnz8h/fvIY7a8psZe4ePHsf4oRkx0glyB62FBSwvPZRl8djENJbaHVRrDTHrqbisAeAiIrASl75c7ofUeIAj7ULQVWE6HxmdSlUqZ7JNU8btAzr8pQiYw87VWsXDM6+8hnN9Pgh7b7U8PECQPHxO+IJ4VGZA7lMomEn6o/w2L9ajMDUHjBBBtou7IRrujZ8JENEbaTCh+G+VMaHeG78Ktn3XIbVLEmgAULh46lDPDgCErYoUeUlX+kWKm7RaXnOY6U+ukXYiJVZDvJBg+cYCnDarMAbIE1dqWEg9ESdD6Ifwph00TnrwxmJtpBTASVgd0gcqvVbLaw91GVpphvcejOPnmkGgF8NElOLb0V38dXwJjy/fB023W9448qwFoIp5Zxr/98wk3mkegJc3hjFMXPMUSoCwd5P+Zo5UAoQhAMJWsxjeeOstJGmEsbGmAAOWbebqnw8DJ2tORLRV5ovvaZnMyeqJJ56QiZ2sAOsnsJYCJy4pD33+vHzn+9//fuEqNzc3h8cffxxXrlwRwGCsnLkvAgYej8d+8OCBmNy88cYbsrrgULwqzdFiENazWt6JLAYyCNe++kwmpZe+9Sd44plnMb+0hMmxSTy4ew/Hjh3H0uKirP6XlpelyBCV6+MEDg/u4Z3f/x7tToSXv/0dvPjtV3Hp8mXMjI3jqz/+EVcvXUBzYgLf+8EPsNjuYGx6BnkYYXlhAdPTM7h54zqmpqfR6YRoNhuYn5+XdmIbEVhNjk8I8Dp9+oz8jboGVluM0g46C4t4cOsWoqgNt+rjaTFK+m5PiGFLxZq2ZbW8CYDgpfCcBJUoh087XfY/hl/SFC7TinVKIjWMLMrEugsiv1BLWAU0XU4SWs9BG3CGvVhkTIicrtslwQbNeQQkGHDAWgo8BlkdsVFnISgKURVfIaElqdeggAw1EyJ01FbbZtXbH2LYiEHYCkDYSavlgUON8t9a/aLrYuwiut8WJsFp1eHmgTAFwiaIDTKQVYBghuGGKtAMhVVzkqoAhJypqEO9VjMIzDB5trWAH8ZzeLV9HWMJELs1dQ8yYMWr4J3aUfxs/DBuVqoCmFcH5YY6uGxUAoTh22ovtywBwjqtvWmRIhzx/FdWy/+ON958AxQpqlW8WT0BcdK1T+bhV+kDBmQQcAVrqjwyNMHJn5+RheC/VWnnVH6zfgNfBAv84TYy4GaZ/J1AohMx/JDhiF2saa81CCz3/NXnUhDm7LlncOaJJ8EM65nmNL787AtMTEwW18WqjOMz04jaHSTtthRYunPjOhYWV/DMKy/juZdfwpWrVzDVGMPVCxcw++XnqNbr+IvXX8fDdgeNyUkEnodbc3M4ePAA7t69h1MnT2JxaQkEgARVk1OTuHf3npSanpmawrVr13Hu3NPyWXNsDGHYxuRYAzXXxa9/8c+4e+cm3MDF0698F0++8r0R0CAMEWLIc1ScWAyMnj10HOnislR2XE4i6TcEsASTUUj/Dg76KQ5OTyBhYSvRreRYXFxGbWxKdDPtTkcAMBmZMEuxEnGScqSviqlRwJz+utRUIBMjPgvsr0EN7XZH5l/ZlsXZ6pyAPLGAtp+L1HMQMs2Pq3bNLDBLgsK91NIgbAQQhrPs6R0QlPcCsDqLYXdCDHJ044HEYSP0kNxK0blFFOcj91qopHRTJqBimMuFE3jwD3vwTuRAM5W/Mb0082MFPkQQsJ4PiBIpnp8fx9/PHcKV2mNoZCF+2L6Bv2jfxNHOMmJ3WkJC9YyAvYablQr+++QJvFc5Lc8v7Z3phLHVVwkQttpyu/u9EiDsEECQCnUO8PQz57CwsIh/+/d/x5tvvYkoodWyieeaxCVtUGOZI9mpdJzIz549K4M1QwP8bcRzpNxN2WgWX2IowoQO+NuUeLYHWANARJxowIceOQZVc9yrLIZPCRC+VCJFl5Uq+eN6qDg8zxy1atUy1+Hc4cpExVWnMvLJhQGYmJ7C+OSk1GBgQaG4E+LhPCnRHGefeBIxXQFrVXjVChZp+Ts+LqvkifFxLDxUQlHa+9brDWFpeLemZg5gqdXC4cOHhEkgIIs4gY6NYbzWwLtv/B73b9+R+erpV7+HJ7712j5bLQ/LIOSY8nL8xROn8MPnn8bigzlMHTiExUXqU9o4fOQwkjBCW4pUVZAmyzh2fAbLyyuipY/TDDduzuGpx1/E4uIS5m7O4fGzZ3H//j100gQPWysiET1w4CDu3b8v92jqyDHcvnNHQESn3RJQcOTocdy+fQ8rrOswOYUbN67jzGOPwa/UcOnKFUzMTGFleQVpFMMLKrh0bx43O5wvazLp0Ygn9WIkThNjSRv/+TEPewYQiiyGPm3HVsfqvrlbSkO7qn+7SQC0fCzPtRA9jBGEtDb2pSokt6NYVDIY/ByVY1V4hx2gQRtlCpY9eAkZIAKrFLnHsUhKafWhoBRhnOLd+TH897tH8dA9hhfD+/jL+Cae7iyhGQNtry6ul7VsBSuOg9+PH8E/NE7hln+YyZcqXFQChK32gJH9XgkQdgogIEfi5Hjm3DMyqf97ARCUmt5+KbX22gfmRP/nf/7nePLJJyXEcPjw4SLf3IQPWBL6gw8+wO9//3sRPG72pQR5A7IY9lKk+P7buEGAYGobaIGgbYXV7wxXNJuI2ZjJ4BU2wDZQKsIj1BZwlcWCS+LOB/H2ZxlnKRksK2MVH+d3KH7kMasUpnJlxiwTrUFg6KFRq6NZrePBvXsCRLgwO/ctAgS7FsN+ZTFszCBQ9jntpfjxU8fxk1fO4caNCzh+5nHcvnoPSRbi+PFjGKvWkSeptGsYLuL06SN4ML+InKVJvQA3527h3JmnsLiwgBs3buCFF17AnTt3xECHQOzh/DwOHzki1UPJSjz1zFNSRbQ51hSW6+HDBZw4fQq3794VhoGA7csvv8S5p8+h4o/jrT+cxxPPPYPFhw/hxKloTP71/Cf4xR9nMe80JbWymkUaIHSzGPYMIOygD8Kg59YABEnjTKkp8JG2M6zcWkF+L0eQ1OCwCpKrrKpdChLpb1HNERzx4B93kFVppOTD1+EGmlvk4s64Or+Ax+skGT64V8M/3ppC4BzAX3Tm8Xx8D01WzxS7DAIRMkgOvmo28E+NI3ivehwr3hgcWnERzJQAYbPD8MhvXwKEdW4RsxgoUhzGaplTDwHCuXPPyMD5q1/9Cm+++SZYgEcS8OwMCNtGfcDxuS2Fio899phkHJBB4AqWQIAMAkMGFCpS2EiQYCo+rnUpW3VSXKsWAynk7ZR7LtIcLYBQAAFmK7jKe89M3IYNMeZIxe817KmNkZJYA5NV0Wl93CdBEbMj1L61D4JUcXREtGi8KCTerm19+TeJEHmuWAYzq4Ln6NFK1nFwjiGGHoCwH1bLwzMITSfBnxydwiunjmK5vYDJAwcQL4RYjJYxPtZExfORxykqDF9lEY4dOYiVVgcdginHxf378zj3+CkJRbRWVkQjQwbGc1zUgoqs/A8eOog7t28LO/PUU2cwO3sJlYClgYEoTjBzYAoLS/OikSEL1Gqt4NTJU6g6dbx7/n08+/KLuM8S5mmOM08+hV+e/xg/e/Mj3M6qyJ2aZKvADXc1xGAbJfVYLWsGgc6T6rUefb+FOUBsNmhQpTwSxEwp9ZC1U7RvtRDdTxDEFdZ0ZCFslVFCEyxm9dCS+YiH6mEfqBHA8hwDreNQk7xSenRftGFYTB1culXBhzeAI+4EXllZxsG4gzigPwULSTFt0sG838QvJo/jzcoYrlWmkbMqJVRBupJB2MK9HvGvjCRA4GQhMclarYi774cPQj9AWK+oAhF2P4PA1X2sTUWENNAgQdLHLMBgWyKbbbiq4g8zF4zPAbczmQlMvWQbka0Y5CRYTKprpGdKAtsGtRh222rZhBicvoJLJlxqPB2Ka7Gslk07GUahaANLCKfS8brKeWMhbNInCxrHqPOt1ZXk/tvjqAYMBAgq11znP+piTU+98u2eEMMYwyObSHNkfKozQKQ4NmSxJgKfYdMcuTJt5sAYK/x5mSjja5mLlhMK4BFqOwfq1Zrk4NNZk9WISUMzbZR6kMPTdXFkVOwV899zZHGCmh+gGlQw1mwilrLaCaanmhLaSZJYmBuGLur0BIkTqdoYhRGqtSoOzMzAzdq4ff8upg8fxIP79ymRlOyWjy5fwzsXr+I+fS/cmmRg0OEhc+qFD8JGDMJWRIqqD/ZZLe8yg2DmDNFMSB9UTpR8ZpPlCJ2bEbIHOYK0KiBCdAgMJ/C9GyOthKgdqyI4lMOpsYqjqWtBJk3ZbNvjA0Wg7bSC23MV3LvZwuEMONKKUc08LNfoqBljvOOj7TfxcWUc/9A8jcvVClpuBRUx3iKIUGnFW32VGoStttzufm/kAQJXy6Ql9wMgbMZq2TAIDDFwZfXWW2/h008/FeU7RW+M/RuPAr6Xcsv8rV0WWYBG/i2qb65QVZxQBig6B1rOfvbE2e+8aLMFNvDo70ZrAoQhQgw7xSCsVaxJ1QNY/TIruvX8KNZ7XCimUnZKG7/cVE2Sg9pN2o73RH6AZ6Waow0QNhdi2Bmr5eEBgpjocIJl9URXZQlUUyAMEiVmo0pe8u51fQRpNKbYBcpJgvbKaUvsgSV7gQBPKGaaVGknRP6NIQlRIboqjVTbY7P9mT1R4aRm6mNIpUgyMiESroR9T6WbwpVU05UkxsM4QiioSxUnclmmexdFijaDsFtWy4N7onLqFAbBEhemDsOVOZwHFUTXE2TzZBk0yMsdKfLE5knyNpJ6Cu94gOqRCvJqqMpA56yyqdwZexYQWY5kOcCDG1Xkiy3UkhWxSfYQoF1JxO2y2Wnii/EZ/FO9jveD41gK2IdyARExgaY4l26dSSkBwsZj0n5sUQKEdVp9M1kMqa4+d+7cOVn1f3XhgsRfRbyoQQAHS/6bFDXL2lJUJwJCEn8EEayKx3z7JEGaZhL7lm1j/luDjCxDwhx+Ag5uJ//mwMHtc0RxVKjFzfeN2ZA6lgYm/F6W4OD0Afz4hz/Gn/7Zn2FRQiqzUs1xvVoMYpR08SLePv/+8OWefQeRA9QmpvDCiy/h0/ffw2fn38H1Lz+FQ8tk/ZJJRK/SzYpf5iS9PjGfdRkD/k0bJGuGQTsKr7qzAhCGFFp7KVdlvbso2AptLGQsi1W5514GYV+slqdm8OS557D04C7en72N/+OXH+Hf5n1ExpNAZgWxfILL8EvmibCWl8nUuYRxaj0nkZEQ918pucwpQtsqS2ElAoJYAVc11RT3R9ErJs6tvQ/oKaGzF8x9k5LF1OHp78uEL1bjFNOZKlEEItxCezUQOBj7ZzHOonJ+P0WKO1OsaTAK1b3NYqHIBJCldKMAWPARXQuRLeRwfVVp00tY2ZH3MVIpkIGLCsMNx1xktUgcFj0xUvKYxajcF90A2XKIzrUY8YOqAMUcoYhBXe7EiREgwHJOcDCNXx6YwVJWU7UWMjqZemDdBvYj3Uu2NI+VAGFLzbbrXyoBwg4BBIp3cscVF0SK4CgulMmdNKso7hUbkGac6DkhckKnECyTbaja5+ekeD2aoUjBJAUmsowxc8UsyDjNbVwlnhNHRpnQFfggMyFDKsGGpJapYxgGgymWAjZYhlfyzIEnnngSr7z6ClaWlgUgcFW3IUC4cAFvv//BJgCCLymMtclxvPjyy/jk/Pv49A/v4uYXHwMs7CNFf4yfjp6ZTXigKFajbpbRGKi5hZOabheZzFRePwdSIwbtUp9FpYUNHyzZ5bpFg9QkyPt07tXv4skeo6TNMQg7Y7WcojE1LYZTi/P38eHFW/hv/+Mj/HK+iqiIlev2K+LQvVxK4bzHvmrCPlLpUeIr6jMT5rHFbvJ3BeIKeoZ9V7blTD6s2r+I9ax5f4yrJZ+fzfogbIUCXzvNcYesljfsidYGGasy0EWRxbBcePcDRNdSJIuh+BB4AvgyRL5KNa3FTUTVNoKjrqRB5k0uJBJ4ZBHyCsAKkgsddO514C4EqMQe3Iz1RYCIthVwUOu4WPaa+NXEDP65MoM7jYNSK2UoGm4T11YChE001h5uWgKEdRp7U1bLriuGss/QEfDoUZmYFRWuZj01wQOZBgOyKiNDYPkg8N9RFGudgZrEBUAksWYXEskn546YK05gwe+QOeBvAowsSoqMBx7fDmv0hGpoVlMhJemIAJIZEwyN3Jwlg7AbACEA5ZoCEF56CZ9/9DEuffoJbl/+CqkGLcKe0KxH084MzXAYluvTaY1sD7WYVVSAKjWsJmtpT714ZfEmY6xjQhKups6He75Ima9daMaEeQgQnn7lezj7ip3muEWAsIZR0jDnm+WrAcL/+T8+xq/u1VYBhMxJkbmrr83GQ/3ZI4LFCnCw9hkVOpshth3muvq36YaX9hsg7JwPwtDtkHmSvZAGLakp4qV1JHczRNdDeC0fbsKJn6WYWZkkhZ8HiJwQsR8hmPDRPDwBt1lBRrfQpQjRUoSYWoO8jkrHQcxUSCeDn7PQEhD6LvJ0Gn9wZvD/HJ7EjdoYDiwHWKkpF9GdfJUAYSdbc+f2VQKEDQDCsFbLmeOgk+c4c+aMWCRzIKNfQXdAUwp6TmxSn40xYBG6dUXQis7tViFUMxxnPEXBmzQ+k9Zo77sYwDlJJqqIkwEHxgfB1jiQ8m1FoQAZiiAPHT6M23NzuHH58nAA4eJFvHOeDMI4/ur1H0GxwsyU55pRFe3xciDqhAioivc1QJgYw3MvvojLn3+J+Tu34TgUuan4tOwhS3UIhaEWnVVA5oViOMOEMAVPwBXDL5GEaggiGHoRUMV9JLGAKXPtwuIkpNZVjL2r/1CrXNlO6z+4Ccs/5bmxE1b0d1EbwhAc9G/wfDz90rfx1Ku9Pgh7b7XcBQgL9+/ig0u38X/9y8f4l/sMMQSWxTGdCpXwrn/S3wggrPWorKd1GRZYDDukbQcgbGXZWzAIu2W1POyFczvGyBIH8CNkHk2QaMkcIL3nI7wRw1l2UckrsphIWKyMIFCqn6pKpxJgDCg4zWVI8R0fWZojyD0RG3aCSMAF7cqD2MNDp4L3xw7hnytH8EVjWhy3a2mIDJUhlTzDX1wJEIZvq73csgQIQwCEoayWHWYDK2qWdQNkQtdxVZlcPFdMfFRFR19W7a5Ok+NoTbBAQMG/83Oqu/k9Re8qcKD250ihJUXJa8GYeOJSHMZVNCd8Xxzn5Jt6Juh5rz0EVOE9U3lNpS7emL2EQA8o61ktbzrN0QIIDDHcuTGH+Xt34XDA0voKnq49cQsrwrREl2I2KrlV6MRErhlWIThgVUfjdWBi5xQYEgSliRoY2VYiOhQAoUABj0X9hmFiVJhGhWOQJfLD9xTLEXApgKX8I/iexj/0TTh2+gmcPvfsPlstdwHC8sIDfHjpDv7bL97Hv9zPEYlNsbY/lkZWxXxk8lYzuOpjZF30axCDsJcD08bH2jyDsBWASxFd0AAAIABJREFUsOtWyxtfaHcLqYqtGTPDnDG0GVeRPgA6N0IBCZ7cW2YfkG1UYN3V6K+opyWfmZvN++4hdzuInQSRV0fbGcMX7jj+aaKJT5ozGO80ATfCg0aI8VBlT+zkqwQIO9maO7evEiCs05abESmqrDimEalR14QORMBlVsdMeZQBOUOaK3MjWTezTCpDDpysdbaC6BSI/kVgRkCgTHw8AREKbBgAIfn4Ho/twq8GKj/fcxUA4W+CB4IUDRpcn2WVlW2tOrZ62K9fu4YHt24j8NSKYy0fBBEpblaD4HElm6M+MYY/ee015XPACZpucBSm6RCMWsnrFb01iXOSZphBdBwCKNSKP04ja+WvRJ1kGkD2QGeF2EZIcl/0asroMuQ7WmFvKjrK+KsBS/c7XRZHQgzi1ZBJieqpgzM4e+4cZmdncf3yFWw2zZFGN8x4+c1vf4NLVy/juReex6svvYTxIdMcJcQwOY2nnn0WC/P38OGFOfz0jS/xzr0QkfQrFSJgimIEH5Fb7QlvcQOaF5s+aPQDFGKSHSty/XXfltS7LpwwPVnkiqu07GYu6ZEY6PBbz/O36pt6TreNQ7pSUQf0ZahjLF7Bf348wN+8chzffvEZXe75Y9yau44qAXkBkjc/qa2tQdiHEAO9Ebj0JwCQoheUyeSQSs9xgOwOkNxOEC5G8Bx6I3S3MZ7LrAypboPU/ZZ9ZPCR5xVU0xCR4+FmZQJfeuP4ffMgPqvVEPsBajGkBHQryFGPB1Ty3OacVAKEbTbgLn19JAECB25mAHCVzVW1ndanZMybf9C30n6bAQhq/2ogM1I4ExIw5y8rfBUt54JfD8Y9lgh6MWdU4GbhpwZTUeubwb5vGFYCrFwZ+ei6CwqcdEEA05s4kZivGhEf3QLJStD0hvUKmKfe0+b2VCB54ZvPYshok+wAlVoFz7/0sgq/+B79X3QdezNh5LKSJWMgnInOYOApyCpIVsLqhExbyiBHZsGeX7RAToCbZIMwa0MxEtI+DFfwvWEF2HbUdSQqsyRNVahCsRQKmBRZKMIgqHZmtU7mn09NTODI0WOYvXQJ12evoFmv6m46YNLr64xGpEhTrV9vESAQ5DSmpvDUs89g/uE8Lly8iitzD3E3UtfNrBjjodFhxUs4kn7b1agAHTTEt4PtYJgSgotYu25KG4qoNkPbqSpNjW4fXlJMAR1rAOgwj2mjUMifbqaJWPXQ/Y8pekbcqOghJTjVj7f0aDG1olMgt+ftV9oS2aMu8d2Ml/FXjzXwt68exXeffxpHTpzBJ3/cRYBQWC3vUhbDGoOVKb+tyjmrRqIoMZaaCy6CTgPZPLA0t4h8GahEqkw9PQoUnrPhm/a7kIHIh5dQV9DC9eoY3qkewYfeOGYbEwi9QMqnMzFbZQAxy0gLUrcyqK7xnRIg7GBj7uCuRhYg0BOfAIGU+9cHIOzgndmlXXFyN14LRTzXqr5XhC7WGqQMQNgsgxDQsV1pDWgAxfsK35Myw2Q3iuNyLPMV2yHMhw6lKKBD62Ol61AsCcMxin2R0IthSRiS8D21Xw3cVDRGsSUC3Ew2hMZ1BeLoQrE+UZ4KTcggbUCgDnmQqiWgIUa5+MWXuHZ5Fo1aTYHA1evpVS27E1kMPHZzagpPPnsO8wsLAlIQJ4gpVLVAo2I+OF+YzBh9OgyRsQaGMCwKHMmUkvCHbIwKyRBQEHAssLKgZr3kszRFlAJRrupoSEhGZ8usuDwVnc3DUHqaoJO7iHLWdjDgS4WPOrGqQG1ALvfdzhyEmaevQ21HEBLrTJ96vII/e2wa//PLJ/DaC+dw5MRj+ONuAgQxSrIZhF16WNfdrQaezNpxlZ27Rx+EJEC6kqBzL0R2z0cW58r/QOuClLeCZh446ZMqo4dF4OCu7+J3mMHb9VO4XRtDKmW692YxVgKE/ehDGx+zBAjrtJFxUqRroR3D37hZR3cLM0Go9YR6beradOohvfU35YMQePS9E6EfJxM5vgYbAlQ0M6JOyEzC+vwk1c4FqK0gGNCpd6IrIBjQGg+j05CwiYRPFAthhFpGaGgAiYRcZB8qPKP0ISosQwBCkKGOpY8pKaiesB8SfjE6EN2OaZziwudf4ObVq1JoinVxhxlflaXuNp0UM2BMAwSGjpbmF5RYlbvW/hsUfUrNCabTysSsQjJKd8GQlqpLIZkxenKn+JM/ihXQ+gyCuETVf1bAS/sXaNsDVb3UMGQ5nKCiw0aK5WF6Ls15acFD/xCjg2F/CFNXsTea4RE2EQ5CkuviDaIEqhKeYpkgHiqJcXyqiicP1fDCs88ogPDRx7h9qzfEsBXm0RYp3vz1T/G3J27iJBkEHfrb/yfdpJNqvTPBL0N2kYP4gYt4KUSyTO8EB07sKRBB0OgnyIIETs2BU8+Qj7n4YzyDv394CBcaZ5D69DjgvRnSOGSbDVEChG024C59vQQIQwCEYUSKu3R/dnW3G6nPBx3cTOoKIAyfxUDTFoqwTdhFTeYMG3SZ+MFkvPpUuchrKxYrjGPOUfar00b5GSlRFcxRYIMTGcGEmrg48CngYECFEYraLINhJASzaHBgWBfTdiIYpbiPWo8ceHD3HsJ2G41qdeho2E4ABE6qY5OKQRibGCc2kevWYWgbCoqpVpKzKqYScAooSDP4ND4y+g8NCCSkoNvVME+yAmUoRgOHrnaG4k6dYSKAjwAEiCKGbbTpVxqLct5JKTJUDAvBgNE8xISRkrqrwz9c3Qoo1GnBml1QWh6GzFS/8jz2pwTPPPccjp04jY8+/BB3bt3o0SBsFSCsslrWACEXR8eNQ0i7+hCzb4rbFVEbz4WsAFOsSdsEUr8hbeXI2vTKJrDzpb/mQQrUAbfuwa0mSJwYby8fxv976yiu1c7Ay1numxqPYT0stneVJUDYXvvt1rdLgLBOy27Ganm3btCo7VetqDZfrIkAQeoX9L0G2RkPvGZVPWlo/YnRV2hTRkuxoCs3mqwPPUEWSn59ikrY3xUvmsnFrI7NClmKPNG1jsWbeH4USErIl1qKviJda93MdRiEYUWKXF1Xm+M4efaMmFcFri8siFgha5GsADJjES1NWcjVlN7DxJZ1jF8mbtZEMoJE7cTJy0g9FaahZqBoKl6zzhARcCLaBYYsNGMkZIG2Ehenxq4exAAu5UiqP9fGTBLi0LoIYTq0X7ZoRLRoNYpTpLmD46dOYfrAAXz0/vu4e/sGKtsQKRYZHg6w2mp5H0SKA/uPtmS2dVnGDtPV8RqWhmabiSul1vGQAJO5n7qPDK0sx3sL4/jZ3EFcrT6hjkS/jBIgjNoQvKfnUwKEDQDCsD4Ie3rX9vFghkHYtNVyQL/2rcczZfIahq/XbVNYBlttpc5dRj71aVcLqsZD+Y99jmqCK7QaOiVUj55qcOVKW9dkEFG41DBQ2SfKmXDjFeaOiBT1FSjTbVrvM/bsiBCUK0ayISrzhRMEQyf6Mz+QrBhedq3GDBgVtqlUqaFwkEloR6XVSgjG9+G7HhpVpvKK3Z7VbiYubgO5nkBW0eycfORMrSZSpuOs92BujrorYr1tbLQtd02lk1DtTVaC7yTLx3fx4fnzuHf7FmoOQ1A6s6Ln3g73EA3MYtgnkeKgM1ZtZYEEyWNkWIBpOJ2uoNOIP4tKaILuRNzI3IilzMEH8xX8w81JXK49jcQJtFHY3ocYDFhUj6POxNDhSOkZdl+wtime076GGsSU2kB/I93VcD3l0dxqJAGCxCLDUNT0pUhxtDpeL0AYPsSQbxMgjFYrrH82ZuW51oDV/+2dECn2DpzdCba3LIKekAvthAJA3ZeemnV4QeZuvYGkxerVJ0EGMyKUZ4dKv6VhlFfx4QbKy4PPbuHXUQuUkNRxEFRUNccqn21qOYRryQvdB7NoVEqvEp/qnJ8C1BUgTtuEG4Ri+iWzSjg5fvz+B7g/dwcNMimOsg/eBL4smmTUAcLaPbEP/XavyALGXbpsJQXen6/hZ3PTuFx/SipEqloXewsQvvvd70qIyUzaRVhrABCwny8jvjaXOSgLqwiFCZOm9Ef2c/N1GmP26lxHFiCYNMf9BAibsVreqxu238cpAMKmsxi2xyDs93Xv5vELgLANq2X7/DYz8BVZHfRI0OJRtSbtvkw2iNGPUB8g4k3qPoqUWrW9wRviXClMigrB2IMzPS2KScCltiCXSo4Uf4ZpIgCDVVzNufnCcgTCehBU1GpV1Ot17euhmQ0CC5cAhAyChy8/+wxL8w9RcwP4FFGqAomben09QgybuqQ1Ns7RTh2cJ0C4NY3LNQIE1uUkH7U3AIH387XXvo3nnntO+oG5/8J8aVEw+5AAUg1MzSRvMwCG6WL/4nYGOPSzCDZLIf19C+zSTrT8qO9jZAFCu93edx8EO4uh7ER6ArB8EDZjtUwNwnZCDKP+IG3n/HZCpGgfv3/wG/bc1qNo7QGWzABTGM2LA7UAR52A0tVzmJRSnSJK3QH/p+toSEaFBhkKaNAK2DIMk211/FxnTPCYFE6Kg6b4ZCgdBbUI/HfKzBGKMJMYzWodgbiVmmqUw7ZEdzs7i+HGr3+Kv+vJYhgNkeLmr6rvG3mOVgq8N1/Dz/cJIASBjzNnTuPEiRPFZG0Lmo1pWzfryGQfqT5gAwkDIgqGSwOFrlOtAh0GQBgA0i9QFoCrAYk5hv0c2J8Z8CIgeUAdEhvEDGI3zB2xr9nsq/+5HBQyscMuNugf9Eyvd/z+8x9pgFCr1QqjpKJL76FRkgEIj2oWw5YGli2mOZYAYe3WXg8gUKS4sYphS3dyV77Uf64MebMmx7CL996si2LYXJ1u1ysVKbIgaAokuf19JlvDHn9Vo2iV6+ULl3DzN/1pjo8GQOCE0U6xrwwCJ+kzZ07h1KlTGxYFGwYArzUJGobBFK4z4NYOOdjpz4W3itHgWOyF+ZsNRGx2o/+7Nrgx7+3j9v/dBuA2gDCLVTP5G1Bhf74WMLD79yCmsf97JUBYZ5jcvJPiroy5I7XTMsSw87djpzQIO39mm9sjJ/dVE3wO+Nq2epi9Dc5qGT57hQDB1Bso3BvtdNphTsLaZqAGYZVR0tcJwg1qACvEUGgQ9jbEsBmAsNYt7AcF9sRpQlyrJkDNYA3bLcwx1gtJ2EyE/d4wEuYzAyCG+W2Ajc2OGEBgp2MbVmQQGOH25u+G8bDt9O2QTXGds7MXcwqO9vXldOlKcyMZYthvBqEECKt7RQEQNumD8E0SKW72WdqJLIbNHnM3tldpj6v3bLknb3hYI7IfvOE6PEA311IBBHuSpwfGFufwgQBhhLIYNmzQYTawQwxfY4BgJkz+7mcZ1tMgrDfZ26BjPWq/v5k3WsEPCiXY52/er8eE2AzCWuERm8UYBEQM8FgLtJQMQskgDDOEFNuUDMKmmmuojR8VBmGoi/2abbQeQMiZ5imvLaKPkWmLR4NBGJnm3IcTWS/sMgwAsrchkChExKPIIJhiTfvNIHRWljF3+Qoa9XpXWLUPN3+kDllqEHb8duy0SHHHT/AbvENbpDiaVsvbvzlGg7CfIsWdCDFsvyW+GXvoBxN2KGYVEzLKAMFUc+y5gD0VKS5hbvYq6vVa4b3/zehCa1+lYRC2YrVcZjEMbtcSIIzuU6X6O0CR4o3fPNpZDPuZ5lgChL19BgaFS0xoxmYTRjLEQAbBGCVJWWBbSLKXAGF5CXNXripTF61e3enbuJadyU4fZ6f2p1ZUm7daLjUI69yBHbBa3qn7W+6n2wKlD8Le+SCUAGE0n7yRBwhGdVk03y4BBGXUqmOJuiBM3Grh1oVLCIIqfLrEsfS0NlwxUccCiRmP8777rLK01ctIrJiFJXFnJ0PASnUsNEOfdCdDoq1wlccvv5nAYTUasYuVzG/1sa4TYCZsA6JYeU88+KV2C+12eTBnlbpc7IBV0b2e1+A0M8ud2PJBeOv8eUxMTOCvXn8dPi13JRddfPHkPJneFnVCBJ4v+e0lg7A2g5CzpHEc4de//Q0uXb2M5154Hq++9BKGrcUwmsPL1/+svnkixRlcrj+550ZJJUAYzWdlZAECMyvErtWyxJQm3BWAwNQoZQovameWmmWN+4UV3PvqEsYmJ+BWAvEVy1wgKWxbjVGLurn5AAm3nV5jwAItZFcqHqp5gqmVCPcaHhqxj5koQVhxsZgrG9Ba2MKY66INH6nnESqId7qX0eef9QppPNMFH3SsCwMHWe7DzVz4WQw/j+V8sz6nMH5P0s/69FUCEAaIxQ1w6M1i+IMCCD/6MXwaimjAYbYtAcJwD30pUhyunfZjq28SQJAQw9c8i2E/+sijfMwSIKipXQEE/qSZlKKNoxgLt+/i4fU5TB+YFhtasWsVKkBXRDM9QwrWOOJHb9MFskoXgKM85c0crab2EPXZW4g+v4zo0CTGxqeRXLmJhfYyjj3/LHw4WP78opTCjb7/MqrTU4jErCMQ9iHxMmRuDo8Oc0kqk7NHy9o8Rej5iP0AuZvCyRNVTEjOofsSA5sBDMIgfGCnr9lZDO+ef08qB/7kdQUQyEiYbbmfEiAMN3TstNXycEctt9qoBcoQQxli2KiPPOp/LwFCH0AgOGDJ2narjWi5hYV799BsNiXtQyrh8SWV8vRkyJK0BA4ZP+6GKEzHKYqN2Ct4N8V4uIzkjY9w8tBBtE8cwPxYFbU4QfjFVUxFLtoPF9E4cRBJxcPSnduYOHoE8502HI9V9Fwkfo7xqXG0FpeQdiJUpCyri7hSw9jZs1iu1xB6siUgVrMqJUvOW1fg6wmP6BNmWILXx5cx0eC/+hkEihT/8C4ZhHG8/uMf9zA9xnLXBgilk+LaQ0kpUhzdYdbOYiitlnfvPpUhht1r2+3suQQI/QCBk2OSod1qyUR54+Z1jDUaEnpQkfXVtHz3BuhVek9Z4NWmHUGe4OCFq3j4q3dQO3UAS9MNOE8/hmysivbHX+CJOMDczZsY+/7LwhQ0//m38CfHEXouOnGKalBFnicYG2vg7t07OHLsGL768kucffZ5fPVwBZMvPo/s+HF0PFXM1c1ZltfT1Y11BTNO+vp0lae9vgor5GB/VGgTrDTH8++8KyGG//T663B96jN0+2jnuhIgDPdoPkpWy8Nd8ddoq9JqeU9uVgkQ9qSZN32QkQMIFOdJFsN+ahAIErIcK60VXLtxDePNhqy8fdL5egW+ynNeNAiGxtf0ApmFAYU7XDdD8/I1hO/+EYdfOIu7d+7DHZ9UIYqlBZw8fhCffPU5jj71LLwUWPzgPKozk6jMTGM5ilGv1JAuLqHiOJhfXsJTL7+AN955C6/9yXdw7YtLyM+cBk6dRMdxtM5AYIJiEEyJU0otDECQynzqHyKj0MiARW7Me1toyT+TQXhPGIQJ/PDHr8PxPWSe+iJDFwRUZYhhuOex1CAM1077sdVADUJptbzjt6IECDvepDuyw5EACLm2WhaBIFffWYZOFMKvVqXWfI8T1K6IFEWFAEfP/lTjs0ztyvISrl+9KgyCkgeql9IhDGj/QqTYBQhKe9DdWNIaswjTDx/g4fnP0PAD1BKVGtFaXEZ1vIbaiWksrCzBXU5RTV1EVSALPPjNBtpJjGqlhmxxWcIKC50VnH76Cfzh4w/x6suv4NbFa8iPH4F38hgi14OfsSRv1wLXlOFVkszVr1WXVXygBJyidciB2QsX8c5HH6I5PVkChG0+io+K1fI2m2Ekv/5NEimKUVIpUhzJfrhfJzVyAIEx8DzN0I5CeLUqfKYW6tQ6NTsrwd9evHatFkMeo5K0kd15CGd+BfVqFbnvIl5aQcpMismG1KFo33kok7F34iDCJIbju0gIXjwPXpSIKDBCivrkBG49uI/D0weQP+ggmmggGa8DbiAAgVrEXJvR51pfwPYrAI/NclioIaOwQkMipi/yeB7TMeMEVy/N4u1PPkZjSgEEhhjIIKj0ypJB2Ez/LBmEzbTW3m5bMgi94ubdav2SQditlt3efkcXIIQECJWi3HOxCt9DgGDKPTeEQdDZC9trbzXdsuJcniKIcwS5I1qA2AWCVOUdRp4KTVQZ+E9zxNVAhSpcpjDSa0Ct4kkBSGaF6yDOUskkqMU5Eh+ImfGQM9WRAEEdo+dF4GF9YEIhsr8Cf3VVCDxnTvx5ksBJMly9fBnvvP+BpID+iBoEjzoHtb1AuL4QQylSXLvjlCLFHXiodmkXA62WJcRAyMxyz0W336Uz2P3dllbLu9/GX9cjjA5AoLI+JXuQCoNA0xi/WkFQqewbg2AAQrPRUPe3z0tgqzddpRjSTEERIvRBoleBLyv2XP5dgACmDkqGgvrMroxnQh0mXMBJPHMzlbKZM+Uxl5AAjYuyvjRH7k9Ahg0SKFzUB7IdHmX/2lUpS1IJAREg/OH8B5gYn5AsBoaCBEDo75cAYfjeUQKE4dtqr7ccaLWc3RSAkDEZWfQ7e31WO3w8Xc2xtFre4XZ9BHY3OgCBkx/9B8IQcRiBdd0rjYaYJT1qIQYRPGZKJMgJ2azaJcWQWgiTLVks4NXka374Mb/DHxsw8N/iysikxjyFC/ogUF3hFyDD7rMDS+BamZrF4eVYKp1T0jaRY/bSLN45/z4mx3t9ELh/w0CUIsXhRojSB2G4dtrrrdb0QSBAICvn+PJMfN3xAcecduqgBAh73cNG/3ijBRDExTDF8uISOmGIialJVKpVOMZ/QFkQiGOhiAYV798nt1Nmv0W5yr4/F7XiTdyd8F+VF7C0DWr9HC6v4PaVK6jX6kpoKP5IRuavlsuFun+Q4s9IJvr6gZwfV/tmkjfMgKRSqhACXwIc5FrVVXIRz0m9HyB0z9xBCo9Dl6Q3gooGWdaTgbADCmr//S6KvBgTHrCb1TAIXaZCZTG8df598UGgk2IgRknq3FO9pCJAiGm17PuisSitlgcPCCVAGOGBUuzKgdnZS7jKYk3H53AqvSEo2HEVQDAP7EZAgSBbOajrrCGCbo5kfNDF7VQNKPLvIZRWMoTJ8VNtE2/FEWUXQ+oHcgIEgCLFn92axuXqU8pq2SmNkka4Z+7JqY0EQGAHNy+yBZ12B/fm5jBRH0etWZMUutzl1AlFZfdlNvRUnxLKr98CWQEGeTGOz3Q8s1LWQGGQxiBcXMadS9fAEIPnufJwq9dgNKCm8t6XTKp9H/P5p+ZAAIeV8CDpgXty27d+kF6r5Q8wToDw+o/AJlVqB7IiyjGC2MQABPi0h95oCN36eX2dv1mKFEfr7qlpW7NzGQN0wMVLlzD7u5/ifzs2hzPJdVUTxatK/ZRiYDD9e0Bqcw7WWeFE7sNNKxJOzdxYysi7eRUJLdGRoOJVVV0WxEUM0Cxe+GlXOKxHG4egPBamEBmd0bgQ0KsI0FSt7zXoEeSYm0AYhL+/NY0rtadkoQEChAGhyd24W6VIcTdadfv7HEmAwFS8+Tv3JH4+NTONBIyrqxU8/0Ylfk/YQbeDAQoEEDaI4OfGFZAiPyknpEFGAcKNfbIVfI+XW7h+6TL8wBfLY9/3lF+A1E7y9D4VWBBQolf7BkJYi4ueO6WL93VBkbVaGPUpdKNqjmsBBDIIX/9g7fYfuEF7KBmE3WnXrezVsGTm2ZXJOstwheWef/33+Jvj13ECN+G4NAajIbpM25phXOfppc6I2qqFBOkKUKs3ENR9hK0W0jBBZWwMTq2KcH4RjpsjmMqAWioAQq1JaAffdTRV56fGHC8lC2EQTXHmqxmE7rpo1TImTJyCQRCAILqnEiBspQ89St8ZKYBgKhJytZ+0Q4TLLVRrVdTHm1JsiI+iTPTaTKlQ3mdZwRAUVQ0JJPhQWWie7/m40QCIPgfaJE0mLo+x+x607CBJYty5cwcffPABVpZXEFQC0USYnyAIhD6ngp/pmKxaqKpPKoBC1sF31A8fdIVxNLthi5uMbbM822qQ6dog94ojB9XxtvmM3QYYNoPwzvnhGQQChJJBGDx0lCLF0RpSbYEudVGsz3L9q0u49Zuf4W+O38CR/IZkDnESNayZfQUFoynhyyJ+iTTK0X6YIVty4MYO/IqHTtyB5/tIOilq9SaiqANKG4I6UG0GGhjoOCmFx40GUmq0MsW6ysKEY03DQR5EEoN0c18hCVtkZLN3/YOEZhDee1DFz2/PYFYAAlnAtGQQRqtr7vnZjBRAMFcv+oEkg8sUvzRGrdkUf4Ai3r+FZjI1EcRXIM2RUI2fU3DHOgqMDaowhBEm8d/MJojcHJ9++gkezi8gTmLEsfpJk0S2z7IcKR9WPryuJwDB/AiA8HxUfB9+pSLhEYILfkZK0LwXXwNPMRImhCIsCD83Kwg1GhTgQQCOPvceI6ndpvEtq+W3z78vxZqGDTH0V5Tcwm18JL9SWi2P1m0tWEUJ7+fIkkQYhFu//zn+66nbOJzf1CfMVbbKPJIV/oDL6HVS9VhuFeGdGHkLSOMMwYSH+oEx3P78FmpBE7WZOnI/RfKwAzcWyTLCToRqvYo0jtA8MIPlew/gBgGSOIYXeHCqDurHq8BkjMxL4CcVuBJuiNQZmTFBMwj958k/h6mLP9yr4P+7O4PZypNIwPGoBAij1TP3/mxGEiCwGSQeT9GbR3OgrKdc8cBVsu719vxoP5ycyIm6uU/xBpBJXXH7xXaWHoATcEJjooDah1xAgTAbSSJhjjhONFiIEEWxPKxRGKqfKELEf0cR4iSR9/w+GQk1q+dw4lTQv2IaFDgIHFfAA+Nx6ofAwRcgIaCDn2kw0d3Gl++aH8VgrGYhVg0KQlNofZVZoPQsg6x/DPjyhQsX8DbTHCeZxfAj+KKnUDoPplSSKVFZDB25FoeGV5bY1Ox90KC62yzI3j9m6x+xDDGM1h2xFyIs3JbFCS7NXsK1N36O//3EbZxiiEGERTQs0QDBnojty9GAWoTJHHLaDqL7GdKlHFmUonaghsqBGm5/cgeNShPVmTqySoLo/gqCzEMwOYGVBwtoHJgCNVGVSoCVxSXavpjLAAAgAElEQVSMHz6IcGkJQa0uY48/7QAHYiR+jCAJ4GUUUIZrAgSjuTKkZZj5+MP9AP9w9yBmK08osXMJEEarY+7D2YwEQMhEhateRqWvZppc6LOUDyEnF6Oy15NbgdmluqJ6rAUIcHspp6D0Bur/WiugH2QjZOz+ZtjBUvpLvI80YncK69EWr5rFcqRpJmyEHDfLFJBIEiRpgjRJ5Xen05FS0lkcI4wIHCKEYYiww/TOEEmcyAPP7/H7aUqmQoVKDJARsMCQhWYZyFB4wlZ4AiaomfAJNPhZ4CPwgwJc8DN+N3A9VHQ2iA0oiqvl9WvLaWlYm3fVtRjefu89TExO4ic/+pGYNKn8ESXAdKnZyDNEcQSnwjBLQMjQI+MkC0r/h36QoApjfXNepUhxRO+1PHMKRM9euoRrv/0p/u7EHE7TKElKotIoqb9meu/AYMYfCgjyjoN0JUfcAsLFDnyPqZIOgokqlm8tYmx8DFGawKk4yDnpuw4qY00szS9j7OAUWvcXUK16WFoKMXVkCp3FFVQaNcRhjMpkgMq0g9jtKI1VTpFw3yDV86DpjAmFFNBKfLz3oIJ/fHAIs9WzKsTArItSpDiinXNvTmskAELOfH0NDgQgiNjAUa7KQv3rid6sevkZQwCWzkBqKUi4r5vBwBWrcgVQLJtLha92ChTnvx6kv/sWzv2Fm1SIQgEJ894wFPxtfgggFAOhWIsw7AhrIcAiihR7wbAHt9H7MuFPk+5J5sEINbmiJ0BouIGkkRoQUa1WpFIktRbVSqXQViiGQ7WXujWOpDm++/55jI018ZPXfyxTv8ewhwskvBFRBCeOkNKPoebDcyui4O5pcopONUDoifuWAAHPvfA8Xn3pJYzX63szEpRHGdgC5pm9cvESbvzmp/jbEzdxchPFmrrspCthhXAhQhylCKoBKs0aWg9bAkKCio9KrYqVhWUZw6oNH8hTAf4Ry7mPNRG32pItFMUpauMNyRDi39Moht8IEDTomBoj9WKlq0q7WQyyCNDsZU/WhR5fV0IP5xdq+Mf7BzBbKwFC+TioFhgJgOARIOgKisYMiACAoQXG9zMqiTUYVk7Lei2vwYB4G+iYvMTsdcaDAgMm+dCg6a4RkSITena8a/3CMAA9egHr+P3goWci1eyBSdXsBxUq5BFrxiFVIQ4CB4Y3oghhh4Aikm2EwTDhj1iHSxIVPiEH4AkbQ5CVCwuhtBCuvKerJSnOarUm4s1LVy5Llsmf/9l/RM2viBcCRZtcdHh5BofnFIUSP02CAJmrLaM11NDu0dalqnuhlSDq3lgir4Hve/wsuoKwXbuRu7DjUqS4C426Q7scaLUMWi1zICLgHRQk6x68y/wRDdOqXHshsBQ7n4k4k8/4jHHcylIlPnSZ9WNqoZgxiqneSSKLJ3V8MhxqvwLgXb7JkDE0ICxCdxFkxh1hWvUpC17ggiLN0cmr+GCxgZ/fnsTl2lkkIuQuGYQd6kZf292MAEBgR84QrrTQWl4Wm+UKyx6TsvZUJgA7vxH+SU0BK21RJhSCAz3Pa8ZMTTQGKJisAKlj0OtWsFcAYS96iAEZZlAyvznoGJEmr1eYiDRBmKaiizCAIQojJJ0QSUgNRYR2q610FgQZUSjCTm5PsMG/sbLk5OQkDh88iIcP5hG3QzRrNdQqvgp3uEA1B6abDYRjTaBeB1kKAzaqQYCqQ3bBlJU26ajMGlfgzQ6tiL0tBawWsDJpYCI01fe53wdjL9p+O8coRYrbab3d/e5Aq+VNAAQLKui3NqAwi5P+sIRxMbPVEIZj0yDYAGd+nHlaE6HoV7Fal+q0A9Q8ZpcCFLphy05aw/mHVfzs1iQu18kgEITwmdqbYF/pg7C7/Xgze+8Zc2dnL+Yc8PfvxXCBcgJLQxp+QIR6ZA6Ig+miyAlNTQzW5G6tLAufA9JqXPFqT4MCNOhUINIQzFyQiolmUioemN0PMexfG3ftYAvwwOmUBlRiXpkWegMJyUjog1kezPBSvhN80d2SIkyCBIKFVtgRfwjqKFiqusOcbgEPLbTay8iiEJUwgdvuYCHwsJSr1FOKLUXESCqVzIRPVqKCaoXhjgCNWh31Wg0sksWqlqKr8FV4gn8nWDQvwzJI6IMrLJ2NImml+9ngmzh2KVLcRGPt4abS67UIQXwQthBiGHi61lyv/t7XUwUBr89M2Ps1zotqldRlSk39lJ5t5ZoMVukeo5NWcX6+ir+/NYkrAhAI2mWk3JMWLwHCnjTzUAexU+lHgEGgNa+akJgvwFRBDu0i9NMMc9fTOIfHjpspRzFOZPKiRiHN5JmSWL5Qc8xQJkXW1yak54pURAsUiCjHfsDUk9TPcKvH2TJg1xS3mAxbLMbgx9vi9uRYduRdsRv9n9kPvD2QqPGjTzk4wLVRjXFqRVFMqvpEZS1e2Eer7bhmMCtw43kgbalX7sX4QwEnwxLMTuBvTV0mUYw8S6R2gwgx5x8Cyy3M5yniIEAchVhaXhYWgo6ZnZWW6Cc67RY6FGrGMZwkRRYr1oPgxWR6kHkgOKAIs1qtCoAgkKCOotGoIwgqqNWqClRUq/BcldFB3wsCze7Qqa5Vrk98KfS/TQPpiJYBmj39wMRxe9NlhNUamGFq3fIBU4E+ItvXQScO8Zvf/haXrl7G8y88j1e0BqG/L+3NkD3UWPLIb1SEGGyAsCUGQT+CqwaktXpFN6y6YSOLHatxQTLlWKUi3OqvFp1JVNxqSMmBdhroWgwECE8ikf68/wChd+TqXk7/SL1eGw3CWgNvw4YNPdobDApTr8po68twK4Y84yis2XnJqguC0dAgiMCwB0Wvnvi6t8am3Qb0f02dqemT0516SAraJM3hMM4nDBuzDdRDYuoiyOOqlbuuqyhvZXxkxI9rH78oqWxNIjIxDUw71BOKlVppF17aqCsyhbAo6qRZR6m+sLrkwtq7smKU6x1vvbux+nuqZLXgNi3C5MNMMSUndE74qo3VI57EKnWU4kp6S4hmQosyRYQZhqKb6HTaAiD43ugryFwQZBCoqGORoVAjHvdPYSbBBIEDAYWACW10ZZgJppFSpMm/S4oomQiaXlEFTj2GNtUS0MTENn3edpiDfcxkcCjVuu7PvPdFBk0XqfZP8Px2AuKoFt54+y1cvDIrAOHll15Cs9ErUqRGR+79Rh2k/PuOtMCaAIEra8liGH6lvyMntBs7sas5zk3jcl3XYqCT4h4xCNQunTlzCqdOneoxt0ss90hz6ZshWPi8sDBef2E6yZ56hB6ifnAwKMxqFnzGRdikyhMIcDys1+vyI2Ol/j0SDMJO93k1+UjmsWYB1ENsGsiAEbOylr9qGt1Q1GZ7E7vvj4WbSd9kBnC1Sfaj6MRaRKSwgZ4+qM7XIRAD3u2RXnDFkJ3WHpZsxtLWYGzYrkMChA3307NBFyDYH5v2M2EA1b78T9cW27S92cYWdpq/8X4YsyqT5WFEmcJKdDpot9sCLAzY4HuTKSIZH1rA2b1XqtENauaDw9BHvVKVh4XMRcWEQJgBwrRSshOuI+ERl4IzpnZq+25JP9UGV4a9MPNIz8rHgEOyMTmw0m7j92+9iYtXLuP555/Dqy+/hIna4CyGIbvJ5m5duXVPC+xaiGHk2nn/qzn2AwQzVssIPkhKsaZtdG/jEqAXmXF6P10H3ZG7EVs+IQMQjA+O7Ytje+YI62oBAYID83fbT6cI1e6/BmHLbbLBF7sAobti7cIG+8sGkZo0yUETW5du1yWP+yycqQ7milMhEeUhUKwyNY0n+9BuiT3H15oJMhD9dsSDsh54FOFGTEjDZHUQiuhzsL9nx5R6R8DN0A3D3qe1AcLqPUhJpyJuatrYnK8NJgYd3VyjLcA0wE55SKgf7s9kcZClMNkdho0wAMOACiPMFABCQyx6UYjaO5P2FTaJZ27cLj1HpakFFaHl5IdCTWZ20JOCD6GER+iUScGt+i2AwvSH3EUYRgIQZq9dFQbhWy++iEkCBCtTw/RqBTuVYLeYyPoayfx92DtXbre6BQoGgWmOv6YPwk2c3GqIYVQb2GYQWM1R12Jwd5FBsFe8wvb5Hh47cxonT57sEyarkK7N2wpoMP4p9kppnRhfz2aSUj+otN7e36BBYQEzX63FChh2oAi9csFC1jPolgIgI8AfLnCMhot/LxYxfQUN++c88+9HkkEoLlYqmKxBAdo9Tr/fzqqMAEG+b7KItPWq3GTz3rJyLqqyWTFqpTFSZ1GkJVmd3qaN5Gua9i4El9ZdHggQdB2LYrM9ZBAGP3omXrqdlh/+obaPIiCLGhY9+RowYcIi1EWEsUoNVRbbiWRzyI9keajsD5U22pGsDxFvMnWU4Q6CE62R6QJFCjNdVDRq93xP0HvFCxBIypyDTz7/DA+XF/Hcc8/hiccfQ13EmSpcUth4a6bCAAwT/lDgtDfVU01wfYPhbttxD39LRn9Lvdy8fOESbhqRYgEQdgNg732TsI+Ycs8/3wOAYC9Y+J4T19jYGE6dPIGpqcmuPojAQYdSVw3X/X3Y1Lmxms8wsvTD2SgQNDDjY5dvxVrggIc1q3melxFmGwAgY0aFeisVMjUgwGxnWARbzL3VS/nGAQRDOfU32Gbo/bUa26z+VyE//YVuJ7V8261UI0nVEwZAh0j6ik3Zx1UxNY2tzcPC+Zb51PrVTeHU1hAmw6OIawwa4NbXeJh9286U6ow1TSL+zRs9jqZBVDU6U6OhAFj6+0UoyFyPmgF7/rXZGLDsszg9q76HlVLJB4sOmqKWMODOvGfxHn1fCACUSyY9KJSRlTGzIoAQ9iFWnhR0zzQsRmJZcUuGTpzCjWnnnWCptUKhAw4fOYJK4CNst5RQ03hRMMQB17LjpoZC0YSmeJgwFtqum9dKIGJWG0qXqkui9w2mdv8yd7MIjRSCYY1h17vFxZdXC/S3MlCtdai9gJW2BuH6bywGQSTV5vkZsr9v5eL35Dt7G2IQzxVX9WECA6ZKz8xMi97Gnqh5f43lvhkVi7HN0l8WVjYDboNUwPS6afDm+3bowmbaesB2MdJ0Rzf1kToQl4SDzCrX65f9bK5pBxFf62fYTPqGjbQBgA0CDAAw4Uw1RKlz2ynA82gDhAG40YQT7OdOz7UbosyNntXe/jncRNvtcPZ02A2Wyf02PU47SCpooOykRYppsjkoUhx0zRRm6oWlnYHBXGfTmRQLoc5BOlcfQu9mUOmHpaC9i0fWwJqBrM0gSs+VehtAu8JKjy4qqSuW2bHflofPzarIcw7EDFuoLBcxehFa3RCPKtulZ3KTuGMPZJE2ZPEtfm5ESwzR0MlRWXb2rr4NYLTnOrONbjV1X4yZkxk0+kCdYSRET6GzMggqGK4wBlcEDzTLEW1Epuy5+T06ZraZ3dFWDAXdM+mWmYkfhbLwltLn0hpKXGvSOw3bYOsqBDQEKhQihcL0gGTHKE1dEEX7+qoSqQmdqd6ijsW3cuyuL5nqjl0Gw/Q1M2jp7qp8zKR2x+onphDjWzfUFhDb93kvxJrm3C9fuoTrtFo+fhOn6KQooTHWO/i6gwN1z1oppNzzz3dYpGicXNmfCldX38f4+JiAgqmpadTrNak5M4jYEmZ2QBMLOWxN1qbr9Y/RwhTqHRS217xzA4SL/K474GA+x09td2/2L4X8PBdOxZdFGUPKDBFLFRp9viZkatiAAsTrUAAn/v7J34QDuK39LPZP+nbIu2gJtpXtJNz3fG00fw36+yMOELbSJF+H75hVetETi0dlEG0lA7wenU3WBvsOJ6Pug6VRsdWp2NkMPunSVUrZL+ZGUnxJTZeSElg8sl23NoO21WTRO5NLWir9FQLAT4Fq4iJh2W0NEBKniiz34KYpgiwRUBQGjmxbS1gYz0FE9+y+AUT0AZnSCchEb50ZJ5VADw5UMoshTE/++N7dfzaHqbMh861dVVQDDd5P237biC1toSbDHLZ+wrw32grzHf7mvghUzKqJ+7fpTIllksJk7JJGVn4gLpnyvlLVYs2KCL8EZFQqPeEwAZcEaPSqkGtQFU9VmqmGVvKeacmDIXX/fMCB1+ht7LvTU7dll26beZ5mZy9BGITjN3E6s2ox0Jhol469d7u1GIQdBggFONTVaycmJnDw4AzGx8eVAJieKHsY8jLnE6QqG0jGv2IQ5LilxkT75UUJEKv0eaU9cpB5HuLAQ+779KkSYz838CWEyOfHxP9tEMD3igFgiECxfPaEzvc2G7B393/tI5UAYRTuwqbPoRcgDNIb2Ls01sXqaVC0mIgqrZGtUK3qh9Wg/QJBJBqyG9tn/bAUmgnxrdCpgFJRktiBKaLqTOxqjgWIoXpfHGJT1BdD+FGCcKKCSpJKrL9dpb1zDUGcodIKZaG/NOGj3skwvhBjcSJAUq8iyNSDJmtpZcGoVrqOK5MhH1r+TjwyBl0WQq1M9w8g2KuAfmC3llBTrtMCD/3vDWNhPCT4dwMmCByKzI8wLLI9jJOmSSs1WR6yL3pS8EfApA5NOFw705TM0/U61IBHC+5qTa2KVHyUgk0VIzUshS3U5Gqt/7qlwJDFwkjfpiDNpIvaxJwpeW5Sm/v0O0b/YzNig1Ze6z1+BYNgAwQp1mSlOe5FrGPTY8TwXzAahPPzNfxsmxoEu3+qeVeVtScwOHz4sIQTfF95zuxEjHz4q7S8T/oXKoY1lX7EhGPNomqxucewogx/ue7HAXxO8NUaao0GqnX2ewoCVf83TIGdSWAmf9M+5ndxrM1cyB5uWwKEPWzsnTtUH4Owzo57V9C9Gw69AuOKkKtA6+uG1jYMggpzqHAHXRaL2L1eJSZiW6UeUoOcjZt9+GAeDz/6Ap25Ozj09ElMTB3EF59+gTjp4Mmzj2OiMY4LH/wRlXoNx59/Est37mNh9ibyqTpO/OQ/IhavgFwGHFa/hOcjpjCJro1y7mq1EDCpmu6QrKLHVYAmzPeLQdi5/rD+nuxVXDEhWyDDDOSmIJhhGiTLQ6eF0mqb9tom8yNst3Xl0QQdKR4WipcFGSqGPqi/EPBSeFJ0S5iLyCrwUa+pfOtGs4ma0K01VD0PNZ1eShZCBlZOJoWRmea0GB6y4q1CYWtH0P4VqQzGOu4t4anNUK96214G4SbEvZA+CFZtmL26nzt+HDvEsE2AYIc7+TxOT08XwIBAQa2QWY9iDSvoHb84tUMDpM2ETI2RLGhssMBFjy7fzfNkKI76nbFGU4zY6rWG/FZhAfqmqOwkKYRH3xQpVqd+HpVXCRC+lndyeIAgmkFOhPbKy1BrO9iPe54zY+RjBfCNop8Pqkk9JDPHok55HmMmToErc7j0ycd47C//Eh585Neu4+Lbb+PgqdNwpsZVHYi5e2i7OR77zsuYfft9nD31BOau30Cn3ZYHl1R2Y2YawfQEbt+4gZX5RRyeOYD5W3dw5AffR/D0GUSBh8hV6YoMRaiyuDvYGF+DPjXoak2c2Jy+TKyuI7oWxSippTzttxlrNaEPARZpAtbyoAcFTa2Ysqk0FCr80WqtCMCQqqNiisUiYm0xx5Jwl1QqjYSRMNklDF+QiWhW+VMXoy2u0PjZWLOJRrVW6ClMmpdZlfazMxzwlctq3hMOW5c9UDOLbLImQDCJOF+De772KW5fpGja14AvMganT58WxkAc+XqA2QCHx11sPxNG4yEMMxpnKRzfk9AZrd8b9TqajQaa9apUqJUQQaUq4mCxhtciYdE0SPYT9+bK/7j4MMZ1ha5pF69nL3ddAoS9bO2dPNZ6KZz2cazO2/PxAIeytU5PCX36/rpKvaf/vupziWfIKr67C/WOq8vUy5A6ISbaLdx96zwqUYqxP/0eKrmLW7/4d4ylOaJqBc0nTqGztIToDxfQOlDHkddfw/1/O4+TXhMXPvkEz/3Z93Hpk89w4vRpLHdaaHU6qE6OI48TRIsrOHXmNN64eAXf+rv/glbVQUytg4iVzFnZGgl1EWI7LWfaq68QsKWC+H2NUvxhx+DGoIl8cMx7cwBnva3NqkrCFGwHrogK+l7Rrww7CPiUMuqUjyoQquh8HRKg/kCLM80qjoJMCXWwFHiaCJhYabWk4ig/XxZw0TW5Yv2PLIqQMfzUUZ+nXOVxBRqnhfiWwIKxXZYpr9VVDjgH/HqtrmjgSkXYCn5eMFj8DleR2kHTymnRKctdVH2ZIYbf/hT/9dgcTqVXIY+fS4EaRTBaX1HcGF00qVDw6Na2b5yQWQxvMeSluKziJSZrRiFvnhVlt2Z4L7OtMITSXe2eqvovV8nd3q24xG5YUYFiE39nmuNmQww2E2P6zMGDB3DkyBEcOnRY9Cd2Rpbahj/DAwQb6NmCR3NsmwEgE8gwIm3efRb9yyBpkq7vwan6EhZo1hsYb4yh2RgTI7R6swE06wC1N3RN1enqDEVSfOiyj1FvoPsc8aJU3jTZUHp89bjQoEic4+oj5IVeAoSdnLT3dF97K43a6Gh2pr2ZJtVvrXTvaRs1bCUurVgyTLXmkfzxIyzcuI2Df/It1MbHcev9T7DyYAFPvvICmIM+OTEhk33y5U0sN10c+cEruP/Gx5icmsTyZ1cx+b/8B9x+5xOcOvsY7t25i8qdZXhPH0fEaf7hMg4//Tj++G8f4Jn/9a+xXHfRcTJUmC4IBynDDf0zZlFhUk16ZiDqDkhW9kiRZ6X0DzIM7oAd8lopudRtrL4fnHF2d2TqP6ZpskF9w/7bRtClyz4ppbsq8a7ss1VqqMrgsA2txC3ThEAIKLQnBUMd3JaMhHLQZBqqKkZmKn5KyMKkhYr4kmJLpaFo6nCHSRkVVXkQ4Na1a7j17i/xX44+xGPxV3CRIqtUwFL1QZ7orBlm4RA4sOxyIiXT1bSslO1dRb4CXKIFyjxkzIbQjWgLOTX3V2TtyMTqtPUkKzk9qqPpstBSpl00HNy3i0TEoApUyG+h0Cn25cn4sk3uqM7USbKhshgMVW/EdHwe2EaTkxQfHsCBAwe2LbTrBx7mmev/vHAr1XUDqrmHaCyAP+HjaCeGf/UWsk6I02efQG1pBcvzdxGPNXDyqefQuvMAnbn7qB6Ygf+d57FYC1BJyAYoYLFUydGquZhYyRCkGXKffKeDhGnZgS/AWcKXezrm7/3BSoCw921eHrFY/jDlMEN0bRZ333oLBxoTcE4dBxXGF379Nl588WVgqoEo7GD+9l1ZrU1MTWB5ZUVWg3du3cLjLz6L++99jpkfv4ZbH3yGk4+dwYN794A7iwjOHpNVVLbYwvTp4/ji3c9w9sf/E9pVV3QIrtTlyBAbtsCiQX3tGSFrQ5OtYdXoskGDyeyTNEOZ7fTEsE11tswZG82u3WXnrgOEvei4ZsVohztscGaLZ7mtEWOacEePfoJ+E30/RohphJtFqXNtv81/SwhMZ5SY86GmIlucx8uHahhv34abrcDxMoyhjQk3Rs1zUEGGADkCL0HFi+G7OXwnBSGAfJ7ROSGH53JySeCKCKiCxK1LyXsvZ+gmESW9q/P4ergrlmr3NEVnDLC4T2bsZAQFCmUUvEfOo5lVu/qe40SExCIg5vQm3i0s1pS5m2YQyMYwhEBQMD09JW6IbLutiA8HaRJs61/jAGinBRpGSPkGVNCoVOEHDiYJhD67gLuffIbx5x+He+wI8LtPEUQRnOdOw2uO48PfvIn/8K3X8MVHH+Poi0+jQwFiykrCHtIoRjA9LtlVWGghCzuoNhtYilIEh44gOHYM7UBBg6Efz714eHbhGCVA2IVGLXc5XAuoFXKO5OEDxFeuIl/pIJyeQLNeQzx3X9B5NjOG8ZlpLF+7DS/wUHv8GDC/gujqHSSHxzF2+ijSq3eRnTqA9MGSUIYU1HntBMl4VVIx806MYLyB8O4KGiePSWokS11DWyfLNv1CJsbcUz3Ri05CmyZZ/g+mqJcZKGzQIL4LPdR871Bith20OrLwUyF4siUkvb4EamulD3g01jM2fTxIS8DrNWK4fkFi0XZ9QkS7pooS0lLzoJgGTmrGxMrYbNtsBT/LojZocOX5Y1hebiNqzSONl8AMuDTJ4MRteGkHfhbBRwQv6yDIY9TcBDVS3khRzXPUXAdVN5XPq26OmhOhlrdRcVJUnASBE8NjSM5T6XDEA56j0lJ95AJCJD00TzUzQAhbRe74qoIq17YMLbgEG6HmDjTbQEdOneLbDZMpONtOPbz3oIaf3+5aLZNtKIJsGjwzPENgwDRFAgNqDci2KFjSyyX16g5MP1UiUbv/G4W/Uf+bjBfbLdCkDdqmYAY0mJk68RnKjHF0oY2Hv34LrdtzqJ86BP/AIbTnl5AstjA5Po5KpYbP52bxgx/+BT574214nQ6WFhdF1xKHIWq1Orx6Da2wJWAnWV4W9rJ66DhW6k2c+I9/ioVawNSsEiAMN9SXW5UtsJUWYD0JNbA0mMqY5FgOHHT8DHWytCxgFND8CRiP1b+Xa0A9BiY6wMMq0PEh23LS90it6tmagyjjgXxJ+XAHYsRkSlwXaoE1QgF2iEBNWLa3gxpUizlIG1hJKqAeI/mLGoaB9PsAH/T+/Gdjo2ytBwcuV7oCrEesPN1WutM2vmOoczNxGVMrFfLIgLSNLInQSSroJB6SuIU0WUEcZkgihjFCZEkbcdTCSuRiKakg6bSQxR0BF3GnhTTmNjGQRsjjDpCEcNMINURw0hgeYgQO2YYUDSdG1eG/UwEXFSdH3ckxmRFE5PK5bOsBFTeCrxkLz03hOxlcx4OX1QREsNcbRiJ1PGENRDWS82+s16islv9wv4J/uHMAs7Unwe0MQDATOFfsMzMzwhp0gYFqdPb9fsLMAAHb+te2DbZrB5gqq8Y3wIAEc+yN/AH4nIUBn7cEhxbamP/Vm6iGHUxOjqO12ILz3OMSQlh482M0p8dwvXUbr/3kP+Gj372BRgTxNJg6dRQrDx5ibHISC3fuofVwEYfOPYYgirF08x6OPHkOn127htOv//85ZRUAAA44SURBVDkWGjU4OT1NHw1QvtajUzII2xhUyq9urwVMSlHsuagkjoQWOOG3gxS1VLmdhdSAQRkjcaWfaHclggURA2kvA25rdAQyOTNLwbJY5D4irsxMdTfr1AfpBWxHP3vtr0BBH5VrKIQefyhVg0PGYfmxhWgq/99OPzSzf9c2Vq3duEbpOsBp4RqXlbYLpgAOwiBt/atDIeosNSXda3Jo13/quYkFcFqV1NrFJ2vpUXaKbu3fz9r6l506Ytei1rSYYmW6++daOmfIQNci4zmlnIjJ1ucq04PbRBkpBcBLcnHENCEP1vMImemRmPoeqrR5GlKAGSoBJmt/RKzxESEJO0ijNvK4DScN4SYdUhXI0wxuliimIo8lJMGwge8mwi7UyFQgQSUHxsk4OBlqbowq/06WwiV55iAQLwsNMMh2IcP5+z7+8c4ULlfPIpPVcSrOnONj41IjYXp6Bs1mAz4rmEpWCC/eiCOV4ZZx62SV036rYIYBCqdAFjTzA3H2NI6BxoWz2+p97za83R4yJ0Wd2pQPv0Dr8hWMjdUo9IBz+DB4a5au3MCxUwdx46vPcOKJx3Ht2k2cOXAK9zpt1E4fRfRwEY3JMbRu30f0YBHj504jdDMs37qPM489gU+uXMTjf/l9LNeq4vTq7Uo9m+2Nqzv57RIg7GRrlvvaVAsoJz2yCBR3MeVQ2ZVSQSwe7AQBerKzKVHjoy6ZERogcFt7vS4+NkreXWjJBVxIJTd72lw7jqi/bmUsWKzBgCuVcG4hNltrvyaGrGCGOUP7ewJwJJVKicv4f4rszLWIo5tQvt00PF6aITxNJoFIRPtqc6wObWjAw3a0JkU79GGAjFnFKYxkXajxSDQptZvqBb0b95Tm1YcorJZXIQcTX9/GAQd9tbi27gFpqMXToYiNwJarcPZblT1A4KalgAwJ5CmqaayF7vo+6fblRCyCeEkd5S1OAdbyEBtu5ZoZpynChE6nNKpKkMYdJFGoioPRRCzsIA7biDpt8Z8IpaBYIkCDwCJPIrhZCi9ty3syFg7BREZH0kgYCj9TYKfiOsJOuE6IGyvAV8tVLFYPAUENY+NVTE6NY2Z6BvUGja+qhcER3QIp3qR/BT8XgyytBfD8QNIHBSBI9VL1Y+zceT+ZPttzOw2TZ4eGKCYVO/Zu3rQ8L9o2vZ/fVwJNagkyePOLWLh2Ux72+tQ4vDCXMIPfrGH8xAEsz91CtNKG32hgavoA5tsteJNNsBw8QUvaiRC3O6jNTCFEis5KCwemZ3B7/j4OnjmBhOXeMz5xJYOww09fubuyBcoWGKYFVLmoAevnntoI3aqUMuD2gQnbf8Icsyc1rC/cIQO5SeMqRFhdBYRkMVL9vhmzoWEuVm9j2BxbcyETyqDVo2guNlxWbuLo29vUPuct70kXB9O3UvlOUCsjOERleYhuQtfrML4iticFgQQ9KMhQiLFVqCqNtsM2OkkbYdyRCZApfFkYA1EIN+pgOYzxYCmE35zE9KGjOHRkChMTTfEXIXNA+20JAWhAQAaA/YWsgPQb1TkE/IixlZgi9b6EeTGlmgeB7L7PCBCYLWC3rQDoAdhQPssV80j3Q4+AS4zTPLgJmReV8phVlCdGLhojbdgk+bqOhCWp4ZAaJ9rUjZ4JvC5J56WPhucKmHOEZRmd/rflPrfOF0sGYTdatdxn2QI70QKkRmVR1A1JdCsadNMvJYVPF4vRie3F0SXv3Sz29QRjhzbsiZ6DsbgRiuugGvhUUazuS6ySPd+qGgexXJbDDEoX3UQ7yHVK1l0ftbxWyuiIAYRNXOrATW3hZb/4sh+Q2QyPeW+EmNw5PyNQMEJBCXVkqRiExRkriMbIqZ2IKMBMEbcirCwtCeBq0EeCnhH1CipVFQKgaRXvs+gJuPqnZ4CUHVdsUlEhVJciN14Y4lg4ACTIR93o12pWQNNrImS2MzMK5LQaGgrwMCFE1m9xfWEExBQpB6oUU7qu+GgYBsOVVE8yOZlcV2rYCmPXTj+JOBE2hCCsYNF4HKaIlgBhu92+/H7ZAmULbK0FdMC778uDqtvZ5WvtwdcUpBnm+AQIJnTAAdOMxWZyMg6Y/FzVZlAvVVGSpcbFNakLTvRkYefM96aHrmZHxJRJ08gGJsgkoZkO28pXBVUe7RXcMPdt6G2k/oqu7KpuHNI4RRiniP0KfNdB4LHGBrdTpefN9K6KbunCW1p3wM+kbwhrpZw2aTtsMwe5r0y0DGgR0aG5a7x1mg0zYQNluqVW8NLPtK+IeEZYF2rrhkyfEgMtY8VE7wJWPdUTvxuouiFSbIl266bqu9lpEeLoiSgW+1vVy4TSerTDC9KWs7MXc1JR5atsgbIFRq0FhgcIZmDsv4K1BX4bXav1TYuBMKO0vaJltUY136hJxGgozGRuT+rmvRG0yfdYM8PzlMOh+qCgdDn4s+ZCQQXbp/2IMQgb3ZHt/p3kv58kcFhuXNfMYAjKr1YQV31wNS1shISP6K2g7quKbqgZWlkv6fst4ltTatxR5cu5/wJAKFt1c49NnxGhp16ps5ZB4XNBcMm+QA8SXYeDrIARHxcZJqoAfM9LwgFagyBhGGHCUulT3FfquxLaYJiBfgf2fs2OCBwGlRAX8LsKIey+Mdl27/dOfL8ECDvRiuU+yhbYlRbgRLnalnYQgzDIdZGD2qAyyYNOtYjr6j8O8hco0j37B2cziZgSIVL9lvFak73R/YKZJDhBmQJfEltPKdJLtCW3mqCKMAdZBc1GFIkFFLX6vprIZOayloIaxdDJcD0KuIBA629mM+E979cCZZvtCgPlFQN3shZbsjYM7F6acpJM0w7SJJasGqlIWKGHgeL62dOY+EgTJSY/mj4lEyQrGrJ2Ce+FHE4Hn0wVVR3mMqEG0zbG2ln2wQ7B6qq8d/rE6HJpWCtO3gZkKlEukPkUg6rrlv/qe0otgbr3qo8RENRpGMXJnyWbA1+AD9kMQtZYSrsrzolOiXxPkGApheWcTE0Fu/kldNHf9CWDsNluXm5ftkDZAjvfAlvnALZyLgUdbI2dajrozfyw9701kn/ViKt3qaqCiqZCU9xcbdL1UiYM7XDImYH++OZ8XarKrV2qGHlvtT7buEfeqxlHOWXa3y3+YfPP1gZ6gjTz1dauX12uZJ/03WL+c/hJiRO1TL+rbrfSrqi7JxoEruY5SRZZBfY1qRTZtXqbJRcoWITe8I5dyaJXVDiwH+oOtSpE1IPamH6pqoLKuenfDIWxBLxKIc6kciizOfLFtgDMrOqhOj0h5mg0KyPYsfvwVp6L1d/Zzl3fmTPYi72UDMJetHJ5jLIFyhYYogVWMyZdytuavEwGhZ5MjJLfDnsogKFj5PrIBZVtrUglklxYZOtJW/QO5nRVGV+txjN7KmjxYRmatS5+1YS8mgjpfnXgqtUUcOo9gt0mFNfxxbREli8e6D45kvn8kgxawJYiRZdaCl38TTETSv/gRqwSmihRou8hqFeRSLjq0RcTDvFwbWmTEiBsqdnKL5UtULbAzrfA4JCKWh/rFapeysrEPmDhXMSpLSMqe/VpG1SJ5wJDHay9YApqWDbABnCo+Ht3xaiJB7n8jHFzLazkv/t9JjZqI6bUGQrdXuUqg1EFH4oJfQ2AIA4W1rZSTltfk6TlaQMj2Y91rj3nNqIAYVCITZrGql+vwgy6tKiwMkqIyVRLSh0Mg7DRvSj/vroFSoBQ9oqyBcoWGJEWGAwQ5OQGcN/bJXkLkNG3e2VS1T2gHdYwiv2C9tYGSnb4wm5MO2uDn5sCRMU2xB62X4Ch0/UGPav9NRkEhhKoL1ApqqaglQj0TNqh3p9c1UDRg3bhHJGeoE5jbcAo3hgDzlUElVZarDJLMz8jdXFfi5MpAcLX4jaVJ1m2wDehBdYWZRqxm90KO0Lv902Wtgaj63Npjtp17Cki7tRJaMMdmdKsuH/xLQtsKEmA0lgIeNB22jJv898aLLBGCd+r1Dzz4vbWRK71BVmqKlAa62N+x9Q/KL5pMgsGoqpRVeSvAxAGPA62lsNYpYtosgAJ34RnaGevsQQIO9ue5d7KFihbYFstMCBrQy8mV+12jVXksIdfU/45sEx3b7EuM2sre1+z2lWLXtHf6YnY+ATo/E3xC+gxPVI1k4oFs1kXS50S40OgT1SodIZE4kQsiANmG8QJ4k4It+IjGKvDadSQea4UQRMbYKMuXbdRRnmFvYYAcy32wGKDdICm9MoY9oEY1KalD8I2Wq/8atkCZQuULTBUC5gc0F5YIqmgFhWiQgraqIhMgzasEoaBFQvbHXSWW6jAAWsJOkkqPhGVZh2V8SaywEOi0/KckdQVDNVY5UYj0gIlgzAiN6I8jbIFyhZ4lFtgMEBQuZb9jnzU7jOFkz/dmMD/394dpSgMAwEAbene/4iL56isLtOkFYsKfgQy4flTUInTN4UONZlsLQiiQ+BfbP+8THPsBxBLIn/mbVlk6UFQxiplRo/zCkbO8XjnpkAYL6fOiACB7gS+LBBiD4P4myCeMNQaYTvUyfqx+qJ0NZym61JWQpwb/XiC0N1FkC4gBUK6lAmYAIF8At8VCHHrL7f/59f+zvFJ3Ub6aEdcv166IHqCkO866StiBUJf+RANAQJDCtTJduc+2W9a9sZmSbGx0qsC4ZgXWedH7h2l9yKhHOdpuY2/mdCQl0pHJ6VA6CgZQiFAYHSB803/UzeHt+ssPiI9Zu+Pbun8WgsoEFoLG58AAQIECCQUUCAkTJqQCRAgQIBAawEFQmth4xMgQIAAgYQCCoSESRMyAQIECBBoLaBAaC1sfAIECBAgkFBAgZAwaUImQIAAAQKtBebL5fe+rmvr3zE+AQIECBAgkEjgH2BNHbNhtyXqAAAAAElFTkSuQmCC;" parent="1" vertex="1">
          <mxGeometry x="460" y="86.63" width="176.88" height="127.22" as="geometry" />
        </mxCell>
        <mxCell id="REj6nJelkutOHJJyov5u-14" value="&lt;font color=&quot;#000000&quot;&gt;一拖N对象&lt;/font&gt;" style="text;html=1;align=center;verticalAlign=middle;resizable=0;points=[];autosize=1;" parent="1" vertex="1">
          <mxGeometry x="510" y="66.63" width="70" height="20" as="geometry" />
        </mxCell>
        <mxCell id="REj6nJelkutOHJJyov5u-15" value="&lt;font color=&quot;#000000&quot;&gt;用户选择垃圾类型&lt;/font&gt;" style="rounded=0;whiteSpace=wrap;html=1;fillColor=none;gradientColor=none;" parent="1" vertex="1">
          <mxGeometry x="110" y="550" width="130" height="32.5" as="geometry" />
        </mxCell>
        <mxCell id="REj6nJelkutOHJJyov5u-16" value="&lt;font color=&quot;#000000&quot;&gt;扫码，&lt;br&gt;对应箱门打开&lt;br&gt;投放垃圾&lt;br&gt;箱门关闭&lt;br&gt;&lt;/font&gt;" style="rounded=0;whiteSpace=wrap;html=1;fillColor=#ffffff;strokeColor=#000000;strokeWidth=1;" parent="1" vertex="1">
          <mxGeometry x="118.75" y="660" width="112.5" height="70" as="geometry" />
        </mxCell>
        <mxCell id="REj6nJelkutOHJJyov5u-17" style="edgeStyle=orthogonalEdgeStyle;rounded=0;orthogonalLoop=1;jettySize=auto;html=1;" parent="1" source="REj6nJelkutOHJJyov5u-18" edge="1">
          <mxGeometry relative="1" as="geometry">
            <mxPoint x="300" y="795" as="targetPoint" />
          </mxGeometry>
        </mxCell>
        <mxCell id="REj6nJelkutOHJJyov5u-18" value="&lt;font color=&quot;#000000&quot;&gt;提醒用户获得积分，引导用户去商城兑换&lt;br&gt;&lt;/font&gt;" style="rounded=0;whiteSpace=wrap;html=1;fillColor=#f0fff5;strokeColor=#3ce4bb;" parent="1" vertex="1">
          <mxGeometry x="115" y="770" width="120" height="50" as="geometry" />
        </mxCell>
        <mxCell id="REj6nJelkutOHJJyov5u-19" value="&lt;font color=&quot;#000000&quot;&gt;社区垃圾箱积分管理&lt;br&gt;&lt;/font&gt;" style="rounded=0;whiteSpace=wrap;html=1;fillColor=#f0fff5;strokeColor=#3ce4bb;" parent="1" vertex="1">
          <mxGeometry x="301.88" y="770" width="163.12" height="50" as="geometry" />
        </mxCell>
        <mxCell id="REj6nJelkutOHJJyov5u-20" value="&lt;font color=&quot;#000000&quot;&gt;账号积分统计数据页&lt;br&gt;&lt;/font&gt;" style="rounded=0;whiteSpace=wrap;html=1;fillColor=#f0fff5;strokeColor=#3ce4bb;" parent="1" vertex="1">
          <mxGeometry x="301.88" y="700" width="163.12" height="50" as="geometry" />
        </mxCell>
        <mxCell id="REj6nJelkutOHJJyov5u-21" value="&lt;font color=&quot;#000000&quot;&gt;商品管理页&lt;br&gt;&lt;/font&gt;" style="rounded=0;whiteSpace=wrap;html=1;fillColor=#f0fff5;strokeColor=#3ce4bb;" parent="1" vertex="1">
          <mxGeometry x="301.88" y="850" width="163.12" height="50" as="geometry" />
        </mxCell>
        <mxCell id="REj6nJelkutOHJJyov5u-22" value="PC端&lt;br&gt;账号角色&lt;br&gt;owner、admin" style="text;html=1;align=center;verticalAlign=middle;resizable=0;points=[];autosize=1;" parent="1" vertex="1">
          <mxGeometry x="340" y="630" width="90" height="50" as="geometry" />
        </mxCell>
        <mxCell id="REj6nJelkutOHJJyov5u-23" value="小程序端&lt;br&gt;需要新增账号角色：&lt;br&gt;user" style="text;html=1;align=center;verticalAlign=middle;resizable=0;points=[];autosize=1;" parent="1" vertex="1">
          <mxGeometry x="111.25" y="495" width="120" height="50" as="geometry" />
        </mxCell>
        <mxCell id="REj6nJelkutOHJJyov5u-24" value="&lt;font color=&quot;#000000&quot;&gt;展现对应二维码&lt;br&gt;&lt;/font&gt;" style="rounded=0;whiteSpace=wrap;html=1;fillColor=#f0fff5;strokeColor=#3ce4bb;" parent="1" vertex="1">
          <mxGeometry x="115" y="600" width="120" height="40" as="geometry" />
        </mxCell>
        <mxCell id="REj6nJelkutOHJJyov5u-25" style="edgeStyle=orthogonalEdgeStyle;rounded=0;orthogonalLoop=1;jettySize=auto;html=1;entryX=0;entryY=0.5;entryDx=0;entryDy=0;" parent="1" source="REj6nJelkutOHJJyov5u-26" target="REj6nJelkutOHJJyov5u-21" edge="1">
          <mxGeometry relative="1" as="geometry" />
        </mxCell>
        <mxCell id="REj6nJelkutOHJJyov5u-26" value="&lt;font color=&quot;#000000&quot;&gt;商城详情页&lt;br&gt;&lt;/font&gt;" style="rounded=0;whiteSpace=wrap;html=1;fillColor=#f0fff5;strokeColor=#3ce4bb;" parent="1" vertex="1">
          <mxGeometry x="120" y="850" width="120" height="50" as="geometry" />
        </mxCell>
      </root>
    </mxGraphModel>
  </diagram>
</mxfile>
